<svg viewBox="0 0 104 54" fill="none" xmlns="http://www.w3.org/2000/svg">
<rect width="87.9048" height="26.2893" rx="1.64308" transform="matrix(-1 0 0 1 104 21.3838)" fill="#022C52"/>
<path d="M99.7292 53.4813C100.001 53.6807 100.383 53.487 100.383 53.1503L100.383 46.5681C100.383 46.3412 100.199 46.1573 99.9725 46.1573H91.0149C90.6181 46.1573 90.4519 46.6641 90.7717 46.8991L99.7292 53.4813Z" fill="#022C52"/>
<rect y="3.04248" width="74.0308" height="22.1401" rx="1.38375" fill="#7FE3FF"/>
<path d="M3.31847 29.9668C3.09 30.1347 2.76768 29.9716 2.76768 29.6881L2.76769 24.1447C2.76769 23.9536 2.92257 23.7988 3.11363 23.7988H10.6574C10.9916 23.7988 11.1315 24.2256 10.8623 24.4235L3.31847 29.9668Z" fill="#7FE3FF"/>
<path d="M30.3031 41.0144H28.5128V29.2104H30.3031V41.0144ZM35.3676 32.4573C36.4296 32.4573 37.2312 32.6924 37.7724 33.1628C38.3186 33.6331 38.5917 34.3664 38.5917 35.3627V41.0144H37.3248L36.9834 39.8234H36.9227C36.685 40.1268 36.4397 40.3772 36.1869 40.5744C35.934 40.7716 35.6407 40.9183 35.3069 41.0144C34.9782 41.1156 34.5761 41.1661 34.1007 41.1661C33.6 41.1661 33.1524 41.0751 32.7579 40.893C32.3635 40.7059 32.0524 40.4227 31.8249 40.0434C31.5973 39.6641 31.4835 39.1836 31.4835 38.602C31.4835 37.7372 31.8046 37.0873 32.4469 36.6524C33.0943 36.2174 34.0703 35.9772 35.3752 35.9317L36.8317 35.8786V35.4386C36.8317 34.857 36.6951 34.4423 36.422 34.1945C36.154 33.9467 35.7747 33.8228 35.2841 33.8228C34.8644 33.8228 34.4572 33.8834 34.0628 34.0048C33.6683 34.1262 33.2839 34.2754 32.9097 34.4524L32.3331 33.1931C32.7428 32.9756 33.2081 32.7986 33.729 32.6621C34.2549 32.5255 34.8011 32.4573 35.3676 32.4573ZM36.8241 37.0013L35.7393 37.0393C34.8492 37.0696 34.2246 37.2213 33.8655 37.4944C33.5064 37.7675 33.3269 38.1418 33.3269 38.6172C33.3269 39.0319 33.4508 39.3353 33.6986 39.5275C33.9464 39.7146 34.2726 39.8082 34.6772 39.8082C35.2942 39.8082 35.805 39.6337 36.2096 39.2848C36.6193 38.9307 36.8241 38.4124 36.8241 37.7296V37.0013ZM44.6879 32.4573C45.6336 32.4573 46.3695 32.7025 46.8954 33.1931C47.4265 33.6786 47.692 34.46 47.692 35.5372V41.0144H45.9093V35.871C45.9093 35.2186 45.7752 34.7306 45.5072 34.4069C45.2391 34.0782 44.8244 33.9138 44.2631 33.9138C43.4488 33.9138 42.8824 34.1641 42.5638 34.6648C42.2502 35.1655 42.0934 35.8912 42.0934 36.842V41.0144H40.3107V32.6166H41.699L41.9493 33.7545H42.0479C42.23 33.4612 42.455 33.2209 42.7231 33.0338C42.9962 32.8416 43.2996 32.6975 43.6334 32.6014C43.9723 32.5053 44.3238 32.4573 44.6879 32.4573ZM52.233 41.1661C51.2317 41.1661 50.4275 40.802 49.8207 40.0737C49.2188 39.3404 48.9179 38.2606 48.9179 36.8344C48.9179 35.3931 49.2239 34.3032 49.8358 33.5648C50.4528 32.8264 51.2646 32.4573 52.271 32.4573C52.6958 32.4573 53.0675 32.5154 53.3861 32.6317C53.7048 32.743 53.9779 32.8947 54.2054 33.0869C54.4381 33.2791 54.6353 33.494 54.7972 33.7317H54.8806C54.8553 33.5749 54.825 33.3499 54.7896 33.0566C54.7592 32.7582 54.7441 32.4825 54.7441 32.2297V29.2104H56.5344V41.0144H55.1385L54.8199 39.8689H54.7441C54.5923 40.1117 54.4002 40.3317 54.1675 40.5289C53.9399 40.7211 53.6668 40.8753 53.3482 40.9916C53.0346 41.108 52.6629 41.1661 52.233 41.1661ZM52.7337 39.7172C53.4974 39.7172 54.036 39.4972 54.3496 39.0572C54.6631 38.6172 54.825 37.9572 54.8351 37.0772V36.842C54.8351 35.9014 54.6834 35.1807 54.3799 34.68C54.0765 34.1742 53.5227 33.9214 52.7186 33.9214C52.0763 33.9214 51.5857 34.1818 51.2469 34.7027C50.9131 35.2186 50.7462 35.9393 50.7462 36.8648C50.7462 37.7903 50.9131 38.4983 51.2469 38.9889C51.5857 39.4744 52.0813 39.7172 52.7337 39.7172ZM60.1044 41.0144H58.3141V29.2104H60.1044V41.0144ZM69.3109 36.7965C69.3109 37.4944 69.2199 38.114 69.0378 38.6551C68.8558 39.1963 68.5902 39.654 68.2413 40.0282C67.8923 40.3974 67.4726 40.6806 66.982 40.8779C66.4914 41.07 65.9376 41.1661 65.3206 41.1661C64.7441 41.1661 64.2156 41.07 63.7351 40.8779C63.2547 40.6806 62.8374 40.3974 62.4834 40.0282C62.1345 39.654 61.8639 39.1963 61.6717 38.6551C61.4795 38.114 61.3834 37.4944 61.3834 36.7965C61.3834 35.871 61.5427 35.0871 61.8614 34.4448C62.185 33.7975 62.6453 33.3044 63.242 32.9655C63.8388 32.6267 64.5494 32.4573 65.3737 32.4573C66.1475 32.4573 66.8303 32.6267 67.422 32.9655C68.0137 33.3044 68.4765 33.7975 68.8102 34.4448C69.144 35.0922 69.3109 35.8761 69.3109 36.7965ZM63.2193 36.7965C63.2193 37.4085 63.2926 37.9319 63.4393 38.3668C63.591 38.8018 63.8236 39.1356 64.1372 39.3682C64.4508 39.5958 64.8553 39.7096 65.351 39.7096C65.8466 39.7096 66.2512 39.5958 66.5648 39.3682C66.8783 39.1356 67.1084 38.8018 67.2551 38.3668C67.4018 37.9319 67.4751 37.4085 67.4751 36.7965C67.4751 36.1846 67.4018 35.6662 67.2551 35.2414C67.1084 34.8115 66.8783 34.4853 66.5648 34.2628C66.2512 34.0352 65.8441 33.9214 65.3434 33.9214C64.605 33.9214 64.0664 34.1692 63.7275 34.6648C63.3887 35.1604 63.2193 35.871 63.2193 36.7965ZM74.8382 32.4573C74.9798 32.4573 75.134 32.4648 75.3009 32.48C75.4678 32.4952 75.612 32.5154 75.7333 32.5407L75.5664 34.2096C75.4602 34.1793 75.3288 34.1565 75.172 34.1414C75.0202 34.1262 74.8837 34.1186 74.7623 34.1186C74.4437 34.1186 74.1403 34.1717 73.852 34.2779C73.5637 34.3791 73.3083 34.5359 73.0858 34.7483C72.8633 34.9556 72.6888 35.2161 72.5623 35.5296C72.4359 35.8432 72.3727 36.2073 72.3727 36.622V41.0144H70.5824V32.6166H71.9782L72.221 34.0959H72.3044C72.4713 33.7975 72.6787 33.5244 72.9265 33.2766C73.1743 33.0287 73.4575 32.8315 73.7761 32.6848C74.0998 32.5331 74.4538 32.4573 74.8382 32.4573ZM79.3337 41.1661C78.3324 41.1661 77.5282 40.802 76.9213 40.0737C76.3195 39.3404 76.0186 38.2606 76.0186 36.8344C76.0186 35.3931 76.3246 34.3032 76.9365 33.5648C77.5535 32.8264 78.3652 32.4573 79.3717 32.4573C79.7965 32.4573 80.1682 32.5154 80.4868 32.6317C80.8054 32.743 81.0785 32.8947 81.3061 33.0869C81.5388 33.2791 81.736 33.494 81.8978 33.7317H81.9813C81.956 33.5749 81.9256 33.3499 81.8902 33.0566C81.8599 32.7582 81.8447 32.4825 81.8447 32.2297V29.2104H83.6351V41.0144H82.2392L81.9206 39.8689H81.8447C81.693 40.1117 81.5008 40.3317 81.2682 40.5289C81.0406 40.7211 80.7675 40.8753 80.4489 40.9916C80.1353 41.108 79.7636 41.1661 79.3337 41.1661ZM79.8344 39.7172C80.5981 39.7172 81.1367 39.4972 81.4502 39.0572C81.7638 38.6172 81.9256 37.9572 81.9358 37.0772V36.842C81.9358 35.9014 81.784 35.1807 81.4806 34.68C81.1771 34.1742 80.6234 33.9214 79.8192 33.9214C79.1769 33.9214 78.6864 34.1818 78.3475 34.7027C78.0137 35.2186 77.8468 35.9393 77.8468 36.8648C77.8468 37.7903 78.0137 38.4983 78.3475 38.9889C78.6864 39.4744 79.182 39.7172 79.8344 39.7172ZM91.0588 38.6172C91.0588 39.1684 90.9248 39.6337 90.6568 40.013C90.3887 40.3923 89.9968 40.6806 89.4809 40.8779C88.9701 41.07 88.343 41.1661 87.5996 41.1661C87.0129 41.1661 86.5072 41.1231 86.0823 41.0372C85.6626 40.9562 85.2656 40.8298 84.8913 40.6579V39.1179C85.2909 39.305 85.7384 39.4668 86.2341 39.6034C86.7347 39.7399 87.2076 39.8082 87.6527 39.8082C88.2393 39.8082 88.6616 39.7172 88.9195 39.5351C89.1775 39.348 89.3064 39.1002 89.3064 38.7917C89.3064 38.6096 89.2533 38.4478 89.1471 38.3062C89.046 38.1595 88.8538 38.0103 88.5706 37.8586C88.2924 37.7018 87.8828 37.5147 87.3416 37.2972C86.8106 37.0848 86.363 36.8724 85.9989 36.66C85.6348 36.4476 85.3591 36.1922 85.172 35.8938C84.9849 35.5903 84.8913 35.2034 84.8913 34.7331C84.8913 33.9897 85.1846 33.4258 85.7713 33.0414C86.363 32.652 87.1444 32.4573 88.1154 32.4573C88.6313 32.4573 89.1168 32.5104 89.572 32.6166C90.0322 32.7177 90.4823 32.8669 90.9223 33.0641L90.3609 34.4069C89.9816 34.24 89.5998 34.1034 89.2154 33.9972C88.8361 33.886 88.4492 33.8303 88.0547 33.8303C87.5945 33.8303 87.243 33.9011 87.0003 34.0428C86.7626 34.1844 86.6437 34.3867 86.6437 34.6496C86.6437 34.8469 86.7019 35.0138 86.8182 35.1503C86.9345 35.2869 87.1343 35.4234 87.4175 35.56C87.7058 35.6965 88.1053 35.866 88.6161 36.0683C89.1168 36.2604 89.5492 36.4627 89.9133 36.6751C90.2825 36.8825 90.5657 37.1379 90.763 37.4413C90.9602 37.7448 91.0588 38.1367 91.0588 38.6172Z" fill="white"/>
<mask id="path-6-outside-1_221_1372" maskUnits="userSpaceOnUse" x="30.769" y="9.9668" width="10" height="11" fill="black">
<rect fill="white" x="30.769" y="9.9668" width="10" height="11"/>
<path d="M36.7145 10.6926C37.8517 10.6926 38.757 11.0128 39.4305 11.6531C40.115 12.2935 40.4573 13.1547 40.4573 14.2367C40.4573 14.4906 40.4297 14.7942 40.3745 15.1475C40.3303 15.3904 40.253 15.6885 40.1426 16.0418H33.1704C33.1594 16.1191 33.1538 16.235 33.1538 16.3896C33.1538 17.041 33.3526 17.5599 33.75 17.9463C34.1586 18.3328 34.6885 18.526 35.3399 18.526C36.3667 18.526 37.1561 18.1009 37.7082 17.2508H39.7452C39.3256 18.0899 38.7073 18.7799 37.8903 19.3209C37.0733 19.8509 36.1293 20.1158 35.0584 20.1158C34.2966 20.1158 33.6286 19.9668 33.0545 19.6687C32.4804 19.3706 32.0332 18.9455 31.713 18.3935C31.3928 17.8304 31.2328 17.1735 31.2328 16.4227C31.2328 16.1025 31.2659 15.7603 31.3321 15.3959C31.4977 14.4575 31.8345 13.6349 32.3423 12.9283C32.8502 12.2107 33.4795 11.6586 34.2303 11.2722C34.9921 10.8858 35.8202 10.6926 36.7145 10.6926ZM38.4865 14.6838C38.5086 14.4851 38.5196 14.3415 38.5196 14.2532C38.5196 13.646 38.3154 13.1657 37.9069 12.8124C37.5094 12.4591 36.9905 12.2824 36.3501 12.2824C35.6767 12.2824 35.0694 12.4977 34.5284 12.9283C33.9874 13.3589 33.6176 13.9441 33.4188 14.6838H38.4865Z"/>
</mask>
<path d="M36.7145 10.6926C37.8517 10.6926 38.757 11.0128 39.4305 11.6531C40.115 12.2935 40.4573 13.1547 40.4573 14.2367C40.4573 14.4906 40.4297 14.7942 40.3745 15.1475C40.3303 15.3904 40.253 15.6885 40.1426 16.0418H33.1704C33.1594 16.1191 33.1538 16.235 33.1538 16.3896C33.1538 17.041 33.3526 17.5599 33.75 17.9463C34.1586 18.3328 34.6885 18.526 35.3399 18.526C36.3667 18.526 37.1561 18.1009 37.7082 17.2508H39.7452C39.3256 18.0899 38.7073 18.7799 37.8903 19.3209C37.0733 19.8509 36.1293 20.1158 35.0584 20.1158C34.2966 20.1158 33.6286 19.9668 33.0545 19.6687C32.4804 19.3706 32.0332 18.9455 31.713 18.3935C31.3928 17.8304 31.2328 17.1735 31.2328 16.4227C31.2328 16.1025 31.2659 15.7603 31.3321 15.3959C31.4977 14.4575 31.8345 13.6349 32.3423 12.9283C32.8502 12.2107 33.4795 11.6586 34.2303 11.2722C34.9921 10.8858 35.8202 10.6926 36.7145 10.6926ZM38.4865 14.6838C38.5086 14.4851 38.5196 14.3415 38.5196 14.2532C38.5196 13.646 38.3154 13.1657 37.9069 12.8124C37.5094 12.4591 36.9905 12.2824 36.3501 12.2824C35.6767 12.2824 35.0694 12.4977 34.5284 12.9283C33.9874 13.3589 33.6176 13.9441 33.4188 14.6838H38.4865Z" fill="#022C52"/>
<path d="M39.4305 11.6531L39.3793 11.707L39.3797 11.7074L39.4305 11.6531ZM40.3745 15.1475L40.4476 15.1608L40.4479 15.159L40.3745 15.1475ZM40.1426 16.0418V16.1161H40.1973L40.2136 16.064L40.1426 16.0418ZM33.1704 16.0418V15.9675H33.106L33.0968 16.0313L33.1704 16.0418ZM33.75 17.9463L33.6982 17.9996L33.699 18.0003L33.75 17.9463ZM37.7082 17.2508V17.1765H37.6678L37.6458 17.2103L37.7082 17.2508ZM39.7452 17.2508L39.8116 17.284L39.8654 17.1765H39.7452V17.2508ZM37.8903 19.3209L37.9308 19.3833L37.9314 19.3829L37.8903 19.3209ZM33.0545 19.6687L33.0887 19.6027L33.0545 19.6687ZM31.713 18.3935L31.6484 18.4302L31.6487 18.4308L31.713 18.3935ZM31.3321 15.3959L31.4052 15.4092L31.4053 15.4088L31.3321 15.3959ZM32.3423 12.9283L32.4027 12.9717L32.403 12.9713L32.3423 12.9283ZM34.2303 11.2722L34.1967 11.2059L34.1963 11.2061L34.2303 11.2722ZM38.4865 14.6838V14.7581H38.553L38.5604 14.692L38.4865 14.6838ZM37.9069 12.8124L37.8575 12.8679L37.8583 12.8686L37.9069 12.8124ZM33.4188 14.6838L33.3471 14.6645L33.3219 14.7581H33.4188V14.6838ZM36.7145 10.7669C37.8371 10.7669 38.7226 11.0825 39.3793 11.707L39.4817 11.5993C38.7915 10.943 37.8662 10.6183 36.7145 10.6183V10.7669ZM39.3797 11.7074C40.0469 12.3315 40.383 13.1718 40.383 14.2367H40.5316C40.5316 13.1376 40.1832 12.2555 39.4813 11.5988L39.3797 11.7074ZM40.383 14.2367C40.383 14.4855 40.3559 14.7851 40.3011 15.136L40.4479 15.159C40.5035 14.8033 40.5316 14.4956 40.5316 14.2367H40.383ZM40.3014 15.1342C40.258 15.373 40.1816 15.668 40.0717 16.0196L40.2136 16.064C40.3245 15.709 40.4027 15.4078 40.4476 15.1608L40.3014 15.1342ZM40.1426 15.9675H33.1704V16.1161H40.1426V15.9675ZM33.0968 16.0313C33.085 16.114 33.0795 16.2342 33.0795 16.3896H33.2282C33.2282 16.2358 33.2337 16.1242 33.244 16.0523L33.0968 16.0313ZM33.0795 16.3896C33.0795 17.0573 33.2839 17.5968 33.6982 17.9996L33.8018 17.8931C33.4213 17.5231 33.2282 17.0247 33.2282 16.3896H33.0795ZM33.699 18.0003C34.1235 18.4019 34.6727 18.6003 35.3399 18.6003V18.4517C34.7043 18.4517 34.1936 18.2637 33.8011 17.8924L33.699 18.0003ZM35.3399 18.6003C36.3915 18.6003 37.2045 18.1628 37.7705 17.2912L37.6458 17.2103C37.1077 18.039 36.3419 18.4517 35.3399 18.4517V18.6003ZM37.7082 17.3251H39.7452V17.1765H37.7082V17.3251ZM39.6787 17.2175C39.2652 18.0445 38.656 18.7248 37.8493 19.259L37.9314 19.3829C38.7587 18.835 39.386 18.1353 39.8116 17.284L39.6787 17.2175ZM37.8499 19.2586C37.0461 19.7799 36.1165 20.0415 35.0584 20.0415V20.1902C36.1422 20.1902 37.1005 19.9218 37.9308 19.3833L37.8499 19.2586ZM35.0584 20.0415C34.3064 20.0415 33.6505 19.8945 33.0887 19.6027L33.0202 19.7346C33.6067 20.0391 34.2868 20.1902 35.0584 20.1902V20.0415ZM33.0887 19.6027C32.527 19.3111 32.0903 18.8959 31.7773 18.3562L31.6487 18.4308C31.9761 18.9952 32.4338 19.4301 33.0202 19.7346L33.0887 19.6027ZM31.7776 18.3568C31.4648 17.8065 31.3071 17.1627 31.3071 16.4227H31.1584C31.1584 17.1843 31.3209 17.8543 31.6484 18.4302L31.7776 18.3568ZM31.3071 16.4227C31.3071 16.1076 31.3397 15.7698 31.4052 15.4092L31.259 15.3826C31.1921 15.7507 31.1584 16.0975 31.1584 16.4227H31.3071ZM31.4053 15.4088C31.5692 14.4803 31.9019 13.6684 32.4027 12.9717L32.282 12.885C31.767 13.6015 31.4263 14.4346 31.2589 15.383L31.4053 15.4088ZM32.403 12.9713C32.9043 12.2629 33.5246 11.719 34.2643 11.3383L34.1963 11.2061C33.4345 11.5983 32.7962 12.1584 32.2817 12.8854L32.403 12.9713ZM34.2639 11.3385C35.0148 10.9576 35.8313 10.7669 36.7145 10.7669V10.6183C35.8091 10.6183 34.9694 10.814 34.1967 11.2059L34.2639 11.3385ZM38.5604 14.692C38.5825 14.4931 38.594 14.346 38.594 14.2532H38.4453C38.4453 14.3371 38.4347 14.4771 38.4127 14.6756L38.5604 14.692ZM38.594 14.2532C38.594 13.6274 38.3825 13.1255 37.9555 12.7562L37.8583 12.8686C38.2483 13.2059 38.4453 13.6645 38.4453 14.2532H38.594ZM37.9563 12.7569C37.5425 12.3891 37.0048 12.2081 36.3501 12.2081V12.3568C36.9762 12.3568 37.4763 12.5291 37.8575 12.8679L37.9563 12.7569ZM36.3501 12.2081C35.6594 12.2081 35.0359 12.4294 34.4821 12.8702L34.5747 12.9865C35.1029 12.566 35.6939 12.3568 36.3501 12.3568V12.2081ZM34.4821 12.8702C33.9274 13.3117 33.5494 13.9112 33.3471 14.6645L33.4906 14.7031C33.6857 13.977 34.0475 13.4061 34.5747 12.9865L34.4821 12.8702ZM33.4188 14.7581H38.4865V14.6095H33.4188V14.7581Z" fill="#022C52" mask="url(#path-6-outside-1_221_1372)"/>
<mask id="path-8-outside-2_221_1372" maskUnits="userSpaceOnUse" x="51.9478" y="9.9668" width="10" height="11" fill="black">
<rect fill="white" x="51.9478" y="9.9668" width="10" height="11"/>
<path d="M57.8932 10.6926C59.0304 10.6926 59.9357 11.0128 60.6092 11.6531C61.2937 12.2935 61.636 13.1547 61.636 14.2367C61.636 14.4906 61.6084 14.7942 61.5532 15.1475C61.509 15.3904 61.4318 15.6885 61.3213 16.0418H54.3491C54.3381 16.1191 54.3326 16.235 54.3326 16.3896C54.3326 17.041 54.5313 17.5599 54.9288 17.9463C55.3373 18.3328 55.8672 18.526 56.5186 18.526C57.5454 18.526 58.3348 18.1009 58.8869 17.2508H60.9239C60.5043 18.0899 59.886 18.7799 59.069 19.3209C58.252 19.8509 57.308 20.1158 56.2371 20.1158C55.4753 20.1158 54.8073 19.9668 54.2332 19.6687C53.6591 19.3706 53.2119 18.9455 52.8917 18.3935C52.5716 17.8304 52.4115 17.1735 52.4115 16.4227C52.4115 16.1025 52.4446 15.7603 52.5108 15.3959C52.6764 14.4575 53.0132 13.6349 53.5211 12.9283C54.0289 12.2107 54.6583 11.6586 55.409 11.2722C56.1708 10.8858 56.9989 10.6926 57.8932 10.6926ZM59.6652 14.6838C59.6873 14.4851 59.6984 14.3415 59.6984 14.2532C59.6984 13.646 59.4941 13.1657 59.0856 12.8124C58.6881 12.4591 58.1692 12.2824 57.5288 12.2824C56.8554 12.2824 56.2481 12.4977 55.7071 12.9283C55.1661 13.3589 54.7963 13.9441 54.5975 14.6838H59.6652Z"/>
</mask>
<path d="M57.8932 10.6926C59.0304 10.6926 59.9357 11.0128 60.6092 11.6531C61.2937 12.2935 61.636 13.1547 61.636 14.2367C61.636 14.4906 61.6084 14.7942 61.5532 15.1475C61.509 15.3904 61.4318 15.6885 61.3213 16.0418H54.3491C54.3381 16.1191 54.3326 16.235 54.3326 16.3896C54.3326 17.041 54.5313 17.5599 54.9288 17.9463C55.3373 18.3328 55.8672 18.526 56.5186 18.526C57.5454 18.526 58.3348 18.1009 58.8869 17.2508H60.9239C60.5043 18.0899 59.886 18.7799 59.069 19.3209C58.252 19.8509 57.308 20.1158 56.2371 20.1158C55.4753 20.1158 54.8073 19.9668 54.2332 19.6687C53.6591 19.3706 53.2119 18.9455 52.8917 18.3935C52.5716 17.8304 52.4115 17.1735 52.4115 16.4227C52.4115 16.1025 52.4446 15.7603 52.5108 15.3959C52.6764 14.4575 53.0132 13.6349 53.5211 12.9283C54.0289 12.2107 54.6583 11.6586 55.409 11.2722C56.1708 10.8858 56.9989 10.6926 57.8932 10.6926ZM59.6652 14.6838C59.6873 14.4851 59.6984 14.3415 59.6984 14.2532C59.6984 13.646 59.4941 13.1657 59.0856 12.8124C58.6881 12.4591 58.1692 12.2824 57.5288 12.2824C56.8554 12.2824 56.2481 12.4977 55.7071 12.9283C55.1661 13.3589 54.7963 13.9441 54.5975 14.6838H59.6652Z" fill="#022C52"/>
<path d="M60.6092 11.6531L60.558 11.707L60.5584 11.7074L60.6092 11.6531ZM61.5532 15.1475L61.6263 15.1608L61.6266 15.159L61.5532 15.1475ZM61.3213 16.0418V16.1161H61.376L61.3923 16.064L61.3213 16.0418ZM54.3491 16.0418V15.9675H54.2847L54.2755 16.0313L54.3491 16.0418ZM54.9288 17.9463L54.8769 17.9996L54.8777 18.0003L54.9288 17.9463ZM58.8869 17.2508V17.1765H58.8465L58.8245 17.2103L58.8869 17.2508ZM60.9239 17.2508L60.9903 17.284L61.0441 17.1765H60.9239V17.2508ZM59.069 19.3209L59.1095 19.3833L59.1101 19.3829L59.069 19.3209ZM54.2332 19.6687L54.2674 19.6027L54.2332 19.6687ZM52.8917 18.3935L52.8271 18.4302L52.8275 18.4308L52.8917 18.3935ZM52.5108 15.3959L52.5839 15.4092L52.584 15.4088L52.5108 15.3959ZM53.5211 12.9283L53.5814 12.9717L53.5817 12.9713L53.5211 12.9283ZM55.409 11.2722L55.3754 11.2059L55.375 11.2061L55.409 11.2722ZM59.6652 14.6838V14.7581H59.7317L59.7391 14.692L59.6652 14.6838ZM59.0856 12.8124L59.0362 12.8679L59.037 12.8686L59.0856 12.8124ZM54.5975 14.6838L54.5258 14.6645L54.5006 14.7581H54.5975V14.6838ZM57.8932 10.7669C59.0158 10.7669 59.9013 11.0825 60.558 11.707L60.6604 11.5993C59.9702 10.943 59.045 10.6183 57.8932 10.6183V10.7669ZM60.5584 11.7074C61.2256 12.3315 61.5617 13.1718 61.5617 14.2367H61.7103C61.7103 13.1376 61.3619 12.2555 60.66 11.5988L60.5584 11.7074ZM61.5617 14.2367C61.5617 14.4855 61.5346 14.7851 61.4798 15.136L61.6266 15.159C61.6822 14.8033 61.7103 14.4956 61.7103 14.2367H61.5617ZM61.4801 15.1342C61.4367 15.373 61.3603 15.668 61.2504 16.0196L61.3923 16.064C61.5032 15.709 61.5814 15.4078 61.6263 15.1608L61.4801 15.1342ZM61.3213 15.9675H54.3491V16.1161H61.3213V15.9675ZM54.2755 16.0313C54.2637 16.114 54.2582 16.2342 54.2582 16.3896H54.4069C54.4069 16.2358 54.4124 16.1242 54.4227 16.0523L54.2755 16.0313ZM54.2582 16.3896C54.2582 17.0573 54.4626 17.5968 54.877 17.9996L54.9806 17.8931C54.6 17.5231 54.4069 17.0247 54.4069 16.3896H54.2582ZM54.8777 18.0003C55.3022 18.4019 55.8515 18.6003 56.5186 18.6003V18.4517C55.883 18.4517 55.3724 18.2637 54.9798 17.8924L54.8777 18.0003ZM56.5186 18.6003C57.5702 18.6003 58.3832 18.1628 58.9492 17.2912L58.8245 17.2103C58.2864 18.039 57.5206 18.4517 56.5186 18.4517V18.6003ZM58.8869 17.3251H60.9239V17.1765H58.8869V17.3251ZM60.8574 17.2175C60.4439 18.0445 59.8347 18.7248 59.028 19.259L59.1101 19.3829C59.9374 18.835 60.5647 18.1353 60.9903 17.284L60.8574 17.2175ZM59.0286 19.2586C58.2248 19.7799 57.2952 20.0415 56.2371 20.0415V20.1902C57.3209 20.1902 58.2792 19.9218 59.1095 19.3833L59.0286 19.2586ZM56.2371 20.0415C55.4851 20.0415 54.8292 19.8945 54.2674 19.6027L54.1989 19.7346C54.7854 20.0391 55.4655 20.1902 56.2371 20.1902V20.0415ZM54.2674 19.6027C53.7057 19.3111 53.269 18.8959 52.956 18.3562L52.8275 18.4308C53.1548 18.9952 53.6125 19.4301 54.1989 19.7346L54.2674 19.6027ZM52.9563 18.3568C52.6435 17.8065 52.4858 17.1627 52.4858 16.4227H52.3372C52.3372 17.1843 52.4996 17.8543 52.8271 18.4302L52.9563 18.3568ZM52.4858 16.4227C52.4858 16.1076 52.5184 15.7698 52.5839 15.4092L52.4377 15.3826C52.3708 15.7507 52.3372 16.0975 52.3372 16.4227H52.4858ZM52.584 15.4088C52.7479 14.4803 53.0806 13.6684 53.5814 12.9717L53.4607 12.885C52.9457 13.6015 52.605 14.4346 52.4376 15.383L52.584 15.4088ZM53.5817 12.9713C54.083 12.2629 54.7033 11.719 55.443 11.3383L55.375 11.2061C54.6132 11.5983 53.9749 12.1584 53.4604 12.8854L53.5817 12.9713ZM55.4426 11.3385C56.1935 10.9576 57.01 10.7669 57.8932 10.7669V10.6183C56.9878 10.6183 56.1481 10.814 55.3754 11.2059L55.4426 11.3385ZM59.7391 14.692C59.7612 14.4931 59.7727 14.346 59.7727 14.2532H59.624C59.624 14.3371 59.6134 14.4771 59.5914 14.6756L59.7391 14.692ZM59.7727 14.2532C59.7727 13.6274 59.5612 13.1255 59.1342 12.7562L59.037 12.8686C59.427 13.2059 59.624 13.6645 59.624 14.2532H59.7727ZM59.135 12.7569C58.7212 12.3891 58.1835 12.2081 57.5289 12.2081V12.3568C58.1549 12.3568 58.655 12.5291 59.0362 12.8679L59.135 12.7569ZM57.5289 12.2081C56.8381 12.2081 56.2146 12.4294 55.6608 12.8702L55.7534 12.9865C56.2816 12.566 56.8727 12.3568 57.5289 12.3568V12.2081ZM55.6608 12.8702C55.1061 13.3117 54.7282 13.9112 54.5258 14.6645L54.6693 14.7031C54.8644 13.977 55.2262 13.4061 55.7534 12.9865L55.6608 12.8702ZM54.5975 14.7581H59.6652V14.6095H54.5975V14.7581Z" fill="#022C52" mask="url(#path-8-outside-2_221_1372)"/>
<path d="M13.1867 11.5025L13.3757 10.459H19.9044L19.7168 11.4935L13.1867 11.5025Z" fill="#022C52" stroke="#022C52" stroke-width="0.920915"/>
<path d="M11.7806 18.5895L11.9699 17.5454H18.4982L18.3111 18.5807L11.7806 18.5895Z" fill="#022C52" stroke="#022C52" stroke-width="0.920915"/>
<path d="M4.70267 14.9573L4.89166 13.9126H18.9694L18.782 14.9478L4.70267 14.9573Z" fill="#022C52" stroke="#022C52" stroke-width="0.920915"/>
<path d="M23.6372 12.0447L23.2745 13.3625L24.2529 12.4081C25.0903 11.5915 25.9492 11.0763 27.0694 11.0763C28.053 11.0763 28.8907 11.424 29.483 12.0365C30.0754 12.6493 30.4482 13.5544 30.4482 14.7151C30.4482 17.8378 28.0193 20.0916 25.468 20.0916C24.6844 20.0916 24.0907 19.9037 23.6311 19.6108C23.1692 19.3165 22.8212 18.9025 22.5525 18.4191L22.1108 17.6243L21.8715 18.5015L21.4907 19.8967H20.0569L23.4028 7.68875H24.8362L23.6372 12.0447ZM22.4218 16.2581C22.4218 17.8304 23.5732 19.0051 25.2137 19.0051C27.2605 19.0051 28.896 17.1105 28.896 14.8741C28.896 14.0762 28.6417 13.3952 28.1629 12.9126C27.684 12.43 27.0148 12.1802 26.2507 12.1802C24.2626 12.1802 22.4218 14.0851 22.4218 16.2581Z" fill="#022C52" stroke="#022C52" stroke-width="0.74078"/>
<path fill-rule="evenodd" clip-rule="evenodd" d="M43.2882 17.7169C43.2882 17.5702 43.3253 17.3501 43.3633 17.1674L44.6398 12.5004H47.2876L47.8138 10.5969H45.1652L45.8987 7.94263H43.6257L42.894 10.5969H41.6353L41.1098 12.5004H42.3672L41.0346 17.4053C40.9217 17.7713 40.8652 18.1559 40.8652 18.5217C40.8652 19.675 41.7476 20.4254 43.344 20.4254C44.0391 20.4254 44.6587 20.3155 45.2038 20.0778L45.7296 18.1559C45.241 18.3574 44.7339 18.4673 44.2832 18.4673C43.6257 18.4673 43.2882 18.2107 43.2882 17.7169Z" fill="#022C52"/>
<path fill-rule="evenodd" clip-rule="evenodd" d="M49.1627 17.7169C49.1627 17.5702 49.1998 17.3501 49.2378 17.1674L50.5144 12.5004H53.1621L53.6883 10.5969H51.0397L51.7733 7.94263H49.5002L48.7685 10.5969H47.5098L46.9843 12.5004H48.2417L46.9091 17.4053C46.7962 17.7713 46.7397 18.1559 46.7397 18.5217C46.7397 19.675 47.6221 20.4254 49.2185 20.4254C49.9137 20.4254 50.5332 20.3155 51.0783 20.0778L51.6041 18.1559C51.1155 18.3574 50.6084 18.4673 50.1578 18.4673C49.5002 18.4673 49.1627 18.2107 49.1627 17.7169Z" fill="#022C52"/>
<path d="M61.9273 19.8145L64.2605 11.3002H65.6512L65.2214 12.9101L65.9039 13.2302C66.8 11.9647 67.798 11.2061 69.0747 11.1234L68.6692 12.6108C67.6923 12.6443 66.7726 12.9712 66.0014 13.6155C65.1882 14.2949 64.5617 15.3086 64.1937 16.6503C64.1937 16.6504 64.1936 16.6505 64.1936 16.6507L63.3171 19.8145H61.9273Z" fill="#022C52" stroke="#022C52" stroke-width="0.765886"/>
</svg>
