<svg viewBox="0 0 128 32" fill="none" xmlns="http://www.w3.org/2000/svg">
<path d="M18.2938 10.4153L32.4322 17.7955L32.4519 15.5849L29.9884 14.2895V0.000366211H13.7058L13.6941 10.9314L11.618 12.2174V6.32816H0.0130272L0 31.9703L15.6227 31.9304V23.983H20.555V31.9304H22.5213V21.9759H13.6932V29.982L6.0924 29.9673L6.11484 17.9816L18.2938 10.4153ZM15.7231 1.98543L27.9643 2.00023V13.2263L18.2417 8.11458L15.7133 9.68129L15.7231 1.98543ZM2.01872 29.9812L2.03082 8.31366L9.59529 8.328V13.4716L4.08446 16.8862V29.9731L2.01872 29.9812Z" fill="#162951"/>
<path d="M28.033 31.8447V22.0118H35.8423V24.1049H30.4481V25.9433H34.0442V27.966H30.4481V31.8429L28.033 31.8447Z" fill="#162951"/>
<path d="M37.4444 31.8447V22.0118H42.4754C42.9513 22.0068 43.4243 22.0853 43.873 22.2436C44.277 22.3852 44.6492 22.6047 44.9685 22.8898C45.2737 23.1667 45.518 23.504 45.686 23.8803C45.8622 24.2781 45.9509 24.7092 45.946 25.1443C45.9544 25.7365 45.7776 26.3166 45.4402 26.8034C45.1054 27.2885 44.6438 27.6724 44.1058 27.9132L46.2549 31.8461H43.5578L41.7037 28.2643H39.8653V31.8461L37.4444 31.8447ZM42.2485 24.0767H39.8603V26.2962H42.2485C42.5787 26.3116 42.9024 26.2012 43.1543 25.9873C43.263 25.8842 43.3496 25.76 43.4087 25.6224C43.4679 25.4847 43.4984 25.3365 43.4984 25.1867C43.4984 25.0369 43.4679 24.8886 43.4087 24.751C43.3496 24.6133 43.263 24.4892 43.1543 24.3861C42.9024 24.172 42.5787 24.0615 42.2485 24.0767Z" fill="#162951"/>
<path d="M57.5878 26.9281C57.5916 27.6116 57.4529 28.2884 57.1806 28.9154C56.9201 29.521 56.543 30.0695 56.0708 30.5296C55.5887 30.9933 55.0209 31.3589 54.3992 31.6058C53.0725 32.1302 51.5961 32.1302 50.2695 31.6058C49.6477 31.359 49.0799 30.9934 48.5978 30.5296C48.1255 30.0697 47.7485 29.5212 47.4885 28.9154C47.2195 28.2872 47.0808 27.611 47.0808 26.9276C47.0808 26.2443 47.2195 25.5681 47.4885 24.9399C47.7487 24.3342 48.1256 23.7857 48.5978 23.3257C49.0799 22.8618 49.6477 22.4963 50.2695 22.2495C51.5961 21.7251 53.0725 21.7251 54.3992 22.2495C55.0209 22.4964 55.5887 22.8619 56.0708 23.3257C56.5429 23.7859 56.92 24.3343 57.1806 24.9399C57.453 25.5671 57.5917 26.2442 57.5878 26.9281ZM55.1014 26.9281C55.1043 26.5411 55.0328 26.1572 54.8907 25.7972C54.6886 25.2841 54.3367 24.8436 53.8809 24.5332C53.425 24.2228 52.8863 24.0568 52.3348 24.0568C51.7833 24.0568 51.2445 24.2228 50.7887 24.5332C50.3328 24.8436 49.981 25.2841 49.7789 25.7972C49.4979 26.5249 49.4979 27.3313 49.7789 28.059C49.9812 28.5719 50.3331 29.0122 50.7889 29.3224C51.2447 29.6327 51.7834 29.7986 52.3348 29.7986C52.8862 29.7986 53.4248 29.6327 53.8807 29.3224C54.3365 29.0122 54.6884 28.5719 54.8907 28.059C55.0328 27.699 55.1043 27.315 55.1014 26.9281Z" fill="#162951"/>
<path d="M59.2311 22.0118H61.5068L65.9737 27.7145V22.0118H68.2498V31.8447H66.1145L61.5072 25.9169V31.8447H59.2316L59.2311 22.0118Z" fill="#162951"/>
<path d="M69.6824 24.1466V22.0118H78.532V24.1466H75.3152V31.8447H72.8992V24.1466H69.6824Z" fill="#162951"/>
<path d="M80.1471 31.8447V22.0118H81.6224V30.5381H87.283V31.8447H80.1471Z" fill="#162951"/>
<path d="M98.1001 26.928C98.1017 27.5971 97.971 28.2599 97.7154 28.8782C97.4599 29.4966 97.0845 30.0583 96.611 30.5309C96.1428 30.992 95.5893 31.3575 94.9815 31.6071C93.6937 32.1315 92.252 32.1315 90.9643 31.6071C90.358 31.3586 89.8067 30.9929 89.3419 30.5309C88.8811 30.0673 88.5139 29.5192 88.2604 28.9167C87.9962 28.2873 87.8601 27.6116 87.8601 26.929C87.8601 26.2464 87.9962 25.5706 88.2604 24.9412C88.5141 24.3388 88.8812 23.7907 89.3419 23.327C89.8067 22.865 90.358 22.4994 90.9643 22.2508C92.252 21.7264 93.6937 21.7264 94.9815 22.2508C95.5896 22.4978 96.143 22.8626 96.6095 23.3243C97.076 23.7861 97.4465 24.3356 97.6997 24.9412C97.9675 25.5692 98.1038 26.2454 98.1001 26.928ZM96.5971 26.928C96.601 26.4249 96.5055 25.9261 96.3159 25.46C96.1385 25.0214 95.8785 24.6209 95.5501 24.2803C95.223 23.9451 94.8312 23.6798 94.3986 23.5005C93.947 23.3118 93.462 23.2162 92.9726 23.2193C92.4856 23.2158 92.0029 23.3115 91.5539 23.5005C91.1238 23.681 90.7343 23.9462 90.4087 24.2803C90.0802 24.6208 89.8202 25.0213 89.6428 25.46C89.2688 26.4028 89.2688 27.4529 89.6428 28.3957C89.8167 28.8312 90.075 29.2279 90.4029 29.5631C90.7308 29.8983 91.1219 30.1652 91.5534 30.3484C92.0012 30.542 92.4844 30.6401 92.9722 30.6363C93.4623 30.6396 93.9477 30.5416 94.3981 30.3484C94.8314 30.1667 95.2242 29.9004 95.5534 29.5651C95.8826 29.2298 96.1416 28.8323 96.3154 28.3957C96.5052 27.9299 96.601 27.431 96.5971 26.928Z" fill="#162951"/>
<path d="M100.038 22.0118H104.294C105.124 21.972 105.941 22.2229 106.605 22.7212C106.889 22.9451 107.117 23.2328 107.269 23.5609C107.422 23.8891 107.495 24.2485 107.483 24.6102C107.489 25.0558 107.362 25.493 107.117 25.8658C106.87 26.2392 106.525 26.5379 106.12 26.7298C106.62 26.9114 107.06 27.2273 107.391 27.6428C107.704 28.0433 107.871 28.5392 107.862 29.0476C107.875 29.4345 107.798 29.8193 107.637 30.1715C107.477 30.5237 107.236 30.8336 106.935 31.077C106.232 31.6155 105.361 31.8869 104.476 31.8429H100.037L100.038 22.0118ZM104.208 23.2619H101.511V26.1837H104.208C104.68 26.2087 105.147 26.0698 105.528 25.7904C105.682 25.6586 105.806 25.4949 105.891 25.3106C105.976 25.1264 106.02 24.9259 106.02 24.723C106.02 24.5201 105.976 24.3196 105.891 24.1354C105.806 23.9511 105.682 23.7875 105.528 23.6556C105.147 23.3766 104.681 23.2376 104.209 23.2619H104.208ZM104.362 30.5946C104.886 30.6211 105.402 30.4646 105.823 30.152C105.994 30.0089 106.132 29.83 106.227 29.6279C106.321 29.4258 106.37 29.2055 106.37 28.9824C106.37 28.7593 106.321 28.5389 106.227 28.3368C106.132 28.1347 105.994 27.9558 105.823 27.8127C105.404 27.4962 104.887 27.3375 104.362 27.3643H101.511V30.5954L104.362 30.5946Z" fill="#162951"/>
<path d="M109.828 22.0118H114.085C114.914 21.972 115.731 22.2229 116.395 22.7212C116.68 22.9451 116.907 23.2327 117.06 23.5609C117.212 23.8891 117.286 24.2485 117.274 24.6102C117.28 25.0558 117.152 25.493 116.908 25.8658C116.661 26.2391 116.316 26.5379 115.911 26.7298C116.411 26.9114 116.851 27.2273 117.183 27.6428C117.496 28.0433 117.662 28.5392 117.653 29.0476C117.666 29.4345 117.59 29.8193 117.429 30.1715C117.268 30.5236 117.027 30.8336 116.726 31.077C116.023 31.6155 115.152 31.8869 114.268 31.8429H109.828L109.828 22.0118ZM113.998 23.2619H111.301V26.1837H113.998C114.47 26.2086 114.937 26.0697 115.318 25.7904C115.472 25.6586 115.596 25.4949 115.681 25.3106C115.766 25.1264 115.81 24.9259 115.81 24.723C115.81 24.5202 115.766 24.3197 115.681 24.1354C115.596 23.9511 115.472 23.7875 115.318 23.6556C114.937 23.3769 114.472 23.2379 114.001 23.2619H113.998ZM114.153 30.5946C114.676 30.6211 115.193 30.4646 115.614 30.152C115.785 30.0089 115.922 29.83 116.017 29.6279C116.111 29.4258 116.16 29.2055 116.16 28.9824C116.16 28.7593 116.111 28.5389 116.017 28.3368C115.922 28.1347 115.785 27.9558 115.614 27.8127C115.195 27.4962 114.677 27.3374 114.153 27.3643H111.301V30.5955L114.153 30.5946Z" fill="#162951"/>
<path d="M121.909 31.8447V27.9678L117.948 22.0122H119.661L122.682 26.6478L125.716 22.0122H127.345L123.384 27.9539V31.8447H121.909Z" fill="#162951"/>
</svg>
