<svg width="160" height="160" xmlns="http://www.w3.org/2000/svg">
    <path
        d="M1.921 0c.247 0 .498.081.749.165.248.082.46.25.625.415.166.165.333.373.42.62.08.251.125.498.125.745 0 .25-.046.498-.125.706a1.665 1.665 0 0 1-.42.618 1.264 1.264 0 0 1-.625.416 1.802 1.802 0 0 1-1.46 0 1.264 1.264 0 0 1-.626-.416 1.293 1.293 0 0 1-.42-.618A1.398 1.398 0 0 1 0 1.945c0-.247.043-.494.164-.745a1.31 1.31 0 0 1 .42-.62C.92.208 1.42 0 1.921 0m7.041 150.4c-.495 0-.992.211-1.366.583a1.91 1.91 0 0 0 0 2.695 1.942 1.942 0 0 0 2.733 0 1.875 1.875 0 0 0-.041-2.695h.04a1.95 1.95 0 0 0-1.366-.583Zm99.59-2.068a1.991 1.991 0 0 0-1.814 2.161 1.98 1.98 0 0 0 2.114 1.821c1.125-.09 1.945-1.04 1.862-2.121-.09-1.083-.957-1.861-1.99-1.861h-.172Zm-33.06-.023c-.087 0-.171 0-.258.047-1.075.085-1.891 1.076-1.764 2.19.127 1.076 1.12 1.852 2.194 1.768a1.98 1.98 0 0 0 1.762-2.195c-.085-1.033-.946-1.81-1.933-1.81Zm-16.94.044c-1.111.171-1.841 1.202-1.715 2.273h.047c.124 1.07 1.154 1.841 2.226 1.67 1.07-.129 1.837-1.16 1.666-2.23-.126-.984-.983-1.713-1.968-1.713h-.255Zm-15.778.018c-.132 0-.257.042-.387.042-1.083.211-1.775 1.232-1.558 2.294.215 1.065 1.253 1.786 2.333 1.577 1.08-.216 1.817-1.237 1.6-2.341a2.022 2.022 0 0 0-1.988-1.572Zm-16.577-.046a3.16 3.16 0 0 0-.645.087c-1.04.346-1.6 1.512-1.255 2.55a1.985 1.985 0 0 0 2.507 1.256c1.038-.302 1.6-1.473 1.253-2.51-.26-.823-1.037-1.383-1.86-1.383Zm115.046.017a1.918 1.918 0 0 0-1.854 2.072h-.045c.09 1.121 1.036 1.985 2.116 1.9a2.05 2.05 0 0 0 1.898-2.117c-.087-1.078-.952-1.855-1.983-1.855h-.132Zm-48.678.022a2.04 2.04 0 0 0-1.799 2.186c.13 1.07 1.07 1.884 2.14 1.757 1.115-.087 1.927-1.03 1.801-2.141a1.963 1.963 0 0 0-1.971-1.802h-.171Zm32.689-1.274c-1.112.084-1.925 1.026-1.84 2.1.042 1.113.985 1.928 2.1 1.844 1.11-.045 1.926-1.029 1.84-2.102-.085-1.029-.944-1.842-1.972-1.842h-.128Zm32.672-.04a2.033 2.033 0 0 0-1.89 2.1c.084 1.117.987 1.933 2.105 1.888 1.077-.084 1.938-.984 1.853-2.1a1.954 1.954 0 0 0-1.978-1.888h-.09Zm-135.402-5.866a1.9 1.9 0 0 0-1.165.39 1.96 1.96 0 0 0-.435 2.767c.65.911 1.902 1.129 2.763.436.912-.649 1.13-1.86.437-2.768a2.03 2.03 0 0 0-1.6-.825Zm17.873-.597c-.26 0-.52.084-.78.172-.993.425-1.512 1.572-1.08 2.55.435 1.021 1.6 1.488 2.637 1.063.995-.384 1.468-1.532 1.04-2.55a1.96 1.96 0 0 0-1.817-1.235Zm16.658-.331c-.171 0-.344.042-.56.084a2.03 2.03 0 0 0-1.324 2.486c.3 1.029 1.413 1.628 2.44 1.328a1.976 1.976 0 0 0 1.368-2.443 2 2 0 0 0-1.924-1.455Zm17.017-.162c-.172 0-.301 0-.475.04-1.033.26-1.722 1.294-1.46 2.369a1.947 1.947 0 0 0 2.365 1.503 1.994 1.994 0 0 0 1.503-2.364 1.966 1.966 0 0 0-1.933-1.548Zm17.165 0c-1.07.216-1.796 1.242-1.583 2.312.171 1.073 1.241 1.802 2.314 1.589 1.07-.171 1.756-1.202 1.585-2.317-.174-.942-1.03-1.584-1.972-1.584h-.344Zm16.188-.153a2.004 2.004 0 0 0-1.684 2.294c.174 1.08 1.212 1.856 2.291 1.641 1.08-.13 1.817-1.166 1.643-2.294-.13-.948-.997-1.64-1.945-1.64h-.305Zm32.914-.06a1.986 1.986 0 0 0-1.728 2.202v.043a1.991 1.991 0 0 0 2.2 1.727 2.006 2.006 0 0 0 1.77-2.246c-.128-.992-.992-1.726-1.984-1.726h-.258Zm-16.11-1.15c-1.07.17-1.843 1.157-1.672 2.228.129 1.115 1.156 1.844 2.229 1.713 1.07-.169 1.837-1.158 1.71-2.229-.172-.986-1.025-1.713-1.97-1.713h-.298Zm33.098-.087c-.045 0-.132 0-.217.045-1.075.084-1.851 1.071-1.764 2.143a1.983 1.983 0 0 0 2.195 1.758 1.912 1.912 0 0 0 1.764-2.143 1.969 1.969 0 0 0-1.978-1.803Zm-140.464-3.126c-.653 0-1.253.258-1.648.823-.645.864-.43 2.118.435 2.768.908.65 2.16.478 2.808-.433.65-.863.435-2.122-.43-2.767-.39-.26-.778-.39-1.165-.39Zm19.644-2.076c-.388 0-.778.13-1.125.342-.907.595-1.167 1.83-.56 2.72.645.893 1.857 1.151 2.765.554a1.92 1.92 0 0 0 .56-2.723 1.922 1.922 0 0 0-1.64-.893Zm17.676-.902c-.297 0-.555.045-.852.171-.988.43-1.411 1.629-.946 2.613.43.986 1.632 1.417 2.615.986a2.01 2.01 0 0 0 .985-2.612 2.011 2.011 0 0 0-1.802-1.158Zm17.567-.495c-.218 0-.432.042-.646.13a1.97 1.97 0 0 0-1.247 2.493c.386 1.035 1.505 1.595 2.536 1.25 1.032-.389 1.592-1.506 1.204-2.54-.254-.815-1.033-1.333-1.847-1.333Zm17.39-.05a1.978 1.978 0 0 0-1.373 2.444c.302 1.07 1.414 1.673 2.442 1.37a1.958 1.958 0 0 0 1.372-2.44 1.967 1.967 0 0 0-1.887-1.416c-.17 0-.384 0-.555.042Zm-79.453-.155c-.825 0-1.645.563-1.905 1.384-.346 1.04.215 2.21 1.295 2.552 1.037.348 2.163-.258 2.508-1.299.347-1.08-.215-2.202-1.296-2.507a1.406 1.406 0 0 0-.602-.13Zm96.4-.204c-.172 0-.346 0-.476.044-1.08.258-1.728 1.339-1.468 2.38.26 1.08 1.342 1.773 2.375 1.51 1.08-.257 1.772-1.338 1.472-2.421a1.941 1.941 0 0 0-1.902-1.513Zm33.215-.173c-.085 0-.215.042-.345.042-1.078.217-1.811 1.254-1.596 2.332.214 1.081 1.25 1.813 2.327 1.596 1.08-.173 1.772-1.251 1.597-2.33-.172-.949-1.035-1.64-1.983-1.64Zm-16.23-1.048c-.131 0-.258.042-.386.042-1.07.258-1.756 1.284-1.543 2.358.217 1.07 1.287 1.758 2.357 1.542 1.07-.211 1.754-1.284 1.54-2.355a2.013 2.013 0 0 0-1.968-1.587Zm32.791-.09a1.983 1.983 0 0 0-1.632 2.273c.172 1.071 1.2 1.8 2.275 1.63 1.122-.172 1.853-1.2 1.635-2.273-.125-.985-.986-1.672-1.934-1.672-.13 0-.217 0-.344.043Zm-124.63-3.13c-.52 0-.996.168-1.386.551-.775.765-.775 1.997 0 2.806a2.013 2.013 0 0 0 2.815 0c.775-.809.775-2.04 0-2.806-.39-.383-.91-.55-1.43-.55Zm18.97-1.937a1.95 1.95 0 0 0-1.071.298c-.939.6-1.198 1.844-.597 2.741a1.96 1.96 0 0 0 2.739.6c.94-.6 1.2-1.8.601-2.741-.388-.558-1.027-.898-1.671-.898Zm18.32-.96c-.303 0-.557.086-.86.218-.993.47-1.379 1.678-.903 2.668.47.988 1.676 1.374 2.667.901a1.988 1.988 0 0 0 .903-2.625v-.04a2.058 2.058 0 0 0-1.806-1.123Zm18.516-.273a2.02 2.02 0 0 0-.726.129c-1.03.387-1.543 1.542-1.154 2.528.426 1.028 1.578 1.541 2.566 1.157a1.991 1.991 0 0 0 1.157-2.57c-.298-.773-1.073-1.244-1.843-1.244Zm16.714-.565c-.172 0-.39.045-.602.088a2.036 2.036 0 0 0-1.295 2.554c.34 1.035 1.467 1.596 2.547 1.253a1.991 1.991 0 0 0 1.255-2.51 2.005 2.005 0 0 0-1.905-1.385Zm33.78-.283c-.172 0-.3.042-.472.085-1.078.257-1.729 1.338-1.47 2.374v.042c.26 1.036 1.338 1.728 2.416 1.426a1.99 1.99 0 0 0 1.467-2.417v.043a2.017 2.017 0 0 0-1.941-1.553Zm-16.432-.906c-.171 0-.345 0-.555.084-1.03.258-1.627 1.371-1.372 2.403a1.973 1.973 0 0 0 2.442 1.37c1.07-.26 1.669-1.37 1.372-2.402-.218-.9-1.03-1.455-1.887-1.455Zm33.516-.264c-.132 0-.304 0-.433.042-1.078.258-1.762 1.287-1.506 2.359a1.944 1.944 0 0 0 2.364 1.498c1.078-.211 1.725-1.283 1.51-2.354-.218-.903-1.034-1.545-1.935-1.545Zm-129.735-.004c-.652 0-1.302.342-1.69.893a1.961 1.961 0 0 0 .56 2.723c.91.597 2.163.383 2.77-.551.605-.893.388-2.086-.56-2.723a1.93 1.93 0 0 0-1.08-.342Zm20.355-3.347c-.468 0-.94.129-1.285.47-.856.73-.938 1.971-.21 2.787.725.813 1.968.9 2.783.215.851-.73.94-1.973.215-2.788v-.04c-.386-.428-.948-.644-1.503-.644Zm-27.662-.477c-.778 0-1.513.467-1.818 1.232-.427.979.045 2.125 1.08 2.553a1.98 1.98 0 0 0 2.593-1.063c.437-.978-.043-2.127-1.08-2.552a1.66 1.66 0 0 0-.775-.17Zm46.903-1.194c-.343 0-.731.127-1.077.299-.901.602-1.202 1.854-.6 2.755.6.948 1.806 1.205 2.752.647.945-.605 1.207-1.85.6-2.755-.386-.602-1.028-.946-1.675-.946Zm19.135-.63c-.257 0-.594.087-.857.216-.983.47-1.372 1.67-.899 2.654.476.986 1.67 1.373 2.656.86a1.955 1.955 0 0 0 .901-2.615c-.342-.728-1.072-1.115-1.8-1.115Zm-73.908-.515c-.95 0-1.768.637-1.987 1.572-.216 1.062.52 2.083 1.557 2.297h.042a1.975 1.975 0 0 0 2.335-1.53c.215-1.063-.52-2.086-1.552-2.3-.173-.039-.305-.039-.395-.039Zm91.154-.293c-.258 0-.52.04-.777.128-1.038.433-1.515 1.6-1.08 2.596.43 1.039 1.6 1.516 2.59 1.081 1.04-.39 1.512-1.558 1.08-2.596-.3-.779-1.038-1.209-1.813-1.209Zm34.386-.532c-.17 0-.39.045-.561.088a2.026 2.026 0 0 0-1.333 2.504c.344 1.036 1.465 1.64 2.5 1.296 1.078-.305 1.642-1.424 1.295-2.505a1.997 1.997 0 0 0-1.901-1.383Zm-16.713-.761c-.213 0-.428.044-.641.086-1.03.385-1.587 1.5-1.201 2.527v.044a2.01 2.01 0 0 0 2.528 1.2 2.007 2.007 0 0 0 1.197-2.526 2.02 2.02 0 0 0-1.883-1.331Zm34.017-.44c-.172 0-.346.043-.518.087a1.954 1.954 0 0 0-1.374 2.443 1.994 1.994 0 0 0 2.45 1.374c1.034-.302 1.681-1.374 1.378-2.445a2.009 2.009 0 0 0-1.936-1.459Zm-113.177-1.03c-.555 0-1.07.214-1.496.687-.686.815-.599 2.057.21 2.786.818.728 2.1.642 2.786-.216.728-.815.64-2.057-.17-2.783a2.189 2.189 0 0 0-1.33-.474Zm20.244-2.598c-.428 0-.858.127-1.206.43-.859.687-1.026 1.937-.341 2.795.689.861 1.936.99 2.796.301.861-.687 1.035-1.933.301-2.797a1.985 1.985 0 0 0-1.55-.73Zm19.93-1.112c-.344 0-.728.084-1.027.297-.944.558-1.246 1.8-.642 2.7a1.957 1.957 0 0 0 2.74.641c.899-.555 1.2-1.797.643-2.741-.384-.6-1.03-.897-1.714-.897Zm17.724-1.227c-.303 0-.603.042-.905.215-.952.478-1.34 1.689-.867 2.682.52.993 1.732 1.386 2.682.865.994-.517 1.382-1.686.864-2.681h.043a2.069 2.069 0 0 0-1.817-1.081Zm-64.492-.034c-.639 0-1.282.344-1.666.902-.6.942-.342 2.141.597 2.743.903.6 2.141.34 2.743-.602.6-.9.302-2.141-.602-2.741a2.023 2.023 0 0 0-1.072-.302Zm99.707-.824c-.212 0-.476.042-.69.127a2.018 2.018 0 0 0-1.163 2.592 2.008 2.008 0 0 0 2.587 1.165c.995-.389 1.514-1.552 1.123-2.59a2 2 0 0 0-1.857-1.294Zm-17.038-.535c-.255 0-.51.042-.768.127-1.03.473-1.454 1.63-1.03 2.615.43 1.031 1.627 1.458 2.613 1.031a2.005 2.005 0 0 0 1.03-2.618 2.029 2.029 0 0 0-1.845-1.155Zm34.653-.7c-.219 0-.435.042-.65.086-1.074.385-1.632 1.499-1.286 2.53h.04a1.976 1.976 0 0 0 2.496 1.243c1.033-.343 1.59-1.459 1.247-2.53-.26-.818-1.033-1.33-1.847-1.33Zm-96.032-1.808c-.517 0-1.035.214-1.42.6a1.98 1.98 0 0 0 0 2.798 2.021 2.021 0 0 0 2.838 0 1.976 1.976 0 0 0 0-2.798l-.04-.04c-.388-.346-.863-.56-1.378-.56Zm-28.564-.116c-.726 0-1.456.428-1.795 1.157-.433.987 0 2.186.98 2.655.988.43 2.182 0 2.613-.984.468-.987.044-2.186-.944-2.615-.297-.127-.557-.213-.854-.213Zm49.331-1.658c-.428 0-.856.131-1.198.386-.9.645-1.07 1.886-.384 2.786.639.857 1.88 1.026 2.779.384.857-.684 1.03-1.926.389-2.785-.429-.513-.986-.771-1.586-.771Zm-57.08-1.215c-.857 0-1.625.56-1.882 1.415-.302 1.071.297 2.142 1.327 2.444 1.07.34 2.139-.258 2.48-1.328a1.96 1.96 0 0 0-1.37-2.444c-.172-.087-.385-.087-.556-.087Zm75.41-.508a1.97 1.97 0 0 0-1.081.303c-.908.563-1.208 1.816-.643 2.77.56.908 1.812 1.21 2.762.647.95-.605 1.21-1.816.65-2.766-.392-.608-1.04-.954-1.687-.954Zm36.084-1.274c-.257 0-.559.044-.816.172-.993.474-1.469 1.64-.993 2.631.427.994 1.637 1.473 2.633.994.99-.43 1.424-1.638.99-2.632a1.983 1.983 0 0 0-1.814-1.165ZM9.665 99.2c-.94 0-1.8.684-1.97 1.67-.129 1.118.599 2.102 1.71 2.273a2.006 2.006 0 0 0 2.229-1.673 1.992 1.992 0 0 0-1.667-2.27h-.302Zm102.188-.332c-.297 0-.641.04-.901.213-.981.513-1.367 1.713-.857 2.655.513.987 1.714 1.371 2.655.86a2.001 2.001 0 0 0 .86-2.702c-.345-.642-1.031-1.026-1.757-1.026Zm-64.025-.516c-.6 0-1.157.258-1.545.776a1.982 1.982 0 0 0 .299 2.795c.86.69 2.107.518 2.796-.344.69-.863.562-2.108-.3-2.755-.389-.3-.815-.472-1.25-.472Zm99.3-.49c-.216 0-.474.044-.73.128-.991.432-1.504 1.543-1.118 2.575h.042c.386 1.027 1.55 1.498 2.578 1.113.993-.429 1.51-1.587 1.075-2.572h.048a2.06 2.06 0 0 0-1.894-1.245Zm-77.645-2.119c-.473 0-.988.171-1.33.516-.81.728-.857 1.972-.126 2.785.73.813 1.971.855 2.784.13.812-.73.857-2.013.126-2.829v.043a1.985 1.985 0 0 0-1.454-.645Zm-28.492-2.212c-.647 0-1.291.303-1.677.906a1.966 1.966 0 0 0 .644 2.752c.901.603 2.15.3 2.708-.602a1.964 1.964 0 0 0-.6-2.753 1.933 1.933 0 0 0-1.075-.303Zm47.466-.089c-.433 0-.82.085-1.213.348a2.04 2.04 0 0 0-.43 2.81c.65.908 1.903 1.08 2.81.435.86-.65 1.08-1.904.432-2.77a1.912 1.912 0 0 0-1.6-.823Zm37.082-1.865c-.34 0-.644.043-.948.215-.948.522-1.337 1.728-.818 2.679.519.993 1.724 1.38 2.677.861a2.009 2.009 0 0 0 .858-2.718c-.386-.65-1.078-1.037-1.769-1.037Zm-17.797-.04c-.386 0-.73.087-1.03.3a1.96 1.96 0 0 0-.681 2.7c.557.944 1.798 1.242 2.739.684a2.05 2.05 0 0 0 .644-2.744c-.389-.598-1.03-.94-1.672-.94Zm36.075-1.436c-.302 0-.563.084-.861.215-.99.427-1.421 1.627-.95 2.615a1.97 1.97 0 0 0 2.627.942c.99-.427 1.463-1.63.99-2.617a2.02 2.02 0 0 0-1.806-1.155Zm-80.241-.268c-.56 0-1.073.213-1.504.642-.725.815-.639 2.056.132 2.785.812.729 2.097.684 2.826-.129.728-.815.686-2.057-.131-2.785a1.99 1.99 0 0 0-1.323-.513Zm-29.9-.347c-.731 0-1.46.386-1.764 1.12-.513.99-.082 2.153.901 2.626.993.47 2.2.085 2.67-.906a2.009 2.009 0 0 0-.946-2.668c-.254-.127-.557-.172-.86-.172Zm49.507-2.703c-.477 0-.905.127-1.293.475-.824.736-.957 1.991-.222 2.81.695.865 1.99.953 2.812.217.822-.69.95-1.944.215-2.81-.387-.477-.95-.692-1.512-.692Zm-57.247-.525c-.816 0-1.55.518-1.849 1.334-.388 1.036.172 2.198 1.2 2.54 1.035.345 2.196-.173 2.54-1.203.388-1.035-.172-2.198-1.204-2.539h-.043a1.593 1.593 0 0 0-.644-.132Zm77.18-1.752c-.384 0-.81.131-1.154.342a2 2 0 0 0-.473 2.787 1.989 1.989 0 0 0 2.784.471 2.021 2.021 0 0 0 .428-2.784c-.342-.516-.983-.816-1.585-.816Zm-45.965-.031a1.96 1.96 0 0 0-1.585.773c-.686.855-.515 2.099.341 2.785h.043c.857.64 2.1.469 2.74-.386.685-.9.514-2.141-.385-2.786a1.985 1.985 0 0 0-1.154-.386Zm64.207-.278a2.3 2.3 0 0 0-1.038.258c-.948.606-1.253 1.815-.689 2.763.604.951 1.814 1.251 2.76.647a1.975 1.975 0 0 0 .693-2.719 2.043 2.043 0 0 0-1.726-.949Zm-103.468-.26c-.904 0-1.72.644-1.936 1.55-.214 1.075.43 2.15 1.505 2.407 1.077.216 2.152-.429 2.409-1.504.214-1.075-.47-2.15-1.503-2.411-.172 0-.304-.043-.475-.043ZM9.672 82.56c-1.03 0-1.891.73-1.978 1.765a1.98 1.98 0 0 0 1.721 2.192h.043c1.075.13 2.067-.69 2.192-1.764.09-1.078-.685-2.066-1.76-2.193h-.218Zm130.357-.007c-.299 0-.644.085-.948.258-.943.514-1.331 1.714-.816 2.659.515.985 1.72 1.33 2.712.813.946-.515 1.332-1.713.816-2.658a1.949 1.949 0 0 0-1.764-1.072Zm-62.593-2c-.52 0-1.04.218-1.427.606a1.984 1.984 0 0 0 0 2.81 2.03 2.03 0 0 0 2.852 0 1.984 1.984 0 0 0 0-2.81 2.03 2.03 0 0 0-1.425-.605Zm-27.223-.834c-.646 0-1.288.344-1.674.944-.555.942-.297 2.141.644 2.741.941.558 2.14.3 2.74-.642a2.048 2.048 0 0 0-.64-2.743 1.946 1.946 0 0 0-1.07-.3Zm47.81-1.901c-.43 0-.898.13-1.242.43a1.975 1.975 0 0 0-.302 2.785c.686.86 1.971.987 2.786.302.857-.686.983-1.973.298-2.786-.384-.513-.942-.731-1.54-.731Zm18.721-.743c-.391 0-.78.127-1.125.344-.908.647-1.122 1.855-.521 2.806.65.864 1.901 1.121 2.764.475a1.96 1.96 0 0 0 .52-2.762 1.973 1.973 0 0 0-1.638-.863ZM42.931 75.65c-.728 0-1.414.386-1.756 1.115-.515.984-.128 2.141.857 2.656.984.469 2.182.082 2.655-.902.516-.984.085-2.183-.896-2.654a1.944 1.944 0 0 0-.86-.215Zm92.925-.431c-.343 0-.692.129-1.035.3-.903.558-1.25 1.8-.642 2.746.557.9 1.764 1.242 2.71.642a1.958 1.958 0 0 0 .689-2.7 1.992 1.992 0 0 0-1.722-.988Zm-64.646-.42c-.56 0-1.122.26-1.51.694a1.99 1.99 0 0 0 .216 2.811c.864.734 2.12.648 2.811-.217.733-.82.645-2.074-.215-2.812a2.008 2.008 0 0 0-1.302-.475Zm-35.944-2.535c-.768 0-1.543.473-1.84 1.284a1.95 1.95 0 0 0 1.154 2.53c.988.429 2.142-.086 2.568-1.113.389-1.03-.126-2.143-1.154-2.572a2.151 2.151 0 0 0-.728-.129Zm57.233-.79c-.473 0-.94.173-1.33.515a2.028 2.028 0 0 0-.126 2.831c.77.769 2.011.816 2.824.084.772-.77.817-2.013.086-2.786a1.985 1.985 0 0 0-1.454-.645Zm19.24-1.22c-.434 0-.905.13-1.252.432-.863.647-.995 1.897-.344 2.806a1.985 1.985 0 0 0 2.8.302c.865-.646 1.037-1.945.346-2.763a1.95 1.95 0 0 0-1.55-.777Zm-84.394-.646c-.857 0-1.674.557-1.885 1.457-.302 1.026.302 2.141 1.372 2.44h-.047c1.07.303 2.187-.299 2.484-1.37.3-1.03-.344-2.14-1.367-2.44-.218-.045-.389-.087-.557-.087Zm37.212-.042c-.605 0-1.208.26-1.595.82a2.04 2.04 0 0 0 .428 2.813c.907.65 2.164.432 2.811-.476.645-.863.433-2.119-.434-2.767-.388-.26-.778-.39-1.21-.39Zm66.74-1.42c-.386 0-.776.084-1.122.341a1.938 1.938 0 0 0-.513 2.744c.6.9 1.847 1.158 2.752.516.904-.603 1.158-1.846.518-2.746a1.975 1.975 0 0 0-1.635-.856Zm-112.089-.424c-.943 0-1.756.644-1.971 1.586-.171 1.07.515 2.141 1.627 2.312h-.042c1.072.216 2.142-.515 2.313-1.586.213-1.07-.473-2.097-1.585-2.312h-.342Zm-10.234.644c-.131 1.07.681 2.054 1.751 2.144a2.013 2.013 0 0 0 2.187-1.802c.084-1.07-.726-2.06-1.796-2.141-1.072-.087-2.058.684-2.142 1.799Zm77.57-2.85c-.51 0-1.023.216-1.454.647-.726.81-.686 2.055.13 2.784.813.769 2.059.729 2.784-.087.729-.815.729-2.057-.088-2.828a2.023 2.023 0 0 0-1.372-.516Zm-28.983-.665c-.695 0-1.345.347-1.732.955a2.06 2.06 0 0 0 .65 2.765c.95.562 2.201.26 2.764-.691.56-.908.305-2.164-.652-2.727a1.902 1.902 0 0 0-1.03-.302Zm48.74-1.115c-.472 0-.949.174-1.338.519-.82.691-.903 1.985-.172 2.806a1.988 1.988 0 0 0 2.807.172c.858-.734.903-1.987.172-2.806a1.899 1.899 0 0 0-1.47-.691Zm20.044-2.454c-.428 0-.814.13-1.204.432a1.923 1.923 0 0 0-.344 2.74l-.045.045c.69.858 1.939 1.027 2.8.343.906-.643 1.033-1.886.388-2.786-.388-.474-.993-.774-1.595-.774Zm-76.18-.584c-.735 0-1.422.39-1.767 1.083a2.014 2.014 0 0 0 .86 2.724c.952.476 2.16.088 2.679-.908.52-.95.13-2.161-.86-2.682-.305-.13-.607-.217-.912-.217Zm30.044-.708a1.93 1.93 0 0 0-1.496.729c-.686.855-.56 2.097.255 2.784.857.687 2.1.555 2.783-.256.684-.86.56-2.102-.257-2.788h-.042a1.86 1.86 0 0 0-1.243-.47Zm20.268-2.428c-.519 0-1.035.172-1.422.561a2.034 2.034 0 0 0 0 2.849 2.026 2.026 0 0 0 2.847 0 2.034 2.034 0 0 0 0-2.849c-.387-.39-.906-.561-1.425-.561Zm-58-.41c-.783 0-1.518.476-1.863 1.212-.387 1.038.088 2.206 1.08 2.636a1.996 1.996 0 0 0 2.637-1.08c.39-.996-.083-2.204-1.08-2.595a1.678 1.678 0 0 0-.775-.172Zm31.052-2.267c-.599 0-1.24.303-1.629.858-.64.9-.384 2.142.515 2.745h-.042c.899.644 2.14.428 2.786-.474.639-.855.426-2.097-.473-2.742a1.98 1.98 0 0 0-1.157-.387Zm47.528-.165c-.475 0-.906.17-1.296.473-.857.73-.944 1.972-.214 2.788.689.858 1.938.943 2.799.213.816-.684.946-1.93.214-2.787a2.059 2.059 0 0 0-1.503-.687Zm-86.531-.51c-.825 0-1.6.561-1.905 1.384-.345 1.081.255 2.21 1.295 2.51a1.982 1.982 0 0 0 2.507-1.256c.347-1.081-.213-2.202-1.295-2.55a2.465 2.465 0 0 0-.602-.087Zm-8.171-2.293c-.867 0-1.685.608-1.9 1.56-.262 1.081.388 2.117 1.468 2.377a1.99 1.99 0 0 0 2.417-1.47 1.955 1.955 0 0 0-1.508-2.38 1.603 1.603 0 0 0-.477-.087Zm67.954-.183c-.558 0-1.125.218-1.511.69-.734.82-.644 2.072.174 2.808.819.734 2.071.647 2.805-.17.733-.823.69-2.072-.173-2.81a1.847 1.847 0 0 0-1.295-.518Zm-76.21-1.46c-.992 0-1.814.737-1.987 1.688a1.998 1.998 0 0 0 1.687 2.291h-.047c1.13.173 2.12-.562 2.292-1.643.172-1.124-.562-2.117-1.642-2.29-.13-.047-.213-.047-.303-.047Zm48.41.025c-.686 0-1.328.347-1.712.947-.56.942-.26 2.142.681 2.7.944.6 2.14.297 2.697-.645.602-.944.3-2.144-.639-2.702v-.04a2.14 2.14 0 0 0-1.027-.26ZM9.676 49.28c-1.037 0-1.905.82-1.99 1.859a1.995 1.995 0 0 0 1.817 2.164 1.998 1.998 0 0 0 2.16-1.861c.085-1.081-.735-2.077-1.815-2.162h-.172Zm105.7-.82c-.475 0-.946.17-1.336.515a1.976 1.976 0 0 0-.083 2.83c.73.772 2.02.816 2.797.042.817-.729.817-1.971.083-2.787-.386-.43-.904-.6-1.461-.6Zm-27.583-2.163a1.89 1.89 0 0 0-1.55.779 1.989 1.989 0 0 0 .304 2.803c.859.692 2.156.52 2.8-.344a1.991 1.991 0 0 0-.302-2.806h-.042a1.812 1.812 0 0 0-1.21-.432Zm-28.607-.156c-.729 0-1.414.39-1.756 1.072a2.021 2.021 0 0 0 .814 2.702c.984.513 2.182.086 2.697-.858a1.994 1.994 0 0 0-.856-2.698c-.302-.13-.597-.218-.9-.218Zm-7.579-3.6c-.772 0-1.5.43-1.842 1.2-.426.987.047 2.145 1.03 2.618a2.006 2.006 0 0 0 2.613-1.03c.426-1.027-.05-2.187-1.03-2.616a1.708 1.708 0 0 0-.77-.171Zm57.789-.084c-.518 0-1.033.213-1.419.643-.778.77-.731 2.058.04 2.787.817.772 2.063.73 2.842-.086a1.962 1.962 0 0 0-.09-2.788c-.385-.343-.86-.556-1.373-.556ZM80.98 41.29c-.648 0-1.252.304-1.644.821a2.016 2.016 0 0 0 .477 2.806 2.058 2.058 0 0 0 2.806-.519c.604-.906.387-2.157-.518-2.764-.345-.257-.732-.344-1.12-.344Zm-37.207-1.834c-.817 0-1.587.516-1.887 1.329a2.01 2.01 0 0 0 1.201 2.531c1.026.342 2.18-.173 2.524-1.202.386-1.027-.129-2.187-1.201-2.529a1.726 1.726 0 0 0-.637-.129Zm-8.009-2.568c-.857 0-1.674.597-1.929 1.455-.3 1.071.344 2.142 1.372 2.442a1.95 1.95 0 0 0 2.437-1.371 1.972 1.972 0 0 0-1.367-2.442 2.056 2.056 0 0 0-.513-.084Zm67.35-.05c-.562 0-1.12.218-1.55.687-.69.858-.603 2.103.256 2.788.819.729 2.065.642 2.8-.214.729-.816.6-2.058-.217-2.787a1.927 1.927 0 0 0-1.29-.474Zm-29.297-.165c-.648 0-1.29.3-1.684.95a1.975 1.975 0 0 0 .694 2.718c.903.604 2.155.302 2.714-.647.56-.948.262-2.204-.69-2.763a2.04 2.04 0 0 0-1.034-.258Zm-46.23-1.759c-.902 0-1.758.642-1.932 1.585-.21 1.073.473 2.144 1.545 2.357a1.96 1.96 0 0 0 2.313-1.542 1.949 1.949 0 0 0-1.542-2.36c-.131 0-.258-.04-.384-.04Zm-8.267-1.415c-.985 0-1.842.729-1.969 1.715a1.93 1.93 0 0 0 1.67 2.229 1.928 1.928 0 0 0 2.226-1.673 1.93 1.93 0 0 0-1.67-2.23c-.083-.041-.172-.041-.257-.041Zm-8.39-.858c-1.028 0-1.885.816-1.97 1.844-.046 1.114.771 2.056 1.841 2.142 1.11.043 2.053-.77 2.14-1.844.042-1.113-.768-2.058-1.838-2.142h-.173Zm55.512-.157c-.691 0-1.38.39-1.771 1.081a2.009 2.009 0 0 0 .865 2.674c.948.52 2.158.132 2.675-.821a2.035 2.035 0 0 0-.82-2.717c-.305-.13-.602-.217-.95-.217Zm30.047-.92c-.607 0-1.164.256-1.55.772-.69.858-.517 2.101.344 2.788.903.642 2.15.471 2.794-.385.647-.9.473-2.143-.388-2.787a2.007 2.007 0 0 0-1.2-.387Zm-37.684-2.792c-.734 0-1.467.432-1.812 1.166-.431.991 0 2.157.996 2.634 1.03.474 2.196 0 2.672-.996.432-1.034 0-2.2-1.035-2.632a1.758 1.758 0 0 0-.821-.172Zm30.839-2.138c-.645 0-1.29.3-1.677.858-.6.9-.386 2.143.56 2.743a2.006 2.006 0 0 0 2.756-.513c.6-.9.386-2.143-.52-2.746-.343-.255-.729-.342-1.12-.342ZM50.999 25.49c-.82 0-1.597.52-1.901 1.296a2.008 2.008 0 0 0 3.755 1.425c.387-1.036-.13-2.201-1.163-2.59a1.955 1.955 0 0 0-.691-.13Zm-8.026-2.763c-.864 0-1.637.561-1.941 1.425-.3 1.034.26 2.16 1.34 2.462 1.037.344 2.155-.26 2.502-1.296a2.033 2.033 0 0 0-1.338-2.504 2.613 2.613 0 0 0-.563-.087Zm39.532-.683c-.689 0-1.336.343-1.722.985a1.96 1.96 0 0 0 .69 2.704c.943.555 2.15.255 2.707-.687.562-.9.259-2.146-.69-2.704a1.694 1.694 0 0 0-.985-.298Zm-47.724-1.602c-.865 0-1.686.602-1.943 1.553-.262 1.034.387 2.112 1.467 2.374 1.078.302 2.158-.39 2.413-1.428a1.988 1.988 0 0 0-1.465-2.414 1.526 1.526 0 0 0-.472-.085Zm-8.288-1.77c-.945 0-1.764.692-1.983 1.638-.172 1.078.564 2.16 1.641 2.332a1.932 1.932 0 0 0 2.283-1.598c.217-1.081-.516-2.115-1.596-2.332-.125 0-.213-.04-.345-.04Zm48.61-.79c-.69 0-1.375.385-1.765 1.075-.513.944-.127 2.143.86 2.658.949.516 2.15.172 2.668-.816.518-.942.132-2.143-.816-2.656a1.838 1.838 0 0 0-.948-.26Zm-56.976-.466c-.995 0-1.853.737-1.985 1.773a1.984 1.984 0 0 0 1.724 2.2c1.125.132 2.113-.645 2.203-1.726.174-1.12-.649-2.117-1.727-2.247h-.215Zm-8.323-.776v.045c-1.127-.085-2.073.731-2.118 1.857-.087 1.079.776 2.028 1.854 2.113 1.123.044 2.073-.777 2.116-1.898.084-1.079-.774-2.03-1.852-2.117Zm57.726-2.488c-.772 0-1.461.43-1.805 1.116a1.987 1.987 0 0 0 .944 2.66c1.032.47 2.194.041 2.667-.985.476-.988 0-2.146-.985-2.617a1.897 1.897 0 0 0-.821-.174Zm-7.785-3.343c-.776 0-1.552.471-1.856 1.243-.425 1.027.092 2.145 1.125 2.574.986.385 2.15-.087 2.58-1.116.386-1.03-.089-2.188-1.12-2.575a2.364 2.364 0 0 0-.729-.126Zm-7.963-2.92c-.816 0-1.634.517-1.89 1.333-.344 1.029.213 2.187 1.246 2.532 1.03.34 2.152-.218 2.538-1.245a1.996 1.996 0 0 0-1.289-2.53c-.174-.09-.39-.09-.605-.09Zm-8.13-2.485c-.86 0-1.637.558-1.896 1.459-.298 1.071.346 2.145 1.379 2.443 1.075.302 2.15-.345 2.454-1.416.298-1.027-.344-2.099-1.379-2.401a2.548 2.548 0 0 0-.558-.085ZM35.475 3.39c-.945 0-1.766.6-1.98 1.543-.212 1.072.477 2.146 1.552 2.361 1.075.211 2.108-.431 2.364-1.503.215-1.071-.475-2.143-1.55-2.36-.124-.04-.256-.04-.386-.04ZM27.13 1.803c-.948 0-1.804.687-1.936 1.674a1.982 1.982 0 0 0 1.635 2.27c1.075.173 2.11-.556 2.282-1.63a1.965 1.965 0 0 0-1.635-2.272v-.042h-.346ZM18.74.687c-.992 0-1.849.732-1.98 1.758-.088 1.072.689 2.06 1.764 2.188 1.12.087 2.108-.687 2.195-1.758.129-1.117-.647-2.06-1.765-2.188h-.214ZM10.307 0C9.274 0 8.37.816 8.327 1.845a1.954 1.954 0 0 0 1.893 2.101c1.075.087 2.023-.769 2.065-1.887C12.37.987 11.514.045 10.44 0h-.132Zm147.792 156.16c.497 0 .991.209 1.323.584.206.166.33.372.413.581.122.25.165.498.165.748 0 .5-.208.997-.578 1.37-.497.542-1.363.706-2.063.415-.25-.123-.456-.248-.623-.416a1.957 1.957 0 0 1-.576-1.37 1.8 1.8 0 0 1 .576-1.328c.372-.375.828-.584 1.363-.584M1.921 16.64c.247 0 .498.041.749.126.248.082.46.248.625.415.378.376.545.876.545 1.378 0 .251-.046.502-.125.753-.087.208-.254.418-.42.623-.165.169-.377.292-.625.42a2.196 2.196 0 0 1-1.46 0c-.252-.128-.46-.251-.626-.42a1.864 1.864 0 0 1-.42-.623A1.697 1.697 0 0 1 0 18.56c0-.54.21-1.002.584-1.378.336-.374.835-.541 1.337-.541m139.54 139.52c.243 0 .494.043.702.127.248.123.454.248.619.414.372.374.578.874.578 1.372 0 .247-.04.5-.165.747a1.788 1.788 0 0 1-.413.622c-.497.543-1.365.707-2.065.416-.248-.082-.456-.248-.621-.416-.167-.206-.332-.413-.411-.622-.086-.248-.165-.5-.165-.747 0-.498.203-.998.576-1.372.33-.332.827-.541 1.364-.541M1.921 32.64c.247 0 .498.046.749.128.248.124.46.252.625.419.166.208.333.416.42.627.08.251.125.5.125.753 0 .503-.167 1.004-.545 1.38-.664.71-2.001.71-2.71 0A1.97 1.97 0 0 1 0 34.566c0-.252.043-.502.164-.753.087-.21.212-.419.42-.627a1.938 1.938 0 0 1 1.337-.547m123.54 123.52c.496 0 .948.208 1.318.581.375.33.581.828.581 1.323 0 .247-.04.498-.165.745-.086.208-.205.454-.416.62-.16.167-.37.332-.616.413-.459.21-.994.21-1.45 0-.244-.081-.45-.246-.617-.414-.206-.165-.33-.411-.416-.62a1.641 1.641 0 0 1-.16-.744c0-.495.203-.992.576-1.323.373-.373.829-.581 1.364-.581M1.921 49.28c.247 0 .498.041.749.126.248.123.46.248.625.415.378.377.545.877.545 1.379 0 .251-.046.502-.125.753-.087.208-.254.416-.42.626-.165.169-.377.29-.625.418a2.224 2.224 0 0 1-1.46 0c-.252-.128-.46-.25-.626-.418a1.918 1.918 0 0 1-.42-.626A1.699 1.699 0 0 1 0 51.2c0-.502.21-1.002.584-1.379.167-.167.374-.292.625-.415.21-.085.459-.126.712-.126M108.8 156.16c.541 0 1.002.208 1.379.538.167.208.333.414.42.622.08.25.121.496.121.744 0 .498-.167.993-.541 1.364-.169.168-.377.333-.623.414-.461.21-1.003.21-1.466 0-.249-.081-.457-.246-.623-.414a1.938 1.938 0 0 1-.587-1.364c0-.248.046-.495.167-.744.086-.208.207-.414.42-.622.374-.33.83-.538 1.333-.538M1.921 65.28c.247 0 .498.043.749.126.248.123.46.25.625.415.378.376.545.878.545 1.378 0 .249-.046.502-.125.753a2.126 2.126 0 0 1-.42.623c-.165.169-.377.292-.625.42a2.196 2.196 0 0 1-1.46 0c-.252-.128-.46-.251-.626-.42-.208-.166-.333-.415-.422-.623A1.733 1.733 0 0 1 0 67.2c0-.5.21-1.002.584-1.378.336-.331.835-.541 1.337-.541M92.8 156.16c.253 0 .502.043.75.127.213.123.461.248.628.414.376.374.543.874.543 1.372 0 .5-.208.997-.543 1.37a1.936 1.936 0 0 1-2.088.415 1.64 1.64 0 0 1-.625-.416 1.94 1.94 0 0 1-.584-1.37c0-.497.208-.997.584-1.371.336-.332.833-.541 1.335-.541M1.92 81.92c.247 0 .498.043.749.165.248.082.46.206.625.415.378.33.545.828.545 1.326 0 .247-.046.496-.125.743-.087.25-.254.457-.42.623-.165.165-.377.33-.625.412a1.784 1.784 0 0 1-1.46 0c-.252-.082-.46-.247-.626-.412a1.326 1.326 0 0 1-.422-.623A1.682 1.682 0 0 1 0 83.826c0-.498.21-.996.584-1.326.336-.374.835-.58 1.337-.58m74.24 74.24c.247 0 .502.043.749.127.21.123.422.248.63.414.166.209.332.415.415.624a2.314 2.314 0 0 1 0 1.495c-.083.209-.25.416-.416.622-.543.543-1.378.707-2.129.416a4.68 4.68 0 0 1-.627-.416 5.004 5.004 0 0 1-.415-.622 2.318 2.318 0 0 1-.128-.747c0-.25.043-.498.128-.748.123-.209.248-.415.415-.624.377-.332.876-.541 1.378-.541M1.921 97.92c.247 0 .498.04.749.165.248.082.46.206.625.415.166.165.333.373.42.62.08.206.125.455.125.704 0 .29-.046.498-.125.747-.087.247-.254.453-.42.62a1.63 1.63 0 0 1-.625.414 1.802 1.802 0 0 1-1.46 0 1.63 1.63 0 0 1-.626-.414 1.342 1.342 0 0 1-.422-.62c-.119-.21-.162-.457-.162-.747 0-.25.043-.498.162-.704a1.33 1.33 0 0 1 .422-.62c.336-.374.835-.58 1.337-.58m58.238 58.24c.502 0 1.001.208 1.378.582.333.33.543.828.543 1.323a2.3 2.3 0 0 1-.128.745c-.128.208-.248.455-.415.62-.212.167-.42.292-.627.414a1.887 1.887 0 0 1-1.504 0 4.812 4.812 0 0 1-.625-.414c-.167-.165-.292-.412-.418-.62a2.357 2.357 0 0 1-.123-.745c0-.495.208-.993.54-1.323.208-.209.416-.333.626-.455.25-.084.502-.127.753-.127M1.92 114.56c.247 0 .498.084.749.165.248.084.46.251.625.416.378.371.545.828.545 1.364 0 .25-.046.497-.125.703a1.672 1.672 0 0 1-.42.62 1.636 1.636 0 0 1-.625.416 1.786 1.786 0 0 1-1.46 0 1.636 1.636 0 0 1-.626-.416 1.318 1.318 0 0 1-.422-.62 1.404 1.404 0 0 1-.162-.703c0-.536.21-.993.584-1.364.336-.37.835-.581 1.337-.581m41.598 41.6c.5 0 1 .209 1.376.54.333.375.545.875.545 1.373 0 .5-.212.997-.545 1.37-.543.542-1.422.706-2.13.415a2.03 2.03 0 0 1-.624-.416 2.094 2.094 0 0 1-.541-1.37c0-.497.208-.997.54-1.371.38-.332.88-.541 1.379-.541M1.92 130.56c.247 0 .498.046.749.128.248.083.46.25.625.417.166.167.333.377.42.629.08.208.125.46.125.753 0 .249-.046.503-.125.711-.087.252-.254.46-.42.63a1.625 1.625 0 0 1-.625.416 1.785 1.785 0 0 1-1.46 0c-.252-.083-.46-.25-.626-.417a1.352 1.352 0 0 1-.422-.629c-.119-.208-.162-.462-.162-.711 0-.545.21-1.005.584-1.382.336-.378.835-.545 1.337-.545m25.598 25.6c.502 0 1.001.209 1.378.584.167.166.292.372.42.581.08.25.123.498.123.748 0 .5-.21.997-.543 1.37-.543.542-1.42.706-2.129.415-.246-.082-.458-.248-.627-.416-.167-.166-.288-.372-.416-.622-.08-.248-.125-.5-.125-.747 0-.498.212-.998.54-1.33.382-.374.838-.583 1.379-.583M1.92 147.2c.247 0 .498.081.749.165.248.082.46.25.625.415.378.37.545.828.545 1.365 0 .25-.046.498-.125.704a1.674 1.674 0 0 1-.42.62c-.165.21-.377.333-.625.416a1.802 1.802 0 0 1-1.46 0 1.264 1.264 0 0 1-.626-.416 1.32 1.32 0 0 1-.422-.62 1.406 1.406 0 0 1-.162-.704c0-.537.21-.994.584-1.365.336-.372.835-.58 1.337-.58m8.977 8.96c.25 0 .497.043.705.127.248.123.454.248.619.414.208.209.33.415.413.624.124.25.165.498.165.748 0 .247-.04.5-.165.747-.083.25-.205.456-.413.622a1.9 1.9 0 0 1-2.065.416c-.25-.082-.456-.248-.623-.416a1.954 1.954 0 0 1-.574-1.37c0-.497.203-.997.574-1.371.372-.332.829-.541 1.364-.541"
        fill="#7FE3FF" fill-rule="evenodd" />
</svg>