<svg viewBox="0 0 640 232" fill="none" xmlns="http://www.w3.org/2000/svg">
<g id="Illustration">
<g id="Community  Chat Illustration">
<g id="Group 119">
<path id="Union" fill-rule="evenodd" clip-rule="evenodd" d="M93.9025 97.7764H37.8555V127.251H40.9519L40.9518 135.958L53.8982 127.251H93.9025V97.7764Z" fill="#00C8FF"/>
<path id="Union_2" fill-rule="evenodd" clip-rule="evenodd" d="M330.168 15.5874H386.215V45.0621H383.119L383.119 53.7687L370.174 45.0621H330.168V15.5874Z" fill="#00C8FF"/>
<path id="Union_3" fill-rule="evenodd" clip-rule="evenodd" d="M540.422 92.6748H596.469V122.15H593.372L593.372 130.857L580.425 122.15H540.422V92.6748Z" fill="#00C8FF"/>
<path id="Union_4" fill-rule="evenodd" clip-rule="evenodd" d="M292.082 121.017H236.035V150.491H239.132L239.132 159.198L252.077 150.491H292.082V121.017Z" fill="#00C8FF"/>
<g id="Union_5">
<mask id="path-5-inside-1_221_1131" fill="white">
<path fill-rule="evenodd" clip-rule="evenodd" d="M88.3283 92.6748H32.2812V122.15H35.3777L35.3777 130.857L48.3246 122.15H88.3283V92.6748Z"/>
</mask>
<path d="M32.2812 92.6748V90.1241H29.7306V92.6748H32.2812ZM88.3283 92.6748H90.879V90.1241H88.3283V92.6748ZM32.2812 122.15H29.7306V124.7H32.2812V122.15ZM35.3777 122.15L37.9284 122.15L37.9284 119.599H35.3777V122.15ZM35.3777 130.857L32.827 130.857L32.827 135.646L36.8012 132.974L35.3777 130.857ZM48.3246 122.15V119.599H47.5467L46.9011 120.033L48.3246 122.15ZM88.3283 122.15V124.7H90.879V122.15H88.3283ZM32.2812 95.2255H88.3283V90.1241H32.2812V95.2255ZM34.8319 122.15V92.6748H29.7306V122.15H34.8319ZM35.3777 119.599H32.2812V124.7H35.3777V119.599ZM37.9284 130.857L37.9284 122.15L32.827 122.15L32.827 130.857L37.9284 130.857ZM46.9011 120.033L33.9542 128.74L36.8012 132.974L49.7481 124.266L46.9011 120.033ZM88.3283 119.599H48.3246V124.7H88.3283V119.599ZM85.7776 92.6748V122.15H90.879V92.6748H85.7776Z" fill="#042238" mask="url(#path-5-inside-1_221_1131)"/>
</g>
<g id="Union_6">
<mask id="path-7-inside-2_221_1131" fill="white">
<path fill-rule="evenodd" clip-rule="evenodd" d="M335.742 10.4863H391.789V39.961H388.693L388.693 48.6676L375.747 39.961H335.742V10.4863Z"/>
</mask>
<path d="M391.789 10.4863V7.93563H394.34V10.4863H391.789ZM335.742 10.4863H333.191V7.93563H335.742V10.4863ZM391.789 39.961H394.34V42.5117H391.789V39.961ZM388.693 39.961L386.142 39.961L386.142 37.4103H388.693V39.961ZM388.693 48.6676L391.243 48.6676L391.243 53.457L387.269 50.7841L388.693 48.6676ZM375.747 39.961V37.4103H376.525L377.171 37.8445L375.747 39.961ZM335.742 39.961V42.5117H333.191V39.961H335.742ZM391.789 13.037H335.742V7.93563H391.789V13.037ZM389.238 39.961V10.4863H394.34V39.961H389.238ZM388.693 37.4103H391.789V42.5117H388.693V37.4103ZM386.142 48.6676L386.142 39.961L391.243 39.961L391.243 48.6676L386.142 48.6676ZM377.171 37.8445L390.116 46.551L387.269 50.7841L374.324 42.0776L377.171 37.8445ZM335.742 37.4103H375.747V42.5117H335.742V37.4103ZM338.293 10.4863V39.961H333.191V10.4863H338.293Z" fill="#042238" mask="url(#path-7-inside-2_221_1131)"/>
</g>
<g id="Union_7">
<mask id="path-9-inside-3_221_1131" fill="white">
<path fill-rule="evenodd" clip-rule="evenodd" d="M580.059 87.0073H534.23V111.108H536.763L536.763 118.227L547.348 111.108H580.059V87.0073Z"/>
</mask>
<path d="M534.23 87.0073V84.9217H532.145V87.0073H534.23ZM580.059 87.0073H582.145V84.9217H580.059V87.0073ZM534.23 111.108H532.145V113.194H534.23V111.108ZM536.763 111.108L538.848 111.108L538.848 109.023H536.763V111.108ZM536.763 118.227L534.677 118.227L534.677 122.144L537.927 119.958L536.763 118.227ZM547.348 111.108V109.023H546.712L546.184 109.378L547.348 111.108ZM580.059 111.108V113.194H582.145V111.108H580.059ZM534.23 89.093H580.059V84.9217H534.23V89.093ZM536.316 111.108V87.0073H532.145V111.108H536.316ZM536.763 109.023H534.23V113.194H536.763V109.023ZM538.848 118.227L538.848 111.108L534.677 111.108L534.677 118.227L538.848 118.227ZM546.184 109.378L535.599 116.497L537.927 119.958L548.512 112.839L546.184 109.378ZM580.059 109.023H547.348V113.194H580.059V109.023ZM577.973 87.0073V111.108H582.145V87.0073H577.973Z" fill="#042238" mask="url(#path-9-inside-3_221_1131)"/>
</g>
<g id="Union_8">
<mask id="path-11-inside-4_221_1131" fill="white">
<path fill-rule="evenodd" clip-rule="evenodd" d="M252.445 115.348H298.273V139.449H295.742L295.742 146.568L285.156 139.449H252.445V115.348Z"/>
</mask>
<path d="M298.273 115.348V113.262H300.359V115.348H298.273ZM252.445 115.348H250.359V113.262H252.445V115.348ZM298.273 139.449H300.359V141.535H298.273V139.449ZM295.742 139.449L293.656 139.449L293.656 137.363H295.742V139.449ZM295.742 146.568L297.827 146.568L297.827 150.485L294.578 148.299L295.742 146.568ZM285.156 139.449V137.363H285.792L286.32 137.718L285.156 139.449ZM252.445 139.449V141.535H250.359V139.449H252.445ZM298.273 117.434H252.445V113.262H298.273V117.434ZM296.188 139.449V115.348H300.359V139.449H296.188ZM295.742 137.363H298.273V141.535H295.742V137.363ZM293.656 146.568L293.656 139.449L297.827 139.449L297.827 146.568L293.656 146.568ZM286.32 137.718L296.906 144.838L294.578 148.299L283.992 141.18L286.32 137.718ZM252.445 137.363H285.156V141.535H252.445V137.363ZM254.531 115.348V139.449H250.359V115.348H254.531Z" fill="#042238" mask="url(#path-11-inside-4_221_1131)"/>
</g>
<g id="Group">
<path id="Fill 1" fill-rule="evenodd" clip-rule="evenodd" d="M336.254 87.729L336.659 230.289L446.581 230.261V87.729H336.254Z" fill="#00C8FF"/>
<path id="Fill 2" fill-rule="evenodd" clip-rule="evenodd" d="M356.04 114.597H382.423V95.9541H356.04V114.597Z" fill="#E6E9F0"/>
<path id="Fill 3" fill-rule="evenodd" clip-rule="evenodd" d="M356.04 140.914H382.423V123.917H356.04V140.914Z" fill="#E6E9F0"/>
<path id="Fill 4" fill-rule="evenodd" clip-rule="evenodd" d="M402.209 140.914H432.189V123.917H402.209V140.914Z" fill="#E6E9F0"/>
<path id="Fill 5" fill-rule="evenodd" clip-rule="evenodd" d="M402.209 176.006H432.189V149.688H402.209V176.006Z" fill="#E6E9F0"/>
<path id="Fill 6" fill-rule="evenodd" clip-rule="evenodd" d="M356.04 176.006H382.423V150.784H356.04V176.006Z" fill="#E6E9F0"/>
<path id="Fill 7" fill-rule="evenodd" clip-rule="evenodd" d="M344.049 224.806H398.613V188.618H344.049V224.806Z" fill="#E6E9F0"/>
<path id="Fill 8" fill-rule="evenodd" clip-rule="evenodd" d="M402.209 114.597H432.189V95.9541H402.209V114.597Z" fill="#E6E9F0"/>
<path id="Fill 9" fill-rule="evenodd" clip-rule="evenodd" d="M202.541 182.74V191.907L251.143 171.665L335.653 191.907V183.604L252.147 163.396L202.541 182.74Z" fill="#00C8FF"/>
<path id="Fill 10" fill-rule="evenodd" clip-rule="evenodd" d="M202.541 228.644H207.338V192.456H202.541V228.644Z" fill="#00C8FF"/>
<path id="Fill 11" fill-rule="evenodd" clip-rule="evenodd" d="M213.334 187.521L251.109 172.716V229.74H213.334L213.334 187.521Z" fill="#00C8FF"/>
<path id="Fill 12" fill-rule="evenodd" clip-rule="evenodd" d="M225.926 229.74H240.316V202.325H225.926V229.74Z" fill="#E6E9F0"/>
<path id="Fill 13" fill-rule="evenodd" clip-rule="evenodd" d="M22.6602 223.709H65.8316V194.101H22.6602V223.709Z" fill="#FFCD00"/>
<path id="Fill 14" fill-rule="evenodd" clip-rule="evenodd" d="M17.8643 185.875H120.996V177.103H17.8643V185.875Z" fill="#00C8FF"/>
<path id="Fill 15" fill-rule="evenodd" clip-rule="evenodd" d="M408.205 229.74H436.986V185.876H408.205V229.74Z" fill="#E6E9F0"/>
<path id="Fill 16" fill-rule="evenodd" clip-rule="evenodd" d="M263.102 220.967H309.871V196.842H263.102V220.967Z" fill="#FFCD00"/>
<path id="Fill 17" fill-rule="evenodd" clip-rule="evenodd" d="M344.049 223.709H399.212V188.069H344.049V223.709Z" fill="#FFCD00"/>
<path id="Fill 18" fill-rule="evenodd" clip-rule="evenodd" d="M321.262 229.192H326.658V189.714H321.262V229.192Z" fill="#00C8FF"/>
<path id="Fill 19" fill-rule="evenodd" clip-rule="evenodd" d="M74.8271 228.643H115.001V187.521H74.8271V228.643Z" fill="#00C8FF"/>
<path id="Fill 20" fill-rule="evenodd" clip-rule="evenodd" d="M86.2188 229.192H101.209V201.228H86.2188V229.192Z" fill="#E6E9F0"/>
<path id="Fill 21" fill-rule="evenodd" clip-rule="evenodd" d="M345.414 222.997H397.246V189.879H345.414V222.997ZM342.85 225.354H399.812V187.521H342.85V225.354Z" fill="#042238"/>
<path id="Fill 22" fill-rule="evenodd" clip-rule="evenodd" d="M128.191 111.306L134.787 113.499V143.108H128.191V111.306Z" fill="#00C8FF"/>
<path id="Fill 23" fill-rule="evenodd" clip-rule="evenodd" d="M123.993 229.741H199.543V217.678H123.993V229.741Z" fill="#00C8FF"/>
<path id="Fill 24" fill-rule="evenodd" clip-rule="evenodd" d="M150.975 229.74H173.76V200.132H150.975V229.74Z" fill="#E6E9F0"/>
<path id="Fill 25" fill-rule="evenodd" clip-rule="evenodd" d="M25.8685 220.737H62.6215V197.073H25.8685V220.737ZM22.6602 223.709H65.8316V194.101H22.6602V223.709Z" fill="#042238"/>
<path id="Fill 26" fill-rule="evenodd" clip-rule="evenodd" d="M56.2381 204.919L53.9996 202.874L41.8477 213.988L44.0862 216.033L56.2381 204.919Z" fill="#042238"/>
<path id="Fill 27" fill-rule="evenodd" clip-rule="evenodd" d="M166.564 222.064H169.562V215.484H166.564V222.064Z" fill="#042238"/>
<path id="Fill 28" fill-rule="evenodd" clip-rule="evenodd" d="M234.921 218.774H236.72V213.839H234.921V218.774Z" fill="#042238"/>
<path id="Fill 29" fill-rule="evenodd" clip-rule="evenodd" d="M95.8125 218.774H98.8105V213.839H95.8125V218.774Z" fill="#042238"/>
<path id="Fill 30" fill-rule="evenodd" clip-rule="evenodd" d="M428.592 220.967H431.59V216.033H428.592V220.967Z" fill="#042238"/>
<path id="Fill 31" fill-rule="evenodd" clip-rule="evenodd" d="M265.154 219.107H309.015V197.604H265.154V219.107ZM261.902 222.064H312.269V194.648H261.902V222.064Z" fill="#042238"/>
<path id="Fill 32" fill-rule="evenodd" clip-rule="evenodd" d="M302.676 203.949L300.298 201.776L288.285 212.763L290.662 214.936L302.676 203.949Z" fill="#042238"/>
<path id="Fill 33" fill-rule="evenodd" clip-rule="evenodd" d="M400.411 177.103H431.59V150.236H400.411V177.103Z" fill="#FFCD00"/>
<path id="Fill 34" fill-rule="evenodd" clip-rule="evenodd" d="M353.641 177.103H384.82V150.236H353.641V177.103Z" fill="#FFCD00"/>
<path id="Fill 35" fill-rule="evenodd" clip-rule="evenodd" d="M353.641 140.366H384.82V123.917H353.641V140.366Z" fill="#FFCD00"/>
<path id="Fill 36" fill-rule="evenodd" clip-rule="evenodd" d="M401.012 140.366H432.191V123.917H401.012V140.366Z" fill="#FFCD00"/>
<path id="Fill 37" fill-rule="evenodd" clip-rule="evenodd" d="M401.012 114.048H432.191V95.4053H401.012V114.048Z" fill="#FFCD00"/>
<path id="Fill 38" fill-rule="evenodd" clip-rule="evenodd" d="M353.043 114.048H384.222V95.4053H353.043V114.048Z" fill="#FFCD00"/>
<path id="Fill 39" fill-rule="evenodd" clip-rule="evenodd" d="M355.701 113.374H382.164V96.7305H355.701V113.374ZM355.701 139.951H382.164V124.726H355.701V139.951ZM355.701 175.231H382.164V151.302H355.701V175.231ZM355.701 148.332H382.163V142.92H355.701V148.332ZM355.701 121.757H382.163V116.343H355.701V121.757ZM385.422 93.7607H352.444V113.374V124.726V139.951V151.302V178.2H385.422V93.7607Z" fill="#042238"/>
<path id="Fill 40" fill-rule="evenodd" clip-rule="evenodd" d="M402.409 175.231H430.794V151.302H402.409V175.231ZM402.409 148.332H430.794V142.92H402.409V148.332ZM402.409 139.951H430.794V124.726H402.409V139.951ZM402.409 121.757H430.794V116.343H402.409V121.757ZM402.409 113.373H430.794V96.7297H402.409V113.373ZM399.213 178.2H433.989V151.302V139.951V124.726V113.374V93.7607H399.213V113.374H399.212V124.726H399.213V139.951H399.212V151.302H399.213V178.2Z" fill="#042238"/>
<path id="Fill 41" fill-rule="evenodd" clip-rule="evenodd" d="M408.914 228.834H435.3V186.703H408.914V228.834ZM327.887 85.0062H452.212V76.9312H327.887V85.0062ZM405.674 183.74V228.835H345.789V231.798H448.28C448.289 230.792 448.274 231.798 448.274 231.798V87.9687H455.452V73.9673H324.646V87.9687H335.233V229.515H338.474V87.9687H445.034V228.835H438.542V183.74H405.674Z" fill="#042238"/>
<path id="Fill 43" fill-rule="evenodd" clip-rule="evenodd" d="M334.296 190.562L252.42 170.553L251.872 170.418L202.469 190.261V185.136L252.132 165.186L334.296 185.268V190.562ZM334.294 228.836H328.944V192.324L334.294 193.631V228.836ZM325.705 228.835H322.361V190.714L325.705 191.531V228.835ZM319.122 228.835H253.624V173.914L319.122 189.922V228.835ZM250.381 228.835H241.833V199.723H223.441V228.835H214.98V188.474L250.381 174.255V228.835ZM226.682 228.835H238.592V202.687H226.682V228.835ZM211.74 228.835H208.351V191.138L211.74 189.776V228.835ZM205.11 228.835H202.469V193.5L205.11 192.439V228.835ZM199.229 217.514H174.277V198.608H148.752V217.514H123.8V154.583H199.229V217.514ZM174.276 228.835H199.228V220.478H174.276V228.835ZM151.993 228.835H171.037V201.572H151.993V228.835ZM123.8 228.835H148.752V220.478H123.8V228.835ZM17.7777 186.025H120.558V178.492H17.7777V186.025ZM117.046 228.836H120.559V188.988H117.046V228.836ZM113.805 228.836H104.214V198.4H84.4296V228.836H74.8402V188.988H113.805V228.836ZM87.6715 228.835H100.975V201.363H87.6715V228.835ZM17.7777 228.836H71.5982V188.988H17.7777V228.836ZM340.217 228.835H337.537L337.697 183.031L337.537 182.992L334.296 182.2L252.421 162.189L251.871 162.053L202.469 181.9V151.619H120.559V177.451H21.0804C21.0102 177.452 20.9457 177.459 20.8754 177.459H14.5389V228.835H14.2256V231.798H340.217V228.835Z" fill="#042238"/>
<path id="Fill 44" fill-rule="evenodd" clip-rule="evenodd" d="M113.856 152.948H211.792V142.838H113.856V152.948Z" fill="#E6E9F0"/>
<path id="Fill 45" fill-rule="evenodd" clip-rule="evenodd" d="M133.124 182.664H154.415V163.383H133.124V182.664Z" fill="#FFCD00"/>
<path id="Fill 46" fill-rule="evenodd" clip-rule="evenodd" d="M167.799 182.664H189.09V163.383H167.799V182.664Z" fill="#FFCD00"/>
<path id="Fill 47" fill-rule="evenodd" clip-rule="evenodd" d="M115.143 151.77H210.501V144.819H115.143V151.77ZM112.566 154.126H213.077V142.463H112.566V154.126Z" fill="#042238"/>
<path id="Fill 48" fill-rule="evenodd" clip-rule="evenodd" d="M123.371 142.463H199.196V136.206L126.405 110.986H123.371V142.463ZM201.773 144.818H120.797V108.63H126.879L127.099 108.707L201.773 134.58V144.818Z" fill="#042238"/>
<path id="Fill 49" fill-rule="evenodd" clip-rule="evenodd" d="M134.379 181.519H153.165V164.342H134.379V181.519ZM131.872 183.811H155.67V162.052H131.872V183.811Z" fill="#042238"/>
<path id="Fill 50" fill-rule="evenodd" clip-rule="evenodd" d="M170.264 181.519H189.049V164.342H170.264V181.519ZM167.759 183.811H191.555V162.052H167.759V183.811Z" fill="#042238"/>
<path id="Fill 51" fill-rule="evenodd" clip-rule="evenodd" d="M389.161 208.382L386.868 206.288L375.283 216.881L377.575 218.976L389.161 208.382Z" fill="#042238"/>
<path id="Fill 52" fill-rule="evenodd" clip-rule="evenodd" d="M389.161 198.861L386.868 196.766L375.283 207.359L377.575 209.454L389.161 198.861Z" fill="#042238"/>
<path id="Fill 53" fill-rule="evenodd" clip-rule="evenodd" d="M133.947 142.838H135.88V113.706H133.947V142.838Z" fill="#042238"/>
<path id="Fill 54" fill-rule="evenodd" clip-rule="evenodd" d="M126.916 142.838H128.849V110.638H126.916V142.838Z" fill="#042238"/>
<path id="Fill 55" fill-rule="evenodd" clip-rule="evenodd" d="M563.104 156.297H612.871V150.266H563.104V156.297Z" fill="#E6E9F0"/>
<path id="Fill 56" fill-rule="evenodd" clip-rule="evenodd" d="M510.232 227.434H556.726V156.077H510.232V227.434Z" fill="#E6E9F0"/>
<path id="Fill 57" fill-rule="evenodd" clip-rule="evenodd" d="M447.58 230.242H511.138V156.077H447.58V230.242Z" fill="#022C52" fill-opacity="0.01"/>
<path id="Fill 58" fill-rule="evenodd" clip-rule="evenodd" d="M556.511 227.435H606.935V184.052H556.511V227.435Z" fill="#E6E9F0"/>
<path id="Fill 59" fill-rule="evenodd" clip-rule="evenodd" d="M556.511 184.654H606.935V156.077H556.511V184.654Z" fill="#E6E9F0" fill-opacity="0.01"/>
<path id="Fill 60" fill-rule="evenodd" clip-rule="evenodd" d="M455.195 229.814H502.23V191.198H455.195V229.814Z" fill="#00C8FF"/>
<path id="Fill 61" fill-rule="evenodd" clip-rule="evenodd" d="M556.725 231.283H608.254V184.477H556.725V231.283Z" fill="#00C8FF"/>
<path id="Fill 62" fill-rule="evenodd" clip-rule="evenodd" d="M556.523 192.135H613V184.653H556.523V192.135Z" fill="#E6E9F0"/>
<path id="Fill 63" fill-rule="evenodd" clip-rule="evenodd" d="M446.623 156.077H505.645V149.701H446.623V156.077Z" fill="#E6E9F0"/>
<path id="Fill 64" fill-rule="evenodd" clip-rule="evenodd" d="M504.271 156.077H562.665V149.701H504.271V156.077Z" fill="#E6E9F0"/>
<path id="Fill 65" fill-rule="evenodd" clip-rule="evenodd" d="M504.271 156.077H562.665V149.701H504.271V156.077Z" fill="#E6E9F0"/>
<path id="Fill 66" fill-rule="evenodd" clip-rule="evenodd" d="M511.523 230.243H557.095V157.355H511.523V230.243Z" fill="#00C8FF"/>
<path id="Fill 67" fill-rule="evenodd" clip-rule="evenodd" d="M557.964 230.474H597.516V197.394H557.964V230.474Z" fill="#E6E9F0"/>
<path id="Fill 68" fill-rule="evenodd" clip-rule="evenodd" d="M557.46 230.482H597.99V196.294H557.46V230.482Z" fill="#FFCD00"/>
<path id="Fill 69" fill-rule="evenodd" clip-rule="evenodd" d="M568.758 184.051H596.22V165.468H568.758V184.051Z" fill="#FFCD00"/>
<path id="Fill 70" fill-rule="evenodd" clip-rule="evenodd" d="M591.452 174.334L589.876 172.895L581.918 180.172L583.494 181.61L591.452 174.334Z" fill="#042238"/>
<path id="Fill 71" fill-rule="evenodd" clip-rule="evenodd" d="M523.818 181.894H542.585V166.731H523.818V181.894Z" fill="#E6E9F0"/>
<path id="Fill 72" fill-rule="evenodd" clip-rule="evenodd" d="M523.14 184.053H543.463V166.222H523.14V184.053Z" fill="#FFCD00"/>
<path id="Fill 73" fill-rule="evenodd" clip-rule="evenodd" d="M524.695 182.496H542.259V167.778H524.695V182.496ZM523.494 183.594H543.462V166.68H523.494V183.594Z" fill="#042238"/>
<path id="Fill 74" fill-rule="evenodd" clip-rule="evenodd" d="M525.34 181.906H541.617V168.367H525.34V181.906ZM522.852 184.183H544.105V166.091H522.852V184.183Z" fill="#042238"/>
<path id="Fill 75" fill-rule="evenodd" clip-rule="evenodd" d="M523.818 230.473H542.585V202.56H523.818V230.473Z" fill="#E6E9F0"/>
<path id="Fill 76" fill-rule="evenodd" clip-rule="evenodd" d="M524.695 228.652H542.259V203.228H524.695V228.652ZM523.494 230.55H543.462V201.331H523.494V230.55Z" fill="#042238"/>
<path id="Fill 77" fill-rule="evenodd" clip-rule="evenodd" d="M524.139 203.189H542.819V202.468H524.139V203.189ZM525.34 228.611H541.617V204.366H525.34V228.611ZM524.139 230.509H542.819V229.789H524.139V230.509ZM522.852 231.687H544.105V201.29H522.852V231.687Z" fill="#042238"/>
<path id="Fill 78" fill-rule="evenodd" clip-rule="evenodd" d="M221.139 229.264H219.911H0.0449219V231.345H219.911H221.139H625.151V229.264H221.139Z" fill="#042238"/>
<path id="Fill 79" fill-rule="evenodd" clip-rule="evenodd" d="M1.28555 230.755H625.105V229.853H1.28555V230.755ZM0 231.933H626.394V228.675H0V231.933Z" fill="#042238"/>
<path id="Fill 80" fill-rule="evenodd" clip-rule="evenodd" d="M456.855 202.745H501.187V201.1H456.855V202.745Z" fill="#042238"/>
<path id="Fill 81" fill-rule="evenodd" clip-rule="evenodd" d="M457.338 202.304H500.704V201.541H457.338V202.304ZM456.371 203.187H501.668V200.658H456.371V203.187Z" fill="#042238"/>
<path id="Fill 82" fill-rule="evenodd" clip-rule="evenodd" d="M456.855 212.611H501.187V210.966H456.855V212.611Z" fill="#042238"/>
<path id="Fill 83" fill-rule="evenodd" clip-rule="evenodd" d="M457.338 212.168H500.704V211.406H457.338V212.168ZM456.371 213.052H501.668V210.523H456.371V213.052Z" fill="#042238"/>
<path id="Fill 84" fill-rule="evenodd" clip-rule="evenodd" d="M456.855 222.477H501.187V220.832H456.855V222.477Z" fill="#042238"/>
<path id="Fill 85" fill-rule="evenodd" clip-rule="evenodd" d="M456.737 222.035H500.103V221.273H456.737V222.035ZM455.772 222.918H501.069V220.389H455.772V222.918Z" fill="#042238"/>
<path id="Fill 86" fill-rule="evenodd" clip-rule="evenodd" d="M607.892 185.547H557.459V184.448H606.69V156.976H607.892V185.547Z" fill="#042238"/>
<path id="Fill 87" fill-rule="evenodd" clip-rule="evenodd" d="M608.536 186.136H556.817V183.859H606.048V156.387H608.536V186.136Z" fill="#042238"/>
<path id="Fill 88" fill-rule="evenodd" clip-rule="evenodd" d="M614.174 193.249H557.46V192.15H612.979V185.576H607.575V184.478H614.174V193.249Z" fill="#042238"/>
<path id="Fill 89" fill-rule="evenodd" clip-rule="evenodd" d="M614.815 193.837H556.814V191.56H612.335V186.165H606.929V183.888H614.815V193.837Z" fill="#042238"/>
<path id="Fill 90" fill-rule="evenodd" clip-rule="evenodd" d="M597.423 184.997H596.222V165.469H568.76V184.997H567.559V164.37H597.423V184.997Z" fill="#042238"/>
<path id="Fill 91" fill-rule="evenodd" clip-rule="evenodd" d="M598.068 185.586H595.58V166.057H569.404V185.586H566.915V163.781H598.068V185.586Z" fill="#042238"/>
<path id="Fill 92" fill-rule="evenodd" clip-rule="evenodd" d="M502.843 229.915H501.185V192.266H456.853V229.915H455.195V190.325H502.843V229.915Z" fill="#042238"/>
<path id="Fill 93" fill-rule="evenodd" clip-rule="evenodd" d="M501.67 229.474H502.362V190.767H455.68V229.474H456.373V191.824H501.67V229.474ZM503.325 230.358H500.703V192.707H457.337V230.358H454.713V189.884H503.325V230.358Z" fill="#042238"/>
<path id="Fill 94" fill-rule="evenodd" clip-rule="evenodd" d="M598.717 230.474H597.989V197.495H557.489V229.869H556.761V196.294H598.717V230.474Z" fill="#042238"/>
<path id="Fill 95" fill-rule="evenodd" clip-rule="evenodd" d="M557.405 196.907L598.074 196.883L557.405 196.907ZM599.36 231.063H597.345V198.084H558.132V230.457H556.117V195.706H599.36V231.063Z" fill="#042238"/>
<path id="Fill 96" fill-rule="evenodd" clip-rule="evenodd" d="M569.297 230.773H570.498V197.093H569.297V230.773Z" fill="#042238"/>
<path id="Fill 97" fill-rule="evenodd" clip-rule="evenodd" d="M568.65 231.362H571.14V196.505H568.65V231.362Z" fill="#042238"/>
<path id="Fill 98" fill-rule="evenodd" clip-rule="evenodd" d="M556.712 231.283H557.913V156.976H556.712V231.283Z" fill="#042238"/>
<path id="Fill 99" fill-rule="evenodd" clip-rule="evenodd" d="M556.068 231.872H558.558V156.387H556.068V231.872Z" fill="#042238"/>
<path id="Fill 100" fill-rule="evenodd" clip-rule="evenodd" d="M584.39 230.773H585.591V197.093H584.39V230.773Z" fill="#042238"/>
<path id="Fill 101" fill-rule="evenodd" clip-rule="evenodd" d="M583.747 231.362H586.236V196.505H583.747V231.362Z" fill="#042238"/>
<path id="Fill 102" fill-rule="evenodd" clip-rule="evenodd" d="M557.964 208.807H597.826V207.708H557.964V208.807Z" fill="#042238"/>
<path id="Fill 103" fill-rule="evenodd" clip-rule="evenodd" d="M557.318 209.396H598.468V207.119H557.318V209.396Z" fill="#042238"/>
<path id="Fill 104" fill-rule="evenodd" clip-rule="evenodd" d="M447.973 156.13L612.956 156.255V151.144H447.926L447.973 156.13ZM614.173 157.356L613.563 157.355L446.765 157.227L446.697 150.045H614.173V157.356Z" fill="#042238"/>
<path id="Fill 105" fill-rule="evenodd" clip-rule="evenodd" d="M448.61 155.541L612.311 155.667V151.733H448.575L448.61 155.541ZM614.817 157.944L446.129 157.816L446.049 149.457H614.817V157.944Z" fill="#042238"/>
<path id="Fill 106" fill-rule="evenodd" clip-rule="evenodd" d="M563.193 156.91H564.395V150.697H563.193V156.91Z" fill="#042238"/>
<path id="Fill 107" fill-rule="evenodd" clip-rule="evenodd" d="M562.549 157.499H565.037V150.107H562.549V157.499Z" fill="#042238"/>
<path id="Fill 108" fill-rule="evenodd" clip-rule="evenodd" d="M504.535 156.971H505.737V150.595H504.535V156.971Z" fill="#042238"/>
<path id="Fill 109" fill-rule="evenodd" clip-rule="evenodd" d="M503.892 157.56H506.38V150.006H503.892V157.56Z" fill="#042238"/>
<path id="Fill 110" fill-rule="evenodd" clip-rule="evenodd" d="M607.053 229.979H608.254V192.988H607.053V229.979Z" fill="#042238"/>
<path id="Fill 111" fill-rule="evenodd" clip-rule="evenodd" d="M606.41 230.567H608.899V192.399H606.41V230.567Z" fill="#042238"/>
<path id="Fill 112" fill-rule="evenodd" clip-rule="evenodd" d="M510.324 230.243H511.526V156.971H510.324V230.243Z" fill="#042238"/>
<path id="Fill 113" fill-rule="evenodd" clip-rule="evenodd" d="M509.681 230.832H512.169V156.382H509.681V230.832Z" fill="#042238"/>
<path id="Fill 115" fill-rule="evenodd" clip-rule="evenodd" d="M446.99 230.243H448.923V156.13H446.99V230.243Z" fill="#042238"/>
<path id="Fill 116" fill-rule="evenodd" clip-rule="evenodd" d="M4.91895 187.742H122.085V178.089H4.91895V187.742Z" fill="#00C8FF"/>
<path id="Fill 117" fill-rule="evenodd" clip-rule="evenodd" d="M6.20615 186.563H120.795V179.267H6.20615V186.563ZM3.63086 188.919H123.372V176.911H3.63086V188.919Z" fill="#042238"/>
<path id="Fill 118" fill-rule="evenodd" clip-rule="evenodd" d="M538.064 221.324H540.124V217.799H538.064V221.324Z" fill="#042238"/>
<path id="Fill 119" fill-rule="evenodd" clip-rule="evenodd" d="M455.195 182.548H502.014V169.535H455.195V182.548Z" fill="#FFCD00"/>
<path id="Fill 120" fill-rule="evenodd" clip-rule="evenodd" d="M457.313 181.371H500.727V170.712H457.313V181.371ZM454.737 183.726H503.303V168.357H454.737V183.726Z" fill="#042238"/>
<path id="Fill 121" fill-rule="evenodd" clip-rule="evenodd" d="M485.682 182.548H488.257V169.535H485.682V182.548Z" fill="#042238"/>
<path id="Fill 122" fill-rule="evenodd" clip-rule="evenodd" d="M470.229 182.548H472.804V169.535H470.229V182.548Z" fill="#042238"/>
<path id="Fill 134" fill-rule="evenodd" clip-rule="evenodd" d="M640 31.6681C640 46.0086 627.286 57.634 611.602 57.634C595.918 57.634 583.203 46.0086 583.203 31.6681C583.203 17.3275 595.918 5.70215 611.602 5.70215C627.286 5.70215 640 17.3275 640 31.6681Z" fill="#FFCD00"/>
<path id="Fill 135" fill-rule="evenodd" clip-rule="evenodd" d="M608.552 2.24725C593.571 2.24725 581.382 13.3913 581.382 27.0894C581.382 40.7875 593.571 51.9315 608.552 51.9315C623.534 51.9315 635.722 40.7875 635.722 27.0894C635.722 13.3913 623.534 2.24725 608.552 2.24725ZM578.924 27.0897C578.924 12.153 592.214 0 608.551 0C624.887 0 638.178 12.153 638.178 27.0897C638.178 36.5937 632.797 44.9708 624.675 49.8072C620.032 52.5717 614.493 54.1794 608.551 54.1794C592.214 54.1794 578.924 42.0264 578.924 27.0897Z" fill="#042238"/>
</g>
</g>
<g id="Icon / TurboTenant / Favicon">
<path id="tt-T-color" fill-rule="evenodd" clip-rule="evenodd" d="M616.378 33.8402C616.307 34.1984 616.238 34.6301 616.238 34.9177C616.238 35.8861 616.866 36.3892 618.091 36.3892C618.93 36.3892 619.875 36.1738 620.785 35.7786L619.806 39.5476C618.79 40.0137 617.636 40.2292 616.342 40.2292C613.369 40.2292 611.725 38.7577 611.725 36.4959C611.725 35.7786 611.83 35.0244 612.041 34.3067L614.523 24.688H612.181L613.159 20.9551H615.504L616.866 15.75H621.1L619.734 20.9551H624.666L623.686 24.688H618.755L616.378 33.8402ZM609.765 21.2773L609.178 24.8121L596.824 24.8307L597.413 21.2773H609.765ZM606.827 37.0524L607.412 33.5171H595.06L594.471 37.0706L606.827 37.0524ZM608.196 27.1998L607.616 30.7351L591.333 30.7533L591.915 27.1998H608.196Z" fill="#042238"/>
</g>
</g>
</g>
</svg>
