<svg width="199" height="32" fill="none"
  xmlns="http://www.w3.org/2000/svg">
  <g clip-path="url(#a)">
    <path d="M3.814 12.434c1.106 0 1.913.238 2.42.714.508.473.762 1.125.762 1.957 0 .375-.057.735-.17 1.079-.113.34-.299.642-.556.908-.254.265-.594.476-1.02.633-.426.152-.951.228-1.576.228h-.78V21H1.079v-8.566h2.736Zm-.093 1.488h-.826v2.543h.597c.34 0 .635-.045.885-.135.25-.09.443-.23.58-.422.137-.191.205-.437.205-.738 0-.422-.117-.735-.351-.938-.235-.207-.598-.31-1.09-.31Zm12.698 2.783c0 .66-.082 1.262-.246 1.805a3.81 3.81 0 0 1-.75 1.394 3.26 3.26 0 0 1-1.266.903c-.512.207-1.117.31-1.816.31-.7 0-1.305-.103-1.817-.31a3.309 3.309 0 0 1-1.271-.903 3.852 3.852 0 0 1-.744-1.4 6.245 6.245 0 0 1-.247-1.81c0-.887.145-1.659.434-2.315a3.31 3.31 0 0 1 1.348-1.535c.605-.364 1.375-.545 2.308-.545.93 0 1.694.181 2.291.545a3.286 3.286 0 0 1 1.336 1.535c.293.66.44 1.436.44 2.326Zm-6.252 0c0 .598.074 1.113.222 1.547.153.43.389.762.71.996.32.23.734.346 1.242.346.515 0 .933-.116 1.254-.346.32-.234.552-.566.697-.996.148-.434.222-.95.222-1.547 0-.898-.168-1.605-.503-2.121-.336-.516-.89-.774-1.659-.774-.511 0-.93.118-1.254.352-.32.23-.556.563-.709.996-.148.43-.222.946-.222 1.547Zm18.58-4.271L26.567 21H24.5l-1.16-4.5a9.387 9.387 0 0 1-.095-.393 43.738 43.738 0 0 1-.24-1.166 8.163 8.163 0 0 1-.064-.445c-.012.11-.035.256-.07.44-.032.183-.069.379-.112.585a21.187 21.187 0 0 1-.21.99L21.393 21h-2.063l-2.185-8.566h1.787l1.096 4.675c.031.141.066.309.105.504.043.196.084.4.123.616.043.21.08.416.112.615.035.195.06.365.076.51a40.045 40.045 0 0 1 .176-1.12c.039-.207.078-.398.117-.574.039-.176.074-.318.105-.428l1.248-4.798h1.717l1.248 4.798c.027.106.059.248.094.428a17.924 17.924 0 0 1 .223 1.184c.035.195.06.365.076.51a25.695 25.695 0 0 1 .421-2.245l1.09-4.675h1.787ZM34.79 21h-4.933v-8.566h4.933v1.488h-3.117v1.88h2.9v1.489h-2.9V19.5h3.117V21Zm4.32-8.566c.777 0 1.417.093 1.921.28.508.188.885.471 1.131.85.246.38.37.858.37 1.436 0 .39-.075.732-.224 1.025a2.338 2.338 0 0 1-.585.745 3.46 3.46 0 0 1-.786.498L43.456 21H41.44l-2.045-3.287h-.966V21h-1.817v-8.566h2.496Zm-.13 1.488h-.55v2.314h.585c.602 0 1.032-.1 1.29-.299.261-.203.392-.5.392-.89 0-.406-.14-.695-.422-.867-.277-.172-.709-.258-1.295-.258ZM49.498 21h-4.934v-8.566h4.934v1.488H46.38v1.88h2.9v1.489h-2.9V19.5h3.117V21Zm8.93-4.365c0 .965-.185 1.771-.557 2.42-.367.644-.9 1.13-1.6 1.459-.698.324-1.54.486-2.525.486h-2.425v-8.566h2.69c.897 0 1.677.16 2.337.48.66.316 1.172.787 1.535 1.412.363.621.545 1.39.545 2.309Zm-1.887.047c0-.633-.093-1.153-.28-1.559a1.852 1.852 0 0 0-.821-.908c-.36-.195-.805-.293-1.336-.293h-.967V19.5h.78c.886 0 1.544-.236 1.974-.709.434-.473.65-1.176.65-2.11Zm6.84-4.248h2.666c1.14 0 2.004.16 2.59.48.585.32.878.883.878 1.688 0 .324-.052.617-.158.878-.101.262-.25.477-.445.645a1.474 1.474 0 0 1-.715.328v.059c.285.058.543.16.773.304.23.141.415.348.551.622.14.269.211.628.211 1.078 0 .52-.127.965-.38 1.336-.255.37-.618.656-1.09.855-.47.195-1.028.293-1.676.293H63.38v-8.566Zm1.816 3.392h1.055c.527 0 .892-.082 1.095-.246.204-.168.305-.414.305-.738 0-.328-.121-.563-.363-.703-.239-.145-.617-.217-1.137-.217h-.955v1.904Zm0 1.442V19.5h1.184c.546 0 .927-.105 1.142-.316.215-.211.323-.495.323-.85 0-.211-.047-.396-.141-.557-.094-.16-.252-.285-.475-.375-.219-.09-.521-.134-.908-.134h-1.125Zm8.942-1.307 1.787-3.527h1.957l-2.841 5.232V21h-1.805v-3.275l-2.842-5.291h1.969l1.775 3.527Z" fill="#042238"/>
    <path fill-rule="evenodd" clip-rule="evenodd" d="M147.289 17.025a4.227 4.227 0 0 1 2.612-.893 4.36 4.36 0 0 1 4.363 4.364c0 2.38-1.983 4.364-4.363 4.364-2.413 0-4.364-1.984-4.364-4.364 0-.265.033-.529.066-.793l-2.843-1.786c-.958.893-2.248 1.455-3.636 1.455-.066 0-.132-.008-.198-.017-.067-.008-.133-.016-.199-.016l-2.049 4.86c1.024.826 1.686 2.049 1.686 3.437 0 2.38-1.984 4.364-4.364 4.364s-4.364-1.983-4.364-4.364c0-2.248 1.785-4.132 4-4.33l2.083-5.157c-.298-.232-.562-.53-.827-.827l-5.223 1.852c-.297 2.115-2.115 3.768-4.297 3.768-2.413 0-4.364-1.983-4.364-4.364 0-2.38 1.984-4.363 4.364-4.363 1.454 0 2.777.76 3.57 1.884l4.793-1.686c-.033-.165-.033-.297-.033-.463 0-.628.133-1.256.331-1.818l-4-3.008a4.27 4.27 0 0 1-2.149.595c-2.38 0-4.363-1.983-4.363-4.364 0-2.38 1.983-4.363 4.363-4.363 2.38 0 4.364 1.983 4.364 4.363 0 .463-.066.893-.199 1.323l3.901 2.942a5.33 5.33 0 0 1 3.141-1.025c1.124 0 2.182.364 3.041.959L146 5.917a4.195 4.195 0 0 1-.298-1.553c0-2.38 1.984-4.364 4.364-4.364s4.364 1.983 4.364 4.364c0 2.38-1.984 4.363-4.364 4.363a4.345 4.345 0 0 1-1.95-.463l-4 3.77c.231.594.363 1.255.363 1.95 0 .43-.033.826-.132 1.223l2.942 1.818Zm-23.074 1.62c0 .66.496 1.19 1.19 1.19s1.223-.53 1.19-1.19c0-.695-.529-1.223-1.19-1.223-.661 0-1.19.528-1.19 1.223Zm8.562 8.958A1.22 1.22 0 0 0 134 28.826a1.22 1.22 0 0 0 1.223-1.223A1.22 1.22 0 0 0 134 26.38a1.22 1.22 0 0 0-1.223 1.223Zm18.545-23.206a1.22 1.22 0 0 0-1.223-1.223 1.2 1.2 0 0 0-1.223 1.223 1.22 1.22 0 0 0 1.223 1.223 1.2 1.2 0 0 0 1.223-1.223Zm-23.405-.232a1.22 1.22 0 0 0-1.223 1.223c0 .662.529 1.19 1.223 1.224a1.22 1.22 0 0 0 1.223-1.224 1.2 1.2 0 0 0-1.223-1.223Zm6.645 9.819a4.529 4.529 0 0 0 4.562 4.562 4.53 4.53 0 0 0 4.562-4.563 4.55 4.55 0 0 0-4.562-4.562 4.529 4.529 0 0 0-4.562 4.563Zm14.149 6.512c0 .661.496 1.19 1.19 1.19s1.223-.529 1.19-1.19c0-.694-.529-1.223-1.19-1.223-.661 0-1.19.529-1.19 1.223Zm-54.215 3.603c.099.232.264.33.529.33h3.801c.265 0 .397-.098.397-.297 0-.099 0-.165-.033-.231l-2.942-6.248c-.033-.1 0-.199.1-.232.892-.363 1.619-.958 2.115-1.752.496-.793.76-1.686.76-2.744 0-1.057-.231-1.983-.694-2.81-.463-.793-1.124-1.42-1.95-1.884-.827-.463-1.786-.694-2.876-.694h-7.24c-.298 0-.463.165-.463.463v16c0 .297.165.463.463.463h3.636c.298 0 .463-.166.463-.463v-5.851c0-.133.066-.199.198-.199h.893c.132 0 .198.033.231.133l2.612 6.016Zm-3.934-12.496c0-.132.066-.198.198-.198h2.215c.53 0 .926.132 1.256.43.331.297.496.66.496 1.124 0 .43-.165.793-.496 1.09-.33.298-.727.43-1.256.43H90.76c-.132 0-.198-.066-.198-.198v-2.678Zm22.116-.198c.297 0 .463-.165.463-.463V8c0-.298-.166-.463-.463-.463h-11.339c-.298 0-.463.165-.463.463v16c0 .297.165.463.463.463h11.339c.297 0 .463-.166.463-.463v-2.975c0-.298-.166-.463-.463-.463h-7.075c-.132 0-.198-.066-.198-.199v-2.38c0-.132.066-.198.198-.198h4.298c.297 0 .463-.165.463-.463V14.38c0-.298-.166-.463-.463-.463h-4.298c-.132 0-.198-.066-.198-.198v-2.116c0-.132.066-.198.198-.198h7.075Zm2.578 13.058c-.297 0-.463-.166-.463-.463V8c0-.298.166-.463.463-.463h3.637c.297 0 .462.165.462.463v16c0 .297-.165.463-.462.463h-3.637ZM164.678 8c0-.298.165-.463.462-.463h3.637c.297 0 .463.165.463.463v16c0 .297-.166.463-.463.463h-3.637c-.297 0-.462-.166-.462-.463v-5.95c0-.133-.067-.199-.199-.199h-3.636c-.132 0-.198.066-.198.198V24c0 .298-.166.464-.463.464h-3.637c-.297 0-.462-.166-.462-.463V8c0-.298.165-.463.462-.463h3.637c.297 0 .463.165.463.463v5.752c0 .132.066.198.198.198h3.636c.132 0 .199-.066.199-.198V8Zm9.355 15.802a8.352 8.352 0 0 0 3.471.727c1.322 0 2.446-.232 3.504-.727a5.508 5.508 0 0 0 2.314-2.116c.562-.893.827-1.95.827-3.174V7.934c0-.298-.165-.463-.463-.463h-3.636c-.298 0-.463.165-.463.463v10.578c0 .662-.165 1.19-.562 1.587s-.893.595-1.488.595c-.628 0-1.124-.198-1.52-.595-.364-.396-.562-.925-.562-1.587V7.934c0-.298-.166-.463-.463-.463h-3.637c-.297 0-.462.165-.462.463v10.578c0 1.19.264 2.248.826 3.174.529.892 1.322 1.62 2.314 2.116Zm22.909-8.199c-.066.033-.099.066-.099.132 0 .034.033.1.099.133.661.396 1.19.925 1.521 1.52.33.628.496 1.356.496 2.248 0 1.653-.595 2.876-1.752 3.67-1.157.793-2.678 1.157-4.496 1.157h-6.447c-.297 0-.462-.166-.462-.463V8c0-.298.165-.463.462-.463h6.182c2.05 0 3.604.364 4.661 1.091 1.025.727 1.554 1.95 1.554 3.67 0 1.52-.562 2.611-1.719 3.305Zm-6.38-4.165c-.132 0-.198.066-.198.198v2.281c0 .133.066.199.198.199h1.917c1.19 0 1.752-.43 1.752-1.323 0-.892-.595-1.322-1.752-1.322h-1.917v-.033Zm2.116 9.124c1.157 0 1.719-.463 1.719-1.422 0-.892-.562-1.355-1.686-1.355h-2.149c-.132 0-.198.066-.198.198v2.38c0 .133.066.199.198.199h2.116Zm-54.383-6.083v2.248h-1.812v-2.975h-1.12l3.69-3.339 3.689 3.34h-1.12v2.974h-1.845V14.48h-1.482Z" fill="#431C5D"/>
  </g>
  <defs>
    <clipPath id="a">
      <path fill="#fff" d="M0 0h198.959v32H0z"/>
    </clipPath>
  </defs>
</svg>