<?xml version="1.0" encoding="UTF-8"?>
<svg width="80px" height="80px" viewBox="0 0 80 80" version="1.1" xmlns="http://www.w3.org/2000/svg" xmlns:xlink="http://www.w3.org/1999/xlink">
    <title>1B6B692F-6CDA-46B2-937F-641CB2D785DC</title>
    <g id="Standalone-Screening" stroke="none" stroke-width="1" fill="none" fill-rule="evenodd">
        <g id="M.Screen-a-Renter" transform="translate(-248.000000, -270.000000)" fill="#00C8FF">
            <g id="Screen-Modal" transform="translate(16.000000, 22.000000)">
                <g id="Card" transform="translate(16.000000, 102.000000)">
                    <path d="M294.665241,146.082629 C294.540891,146.123378 294.434795,146.207139 294.352656,146.289769 C294.269376,146.372398 294.186096,146.476534 294.142745,146.599912 C294.102816,146.725553 294.08,146.848931 294.08,146.97231 C294.08,147.097951 294.102816,147.221329 294.142745,147.325465 C294.186096,147.448843 294.269376,147.552979 294.352656,147.634476 C294.434795,147.738612 294.540891,147.801999 294.665241,147.842747 C294.894545,147.945751 295.166061,147.945751 295.395365,147.842747 C295.520856,147.801999 295.62467,147.738612 295.70795,147.634476 C295.811765,147.552979 295.87451,147.448843 295.917861,147.325465 C295.978324,147.221329 296,147.097951 296,146.97231 C296,146.848931 295.978324,146.725553 295.917861,146.599912 C295.87451,146.476534 295.811765,146.372398 295.70795,146.289769 C295.54025,146.104136 295.29041,146 295.03943,146 C294.916221,146 294.790731,146.040749 294.665241,146.082629 Z M291.518753,221.2 C291.766416,221.2 292.015209,221.305501 292.201804,221.491545 C292.572732,221.864768 292.572732,222.466009 292.201804,222.839232 C291.829745,223.213589 291.207762,223.213589 290.835703,222.839232 C290.464774,222.466009 290.464774,221.864768 290.856058,221.491545 L290.856058,221.491545 L290.835703,221.491545 C291.021167,221.305501 291.26996,221.2 291.518753,221.2 Z M241.723856,220.165873 C242.263757,220.208441 242.676067,220.68497 242.631174,221.246635 C242.589825,221.788199 242.113719,222.19851 241.573817,222.157124 C241.011469,222.112191 240.601522,221.636845 240.642871,221.096464 C240.687764,220.5549 241.121339,220.165873 241.637613,220.165873 L241.723856,220.165873 Z M249.717681,220.18207 C250.252694,220.246496 250.66127,220.717391 250.616783,221.274968 C250.552395,221.810289 250.081771,222.216758 249.546758,222.153503 C248.989502,222.110162 248.583267,221.638096 248.646486,221.082862 C248.688631,220.567454 249.11828,220.18207 249.63222,220.18207 L249.717681,220.18207 Z M258.253746,220.15467 C258.297258,220.15467 258.339594,220.15467 258.383106,220.178197 C258.920539,220.220546 259.328611,220.715796 259.265107,221.273392 C259.201603,221.810991 258.70533,222.199191 258.167897,222.156842 C257.608121,222.092142 257.222392,221.596892 257.287072,221.059294 C257.329408,220.54287 257.759825,220.15467 258.253746,220.15467 Z M266.72368,220.176498 C267.279562,220.262016 267.644688,220.777468 267.581493,221.312835 L267.558088,221.312835 C267.496063,221.848202 266.981141,222.233619 266.445154,222.148101 C265.910337,222.083669 265.526486,221.568218 265.611916,221.032851 C265.675111,220.540829 266.103433,220.176498 266.596119,220.176498 L266.72368,220.176498 Z M274.612804,220.185447 C274.678976,220.185447 274.741603,220.206371 274.806593,220.206371 C275.347784,220.312157 275.694004,220.822487 275.585294,221.353741 C275.477764,221.886158 274.959025,222.246527 274.419015,222.141904 C273.879006,222.033793 273.510335,221.523463 273.619045,220.971285 C273.726575,220.502804 274.138967,220.185447 274.612804,220.185447 Z M282.90149,220.162399 C283.009038,220.162399 283.117767,220.183688 283.224133,220.20616 C283.744145,220.378837 284.024243,220.96192 283.851693,221.481136 C283.677962,222.000351 283.117767,222.281839 282.597755,222.109162 C282.078925,221.957773 281.797646,221.372325 281.971378,220.854292 C282.10138,220.442704 282.490208,220.162399 282.90149,220.162399 Z M225.378608,220.171103 C225.937591,220.192344 226.349162,220.666721 226.305529,221.207181 L226.327935,221.207181 C226.283122,221.767701 225.810228,222.199596 225.270114,222.157115 C224.709952,222.113453 224.29956,221.639076 224.320787,221.098617 C224.364421,220.559337 224.797219,220.171103 225.312568,220.171103 L225.378608,220.171103 Z M217.03677,219.524998 C217.595472,219.568374 218.004795,220.038478 217.982447,220.575405 C217.940103,221.133434 217.488437,221.541404 216.929735,221.51913 C216.391028,221.476926 215.960534,221.026752 216.002878,220.468723 C216.024049,219.932968 216.454544,219.524998 216.992074,219.524998 L217.03677,219.524998 Z M233.373132,219.544862 C233.929143,219.587047 234.335324,220.058111 234.293184,220.594795 C234.272114,221.1514 233.800382,221.559187 233.243201,221.517002 C232.68836,221.494738 232.279838,221.002582 232.323148,220.465897 C232.365288,219.951477 232.79488,219.544862 233.308751,219.544862 L233.373132,219.544862 Z M284.738077,216.591757 C284.953173,216.591757 285.149359,216.65799 285.320727,216.786907 C285.776919,217.112155 285.86083,217.738999 285.538186,218.170693 C285.213179,218.626041 284.586801,218.734852 284.156609,218.388314 C283.700417,218.064248 283.591687,217.458693 283.937968,217.004528 C284.131791,216.744329 284.436707,216.591757 284.738077,216.591757 Z M275.801534,216.293457 C275.931514,216.293457 276.061494,216.335307 276.191475,216.379481 C276.687763,216.592215 276.947724,217.165319 276.731484,217.654724 C276.514062,218.165053 275.931514,218.398712 275.412774,218.185978 C274.915304,217.994168 274.678976,217.419902 274.892853,216.910735 C275.045284,216.528279 275.412774,216.293457 275.801534,216.293457 Z M267.472657,216.12786 C267.558088,216.12786 267.644688,216.148947 267.752354,216.170034 C268.264935,216.34107 268.565697,216.877608 268.414731,217.412975 C268.264935,217.927255 267.707883,218.227154 267.194131,218.077205 C266.659314,217.927255 266.360894,217.36963 266.510689,216.85535 C266.638249,216.405501 267.045506,216.12786 267.472657,216.12786 Z M258.964051,216.046807 C259.049899,216.046807 259.114579,216.046807 259.201603,216.066805 C259.717868,216.197381 260.062436,216.713805 259.9319,217.251403 C259.824884,217.789002 259.287451,218.1325 258.748842,218.0031 C258.21141,217.874876 257.886833,217.358453 257.997377,216.820854 C258.104393,216.34678 258.512466,216.046807 258.964051,216.046807 Z M250.381472,216.047097 C250.916484,216.154864 251.279403,216.667929 251.172869,217.203249 C251.087407,217.739742 250.552395,218.104041 250.016211,217.997445 C249.481199,217.911935 249.138182,217.396527 249.223644,216.83895 C249.310276,216.368055 249.738754,216.047097 250.209378,216.047097 L250.381472,216.047097 Z M242.287385,215.970529 C242.848552,216.056848 243.215969,216.577127 243.129726,217.117509 C243.042302,217.65789 242.523666,218.045734 241.983764,217.938131 C241.443863,217.873096 241.075265,217.355182 241.162689,216.791152 C241.227666,216.316988 241.661241,215.970529 242.134984,215.970529 L242.287385,215.970529 Z M225.830276,215.94065 C226.36921,216.005552 226.760734,216.50117 226.694694,217.04163 L226.694694,217.062871 C226.628653,217.60215 226.133353,217.989204 225.594418,217.926662 C225.033077,217.861759 224.645091,217.363781 224.709952,216.803261 C224.773634,216.307643 225.205253,215.94065 225.701733,215.94065 L225.830276,215.94065 Z M233.885833,215.365051 C234.420774,215.450593 234.807056,215.94392 234.721605,216.479433 C234.657225,217.03721 234.143354,217.40164 233.607242,217.336019 C233.0723,217.251649 232.68836,216.75715 232.751569,216.221637 C232.83819,215.728309 233.26427,215.365051 233.737173,215.365051 L233.885833,215.365051 Z M217.336705,215.322196 C217.359053,215.322196 217.402573,215.322196 217.444917,215.34447 C217.982447,215.386674 218.370598,215.880225 218.327078,216.415979 C218.26121,216.974008 217.7672,217.358532 217.22967,217.295227 C216.670968,217.253023 216.28164,216.759472 216.347509,216.223717 C216.391028,215.707892 216.820347,215.322196 217.336705,215.322196 Z M287.568596,213.759135 C287.894786,213.759135 288.194974,213.888052 288.392343,214.170723 C288.714986,214.602417 288.607438,215.22926 288.174883,215.554509 C287.721054,215.879758 287.094676,215.793419 286.770851,215.33807 C286.445843,214.906376 286.553391,214.277168 286.985947,213.954284 C287.180951,213.824185 287.374774,213.759135 287.568596,213.759135 Z M277.746512,212.72115 C277.940301,212.72115 278.135272,212.786249 278.308973,212.892035 C278.762722,213.189631 278.892703,213.806909 278.589021,214.252139 C278.266434,214.698532 277.660253,214.827568 277.206503,214.52881 C276.731484,214.231214 276.621591,213.615099 276.926454,213.167544 C277.120243,212.871111 277.422743,212.72115 277.746512,212.72115 Z M268.908588,212.270174 C269.057213,212.270174 269.185944,212.292432 269.334569,212.355692 C269.828426,212.570073 270.040247,213.169871 269.807361,213.661893 C269.59203,214.155086 268.991678,214.370639 268.500161,214.155086 C268.007474,213.919619 267.793314,213.340907 268.007474,212.848885 C268.179505,212.484555 268.542291,212.270174 268.908588,212.270174 Z M260.124765,212.022465 C260.234133,212.022465 260.341149,212.04364 260.448165,212.087165 C260.965606,212.258914 261.244318,212.82004 261.071446,213.334111 C260.878582,213.851711 260.318805,214.131686 259.803716,213.95876 C259.287451,213.76466 259.007563,213.205887 259.201603,212.689464 C259.328611,212.281265 259.717868,212.022465 260.124765,212.022465 Z M251.152967,211.97655 C251.238428,211.97655 251.344962,211.97655 251.430424,211.997634 C251.965436,212.148743 252.266308,212.703977 252.116457,213.219384 C251.965436,213.754705 251.409351,214.05575 250.895411,213.904642 C250.359228,213.754705 250.060698,213.219384 250.209378,212.684063 C250.339326,212.254167 250.723318,211.97655 251.152967,211.97655 Z M291.156678,211.92 C291.569142,211.92 291.979243,212.201488 292.109246,212.611893 C292.281795,213.132291 292.001698,213.716557 291.461594,213.888052 C290.942764,214.061912 290.380206,213.759135 290.207657,213.238737 C290.033925,212.698232 290.315205,212.137621 290.855308,211.98505 C290.942764,211.942472 291.050312,211.92 291.156678,211.92 Z M242.95606,211.817753 C243.042302,211.817753 243.129726,211.817753 243.194704,211.84022 C243.734605,211.969107 244.05831,212.509488 243.928355,213.029768 C243.798401,213.570149 243.257318,213.916608 242.741044,213.785355 C242.201143,213.656468 241.854991,213.116087 242.00503,212.574523 C242.113719,212.120461 242.502401,211.817753 242.95606,211.817753 Z M226.349162,211.731438 C226.391617,211.731438 226.456477,211.752678 226.521338,211.752678 C227.060273,211.861242 227.427031,212.379281 227.319716,212.918561 C227.212401,213.45902 226.694694,213.824833 226.155759,213.716269 C225.615645,213.630126 225.270114,213.090847 225.357381,212.551567 C225.443469,212.07719 225.875089,211.731438 226.349162,211.731438 Z M234.464084,211.207504 C234.529635,211.207504 234.592845,211.228596 234.657225,211.228596 C235.192167,211.357494 235.535138,211.870743 235.428618,212.407427 C235.319757,212.94294 234.784815,213.286278 234.249874,213.178472 C233.714932,213.07301 233.373132,212.536325 233.479652,212.000813 C233.586172,211.528577 233.994694,211.207504 234.464084,211.207504 Z M217.896583,211.141668 C217.961275,211.141668 218.004795,211.141668 218.068311,211.16277 C218.605841,211.24835 218.971644,211.763003 218.884604,212.298758 C218.79874,212.834512 218.284734,213.199107 217.747204,213.113527 C217.18615,213.027947 216.820347,212.514466 216.929735,211.977539 C216.992074,211.485161 217.422569,211.141668 217.896583,211.141668 Z M280.383932,209.597562 C280.643892,209.597562 280.881402,209.68126 281.076373,209.87307 C281.46395,210.255526 281.46395,210.871642 281.076373,211.276185 C280.68525,211.658642 280.057799,211.658642 279.66904,211.276185 C279.281462,210.871642 279.281462,210.255526 279.66904,209.87307 C279.86401,209.68126 280.123971,209.597562 280.383932,209.597562 Z M270.89806,208.629211 C271.089986,208.629211 271.262016,208.671384 271.434047,208.777989 C271.903329,209.077888 272.033229,209.699944 271.732468,210.148622 C271.434047,210.620728 270.81263,210.74842 270.363243,210.448521 C269.892792,210.148622 269.762891,209.548823 270.062482,209.077888 C270.256748,208.799076 270.576234,208.629211 270.89806,208.629211 Z M261.738239,208.148698 C261.889943,208.148698 262.016952,208.192224 262.168656,208.2581 C262.664929,208.493373 262.857793,209.096848 262.620241,209.592097 C262.38504,210.08617 261.781751,210.279094 261.286654,210.042645 C260.813902,209.806195 260.599869,209.225072 260.83507,208.729822 L260.83507,208.709824 C261.007942,208.365149 261.372503,208.148698 261.738239,208.148698 Z M252.480547,208.012598 C252.608154,208.012598 252.736932,208.034854 252.843466,208.077024 C253.358576,208.270302 253.614961,208.847792 253.420624,209.340944 C253.207555,209.85518 252.631568,210.111712 252.13753,209.919605 C251.62242,209.727499 251.364864,209.148837 251.559202,208.634601 C251.707881,208.248046 252.095385,208.012598 252.480547,208.012598 Z M244.123287,207.730012 C244.20953,207.730012 244.318219,207.752479 244.424545,207.773763 C244.944363,207.946401 245.245621,208.510431 245.071955,209.050812 C244.901832,209.568727 244.338303,209.848968 243.798401,209.677513 C243.282127,209.503692 242.99859,208.942027 243.171075,208.42293 C243.302211,208.012618 243.689712,207.730012 244.123287,207.730012 Z M227.233628,207.588308 C227.319716,207.588308 227.383398,207.609548 227.469486,207.630789 C228.00842,207.759414 228.333904,208.299873 228.204182,208.817912 L228.204182,208.839153 C228.07446,209.357192 227.535526,209.702944 226.996591,209.551899 C226.456477,209.423274 226.133353,208.882815 226.263074,208.343535 L226.263074,208.364776 C226.36921,207.910459 226.780782,207.588308 227.233628,207.588308 Z M235.449688,207.135498 C235.535138,207.135498 235.621759,207.135498 235.727108,207.177683 C236.24215,207.306581 236.54064,207.863186 236.413051,208.378778 C236.26205,208.914291 235.707209,209.215444 235.192167,209.064281 C234.657225,208.934212 234.357564,208.378778 234.506224,207.863186 C234.615085,207.413215 235.021266,207.135498 235.449688,207.135498 Z M218.691704,207.003345 C218.757572,207.003345 218.843436,207.003345 218.908128,207.024447 C219.446834,207.153403 219.789113,207.668056 219.660905,208.20381 C219.55387,208.739565 219.01634,209.083057 218.47881,208.952929 C217.940103,208.847419 217.616644,208.311665 217.72368,207.77591 C217.833068,207.324563 218.241214,207.003345 218.691704,207.003345 Z M283.558997,207.00174 C283.88513,207.00174 284.210081,207.172624 284.403869,207.448133 C284.705188,207.895688 284.577571,208.511804 284.123821,208.809399 C283.66889,209.108157 283.042621,209.001208 282.738939,208.533891 C282.43644,208.087498 282.54515,207.491144 283.018988,207.172624 C283.171419,207.066839 283.365208,207.00174 283.558997,207.00174 Z M273.381389,205.327978 C273.615445,205.327978 273.851841,205.392409 274.023872,205.563445 C274.452193,205.927776 274.493153,206.548661 274.129197,206.956336 C273.76641,207.36284 273.144993,207.406185 272.737736,207.064112 C272.311755,206.69861 272.267285,206.077725 272.630071,205.67005 L272.630071,205.650135 C272.823167,205.435754 273.104033,205.327978 273.381389,205.327978 Z M287.212627,205.089457 C287.601386,205.089457 287.968876,205.323116 288.121307,205.705572 C288.335184,206.194977 288.098856,206.768081 287.581298,206.981977 C287.082646,207.193549 286.500098,206.95989 286.28504,206.450723 C286.066436,205.961318 286.306309,205.387052 286.825049,205.174318 C286.952666,205.109219 287.082646,205.089457 287.212627,205.089457 Z M263.760962,204.492559 C263.932659,204.492559 264.126699,204.556083 264.299571,204.641957 C264.74998,204.943106 264.900508,205.568932 264.599452,206.019479 C264.299571,206.493554 263.696282,206.621778 263.22353,206.34298 C262.750777,206.040654 262.620241,205.418357 262.923649,204.965457 C263.116513,204.664308 263.437562,204.492559 263.760962,204.492559 Z M254.193289,204.177498 C254.322067,204.177498 254.490649,204.220839 254.621768,204.285265 C255.113464,204.520713 255.307801,205.12046 255.071319,205.612439 C254.833666,206.105591 254.236606,206.298868 253.743738,206.042336 C253.252042,205.806889 253.057705,205.20597 253.293017,204.735075 C253.46394,204.370776 253.8292,204.177498 254.193289,204.177498 Z M291.147486,203.92 C291.622505,203.92 292.031353,204.23852 292.141245,204.705838 C292.248774,205.237092 291.881284,205.747422 291.362545,205.85437 L291.341275,205.85437 C290.801266,205.961318 290.282526,205.620711 290.173815,205.089457 C290.066286,204.558203 290.433776,204.046711 290.950153,203.939762 C291.036412,203.92 291.102584,203.92 291.147486,203.92 Z M245.570507,203.773523 C245.69928,203.773523 245.830416,203.793625 245.959189,203.837376 C246.477825,204.053765 246.716469,204.637897 246.499091,205.13571 C246.284075,205.654807 245.69928,205.893662 245.204272,205.676091 C244.684454,205.480986 244.448173,204.896854 244.66437,204.377757 C244.814408,203.98873 245.183007,203.773523 245.570507,203.773523 Z M228.377537,203.50772 C228.462446,203.50772 228.57212,203.530141 228.658208,203.551382 C229.197142,203.723668 229.476633,204.285368 229.324505,204.803407 C229.152329,205.321446 228.592168,205.623537 228.07446,205.45125 C227.535526,205.299025 227.253676,204.739685 227.427031,204.199225 C227.555574,203.78975 227.944739,203.50772 228.377537,203.50772 Z M236.733781,203.12677 C236.840301,203.12677 236.947992,203.149034 237.054512,203.170127 C237.569554,203.362302 237.848145,203.920079 237.655004,204.433327 L237.655004,204.455591 C237.460693,204.970012 236.904682,205.226636 236.39081,205.055553 C235.878109,204.863378 235.621759,204.306773 235.792659,203.792352 C235.941319,203.384566 236.3276,203.12677 236.733781,203.12677 Z M219.725597,202.907225 C219.811461,202.907225 219.898501,202.928327 219.984364,202.950601 C220.521895,203.100659 220.823006,203.636414 220.671274,204.172169 C220.521895,204.687994 219.984364,205.009212 219.446834,204.859154 C218.9293,204.707923 218.605841,204.172169 218.757572,203.636414 C218.884604,203.186239 219.295103,202.907225 219.725597,202.907225 Z M276.314105,202.392246 C276.591461,202.392246 276.848922,202.498851 277.061912,202.73549 C277.404804,203.143166 277.361503,203.764051 276.956587,204.128381 C276.54816,204.492712 275.906848,204.449367 275.563957,204.020605 C275.200001,203.61293 275.244471,202.992045 275.649387,202.628886 C275.841313,202.478936 276.078879,202.392246 276.314105,202.392246 Z M266.191758,201.092867 C266.405791,201.092867 266.620999,201.15639 266.795047,201.308141 C267.224288,201.65164 267.307784,202.276289 266.965568,202.705662 C266.620999,203.136211 265.997718,203.200911 265.567301,202.856236 C265.136885,202.512738 265.04986,201.889265 265.416773,201.45754 C265.611989,201.22109 265.890702,201.092867 266.191758,201.092867 Z M256.226805,200.536848 C256.398899,200.536848 256.590895,200.579017 256.740745,200.685613 C257.21254,200.964402 257.363561,201.585233 257.061519,202.035043 C256.782891,202.50711 256.162417,202.655875 255.691793,202.356002 C255.242242,202.078384 255.091221,201.457553 255.369849,200.985486 C255.561845,200.685613 255.884959,200.536848 256.226805,200.536848 Z M247.36506,199.923455 C247.516279,199.923455 247.666318,199.94474 247.817538,200.031059 C248.293643,200.269914 248.487394,200.87533 248.251113,201.371961 C247.991204,201.868591 247.385144,202.064878 246.910219,201.804739 C246.412848,201.545781 246.219098,200.961649 246.477825,200.463837 L246.45656,200.463837 C246.65031,200.117378 246.996462,199.923455 247.36506,199.923455 Z M279.610777,199.906364 C279.930263,199.906364 280.252089,200.078572 280.444015,200.357384 C280.743606,200.828319 280.614875,201.428118 280.145594,201.729188 C279.693867,202.029087 279.07479,201.899053 278.774028,201.428118 C278.474437,200.978269 278.623063,200.357384 279.07479,200.057485 C279.24448,199.949709 279.439916,199.906364 279.610777,199.906364 Z M229.757304,199.494395 C229.86344,199.494395 229.99552,199.515636 230.102835,199.558117 C230.618184,199.752824 230.877627,200.335765 230.684224,200.853804 C230.490821,201.371843 229.908253,201.631452 229.390545,201.436745 C228.892886,201.242038 228.633443,200.660277 228.829204,200.141058 C228.978974,199.752824 229.346912,199.494395 229.757304,199.494395 Z M238.276566,199.227019 C238.404156,199.227019 238.531746,199.248111 238.660507,199.290296 C239.175549,199.527 239.387419,200.105869 239.175549,200.598025 C238.960168,201.113617 238.362017,201.326885 237.869215,201.113617 C237.375243,200.898006 237.139962,200.319137 237.354173,199.804716 C237.526244,199.441458 237.889114,199.227019 238.276566,199.227019 Z M220.950037,198.876756 C221.059425,198.876756 221.167636,198.897858 221.274672,198.920132 C221.812202,199.112394 222.090965,199.669251 221.918061,200.185076 L221.898066,200.185076 C221.725162,200.698556 221.167636,200.978743 220.650102,200.80641 C220.133744,200.63525 219.854981,200.077221 220.026708,199.541467 C220.156092,199.132324 220.543066,198.876756 220.950037,198.876756 Z M268.965947,197.973149 C269.224667,197.973149 269.483388,198.080198 269.676252,198.273122 C270.06198,198.661322 270.06198,199.285972 269.676252,199.671819 C269.289347,200.060019 268.642546,200.060019 268.256818,199.671819 C267.869913,199.285972 267.869913,198.661322 268.256818,198.273122 L268.27681,198.253124 C268.47085,198.080198 268.708402,197.973149 268.965947,197.973149 Z M283.248,197.914846 C283.610786,197.914846 283.975912,198.129227 284.145603,198.493558 C284.362104,198.986751 284.145603,199.58655 283.655256,199.820846 C283.161399,200.036398 282.564558,199.820846 282.349227,199.328824 C282.115171,198.83563 282.326991,198.235832 282.820848,198.021451 C282.969474,197.958191 283.099375,197.914846 283.248,197.914846 Z M258.582265,197.085961 C258.796505,197.085961 259.010744,197.151558 259.181667,197.279239 C259.631218,197.601368 259.716679,198.2222 259.373662,198.67201 C259.05406,199.100735 258.433586,199.185075 257.984035,198.864116 C257.555556,198.522073 257.468924,197.901242 257.789698,197.471345 C258.003937,197.214813 258.282565,197.085961 258.582265,197.085961 Z M287.122789,196.478611 C287.551111,196.478611 287.934962,196.758595 288.063692,197.186185 C288.214658,197.721552 287.915067,198.256919 287.400145,198.40804 C286.865328,198.577905 286.330511,198.279177 286.15965,197.74381 C286.008685,197.208443 286.310616,196.673077 286.845433,196.521955 C286.930863,196.478611 287.037359,196.478611 287.122789,196.478611 Z M249.417159,196.224742 C249.610909,196.224742 249.784575,196.268492 249.958242,196.376096 C250.411901,196.65752 250.561939,197.28422 250.279584,197.760748 C249.999591,198.21481 249.373447,198.366165 248.898522,198.084741 C248.423598,197.782033 248.293643,197.176617 248.573636,196.70127 C248.769749,196.39738 249.093454,196.224742 249.417159,196.224742 Z M231.375287,195.587273 C231.503829,195.587273 231.654778,195.609694 231.78332,195.673417 C232.279801,195.910605 232.518017,196.493546 232.279801,196.989164 C232.066349,197.485962 231.461375,197.725511 230.963715,197.485962 C230.468414,197.271194 230.251426,196.667012 230.468414,196.170215 C230.64177,195.803221 230.987301,195.587273 231.375287,195.587273 Z M291.167268,195.6 C291.63772,195.6 292.067212,195.942072 292.152642,196.435266 C292.217007,196.994062 291.853051,197.486084 291.297169,197.571602 C290.761182,197.636034 290.269665,197.271703 290.183065,196.735165 C290.097635,196.179883 290.481486,195.68669 291.016303,195.6 L291.167268,195.6 Z M240.073361,195.433902 C240.222021,195.433902 240.394092,195.453822 240.524023,195.540535 C241.014483,195.79716 241.207624,196.397121 240.952444,196.868185 C240.696094,197.361513 240.095601,197.553688 239.62504,197.298236 C239.132239,197.04044 238.939098,196.439306 239.195448,195.94715 C239.367519,195.626077 239.71049,195.433902 240.073361,195.433902 Z M272.08588,195.175756 C272.38576,195.175756 272.664473,195.305156 272.858513,195.563956 C273.203082,195.993329 273.139577,196.616802 272.709161,196.961476 C272.278744,197.306151 271.655463,197.220276 271.310894,196.789727 C270.966326,196.358001 271.02983,195.735705 271.461423,195.412205 C271.655463,195.26163 271.868319,195.175756 272.08588,195.175756 Z M222.435596,194.930694 C222.543808,194.930694 222.673191,194.952968 222.801399,194.995172 C223.296585,195.210881 223.553,195.766565 223.360101,196.28239 L223.338929,196.28239 C223.14603,196.795871 222.563803,197.031509 222.049797,196.839247 C221.553435,196.62471 221.294668,196.04558 221.512267,195.553201 L221.488743,195.553201 C221.66047,195.167505 222.026273,194.930694 222.435596,194.930694 Z M261.258499,193.871693 C261.494981,193.871693 261.752537,193.957203 261.92346,194.129396 C262.328524,194.493696 262.351938,195.115699 261.986678,195.522168 C261.621418,195.928637 261.000944,195.949722 260.594709,195.586594 C260.188474,195.222294 260.16623,194.580378 260.53149,194.172737 L260.53149,194.193822 C260.723486,193.980631 261.000944,193.871693 261.258499,193.871693 Z M275.504517,192.765386 C275.827918,192.765386 276.150142,192.917137 276.343007,193.218286 C276.645239,193.691184 276.494711,194.314657 276.020782,194.594632 C275.570373,194.895781 274.945916,194.74403 274.667204,194.293483 C274.363795,193.820584 274.495508,193.218286 274.967084,192.917137 C275.138781,192.808911 275.311653,192.765386 275.504517,192.765386 Z M251.771697,192.721133 C251.987894,192.721133 252.181644,192.763701 252.377757,192.894953 C252.80897,193.218945 252.91884,193.845646 252.592773,194.299708 C252.267887,194.75377 251.641742,194.840089 251.188083,194.517279 C250.758052,194.192104 250.648182,193.565404 250.971886,193.132626 C251.165637,192.851202 251.470439,192.721133 251.771697,192.721133 Z M233.230306,191.788716 C233.400124,191.788716 233.552252,191.809957 233.70438,191.8961 C234.178454,192.156889 234.373036,192.759891 234.113593,193.235448 C233.85415,193.732246 233.251534,193.925773 232.775101,193.666164 C232.279801,193.407735 232.086397,192.803553 232.345841,192.306755 C232.539244,191.982243 232.884775,191.788716 233.230306,191.788716 Z M242.128847,191.768511 C242.321988,191.768511 242.494059,191.811867 242.643889,191.918501 C243.11445,192.196218 243.26311,192.797351 242.984519,193.268415 C242.705928,193.74065 242.085537,193.889469 241.614976,193.610581 C241.165484,193.3106 241.014483,192.71181 241.293074,192.238403 C241.487386,191.939593 241.808116,191.768511 242.128847,191.768511 Z M224.091706,191.050283 C224.242262,191.050283 224.372822,191.092487 224.522201,191.158137 C225.017387,191.371501 225.232634,191.971734 224.997392,192.465285 C224.759796,192.958836 224.17757,193.1722 223.68356,192.936561 C223.188373,192.723197 222.951954,192.121792 223.188373,191.628242 C223.360101,191.264819 223.725903,191.050283 224.091706,191.050283 Z M264.212189,190.9163 C264.491988,190.9163 264.748373,191.022895 264.963783,191.237258 C265.326701,191.644898 265.283385,192.26573 264.898223,192.630029 C264.491988,192.994329 263.849271,192.972072 263.485181,192.565603 C263.121092,192.157963 263.142164,191.537131 263.550741,191.172832 C263.742736,191.00181 263.979219,190.9163 264.212189,190.9163 Z M279.161883,190.743216 C279.52762,190.743216 279.89218,190.936139 280.043884,191.303165 C280.300253,191.798414 280.085045,192.379538 279.593476,192.615987 C279.097203,192.85126 278.493914,192.658336 278.258714,192.163087 C278.021161,191.669014 278.235194,191.06554 278.731466,190.82909 C278.858475,190.765567 279.010179,190.743216 279.161883,190.743216 Z M254.408591,189.391344 C254.647234,189.391344 254.861068,189.455197 255.054819,189.629017 C255.467129,189.99676 255.533287,190.624643 255.165871,191.033772 C254.818538,191.46655 254.171128,191.5103 253.76,191.142557 C253.348871,190.797281 253.285075,190.170581 253.652492,189.737803 C253.846242,189.498947 254.127416,189.391344 254.408591,189.391344 Z M283.032105,189.129244 C283.440178,189.129244 283.807091,189.388044 283.956443,189.796243 C284.150483,190.313843 283.870595,190.894967 283.356682,191.06554 C282.839241,191.238465 282.258296,190.979665 282.0866,190.464418 C281.892559,189.946817 282.172448,189.365693 282.688713,189.195121 L282.709881,189.195121 C282.795729,189.152772 282.925089,189.129244 283.032105,189.129244 Z M244.441854,188.25311 C244.633825,188.25311 244.846865,188.318731 245.018936,188.424193 C245.468427,188.746438 245.574947,189.367492 245.255387,189.817463 C244.933485,190.268606 244.311923,190.37524 243.863603,190.052995 C243.434011,189.731922 243.327491,189.109696 243.649392,188.660897 C243.820292,188.4031 244.141023,188.25311 244.441854,188.25311 Z M267.424606,188.237353 C267.725477,188.237353 268.025178,188.366204 268.217174,188.623908 C268.560191,189.051462 268.474729,189.673465 268.046251,190.016679 L268.025178,190.016679 C267.5967,190.336466 266.975055,190.250956 266.655452,189.823402 C266.312436,189.373592 266.397897,188.75276 266.847448,188.43063 C267.019542,188.30295 267.23261,188.237353 267.424606,188.237353 Z M235.321184,188.098722 C235.495718,188.098722 235.666715,188.141204 235.84007,188.227347 C236.314144,188.530618 236.466272,189.1348 236.184422,189.609177 C235.882525,190.084734 235.27755,190.2346 234.804656,189.932509 C234.329403,189.652839 234.178454,189.048657 234.457945,188.5731 C234.652528,188.271009 234.975652,188.098722 235.321184,188.098722 Z M287.055208,187.968173 C287.506792,187.968173 287.914865,188.290497 288.023057,188.743397 C288.130073,189.280995 287.807849,189.818594 287.270416,189.946817 C286.731807,190.055043 286.194374,189.732719 286.06619,189.195121 C285.959174,188.657522 286.30139,188.119924 286.817655,187.989348 C286.903503,187.989348 286.96936,187.968173 287.055208,187.968173 Z M291.164158,187.28 C291.679247,187.28 292.109664,187.644673 292.153176,188.162273 C292.21668,188.699871 291.829775,189.195121 291.292342,189.258644 L291.271174,189.258644 C290.733742,189.323344 290.237469,188.91397 290.175141,188.376371 C290.130453,187.837597 290.517357,187.343524 291.05479,187.28 L291.164158,187.28 Z M225.985412,187.276554 C226.134791,187.276554 226.307695,187.318758 226.459426,187.40551 C226.931089,187.66225 227.125164,188.262483 226.867573,188.734932 C226.609982,189.227311 226.00776,189.399643 225.511397,189.14173 C225.038559,188.883818 224.84566,188.284757 225.103251,187.812309 C225.276154,187.468816 225.618433,187.276554 225.985412,187.276554 Z M257.281765,186.276762 C257.541674,186.276762 257.801583,186.385548 257.995333,186.57947 C258.384015,186.96968 258.384015,187.595198 257.995333,187.984225 C257.607833,188.374434 256.956879,188.374434 256.569379,187.984225 C256.180697,187.595198 256.180697,186.96968 256.569379,186.57947 C256.763129,186.385548 257.021856,186.276762 257.281765,186.276762 Z M270.893407,185.85945 C271.216522,185.85945 271.537295,186.031643 271.730462,186.331516 C272.007919,186.802411 271.879141,187.402158 271.408518,187.702032 C270.937894,187.98082 270.338493,187.851968 270.038792,187.381073 C269.760164,186.909007 269.908844,186.310432 270.358395,186.009387 C270.530488,185.902791 270.701411,185.85945 270.893407,185.85945 Z M246.988972,184.908792 C247.203182,184.908792 247.437292,184.974413 247.609363,185.124404 C248.037785,185.467741 248.103335,186.088795 247.760364,186.516502 C247.417393,186.946553 246.774761,187.00983 246.367409,186.667664 C245.938988,186.324327 245.875778,185.681009 246.21875,185.274394 C246.41072,185.01777 246.689311,184.908792 246.988972,184.908792 Z M237.627871,184.537354 C237.823632,184.537354 238.018215,184.601076 238.190391,184.70964 C238.644417,185.032971 238.751732,185.637153 238.451014,186.112711 C238.12553,186.544606 237.500508,186.673231 237.068888,186.349899 C236.614862,186.047808 236.487499,185.422386 236.809445,184.969249 C237.005207,184.688399 237.305925,184.537354 237.627871,184.537354 Z M274.534302,183.824762 C274.898392,183.824762 275.241408,184.01804 275.412331,184.382339 C275.669887,184.874319 275.47672,185.452981 274.983853,185.710685 C274.492157,185.944961 273.892755,185.751683 273.656273,185.259703 C273.398718,184.767723 273.614127,184.167977 274.104653,183.932529 C274.235772,183.866932 274.384452,183.824762 274.534302,183.824762 Z M228.072017,183.609507 C228.243744,183.609507 228.417824,183.673985 228.589551,183.759565 C229.041218,184.03858 229.214121,184.659914 228.910658,185.132363 C228.631895,185.582538 228.028497,185.753698 227.555659,185.453581 C227.08282,185.174567 226.931089,184.575507 227.211028,184.103058 C227.405103,183.781839 227.728562,183.609507 228.072017,183.609507 Z M260.394765,183.399853 C260.674758,183.399853 260.955932,183.529923 261.149682,183.746312 C261.517099,184.17909 261.45094,184.806973 261.042174,185.152249 C260.60978,185.51881 259.982455,185.476241 259.636303,185.043463 C259.270068,184.633152 259.31378,184.006452 259.743811,183.637526 C259.917478,183.486172 260.156121,183.399853 260.394765,183.399853 Z M278.367193,182.132117 C278.751184,182.132117 279.138688,182.368736 279.287368,182.774034 C279.481705,183.28827 279.224149,183.845847 278.71021,184.039125 C278.216172,184.253487 277.639014,183.995784 277.425945,183.482719 C277.231608,182.967312 277.489163,182.410906 278.003103,182.196543 C278.13071,182.153202 278.239586,182.132117 278.367193,182.132117 Z M249.750299,181.736729 C249.986751,181.736729 250.220861,181.823442 250.415172,181.994525 C250.820182,182.381219 250.842423,183.001102 250.478382,183.41006 C250.093271,183.79441 249.472879,183.817846 249.066698,183.452245 C248.680417,183.066722 248.658176,182.445668 249.023388,182.058974 C249.215358,181.845707 249.492778,181.736729 249.750299,181.736729 Z M240.130319,181.12703 C240.347308,181.12703 240.583166,181.191932 240.756521,181.342978 C241.188141,181.66631 241.254181,182.291732 240.928697,182.746049 C240.583166,183.176764 239.958143,183.242847 239.528883,182.897094 C239.096084,182.573762 239.009996,181.924739 239.355527,181.515264 C239.54893,181.255655 239.850828,181.12703 240.130319,181.12703 Z M282.32769,180.803772 C282.756169,180.803772 283.164745,181.08256 283.270109,181.532371 C283.42113,182.045435 283.119088,182.603012 282.584075,182.752949 L282.607489,182.752949 C282.072477,182.904057 281.51405,182.603012 281.36537,182.067691 C281.21552,181.552284 281.537464,180.99705 282.049062,180.847113 C282.157938,180.824857 282.2434,180.803772 282.32769,180.803772 Z M263.721599,180.783084 C264.024038,180.783084 264.325296,180.913154 264.519046,181.193396 C264.845114,181.64864 264.737606,182.27534 264.305212,182.599332 C263.851553,182.924507 263.223046,182.815721 262.899341,182.361659 C262.576818,181.930064 262.683144,181.302181 263.11672,180.978189 C263.31047,180.848119 263.505402,180.783084 263.721599,180.783084 Z M230.351521,180.072588 C230.54442,180.072588 230.739672,180.114792 230.912575,180.243749 C231.365418,180.543865 231.492449,181.1652 231.16899,181.615374 C230.869055,182.065549 230.245662,182.194505 229.792819,181.873287 C229.341152,181.571998 229.214121,180.950663 229.534052,180.500489 C229.728127,180.222647 230.030414,180.072588 230.351521,180.072588 Z M286.395893,179.860811 C286.867687,179.860811 287.273922,180.18294 287.381627,180.653835 C287.467089,181.189156 287.124072,181.724477 286.567987,181.809988 L286.589059,181.809988 C286.052876,181.917755 285.517864,181.552284 285.432402,181.016963 C285.325868,180.481642 285.668885,179.968578 286.22497,179.860811 L286.395893,179.860811 Z M291.513048,180.18294 C291.578607,180.718261 291.172372,181.210241 290.63736,181.254753 C290.078933,181.296923 289.60831,180.911539 289.543921,180.353962 C289.501775,179.818641 289.90684,179.324318 290.441852,179.28332 C290.978035,179.239979 291.470902,179.625363 291.513048,180.18294 Z M252.728179,178.758013 C252.983359,178.758013 253.23971,178.865819 253.455091,179.08143 C253.817961,179.486873 253.798062,180.109099 253.38954,180.473529 C252.983359,180.857879 252.360626,180.837958 251.997756,180.430172 C251.633715,180.022386 251.633715,179.401331 252.042237,179.015809 C252.234207,178.844726 252.470658,178.758013 252.728179,178.758013 Z M267.219736,178.425272 C267.567069,178.425272 267.891955,178.599093 268.085705,178.902984 C268.366879,179.377147 268.216841,179.983746 267.760819,180.285271 C267.285895,180.566695 266.65975,180.415341 266.378576,179.939995 C266.098584,179.485933 266.226175,178.85805 266.704644,178.576626 C266.875947,178.469023 267.049614,178.425272 267.219736,178.425272 Z M242.849757,177.867752 C243.085615,177.867752 243.323831,177.955075 243.518413,178.127362 C243.928805,178.473114 243.97008,179.119777 243.604501,179.530432 C243.237743,179.939907 242.61272,179.982389 242.201149,179.616575 C241.771888,179.249582 241.749481,178.622979 242.115061,178.213505 C242.310822,177.975136 242.590314,177.867752 242.849757,177.867752 Z M232.827453,176.64118 C233.041524,176.64118 233.234423,176.705658 233.429675,176.856888 C233.858993,177.176934 233.944857,177.799441 233.601402,178.227342 L233.62375,178.249616 C233.279119,178.678688 232.654549,178.763096 232.224055,178.420776 C231.771212,178.099558 231.707697,177.478223 232.029979,177.028048 C232.224055,176.791238 232.526342,176.64118 232.827453,176.64118 Z M270.917531,176.348884 C271.284947,176.348884 271.628736,176.543989 271.801221,176.890448 C272.06113,177.387078 271.867379,177.992494 271.37119,178.252634 C270.895084,178.490307 270.291386,178.296385 270.031478,177.798572 C269.771569,177.323226 269.9665,176.71781 270.461509,176.45767 C270.61391,176.392635 270.765129,176.348884 270.917531,176.348884 Z M255.895688,175.994908 C256.173108,175.994908 256.451699,176.121463 256.64367,176.359338 C256.986641,176.787045 256.923431,177.408099 256.51608,177.751437 C256.087658,178.094774 255.466096,178.029153 255.124295,177.623711 C254.782495,177.19366 254.844534,176.572606 255.253056,176.229268 L255.274126,176.229268 C255.445026,176.079278 255.659237,175.994908 255.895688,175.994908 Z M245.761419,174.78076 C246.020862,174.78076 246.279126,174.866904 246.472529,175.061611 C246.860515,175.451025 246.860515,176.097688 246.472529,176.485922 C246.085723,176.875336 245.435935,176.875336 245.049129,176.485922 C244.661143,176.097688 244.661143,175.451025 245.049129,175.061611 C245.242532,174.866904 245.501975,174.78076 245.761419,174.78076 Z M274.761819,174.576387 C275.152864,174.576387 275.520281,174.81406 275.692766,175.181803 C275.886516,175.7009 275.649054,176.285032 275.152864,176.500238 C274.634228,176.71781 274.049433,176.480137 273.834417,175.959857 C273.639485,175.462044 273.875766,174.857811 274.374319,174.662706 C274.50191,174.597671 274.634228,174.576387 274.761819,174.576387 Z M259.235268,173.442727 C259.534929,173.442727 259.855659,173.59389 260.049971,173.871606 C260.369531,174.321578 260.241941,174.942632 259.79245,175.243784 L259.81352,175.243784 C259.364028,175.566029 258.743637,175.458224 258.420565,175.007081 C258.101005,174.579374 258.207525,173.95832 258.657016,173.636074 C258.829087,173.508348 259.040956,173.442727 259.235268,173.442727 Z M235.471584,173.359829 C235.709179,173.359829 235.924426,173.445409 236.119678,173.59664 C236.54782,173.961234 236.59134,174.582569 236.226713,174.990539 C235.882083,175.419612 235.257513,175.461816 234.827018,175.097221 C234.418871,174.754901 234.35418,174.132394 234.719982,173.703322 C234.912882,173.488785 235.192821,173.359829 235.471584,173.359829 Z M278.737244,173.105415 C279.149554,173.105415 279.537054,173.385657 279.689456,173.79715 C279.861941,174.337531 279.561864,174.901562 279.042046,175.051733 C278.52341,175.224371 277.961061,174.94413 277.788576,174.42385 C277.61491,173.883469 277.894903,173.322986 278.435986,173.149166 C278.52341,173.126699 278.629736,173.105415 278.737244,173.105415 Z M282.822539,171.958435 C283.256114,171.958435 283.66488,172.262326 283.772388,172.738855 C283.903524,173.279236 283.578638,173.79715 283.038736,173.92722 C282.498834,174.05729 281.957751,173.732115 281.83016,173.191734 C281.697842,172.651353 282.043994,172.110972 282.583895,172.002186 C282.650054,171.980902 282.736297,171.958435 282.822539,171.958435 Z M248.845256,171.867235 C249.124747,171.867235 249.407776,171.975799 249.60118,172.211807 C249.967938,172.622462 249.923125,173.247885 249.513912,173.616058 C249.104699,173.983052 248.478498,173.93939 248.111739,173.531095 C247.744981,173.11926 247.766208,172.495018 248.197827,172.125664 C248.371182,171.954558 248.609399,171.867235 248.845256,171.867235 Z M286.950365,171.13663 C287.446554,171.13663 287.857683,171.505556 287.943926,171.980902 C288.031349,172.521283 287.663933,173.04038 287.100403,173.126699 L287.124031,173.126699 C286.55932,173.213018 286.064312,172.845275 285.978069,172.304894 C285.891827,171.743229 286.259243,171.246599 286.799145,171.160279 C286.864122,171.13663 286.905471,171.13663 286.950365,171.13663 Z M262.745748,171.149514 C263.088719,171.149514 263.40945,171.322941 263.60142,171.622922 C263.881181,172.093985 263.731351,172.693947 263.26079,172.972836 C262.789058,173.272816 262.190907,173.121654 261.912316,172.65059 C261.611485,172.178355 261.762486,171.578393 262.231876,171.299505 L262.231876,171.279584 C262.382877,171.192871 262.574847,171.149514 262.745748,171.149514 Z M291.16207,170.64 C291.680706,170.64 292.114282,171.050311 292.156812,171.569408 C292.200524,172.132256 291.789396,172.607602 291.248313,172.651353 C290.688327,172.695104 290.212221,172.284793 290.168509,171.720762 C290.125979,171.180381 290.535926,170.682568 291.075828,170.64 L291.16207,170.64 Z M238.312142,170.229709 C238.549738,170.229709 238.78498,170.315289 238.980232,170.487621 C239.388379,170.873318 239.40955,171.494652 239.0214,171.902623 C238.656773,172.28832 238.011031,172.310594 237.62288,171.923725 C237.214734,171.559131 237.214734,170.937796 237.581713,170.529825 C237.774612,170.315289 238.033379,170.229709 238.312142,170.229709 Z M252.103628,169.148417 C252.405526,169.148417 252.685017,169.278221 252.87842,169.537831 C253.223952,169.968546 253.157912,170.593969 252.726292,170.939721 C252.297032,171.285474 251.648423,171.199331 251.326478,170.767435 C250.980946,170.33672 251.045807,169.708937 251.477426,169.364364 L251.498654,169.364364 C251.672009,169.213319 251.886639,169.148417 252.103628,169.148417 Z M266.407229,169.070741 C266.77127,169.070741 267.114241,169.26526 267.285141,169.606254 C267.542662,170.100753 267.348351,170.699543 266.87779,170.957339 C266.386159,171.213963 265.786837,171.000696 265.529316,170.52846 C265.272966,170.036304 265.464936,169.435171 265.957737,169.179718 C266.108738,169.114098 266.256228,169.070741 266.407229,169.070741 Z M270.1963,167.270856 C270.582581,167.270856 270.946622,167.485295 271.117523,167.870818 C271.330563,168.364145 271.094112,168.943015 270.602481,169.179718 C270.08978,169.392986 269.512698,169.156282 269.296147,168.664126 C269.083107,168.150878 269.320728,167.570837 269.811189,167.356397 C269.94112,167.29312 270.067539,167.270856 270.1963,167.270856 Z M241.30208,167.228545 C241.560847,167.228545 241.818438,167.335227 242.011337,167.549763 C242.400664,167.93546 242.37714,168.579069 241.991342,168.943663 C241.583195,169.32936 240.959801,169.308258 240.570474,168.900287 C240.204672,168.514591 240.204672,167.893256 240.615171,167.506387 C240.80807,167.335227 241.045665,167.228545 241.30208,167.228545 Z M255.509411,166.644366 C255.833716,166.644366 256.135613,166.796592 256.331375,167.055021 C256.653321,167.508157 256.544826,168.13358 256.093159,168.458092 C255.640312,168.761363 255.01529,168.651619 254.689806,168.198482 C254.387909,167.745346 254.496403,167.119923 254.94925,166.816652 C255.121426,166.688028 255.314829,166.644366 255.509411,166.644366 Z M274.112961,165.727595 C274.521483,165.727595 274.906594,165.985391 275.056424,166.392006 C275.228495,166.906426 274.970974,167.464203 274.455932,167.65755 C273.943231,167.828633 273.36615,167.570837 273.194079,167.056416 C273.000938,166.543168 273.258459,165.963127 273.794571,165.792044 C273.901091,165.749859 274.007611,165.727595 274.112961,165.727595 Z M278.117413,164.443302 C278.545834,164.443302 278.954356,164.742111 279.081946,165.17099 C279.231777,165.706503 278.909875,166.242015 278.396004,166.392006 C277.861062,166.543168 277.326121,166.242015 277.177461,165.706503 C277.02646,165.192082 277.326121,164.635477 277.861062,164.485487 C277.946513,164.463223 278.031963,164.443302 278.117413,164.443302 Z M244.442573,164.418471 C244.723689,164.418471 245.002451,164.527497 245.217699,164.761963 C245.56233,165.191036 245.51881,165.813543 245.089491,166.155863 C244.680169,166.520458 244.056775,166.477082 243.689796,166.049181 C243.325169,165.641211 243.389861,165.019876 243.798008,164.655281 C243.990907,164.484121 244.227326,164.418471 244.442573,164.418471 Z M259.090908,164.336202 C259.415213,164.336202 259.735979,164.486068 259.93292,164.81058 C260.21359,165.283777 260.061462,165.889139 259.586209,166.169989 C259.134542,166.47208 258.50834,166.321034 258.228849,165.846657 C257.949358,165.37228 258.097948,164.744497 258.57438,164.464827 C258.72415,164.378684 258.897505,164.336202 259.090908,164.336202 Z M282.206145,163.456646 C282.656807,163.456646 283.085228,163.777719 283.171849,164.248783 C283.277198,164.785468 282.935398,165.32098 282.399286,165.427614 C281.864344,165.534248 281.350473,165.192082 281.242782,164.65657 C281.116363,164.121057 281.459334,163.584372 282.014175,163.476567 C282.079725,163.476567 282.142935,163.456646 282.206145,163.456646 Z M286.339358,162.748879 C286.832159,162.748879 287.260581,163.113309 287.32379,163.606637 C287.40924,164.163242 287.024129,164.65657 286.489188,164.721019 C285.933177,164.80656 285.439204,164.419866 285.375995,163.884353 C285.290545,163.327748 285.675656,162.83442 286.210597,162.769971 C286.252737,162.748879 286.297218,162.748879 286.339358,162.748879 Z M290.534609,162.32 C291.048481,162.32 291.476902,162.727786 291.519042,163.242207 C291.542453,163.798812 291.133931,164.269876 290.59899,164.313232 C290.044149,164.334325 289.572417,163.92771 289.529107,163.391025 C289.508037,162.83442 289.913047,162.362185 290.447989,162.32 L290.534609,162.32 Z M262.778541,162.241627 C263.124073,162.241627 263.468425,162.436334 263.664187,162.782086 C263.901223,163.256463 263.727868,163.860645 263.231388,164.119075 C262.757314,164.378684 262.15234,164.185157 261.894076,163.70842 C261.636991,163.212802 261.830394,162.6098 262.304468,162.350191 C262.456596,162.285288 262.605186,162.241627 262.778541,162.241627 Z M247.754794,161.781901 C248.058257,161.781901 248.33702,161.909685 248.529919,162.167598 C248.87455,162.596671 248.788687,163.218005 248.358192,163.561498 C247.906526,163.882716 247.283132,163.797136 246.960849,163.369236 C246.63739,162.919061 246.72443,162.297727 247.154924,161.975336 C247.326652,161.84638 247.541899,161.781901 247.754794,161.781901 Z M266.597075,160.385419 C266.963834,160.385419 267.330592,160.601367 267.502768,160.968361 C267.718578,161.463979 267.502768,162.04692 267.005109,162.285288 C266.48976,162.522477 265.907192,162.285288 265.668976,161.78731 C265.453166,161.270452 265.668976,160.68751 266.186683,160.471563 C266.317584,160.40666 266.446126,160.385419 266.597075,160.385419 Z M251.177579,159.316492 C251.499862,159.316492 251.822144,159.46655 252.01622,159.745565 C252.316155,160.19574 252.209119,160.817074 251.736281,161.117191 C251.284614,161.418479 250.682392,161.310625 250.357757,160.86045 C250.057822,160.410276 250.164858,159.788941 250.617701,159.487652 C250.789428,159.359868 250.982327,159.316492 251.177579,159.316492 Z M270.500518,158.74516 C270.91091,158.74516 271.298896,159.00477 271.451024,159.393004 C271.644427,159.911042 271.384984,160.493983 270.867276,160.68751 C270.350748,160.882217 269.767001,160.623788 269.573598,160.105749 C269.380194,159.587711 269.638458,159.00477 270.154987,158.810062 C270.26466,158.766401 270.393203,158.74516 270.500518,158.74516 Z M274.513634,157.36333 C274.945254,157.36333 275.33206,157.64418 275.484188,158.076076 C275.633958,158.592935 275.354466,159.155815 274.814353,159.30686 C274.295466,159.479147 273.736484,159.177056 273.563128,158.659017 C273.413359,158.140978 273.69285,157.580458 274.231784,157.406992 C274.320231,157.385751 274.426367,157.36333 274.513634,157.36333 Z M254.74739,157.022243 C255.092021,157.022243 255.41548,157.193403 255.60838,157.514622 C255.888319,157.98707 255.736587,158.588476 255.263749,158.866318 C254.792087,159.14416 254.188688,158.994102 253.909926,158.522825 C253.62881,158.072651 253.780542,157.450144 254.254556,157.171129 C254.405112,157.065619 254.576839,157.022243 254.74739,157.022243 Z M278.609301,156.221049 C279.042099,156.221049 279.452491,156.52196 279.581034,156.997517 C279.711935,157.514376 279.387631,158.053655 278.847517,158.18464 C278.308582,158.335685 277.768469,157.989933 277.641105,157.470714 C277.511384,156.931435 277.834509,156.392155 278.373443,156.26353 C278.439483,156.24111 278.525571,156.221049 278.609301,156.221049 Z M282.753318,155.336017 C283.226212,155.336017 283.635425,155.681769 283.745099,156.154966 C283.831187,156.694246 283.463249,157.234705 282.924315,157.320849 C282.38538,157.429413 281.868852,157.062419 281.782764,156.52196 C281.67427,155.9815 282.041028,155.464641 282.581142,155.356077 C282.643644,155.356077 282.687278,155.336017 282.753318,155.336017 Z M258.448938,154.941358 C258.793569,154.941358 259.135847,155.13362 259.331099,155.478285 C259.587514,155.950734 259.394615,156.549794 258.900605,156.807707 C258.42659,157.065619 257.825544,156.893287 257.566777,156.399736 C257.30801,155.92846 257.500909,155.328227 257.974924,155.071487 C258.125479,154.984734 258.277211,154.941358 258.448938,154.941358 Z M286.936252,154.708234 C287.433911,154.708234 287.863172,155.076407 287.929212,155.594446 C287.992894,156.133726 287.606087,156.630524 287.067153,156.694246 C286.504632,156.760328 286.010511,156.372094 285.965698,155.831635 C285.878431,155.271114 286.290002,154.773136 286.828937,154.708234 L286.936252,154.708234 Z M291.097958,154.32 L291.097958,154.342421 C291.661658,154.299939 292.134552,154.708234 292.156959,155.271114 C292.200593,155.810394 291.768973,156.284771 291.230039,156.327253 C290.668698,156.349673 290.193445,155.939019 290.172218,155.378498 C290.129763,154.839219 290.559024,154.363662 291.097958,154.32 Z M262.235173,153.076182 C262.620972,153.076182 262.965603,153.290718 263.13733,153.634211 C263.376102,154.147691 263.159678,154.727994 262.665668,154.963632 C262.14931,155.199271 261.56826,154.984734 261.33184,154.471254 C261.094245,153.977703 261.33184,153.398572 261.824674,153.162934 C261.95641,153.098456 262.10579,153.076182 262.235173,153.076182 Z M266.127268,151.40444 C266.515419,151.40444 266.903569,151.640078 267.055301,152.025774 C267.268196,152.539255 267.009429,153.098456 266.493071,153.312992 C266.000237,153.505254 265.41801,153.269616 265.202763,152.754963 C265.009864,152.240311 265.247459,151.66118 265.762641,151.467745 C265.892025,151.424369 266.021408,151.40444 266.127268,151.40444 Z M270.108755,149.944889 C270.516901,149.944889 270.926224,150.202802 271.054431,150.610772 C271.226159,151.125425 270.947396,151.704556 270.431037,151.876888 C269.915855,152.046876 269.354801,151.767862 269.161902,151.254381 C268.988998,150.738556 269.267761,150.160598 269.806467,149.989438 C269.893507,149.944889 270.001719,149.944889 270.108755,149.944889 Z M274.173753,148.70222 C274.604247,148.70222 274.992398,148.981234 275.121782,149.431409 C275.271161,149.967163 274.948878,150.50409 274.43252,150.652976 C273.89499,150.804207 273.35746,150.480644 273.205728,149.944889 C273.056349,149.431409 273.377455,148.895654 273.89499,148.744424 C273.980853,148.723322 274.087889,148.70222 274.173753,148.70222 Z M278.262275,147.695189 C278.735113,147.695189 279.145612,147.995305 279.252648,148.466582 C279.358507,149.002336 279.013876,149.539263 278.476346,149.647117 C277.938816,149.752627 277.422458,149.431409 277.29425,148.895654 C277.187215,148.3599 277.531846,147.824145 278.069376,147.715118 C278.131715,147.695189 278.197583,147.695189 278.262275,147.695189 Z M282.435485,146.901521 C282.909499,146.901521 283.337642,147.245014 283.40351,147.738565 C283.489373,148.274319 283.124747,148.7878 282.58604,148.87338 C282.04851,148.960132 281.530976,148.595538 281.445112,148.058611 C281.359248,147.501754 281.725051,147.009376 282.262581,146.922623 L282.262581,146.901521 L282.435485,146.901521 Z M286.629867,146.343493 C287.126229,146.343493 287.554371,146.709259 287.620239,147.22274 C287.663759,147.758494 287.275608,148.252045 286.738078,148.316523 C286.1782,148.3599 285.68419,147.973031 285.64067,147.437276 C285.575978,146.879247 285.964129,146.407971 286.522831,146.343493 L286.629867,146.343493 Z M290.846596,146 C291.362955,146 291.814621,146.407971 291.836969,146.922623 C291.880489,147.480652 291.449994,147.951929 290.890116,147.973031 C290.352586,148.016407 289.878572,147.588507 289.8574,147.029305 C289.815056,146.493551 290.243198,146.022274 290.780728,146 L290.846596,146 Z M216.288959,224.371878 C216.186243,224.454786 216.124162,224.558136 216.082399,224.662621 C216.021446,224.78755 216,224.911343 216,225.036271 C216,225.286128 216.103845,225.53485 216.288959,225.721107 C216.537284,225.992542 216.970723,226.074314 217.320635,225.928942 C217.445926,225.867614 217.548642,225.805149 217.632169,225.721107 C217.817284,225.53485 217.92,225.286128 217.92,225.036271 C217.92,224.78755 217.817284,224.537693 217.632169,224.371878 C217.445926,224.184486 217.217919,224.08 216.950406,224.08 C216.702081,224.08 216.454885,224.184486 216.288959,224.371878 Z M294.665241,154.382754 C294.540891,154.42383 294.434795,154.507122 294.352656,154.590415 C294.16328,154.778678 294.08,155.028554 294.08,155.279572 C294.08,155.405081 294.102816,155.53059 294.142745,155.656099 C294.186096,155.759929 294.269376,155.8649 294.352656,155.967589 C294.434795,156.052022 294.540891,156.113635 294.665241,156.177531 C294.894545,156.260823 295.166061,156.260823 295.395365,156.177531 C295.520856,156.113635 295.62467,156.052022 295.70795,155.967589 C295.811765,155.8649 295.87451,155.759929 295.917861,155.656099 C295.978324,155.53059 296,155.405081 296,155.279572 C296,155.009158 295.895045,154.778678 295.70795,154.590415 C295.54025,154.403292 295.29041,154.32 295.03943,154.32 C294.916221,154.32 294.790731,154.340538 294.665241,154.382754 Z M224.918588,224.1436 C224.794353,224.204929 224.691576,224.267393 224.609129,224.3503 C224.422776,224.537693 224.32,224.78755 224.32,225.036271 C224.32,225.160064 224.340329,225.286128 224.402447,225.409921 C224.444235,225.514407 224.505224,225.617757 224.609129,225.721107 C224.8576,225.992542 225.291294,226.074314 225.641412,225.928942 C225.765647,225.888057 225.869553,225.805149 225.952,225.721107 C226.035576,225.617757 226.118024,225.514407 226.157553,225.409921 C226.200471,225.286128 226.24,225.160064 226.24,225.036271 C226.24,224.78755 226.138353,224.537693 225.952,224.3503 C225.787106,224.184486 225.538635,224.08 225.269835,224.08 C225.147859,224.08 225.022494,224.101579 224.918588,224.1436 Z M294.665241,162.384067 C294.540891,162.445845 294.434795,162.509912 294.352656,162.593428 C294.269376,162.697536 294.186096,162.801645 294.142745,162.906897 C294.102816,163.032742 294.08,163.157444 294.08,163.283289 C294.08,163.53498 294.16328,163.785527 294.352656,163.973151 C294.684635,164.32895 295.353155,164.32895 295.70795,163.973151 C295.895045,163.785527 296,163.53498 296,163.283289 C296,163.157444 295.978324,163.032742 295.917861,162.906897 C295.87451,162.801645 295.811765,162.697536 295.70795,162.593428 C295.54025,162.426397 295.29041,162.32 295.03943,162.32 C294.916221,162.32 294.790731,162.342881 294.665241,162.384067 Z M232.610259,224.370643 C232.422776,224.535756 232.32,224.784556 232.32,225.032225 C232.32,225.155494 232.340329,225.281025 232.402447,225.404294 C232.445365,225.508338 232.505224,225.631607 232.610259,225.714163 C232.690447,225.79785 232.795482,225.880406 232.918588,225.921119 C233.147859,226.026294 233.415529,226.026294 233.643671,225.921119 C233.765647,225.880406 233.868424,225.79785 233.952,225.714163 C234.054776,225.631607 234.116894,225.508338 234.159812,225.404294 C234.2208,225.281025 234.24,225.155494 234.24,225.032225 C234.24,224.784556 234.138353,224.535756 233.952,224.370643 C233.765647,224.184044 233.537506,224.08 233.269835,224.08 C233.021365,224.08 232.795482,224.184044 232.610259,224.370643 Z M294.665241,170.702782 C294.540891,170.764423 294.434795,170.827206 294.352656,170.910535 C294.16328,171.098882 294.08,171.34887 294.08,171.6 C294.08,171.725565 294.102816,171.85113 294.142745,171.976694 C294.186096,172.080571 294.269376,172.184447 294.352656,172.289465 C294.434795,172.373936 294.540891,172.434435 294.665241,172.498359 C294.894545,172.580547 295.166061,172.580547 295.395365,172.498359 C295.520856,172.434435 295.62467,172.373936 295.70795,172.289465 C295.811765,172.184447 295.87451,172.080571 295.917861,171.976694 C295.978324,171.85113 296,171.725565 296,171.6 C296,171.34887 295.895045,171.098882 295.70795,170.910535 C295.62467,170.827206 295.520856,170.764423 295.395365,170.702782 C295.29041,170.660547 295.166061,170.64 295.03943,170.64 C294.916221,170.64 294.790731,170.660547 294.665241,170.702782 Z M240.910535,224.349156 C240.827206,224.4532 240.743876,224.556113 240.700499,224.660156 C240.660547,224.784556 240.64,224.907825 240.64,225.032225 C240.64,225.281025 240.723329,225.528694 240.910535,225.714163 C240.995006,225.79785 241.098882,225.880406 241.222164,225.921119 C241.452747,226.026294 241.723282,226.026294 241.955006,225.921119 C242.079429,225.880406 242.183306,225.79785 242.266635,225.714163 C242.453841,225.528694 242.56,225.281025 242.56,225.032225 C242.56,224.907825 242.53717,224.784556 242.476671,224.660156 C242.433294,224.556113 242.372794,224.4532 242.266635,224.349156 C242.079429,224.184044 241.85113,224.08 241.6,224.08 C241.329465,224.08 241.098882,224.184044 240.910535,224.349156 Z M294.665241,178.702754 C294.540891,178.764368 294.434795,178.828263 294.352656,178.910415 C294.16328,179.098678 294.08,179.349695 294.08,179.599572 C294.08,179.72394 294.102816,179.85059 294.142745,179.976099 C294.186096,180.079929 294.269376,180.204297 294.352656,180.287589 C294.434795,180.372022 294.540891,180.433635 294.665241,180.497531 C294.894545,180.580823 295.166061,180.580823 295.395365,180.497531 C295.520856,180.433635 295.62467,180.372022 295.70795,180.287589 C295.811765,180.204297 295.87451,180.079929 295.919002,179.976099 C295.978324,179.85059 296,179.72394 296,179.599572 C296,179.349695 295.895045,179.098678 295.70795,178.910415 C295.54025,178.744971 295.29041,178.64 295.03943,178.64 C294.916221,178.64 294.790731,178.661679 294.665241,178.702754 Z M249.225241,224.1436 C249.119144,224.204929 248.994795,224.267393 248.911515,224.3503 C248.72328,224.537693 248.64,224.78755 248.64,225.036271 C248.64,225.286128 248.743815,225.53485 248.911515,225.721107 C249.18303,225.992542 249.60057,226.074314 249.955365,225.928942 C250.078574,225.888057 250.18467,225.805149 250.26795,225.721107 C250.456185,225.53485 250.56,225.286128 250.56,225.036271 C250.56,224.78755 250.456185,224.537693 250.26795,224.3503 C250.10025,224.184486 249.851551,224.08 249.60057,224.08 C249.473939,224.08 249.34959,224.101579 249.225241,224.1436 Z M294.665241,187.042642 C294.540891,187.083396 294.434795,187.14566 294.352656,187.249811 C294.16328,187.415094 294.08,187.664151 294.08,187.913208 C294.08,188.036604 294.102816,188.161132 294.142745,188.284528 C294.186096,188.409057 294.269376,188.513208 294.352656,188.595849 C294.434795,188.678491 294.540891,188.761132 294.665241,188.801887 C294.894545,188.906038 295.166061,188.906038 295.395365,188.801887 C295.520856,188.761132 295.62467,188.678491 295.70795,188.595849 C295.811765,188.513208 295.87451,188.409057 295.919002,188.284528 C295.978324,188.161132 296,188.036604 296,187.913208 C296,187.664151 295.895045,187.415094 295.70795,187.249811 C295.54025,187.063019 295.29041,186.96 295.03943,186.96 C294.916221,186.96 294.790731,186.981509 294.665241,187.042642 Z M257.545241,224.1436 C257.440285,224.204929 257.334189,224.267393 257.230374,224.3503 C257.147094,224.454786 257.063815,224.558136 257.022745,224.662621 C256.980535,224.78755 256.96,224.911343 256.96,225.036271 C256.96,225.160064 256.980535,225.286128 257.022745,225.409921 C257.063815,225.514407 257.147094,225.617757 257.230374,225.721107 C257.501889,225.992542 257.91943,226.074314 258.294759,225.928942 C258.400856,225.867614 258.50467,225.805149 258.608485,225.721107 C258.691765,225.617757 258.75451,225.514407 258.816114,225.409921 C258.858324,225.286128 258.88,225.160064 258.88,225.036271 C258.88,224.911343 258.858324,224.78755 258.816114,224.662621 C258.75451,224.558136 258.691765,224.454786 258.608485,224.3503 C258.42025,224.184486 258.17041,224.08 257.91943,224.08 C257.796221,224.08 257.668449,224.101579 257.545241,224.1436 Z M294.665241,195.042629 C294.540891,195.083378 294.434795,195.145633 294.352656,195.249769 C294.269376,195.332398 294.186096,195.436534 294.142745,195.559912 C294.102816,195.662915 294.08,195.787425 294.08,195.911935 C294.08,196.056819 294.102816,196.160955 294.142745,196.285465 C294.186096,196.408843 294.269376,196.511847 294.352656,196.595608 C294.434795,196.679369 294.540891,196.760867 294.665241,196.802747 C294.894545,196.905751 295.166061,196.905751 295.395365,196.802747 C295.520856,196.760867 295.62467,196.679369 295.70795,196.595608 C295.811765,196.511847 295.87451,196.408843 295.919002,196.285465 C295.978324,196.180197 296,196.056819 296,195.911935 C296,195.787425 295.978324,195.662915 295.919002,195.559912 C295.87451,195.436534 295.811765,195.332398 295.70795,195.249769 C295.54025,195.063004 295.29041,194.96 295.03943,194.96 C294.916221,194.96 294.790731,194.980374 294.665241,195.042629 Z M265.231515,224.370772 C265.064955,224.535958 264.96,224.784867 264.96,225.032646 C264.96,225.155969 264.981676,225.281556 265.023886,225.404879 C265.087772,225.508969 265.148235,225.632292 265.231515,225.714885 C265.337611,225.798609 265.441426,225.860837 265.545241,225.921933 C265.796221,226.026022 266.066595,226.026022 266.297041,225.921933 C266.401996,225.860837 266.505811,225.798609 266.609626,225.714885 C266.692906,225.632292 266.755651,225.508969 266.818396,225.404879 C266.859465,225.281556 266.88,225.155969 266.88,225.032646 C266.88,224.784867 266.776185,224.535958 266.609626,224.370772 C266.505811,224.266682 266.401996,224.204455 266.297041,224.143359 C266.171551,224.101497 266.046061,224.08 265.92057,224.08 C265.66959,224.08 265.41975,224.18409 265.231515,224.370772 Z M294.665241,203.362544 C294.540891,203.404382 294.434795,203.488057 294.352656,203.570601 C294.16328,203.756042 294.08,203.984452 294.08,204.252438 C294.08,204.377951 294.102816,204.501201 294.142745,204.604099 C294.186096,204.728481 294.269376,204.831378 294.352656,204.913922 C294.434795,204.997597 294.540891,205.080141 294.665241,205.121979 C294.894545,205.226007 295.166061,205.226007 295.395365,205.121979 C295.520856,205.080141 295.62467,204.997597 295.70795,204.913922 C295.811765,204.831378 295.87451,204.728481 295.919002,204.604099 C295.978324,204.501201 296,204.377951 296,204.252438 C296,203.984452 295.895045,203.756042 295.70795,203.570601 C295.54025,203.385159 295.29041,203.28 295.03943,203.28 C294.916221,203.28 294.790731,203.321837 294.665241,203.362544 Z M273.552656,224.3503 C273.386096,224.537693 273.28,224.78755 273.28,225.036271 C273.28,225.286128 273.386096,225.53485 273.552656,225.721107 C273.824171,225.992542 274.263387,226.074314 274.617041,225.928942 C274.720856,225.888057 274.845205,225.805149 274.929626,225.721107 C275.096185,225.53485 275.2,225.286128 275.2,225.036271 C275.2,224.78755 275.096185,224.537693 274.929626,224.3503 C274.74025,224.184486 274.49041,224.08 274.24057,224.08 C273.990731,224.08 273.740891,224.184486 273.552656,224.3503 Z M294.665241,211.344067 C294.540891,211.385252 294.434795,211.468768 294.352656,211.552284 C294.269376,211.635799 294.186096,211.741052 294.142745,211.866897 C294.102816,211.971006 294.08,212.096851 294.08,212.243289 C294.08,212.36799 294.102816,212.49498 294.142745,212.599088 C294.186096,212.724934 294.269376,212.829042 294.352656,212.913702 C294.434795,212.997217 294.540891,213.080733 294.665241,213.121919 C294.894545,213.226027 295.166061,213.226027 295.395365,213.121919 C295.520856,213.080733 295.62467,212.997217 295.70795,212.913702 C295.811765,212.829042 295.87451,212.724934 295.919002,212.599088 C295.978324,212.49498 296,212.36799 296,212.243289 C296,211.971006 295.895045,211.741052 295.70795,211.552284 C295.54025,211.363516 295.29041,211.28 295.03943,211.28 C294.916221,211.28 294.790731,211.302881 294.665241,211.344067 Z M281.551515,224.371878 C281.468235,224.454786 281.40549,224.558136 281.341604,224.662621 C281.301676,224.78755 281.28,224.911343 281.28,225.036271 C281.28,225.286128 281.384955,225.53485 281.551515,225.721107 C281.82303,225.992542 282.261105,226.074314 282.6159,225.928942 C282.739109,225.888057 282.845205,225.805149 282.929626,225.721107 C283.012906,225.6382 283.073369,225.53485 283.137255,225.409921 C283.177184,225.286128 283.2,225.160064 283.2,225.036271 C283.2,224.78755 283.093904,224.537693 282.929626,224.371878 C282.739109,224.184486 282.510945,224.08 282.24057,224.08 C281.98959,224.08 281.73975,224.184486 281.551515,224.371878 Z M294.665241,219.682629 C294.540891,219.723378 294.434795,219.807139 294.352656,219.889769 C294.16328,220.075402 294.08,220.304047 294.08,220.57231 C294.08,220.697951 294.102816,220.821329 294.142745,220.924333 C294.186096,221.048843 294.269376,221.151847 294.352656,221.234476 C294.434795,221.339744 294.540891,221.400867 294.665241,221.442747 C294.894545,221.545751 295.166061,221.545751 295.395365,221.442747 C295.520856,221.400867 295.62467,221.339744 295.70795,221.234476 C295.811765,221.151847 295.87451,221.048843 295.919002,220.924333 C295.978324,220.821329 296,220.697951 296,220.57231 C296,220.304047 295.895045,220.075402 295.70795,219.889769 C295.54025,219.704136 295.29041,219.6 295.03943,219.6 C294.916221,219.6 294.790731,219.640749 294.665241,219.682629 Z M290.198588,224.1436 C290.074353,224.204929 289.971576,224.267393 289.889129,224.3503 C289.785224,224.454786 289.724235,224.558136 289.682447,224.662621 C289.620329,224.78755 289.6,224.911343 289.6,225.036271 C289.6,225.160064 289.620329,225.286128 289.682447,225.409921 C289.724235,225.53485 289.785224,225.6382 289.889129,225.721107 C290.1568,225.992542 290.571294,226.074314 290.921412,225.928942 C291.046776,225.888057 291.149553,225.805149 291.233129,225.721107 C291.418353,225.53485 291.52,225.286128 291.52,225.036271 C291.52,224.78755 291.418353,224.537693 291.233129,224.3503 C291.046776,224.184486 290.818635,224.08 290.550965,224.08 C290.4256,224.08 290.302494,224.101579 290.198588,224.1436 Z" id="radial-circle-light"></path>
                </g>
            </g>
        </g>
    </g>
</svg>