<?xml version="1.0" encoding="UTF-8"?>
<svg width="120px" height="120px" viewBox="0 0 120 120" version="1.1" xmlns="http://www.w3.org/2000/svg" xmlns:xlink="http://www.w3.org/1999/xlink">
    <title>D7ED245A-5E51-4808-9C64-4E825614FA49</title>
    <g id="Manage-Property" stroke="none" stroke-width="1" fill="none" fill-rule="evenodd">
        <g id="Ready-for-next-steps?-Modal-A" transform="translate(-2.000000, -2.000000)" fill="#FFCD00">
            <g id="Decorative-Elements/Radial/Circles" transform="translate(62.000000, 62.000000) scale(1, -1) translate(-62.000000, -62.000000) translate(2.000000, 2.000000)">
                <path d="M118.559144,0 C118.374332,0 118.186096,0.0611230656 117.997861,0.123943994 C117.811337,0.18506706 117.652193,0.310708917 117.528984,0.434652911 C117.404064,0.558596905 117.279144,0.714800295 117.214118,0.899867354 C117.154225,1.08833014 117.12,1.2733972 117.12,1.45846426 C117.12,1.64692704 117.154225,1.8319941 117.214118,1.98819749 C117.279144,2.17326455 117.404064,2.32946794 117.528984,2.45171408 C117.652193,2.60791746 117.811337,2.70299779 117.997861,2.76412085 C118.341818,2.91862638 118.749091,2.91862638 119.093048,2.76412085 C119.281283,2.70299779 119.437005,2.60791746 119.561925,2.45171408 C119.717647,2.32946794 119.811765,2.17326455 119.876791,1.98819749 C119.967487,1.8319941 120,1.64692704 120,1.45846426 C120,1.2733972 119.967487,1.08833014 119.876791,0.899867354 C119.811765,0.714800295 119.717647,0.558596905 119.561925,0.434652911 C119.310374,0.15620339 118.935615,0 118.559144,0 M113.27813,112.8 C113.649623,112.8 114.022813,112.958251 114.302706,113.237318 C114.859098,113.797152 114.859098,114.699013 114.302706,115.258848 C113.744617,115.820384 112.811642,115.820384 112.253554,115.258848 C111.697162,114.699013 111.697162,113.797152 112.284088,113.237318 L112.284088,113.237318 L112.253554,113.237318 C112.53175,112.958251 112.90494,112.8 113.27813,112.8 Z M38.5857833,111.24881 C39.3956357,111.312662 40.0141007,112.027455 39.9467607,112.869953 C39.884737,113.682299 39.1705783,114.297766 38.3607258,114.235687 C37.5172033,114.168287 36.9022825,113.455268 36.9643062,112.644696 C37.0316462,111.83235 37.6820092,111.24881 38.4564195,111.24881 L38.5857833,111.24881 Z M50.576522,111.273105 C51.3790408,111.369744 51.9919053,112.076086 51.925175,112.912452 C51.8285918,113.715433 51.1226562,114.325137 50.3201374,114.230255 C49.4842535,114.165243 48.8749012,113.457144 48.9697283,112.624292 C49.0329465,111.851181 49.67742,111.273105 50.4483297,111.273105 L50.576522,111.273105 Z M63.3806184,111.232005 C63.4458865,111.232005 63.5093906,111.232005 63.5746587,111.267296 C64.380808,111.33082 64.992917,112.073693 64.8976608,112.910088 C64.8024047,113.716486 64.0579955,114.298786 63.2518462,114.235262 C62.4121808,114.138212 61.8335879,113.395338 61.9306081,112.588941 C61.9941122,111.814305 62.6397372,111.232005 63.3806184,111.232005 Z M76.0855196,111.264748 C76.9193424,111.393025 77.4670324,112.166202 77.3722399,112.969252 L77.3371315,112.969252 C77.2440945,113.772303 76.4717112,114.350428 75.6677305,114.222151 C74.8655052,114.125504 74.2897286,113.352327 74.417874,112.549276 C74.5126665,111.811243 75.1551489,111.264748 75.8941792,111.264748 L76.0855196,111.264748 Z M87.9192064,111.27817 C88.0184641,111.27817 88.1124045,111.309557 88.2098897,111.309557 C89.0216761,111.468236 89.5410067,112.23373 89.3779404,113.030612 C89.2166466,113.829237 88.438537,114.369791 87.6285231,114.212856 C86.8185092,114.050689 86.2655019,113.285195 86.4285681,112.456927 C86.5898619,111.754207 87.2084502,111.27817 87.9192064,111.27817 Z M100.352235,111.243598 C100.513556,111.243598 100.676651,111.275532 100.8362,111.30924 C101.616218,111.568256 102.036364,112.44288 101.77754,113.221703 C101.516943,114.000527 100.676651,114.422759 99.8966332,114.163742 C99.1183881,113.93666 98.6964694,113.058487 98.9570663,112.281438 C99.1520707,111.664057 99.7353113,111.243598 100.352235,111.243598 Z M14.0679125,111.256655 C14.9063862,111.288516 15.5237433,112.000082 15.4582928,112.810771 L15.4919026,112.810771 C15.4246831,113.651551 14.7153415,114.299395 13.9051708,114.235672 C13.0649283,114.17018 12.44934,113.458614 12.4811808,112.647925 C12.5466313,111.839006 13.1958292,111.256655 13.9688524,111.256655 L14.0679125,111.256655 Z M26.0596975,110.317294 C26.8937145,110.380571 27.5029859,111.087166 27.4397761,111.892193 C27.4081713,112.727101 26.7005737,113.33878 25.8648009,113.275503 C25.0325397,113.242107 24.4197566,112.503873 24.4847222,111.698846 C24.5479319,110.927216 25.1923198,110.317294 25.9631271,110.317294 L26.0596975,110.317294 Z M1.55515549,110.287496 C2.39320848,110.352561 3.00719256,111.057717 2.97367044,111.863107 C2.91015485,112.700151 2.23265517,113.312107 1.39460219,113.278695 C0.586542675,113.21539 -0.059199205,112.540128 0.00431638976,111.703084 C0.0360741871,110.899452 0.681816067,110.287496 1.48811126,110.287496 L1.55515549,110.287496 Z M103.107116,105.887636 C103.429759,105.887636 103.724039,105.986985 103.98109,106.18036 C104.665379,106.668233 104.791245,107.608498 104.307279,108.256039 C103.819768,108.939062 102.880201,109.102278 102.234914,108.582471 C101.550626,108.096372 101.387531,107.18804 101.906952,106.506791 C102.197686,106.116493 102.65506,105.887636 103.107116,105.887636 Z M89.7023005,105.440186 C89.897271,105.440186 90.0922415,105.50296 90.287212,105.569222 C91.031645,105.888323 91.421586,106.747978 91.097226,107.482086 C90.7710934,108.24758 89.897271,108.598068 89.1191614,108.278967 C88.372956,107.991253 88.0184641,107.129853 88.3392793,106.366103 C88.5679265,105.792418 89.1191614,105.440186 89.7023005,105.440186 Z M77.2089861,105.19179 C77.3371315,105.19179 77.4670324,105.22342 77.6285307,105.25505 C78.3974031,105.511605 78.8485451,106.316412 78.6220964,107.119462 C78.3974031,107.890883 77.5618249,108.340731 76.791197,108.115807 C75.9889717,107.890883 75.5413405,107.054445 75.7660338,106.283025 C75.9573742,105.608252 76.5682592,105.19179 77.2089861,105.19179 Z M64.4460761,105.07021 C64.5748483,105.07021 64.6718684,105.07021 64.8024047,105.100207 C65.5768019,105.296072 66.0936547,106.070708 65.8978504,106.877105 C65.7373262,107.683503 64.9311769,108.19875 64.1232636,108.00465 C63.3171143,107.812315 62.8302495,107.037679 62.9960658,106.231281 C63.15659,105.520169 63.768699,105.07021 64.4460761,105.07021 Z M51.5722073,105.070645 C52.3747261,105.232296 52.9191042,106.001893 52.7593029,106.804874 C52.6311106,107.609613 51.8285918,108.156062 51.024317,107.996168 C50.2217982,107.867902 49.707273,107.094791 49.8354653,106.258425 C49.9654136,105.552083 50.6081311,105.070645 51.3140666,105.070645 L51.5722073,105.070645 Z M39.4310778,104.955793 C40.2728282,105.085272 40.8239532,105.865691 40.6945895,106.676263 C40.5634536,107.486835 39.7854991,108.068602 38.9756466,107.907197 C38.1657941,107.809644 37.612897,107.032773 37.7440329,106.186727 C37.8414987,105.475482 38.4918616,104.955793 39.2024762,104.955793 L39.4310778,104.955793 Z M14.7454134,104.910975 C15.5538152,105.008328 16.1411005,105.751755 16.0420403,106.562445 L16.0420403,106.594306 C15.9429801,107.403225 15.2000288,107.983806 14.391627,107.889993 C13.5496156,107.792639 12.967637,107.045672 13.0649283,106.204892 C13.1604506,105.461465 13.8078796,104.910975 14.5525998,104.910975 L14.7454134,104.910975 Z M26.8287489,104.047577 C27.6311611,104.175889 28.2105834,104.915881 28.0824082,105.71915 C27.9858378,106.555815 27.2150305,107.10246 26.4108625,107.004029 C25.6084504,106.877474 25.0325397,106.135725 25.1273542,105.332456 C25.2572853,104.592464 25.8964057,104.047577 26.6057591,104.047577 L26.8287489,104.047577 Z M2.00505762,103.983294 C2.03857974,103.983294 2.10385966,103.983294 2.16737526,104.016705 C2.97367044,104.080011 3.55589673,104.820337 3.49061681,105.623969 C3.39181478,106.461012 2.6507995,107.037799 1.84450432,106.94284 C1.00645133,106.879534 0.422460722,106.139208 0.521262758,105.335576 C0.586542675,104.561838 1.23052023,103.983294 2.00505762,103.983294 Z M107.352895,101.638702 C107.842179,101.638702 108.292462,101.832077 108.588514,102.256084 C109.072479,102.903625 108.911157,103.84389 108.262324,104.331763 C107.581582,104.819637 106.642015,104.690128 106.156276,104.007106 C105.668765,103.359565 105.830087,102.415751 106.47892,101.931426 C106.771427,101.736277 107.062161,101.638702 107.352895,101.638702 Z M92.6197685,100.081726 C92.9104518,100.081726 93.2029076,100.179374 93.4634591,100.338053 C94.1440835,100.784446 94.339054,101.710363 93.883532,102.378209 C93.3996506,103.047798 92.490379,103.241352 91.8097546,102.793215 C91.097226,102.346822 90.9323872,101.422649 91.3896817,100.751315 C91.6803651,100.306666 92.1341146,100.081726 92.6197685,100.081726 Z M79.3628821,99.4052604 C79.58582,99.4052604 79.7789158,99.4386476 80.0018537,99.5335376 C80.7426394,99.8551091 81.0603698,100.754806 80.7110419,101.492839 C80.3880453,102.23263 79.4875167,102.555958 78.7502418,102.23263 C78.0112115,101.879428 77.6899703,101.011361 78.0112115,100.273328 C78.2692577,99.7268319 78.8134368,99.4052604 79.3628821,99.4052604 Z M66.1871469,99.0336979 C66.3511991,99.0336979 66.5117234,99.0654597 66.6722476,99.1307479 C67.4484089,99.3883716 67.8664776,100.23006 67.6071691,101.001167 C67.3178727,101.777567 66.4782073,102.197529 65.7055741,101.938141 C64.9311769,101.646991 64.5113442,100.808831 64.8024047,100.034195 C64.992917,99.421898 65.5768019,99.0336979 66.1871469,99.0336979 Z M52.7294499,98.9648245 C52.8576422,98.9648245 53.0174435,98.9648245 53.1456358,98.9964517 C53.9481546,99.2231139 54.3994617,100.055965 54.1746862,100.829077 C53.9481546,101.632058 53.1140268,102.083625 52.343117,101.856963 C51.5388421,101.632058 51.0910472,100.829077 51.3140666,100.026095 C51.5089891,99.3812502 52.0849764,98.9648245 52.7294499,98.9648245 Z M112.735018,98.88 C113.353714,98.88 113.968864,99.3022322 114.163869,99.9178397 C114.422693,100.698437 114.002547,101.574835 113.192392,101.832077 C112.414147,102.092868 111.570309,101.638702 111.311485,100.858105 C111.050888,100.047348 111.472807,99.2064316 112.282962,98.9775747 C112.414147,98.9137076 112.575469,98.88 112.735018,98.88 Z M40.4340899,98.7266295 C40.5634536,98.7266295 40.6945895,98.7266295 40.7920553,98.7603294 C41.6019078,98.9536605 42.0874648,99.7642323 41.8925331,100.544651 C41.6976015,101.355223 40.8859769,101.874911 40.1115666,101.678033 C39.3017141,101.484702 38.782487,100.67413 39.0075445,99.8617847 C39.1705783,99.1806916 39.7536011,98.7266295 40.4340899,98.7266295 Z M15.5237433,98.5971565 C15.5874249,98.5971565 15.6847161,98.6290176 15.7820073,98.6290176 C16.5904091,98.7918635 17.1405469,99.5689216 16.9795741,100.377841 C16.8186013,101.18853 16.0420403,101.73725 15.2336385,101.574404 C14.4234678,101.44519 13.9051708,100.63627 14.0360718,99.827351 C14.1652038,99.1157852 14.8126328,98.5971565 15.5237433,98.5971565 Z M27.6961266,97.811256 C27.7944529,97.811256 27.8892674,97.8428946 27.9858378,97.8428946 C28.78825,98.0362417 29.3027068,98.8061144 29.1429267,99.6111411 C28.9796349,100.41441 28.1772228,100.929416 27.3748106,100.767708 C26.5723984,100.609515 26.0596975,99.8044882 26.2194776,99.0012191 C26.3792577,98.2928659 26.9920407,97.811256 27.6961266,97.811256 Z M2.84487493,97.7125025 C2.94191265,97.7125025 3.00719256,97.7125025 3.10246596,97.7441554 C3.90876114,97.8725255 4.45746531,98.6445045 4.32690548,99.4481365 C4.19810997,100.251768 3.42710122,100.79866 2.62080603,100.67029 C1.7792244,100.54192 1.23052023,99.7716995 1.39460219,98.966309 C1.48811126,98.2277413 2.13385314,97.7125025 2.84487493,97.7125025 Z M96.5758977,95.3963424 C96.9658387,95.3963424 97.322103,95.5218905 97.6145588,95.8096047 C98.1959255,96.3832895 98.1959255,97.3074627 97.6145588,97.9142782 C97.0278748,98.487963 96.0866989,98.487963 95.5035598,97.9142782 C94.9221931,97.3074627 94.9221931,96.3832895 95.5035598,95.8096047 C95.7960156,95.5218905 96.1859566,95.3963424 96.5758977,95.3963424 Z M82.34709,93.9438163 C82.6349783,93.9438163 82.8930246,94.0070763 83.1510708,94.1669834 C83.8549928,94.6168321 84.049844,95.5499167 83.598702,96.2229325 C83.1510708,96.9310927 82.2189446,97.1226298 81.5448647,96.6727811 C80.8391873,96.2229325 80.6443361,95.3232351 81.0937227,94.6168321 C81.3851218,94.1986134 81.8643505,93.9438163 82.34709,93.9438163 Z M68.6073587,93.2230476 C68.8349151,93.2230476 69.0254274,93.2883358 69.2529838,93.3871504 C69.997393,93.7400596 70.2866894,94.6452717 69.9303609,95.3881456 C69.5775603,96.129255 68.6726269,96.4186406 67.9299817,96.0639668 C67.2208525,95.709293 66.899804,94.8376073 67.2526046,94.0947334 L67.2526046,94.0647361 C67.511913,93.5477241 68.0587539,93.2230476 68.6073587,93.2230476 Z M54.7208204,93.0188971 C54.9122308,93.0188971 55.1053973,93.0522814 55.2651986,93.115536 C56.0378644,93.4054526 56.4224412,94.2716885 56.1309355,95.0114153 C55.8113328,95.7827693 54.947352,96.1675678 54.2062952,95.8794082 C53.4336294,95.5912486 53.0472965,94.7232557 53.3388023,93.9519016 C53.5618217,93.3720683 54.1430771,93.0188971 54.7208204,93.0188971 Z M42.1849306,92.595018 C42.3142944,92.595018 42.4773281,92.628718 42.6368177,92.6606442 C43.4165444,92.9196015 43.8684314,93.7656468 43.6079318,94.5762185 C43.3527485,95.3530903 42.5074539,95.7734525 41.6976015,95.5162689 C40.9231911,95.2555379 40.4978857,94.41304 40.7566132,93.6343945 C40.9533169,93.0189275 41.5345677,92.595018 42.1849306,92.595018 Z M16.8504421,92.3824616 C16.9795741,92.3824616 17.0750964,92.4143227 17.2042284,92.4461839 C18.0126302,92.6391209 18.5008554,93.4498102 18.3062729,94.2268683 L18.3062729,94.2587295 C18.1116904,95.0357876 17.3032886,95.5544164 16.4948868,95.3278482 C15.6847161,95.1349112 15.2000288,94.3242218 15.3946113,93.5153026 L15.3946113,93.5471637 C15.5538152,92.8656891 16.1711723,92.3824616 16.8504421,92.3824616 Z M29.1745315,91.7032475 C29.3027068,91.7032475 29.4326379,91.7032475 29.5906621,91.7665247 C30.3632253,91.9598718 30.8109607,92.7947794 30.6195758,93.5681675 C30.3930743,94.3714366 29.5608131,94.8231655 28.78825,94.5964222 C27.9858378,94.4013175 27.5363465,93.5681675 27.7593363,92.7947794 C27.9226281,92.1198225 28.5318995,91.7032475 29.1745315,91.7032475 Z M4.03755666,91.5050171 C4.13635869,91.5050171 4.2651542,91.5050171 4.36219192,91.53667 C5.17025143,91.7301044 5.68366915,92.5020834 5.49135805,93.3057154 C5.33080474,94.1093473 4.52450955,94.6245862 3.71821436,94.4293933 C2.91015485,94.2711288 2.42496628,93.4674969 2.58551959,92.6638649 C2.74960154,91.9868445 3.3618213,91.5050171 4.03755666,91.5050171 Z M101.338496,91.5026093 C101.827695,91.5026093 102.315121,91.7589365 102.605804,92.1721989 C103.057781,92.8435322 102.866356,93.7677053 102.185731,94.2140983 C101.503335,94.6622351 100.563931,94.5018126 100.108409,93.800836 C99.6546595,93.1312464 99.8177257,92.2367166 100.528482,91.7589365 C100.757129,91.6002578 101.047813,91.5026093 101.338496,91.5026093 Z M86.0720837,88.9919664 C86.423167,88.9919664 86.7777611,89.0886136 87.0358073,89.3451679 C87.6782897,89.8916638 87.7397293,90.8229911 87.1937948,91.4345042 C86.6496157,92.04426 85.7174896,92.1092772 85.1066047,91.5961685 C84.4676331,91.0479155 84.4009273,90.1165881 84.9451064,89.5050751 L84.9451064,89.4752023 C85.2347501,89.1536308 85.65605,88.9919664 86.0720837,88.9919664 Z M106.81894,88.6341852 C107.402079,88.6341852 107.953314,88.9846735 108.181961,89.5583583 C108.502776,90.2924656 108.148284,91.152121 107.371947,91.472966 C106.623969,91.7903236 105.750147,91.4398353 105.427559,90.6760847 C105.099654,89.9419773 105.459464,89.0805782 106.237573,88.761477 C106.428999,88.6638285 106.623969,88.6341852 106.81894,88.6341852 Z M71.6414436,87.7388384 C71.898988,87.7388384 72.1900485,87.8341238 72.4493569,87.9629357 C73.12497,88.4146595 73.3507623,89.353398 72.8991776,90.0292192 C72.4493569,90.7403313 71.5444235,90.9326668 70.8352943,90.5144694 C70.1261652,90.060981 69.9303609,89.1275361 70.3854736,88.4481859 C70.6747701,87.9964621 71.1563428,87.7388384 71.6414436,87.7388384 Z M57.2899342,87.2662475 C57.4831007,87.2662475 57.7359731,87.3312591 57.9326517,87.427898 C58.6701963,87.7810692 58.961702,88.6806894 58.6069782,89.4186591 C58.2504983,90.1583859 57.3549084,90.4483026 56.6156077,90.0635041 C55.8780631,89.7103329 55.5865573,88.8089556 55.9395251,88.1026131 C56.1959097,87.5561641 56.7438,87.2662475 57.2899342,87.2662475 Z M112.72123,86.88 C113.433758,86.88 114.047029,87.3577801 114.211868,88.0587566 C114.373162,88.855638 113.821927,89.6211323 113.043817,89.7815548 L113.011913,89.7815548 C112.201899,89.9419773 111.423789,89.4310665 111.260723,88.6341852 C111.099429,87.8373038 111.650664,87.0700658 112.425229,86.9096433 C112.554618,86.88 112.653876,86.88 112.72123,86.88 Z M44.3557606,86.660285 C44.5489201,86.660285 44.7456239,86.6904376 44.9387834,86.7560637 C45.716738,87.0806472 46.0747034,87.956845 45.7486359,88.7035643 C45.4261126,89.4822098 44.5489201,89.8404931 43.8064077,89.514136 C43.026681,89.2214788 42.6722598,88.345281 42.9965552,87.5666355 C43.2216127,86.9830948 43.7745098,86.660285 44.3557606,86.660285 Z M18.5663058,86.2615801 C18.6936689,86.2615801 18.8581796,86.2952113 18.9873116,86.3270724 C19.7957133,86.5855018 20.2149502,87.4280523 19.986758,88.2051104 C19.7284939,88.9821685 18.8882514,89.4353049 18.1116904,89.1768756 C17.3032886,88.9485373 16.8805139,88.1095269 17.1405469,87.2988376 C17.3333604,86.6846254 17.9171079,86.2615801 18.5663058,86.2615801 Z M31.1006719,85.6901548 C31.260452,85.6901548 31.4219879,85.7235511 31.581768,85.7551898 C32.3543311,86.0434526 32.7722176,86.8801179 32.4825064,87.6499907 L32.4825064,87.683387 C32.1910394,88.4550174 31.3570224,88.8399538 30.5862151,88.5833295 C29.8171636,88.2950667 29.4326379,87.460159 29.6889883,86.6885286 C29.9119782,86.0768489 30.4914005,85.6901548 31.1006719,85.6901548 Z M5.58839576,85.3608375 C5.71719127,85.3608375 5.84775111,85.3924904 5.97654662,85.4259018 C6.78284181,85.650989 7.23450826,86.454621 7.00691071,87.258253 C6.78284181,88.0319905 5.97654662,88.513818 5.17025143,88.2887307 C4.39394972,88.0618849 3.90876114,87.258253 4.13635869,86.454621 C4.32690548,85.7793591 4.94265388,85.3608375 5.58839576,85.3608375 Z M90.4711573,84.5883696 C90.887191,84.5883696 91.2733826,84.7482768 91.5928684,85.1032355 C92.1072054,85.7147485 92.042255,86.6460759 91.4348809,87.1925717 C90.8222406,87.7390676 89.8602724,87.6740504 89.3459354,87.0309074 C88.8000008,86.4193943 88.8667067,85.488067 89.4740808,84.9433284 C89.7619691,84.718404 90.1183186,84.5883696 90.4711573,84.5883696 Z M75.2876374,82.6393002 C75.608686,82.6393002 75.9314985,82.7345857 76.1925709,82.9622121 C76.8364319,83.4774596 76.9616761,84.4144335 76.4483513,85.0584929 C75.9314985,85.7043167 74.996577,85.8013668 74.3509519,85.2843547 C73.7053269,84.7691073 73.5747907,83.8338979 74.1251596,83.1863095 C74.4179841,82.8316357 74.8360527,82.6393002 75.2876374,82.6393002 Z M60.3402081,81.8052716 C60.5983487,81.8052716 60.8863423,81.8685261 61.1111178,82.0284196 C61.8188095,82.4466024 62.045341,83.3778499 61.5922779,84.0525651 C61.1743359,84.7606646 60.2436249,84.9838126 59.5376893,84.5340024 C58.8633628,84.1175767 58.6368312,83.1863292 59.0547732,82.4782297 C59.3427668,82.0284196 59.827439,81.8052716 60.3402081,81.8052716 Z M47.0475897,80.8851832 C47.2744192,80.8851832 47.4994767,80.9171094 47.7263063,81.0465881 C48.440465,81.4048714 48.7310904,82.3129955 48.3766692,83.0579411 C47.9868059,83.8028867 47.0777155,84.0973175 46.3653288,83.707108 C45.6192722,83.3186721 45.3286468,82.4424742 45.716738,81.6957549 L45.6848401,81.6957549 C45.9754655,81.1760667 46.4946926,80.8851832 47.0475897,80.8851832 Z M95.4161654,80.8595458 C95.8953941,80.8595458 96.3781336,81.1178574 96.6660219,81.5360761 C97.1154085,82.2424791 96.9223127,83.1421764 96.2183907,83.5937823 C95.5407999,84.043631 94.6121847,83.8485794 94.1610426,83.1421764 C93.711656,82.4674034 93.9345939,81.5360761 94.6121847,81.0862274 C94.86672,80.924563 95.1598746,80.8595458 95.4161654,80.8595458 Z M20.6359559,80.2415922 C20.7951598,80.2415922 20.9932801,80.2734534 21.1542529,80.3371757 C21.927276,80.6292362 22.316441,81.5036479 22.0263362,82.280706 C21.7362314,83.0577641 20.8623792,83.4471782 20.0858181,83.1551176 C19.339329,82.8630571 18.950164,81.9904155 19.2438067,81.2115873 C19.468461,80.6292362 20.0203677,80.2415922 20.6359559,80.2415922 Z M33.4148496,79.8405283 C33.6062346,79.8405283 33.7976195,79.8721669 33.9907603,79.9354441 C34.7633235,80.2904996 35.0811278,81.1588035 34.7633235,81.8970376 C34.4402516,82.6704257 33.5430249,82.9903272 32.8038224,82.6704257 C32.0628641,82.3470089 31.7099433,81.4787049 32.0312593,80.7070745 C32.2893656,80.1621874 32.8336715,79.8405283 33.4148496,79.8405283 Z M7.42505504,79.3151336 C7.589137,79.3151336 7.75145463,79.3467865 7.91200794,79.3801978 C8.71830312,79.6685909 9.13644746,80.5038758 8.87709211,81.2776134 L8.84709864,81.2776134 C8.58774329,82.0478339 7.75145463,82.4681141 6.97515291,82.2096154 C6.20061552,81.9528752 5.78247119,81.1158319 6.04006221,80.3121999 C6.23413764,79.6984853 6.8145996,79.3151336 7.42505504,79.3151336 Z M79.4489201,77.9597239 C79.8370007,77.9597239 80.2250814,78.1202976 80.5143778,78.4096832 C81.0929707,78.9919834 81.0929707,79.9289574 80.5143778,80.5077285 C79.9340209,81.0900287 78.9638193,81.0900287 78.3852264,80.5077285 C77.8048695,79.9289574 77.8048695,78.9919834 78.3852264,78.4096832 L78.4152145,78.3796859 C78.7062749,78.1202976 79.0626035,77.9597239 79.4489201,77.9597239 Z M100.872,77.8722695 C101.416179,77.8722695 101.963869,78.193841 102.218404,78.7403368 C102.543156,79.480127 102.218404,80.3798244 101.482885,80.7312687 C100.742099,81.0545974 99.8468365,80.7312687 99.5238398,79.9932357 C99.1727565,79.2534455 99.4904869,78.3537481 100.231273,78.0321766 C100.454211,77.9372867 100.649062,77.8722695 100.872,77.8722695 Z M63.8733981,76.6289412 C64.1947568,76.6289412 64.5161156,76.7273371 64.7725001,76.9188578 C65.4468266,77.4020523 65.5750189,78.3332998 65.0604937,79.008015 C64.5810897,79.6511029 63.6503786,79.7776119 62.9760521,79.2961746 C62.3333347,78.7831099 62.2033863,77.8518624 62.6845464,77.2070174 C63.0059051,76.822219 63.4238471,76.6289412 63.8733981,76.6289412 Z M106.684183,75.717916 C107.326666,75.717916 107.902442,76.137892 108.095538,76.7792778 C108.321987,77.5823279 107.8726,78.3853781 107.100217,78.6120597 C106.297992,78.8668568 105.495767,78.4187653 105.239476,77.6157151 C105.013027,76.812665 105.465924,76.0096148 106.26815,75.7829332 C106.396295,75.717916 106.556038,75.717916 106.684183,75.717916 Z M50.1257379,75.3371124 C50.4163633,75.3371124 50.6768628,75.4027386 50.9373624,75.5641434 C51.6178512,75.9862793 51.8429086,76.9263296 51.4193753,77.6411226 C50.9993861,78.3222157 50.0601699,78.5492468 49.3477833,78.1271109 C48.6353967,77.6730489 48.440465,76.7649248 48.8604541,76.0519054 C49.1546237,75.5960697 49.6401808,75.3371124 50.1257379,75.3371124 Z M112.750903,74.4 C113.45658,74.4 114.100818,74.9131086 114.228963,75.6528989 C114.325511,76.4910935 113.779577,77.2291264 112.945754,77.3574036 C112.141773,77.4540508 111.404498,76.9075549 111.274597,76.1027475 C111.146452,75.2698246 111.722229,74.5300344 112.524454,74.4 L112.750903,74.4 Z M23.0629302,74.3809101 C23.2557437,74.3809101 23.482167,74.4145413 23.6749805,74.5101248 C24.4197008,74.8659077 24.777025,75.7403193 24.4197008,76.4837462 C24.0995241,77.2289432 23.1920622,77.5882662 22.445573,77.2289432 C21.7026217,76.9067915 21.3771383,76.0005187 21.7026217,75.2553218 C21.9626547,74.7048318 22.4809517,74.3809101 23.0629302,74.3809101 Z M36.1100415,74.1508524 C36.3330313,74.1508524 36.5911376,74.1807334 36.7860342,74.3108032 C37.521725,74.6957395 37.8114362,75.5956821 37.4286663,76.3022776 C37.0441405,77.0422694 36.1434021,77.3305323 35.4375604,76.9473536 C34.6983579,76.5606595 34.4086467,75.6589593 34.7931725,74.9207252 C35.0512788,74.4391153 35.5657356,74.1508524 36.1100415,74.1508524 Z M84.1288196,73.7636333 C84.5786403,73.7636333 84.996709,73.9577334 85.2877695,74.3459336 C85.8046223,74.9899929 85.7093661,75.9252023 85.0637411,76.4422143 C84.4181161,76.9592263 83.4831946,76.8304144 82.9663417,76.1845906 C82.4494889,75.5370022 82.5447451,74.6035573 83.1921341,74.1183071 C83.4831946,73.8924452 83.8024791,73.7636333 84.1288196,73.7636333 Z M9.65339383,73.3960412 C9.81571146,73.3960412 10.0097869,73.4294526 10.202098,73.4927584 C10.9448776,73.8163214 11.3294998,74.6498478 11.040151,75.4235853 L11.0083932,75.4235853 C10.7190444,76.1938059 9.84570493,76.5472633 9.07469618,76.2588702 C8.33015227,75.9370657 7.94200141,75.0683695 8.268401,74.3298018 L8.23311455,74.3298018 C8.49070558,73.7512571 9.03940974,73.3960412 9.65339383,73.3960412 Z M67.8877482,71.8075391 C68.242472,71.8075391 68.6288049,71.9358052 68.8851895,72.1940946 C69.4927858,72.7405436 69.5279069,73.6735482 68.9800166,74.2832517 C68.4321263,74.8929553 67.5014153,74.9245826 66.8920629,74.3798906 C66.2827106,73.8334416 66.2493454,72.8705669 66.7972357,72.2591062 L66.7972357,72.2907335 C67.0852294,71.9709466 67.5014153,71.8075391 67.8877482,71.8075391 Z M89.2567758,70.1480784 C89.7418766,70.1480784 90.2252134,70.3757049 90.5145098,70.8274287 C90.9678586,71.5367762 90.7420662,72.4719856 90.0311731,72.8919476 C89.35556,73.3436714 88.4188745,73.1160449 88.0008058,72.4402238 C87.5456931,71.7308762 87.7432614,70.8274287 88.4506265,70.3757049 C88.7081709,70.2133666 88.9674794,70.1480784 89.2567758,70.1480784 Z M53.6575452,70.0816988 C53.9818406,70.0816988 54.272466,70.1455513 54.5666356,70.3424298 C55.2134543,70.8284181 55.3782602,71.7684684 54.8891589,72.4495615 C54.4018298,73.1306546 53.4626136,73.2601332 52.7821248,72.7759186 C52.1370782,72.2881566 51.9722724,71.3481063 52.4578294,70.6989394 C52.7484548,70.2768036 53.2056582,70.0816988 53.6575452,70.0816988 Z M25.8454597,68.6830739 C26.1001859,68.6830739 26.3283781,68.7149351 26.5565703,68.8441497 C27.2676808,69.2353339 27.5595545,70.1398366 27.1703896,70.8531725 C26.7812246,71.5983694 25.8773005,71.8886599 25.1626521,71.4992458 C24.4197008,71.1116018 24.129596,70.205329 24.518761,69.460132 C24.8088658,68.9733644 25.3271627,68.6830739 25.8454597,68.6830739 Z M39.1932707,68.6527659 C39.4829819,68.6527659 39.7410882,68.7178009 39.9658338,68.8777516 C40.6716756,69.2943266 40.8946654,70.1960268 40.476779,70.9026223 C40.0588926,71.6109755 39.1283051,71.8342035 38.4224634,71.4158708 C37.7482265,70.9658995 37.521725,70.0677147 37.9396114,69.3576038 C38.2310784,68.9093902 38.7121745,68.6527659 39.1932707,68.6527659 Z M12.1375593,67.5754246 C12.3633925,67.5754246 12.5592323,67.6387304 12.7833012,67.7372061 C13.5260808,68.0572521 13.8489517,68.9576013 13.4960873,69.6979274 C13.1396942,70.4382536 12.2663548,70.7582996 11.5253395,70.4048422 C10.78256,70.0847962 10.4279312,69.1826885 10.78256,68.4423624 C11.040151,67.8972291 11.5888551,67.5754246 12.1375593,67.5754246 Z M72.3182841,67.3744496 C72.7379821,67.3744496 73.122559,67.534343 73.4456738,67.855887 C73.990052,68.4673476 73.9250778,69.3985951 73.3473345,69.9450441 C72.7379821,70.4914931 71.7739059,70.4581087 71.2277717,69.8484052 C70.6816375,69.2369446 70.7132465,68.3056971 71.326111,67.7592481 C71.6141046,67.5027157 71.9688285,67.3744496 72.3182841,67.3744496 Z M94.7428246,67.1148237 C95.2914295,67.1148237 95.8382704,67.4042092 96.0658267,67.9547476 C96.4503793,68.6976215 96.1275668,69.5693073 95.3902136,69.9239811 C94.6458044,70.2768903 93.740871,69.9875047 93.3880704,69.2446308 C93.0317419,68.5035215 93.3527904,67.5983093 94.0971996,67.2436355 C94.2877119,67.1483501 94.5152682,67.1148237 94.7428246,67.1148237 Z M57.6128859,65.0870162 C57.9708514,65.0870162 58.2916025,65.1827949 58.5822279,65.4435258 C59.200693,65.9951403 59.2999309,66.9369643 58.7488059,67.5506576 C58.2278067,68.1998244 57.2566926,68.2654506 56.6399997,67.7138361 C56.0233068,67.1959216 55.9276131,66.2558712 56.4787381,65.6067044 C56.7693634,65.248421 57.1911247,65.0870162 57.6128859,65.0870162 Z M100.548158,64.6938665 C101.160267,64.6938665 101.710636,65.0820666 101.934664,65.6943641 C102.225725,66.4707644 101.805892,67.3424501 101.035023,67.5983093 C100.258861,67.8576976 99.387444,67.4694974 99.1298996,66.6966263 C98.8388392,65.920226 99.2586718,65.0485402 100.033069,64.792681 L100.064821,64.792681 C100.193593,64.7291574 100.387634,64.6938665 100.548158,64.6938665 Z M42.6627815,63.3796651 C42.9507368,63.3796651 43.270297,63.4780963 43.5284033,63.6362893 C44.2026403,64.1196569 44.3624204,65.0512381 43.88308,65.726195 C43.4002281,66.4029096 42.4678849,66.5628603 41.7954038,66.0794927 C41.1510159,65.5978828 40.9912358,64.664544 41.4740877,63.9913448 C41.7304382,63.6046507 42.2115344,63.3796651 42.6627815,63.3796651 Z M77.1369091,63.3560288 C77.5882161,63.3560288 78.0377671,63.5493066 78.3257608,63.9358621 C78.8402859,64.5771929 78.7120937,65.5101975 78.0693762,66.0250192 L78.0377671,66.0250192 C77.3950497,66.5046995 76.4625825,66.3764334 75.9831785,65.7351026 C75.4686533,65.0603874 75.5968456,64.1291399 76.2711721,63.6459455 C76.5293128,63.4544247 76.8489154,63.3560288 77.1369091,63.3560288 Z M28.9817756,63.1480836 C29.2435775,63.1480836 29.5000726,63.2118059 29.7601055,63.3410206 C30.4712161,63.7959271 30.6994083,64.7021999 30.2766336,65.4137656 C29.8237871,66.1271014 28.9163251,66.3518996 28.2069835,65.8987632 C27.4941041,65.479258 27.2676808,64.5729852 27.6869176,63.8596494 C27.9787913,63.406513 28.4634786,63.1480836 28.9817756,63.1480836 Z M106.582812,62.9522595 C107.260189,62.9522595 107.872298,63.4357451 108.034586,64.1150953 C108.19511,64.9214929 107.711773,65.7278905 106.905624,65.920226 C106.097711,66.0825642 105.291561,65.5990786 105.099285,64.792681 C104.938761,63.9862835 105.452086,63.1798859 106.226483,62.9840213 C106.355255,62.9840213 106.454039,62.9522595 106.582812,62.9522595 Z M112.746237,61.92 C113.518871,61.92 114.164496,62.4670093 114.229764,63.2434096 C114.32502,64.0498071 113.744663,64.792681 112.938514,64.8879665 L112.906762,64.8879665 C112.100612,64.9850166 111.356203,64.3709545 111.262711,63.564557 C111.195679,62.7563948 111.776036,62.0152855 112.582185,61.92 L112.746237,61.92 Z M14.9781179,61.914831 C15.2021868,61.914831 15.4615421,61.9781368 15.6891396,62.1082654 C16.3966328,62.4933757 16.6877459,63.3937248 16.3013594,64.1023981 C15.9149729,64.8409658 15.01164,65.0994644 14.2670961,64.7125957 C13.5578386,64.3257269 13.2684898,63.4271362 13.6548763,62.718463 C13.9142316,62.2032241 14.4276494,61.914831 14.9781179,61.914831 Z M61.9226478,60.4151433 C62.3125112,60.4151433 62.7023745,60.5783218 62.9929999,60.8692053 C63.5760228,61.4545197 63.5760228,62.3927964 62.9929999,62.9763371 C62.4117491,63.5616514 61.4353187,63.5616514 60.8540679,62.9763371 C60.271045,62.3927964 60.271045,61.4545197 60.8540679,60.8692053 C61.1446933,60.5783218 61.5327845,60.4151433 61.9226478,60.4151433 Z M82.3401108,59.7891752 C82.824783,59.7891752 83.3059431,60.0474646 83.5956928,60.4972747 C84.0118787,61.2036171 83.8187122,62.1032373 83.1127766,62.5530474 C82.4068411,62.9712303 81.507739,62.7779525 81.058188,62.0716101 C80.6402461,61.3635106 80.8632655,60.4656474 81.537592,60.0140802 C81.7957326,59.8541868 82.0521172,59.7891752 82.3401108,59.7891752 Z M46.4834573,58.3631885 C46.8047733,58.3631885 47.1559384,58.4616197 47.4140447,58.6866053 C48.0566768,59.2016115 48.155003,60.1331926 47.6405462,60.7747533 C47.1260894,61.4198293 46.1621413,61.5147451 45.5511141,61.0014966 C44.908482,60.4864904 44.8136675,59.5215129 45.3281243,58.9115909 C45.6160796,58.5266546 46.033966,58.3631885 46.4834573,58.3631885 Z M32.441806,57.8060303 C32.7354486,57.8060303 33.0273224,57.9016137 33.2855864,58.0644596 C33.9666251,58.5494572 34.1275979,59.45573 33.6765203,60.1690658 C33.1882952,60.8169093 32.2507614,61.0098462 31.6033324,60.5248487 C30.9222937,60.0717123 30.731249,59.1335783 31.2141674,58.4538737 C31.5078101,58.0325985 31.9588876,57.8060303 32.441806,57.8060303 Z M87.8014532,56.7371433 C88.3475875,56.7371433 88.8621126,57.02706 89.1184972,57.573509 C89.5048301,58.3114787 89.2150804,59.1794716 88.4757797,59.5660272 C87.7382351,59.9174413 86.8391331,59.6275247 86.4844092,58.8895549 C86.0980763,58.1515852 86.4211911,57.251965 87.1569797,56.8987938 C87.3536583,56.8003978 87.5766777,56.7371433 87.8014532,56.7371433 Z M18.1080252,56.4142604 C18.3656162,56.4142604 18.6267359,56.5109776 18.8843269,56.6393477 C19.5618266,57.0578693 19.821182,57.9898714 19.3659869,58.6985447 C18.9478425,59.3738065 18.0427453,59.6305467 17.3334878,59.1803721 C16.6242303,58.7618505 16.3966328,57.8632598 16.8165415,57.1545865 C17.1076546,56.672759 17.5928432,56.4142604 18.1080252,56.4142604 Z M66.5921473,56.09978 C67.0121364,56.09978 67.4338977,56.2948848 67.7245231,56.6194682 C68.275648,57.2686351 68.1764101,58.2104591 67.5632614,58.7283737 C66.9146706,59.2782144 65.9736823,59.214362 65.4544552,58.5651951 C64.9051023,57.9497282 64.9706703,57.0096778 65.6157169,56.4562897 C65.8762164,56.2292586 66.2341819,56.09978 66.5921473,56.09978 Z M93.5507892,54.1981761 C94.1267765,54.1981761 94.7080319,54.5531044 94.9310513,55.1610508 C95.2225571,55.9324049 94.8362242,56.7687706 94.0653144,57.0586872 C93.3242577,57.3802312 92.4585208,56.9936756 92.1389181,56.2240786 C91.8474123,55.4509675 92.2337452,54.6163589 93.004655,54.294815 C93.1960654,54.2298033 93.3593788,54.1981761 93.5507892,54.1981761 Z M50.6254492,53.6050938 C50.9801259,53.6050938 51.331291,53.7351636 51.622758,53.9917878 C52.2302735,54.5718289 52.2636342,55.5016524 51.7175725,56.1150898 C51.139906,56.6916155 50.2093186,56.7267695 49.6000472,56.178367 C49.0206249,55.6000836 48.9872642,54.6685025 49.5350817,54.0884614 C49.823037,53.7685599 50.2391676,53.6050938 50.6254492,53.6050938 Z M36.195479,52.6905452 C36.5209625,52.6905452 36.8747488,52.7878987 37.1347818,53.0144669 C37.7822108,53.4994644 37.8812709,54.4375984 37.3930458,55.1190731 C36.8747488,55.7651464 35.937215,55.86427 35.2933239,55.3456413 C34.6441259,54.8606437 34.5149939,53.8871085 35.0332909,53.2728962 C35.3233957,52.8834822 35.7762422,52.6905452 36.195479,52.6905452 Z M99.4915356,52.2056578 C100.134253,52.2056578 100.747118,52.6238407 100.905163,53.2985558 C101.131694,54.0681528 100.678631,54.9045185 99.8761125,55.1294236 L99.9112337,55.1294236 C99.1087148,55.3560857 98.2710749,54.9045185 98.0480554,54.1015372 C97.8232799,53.328426 98.306196,52.4955745 99.0735937,52.2706695 C99.2369071,52.2372851 99.3650994,52.2056578 99.4915356,52.2056578 Z M71.5823979,52.1746264 C72.0360571,52.1746264 72.4879441,52.3697311 72.7785695,52.7900933 C73.2676708,53.4729601 73.1064091,54.4130104 72.4578183,54.8989987 C71.7773296,55.3867607 70.8345692,55.2235821 70.3490121,54.542489 C69.8652272,53.8950959 70.0247167,52.9532718 70.6750796,52.4672835 C70.965705,52.2721787 71.2581025,52.1746264 71.5823979,52.1746264 Z M21.5272814,51.1088826 C21.8166302,51.1088826 22.1095077,51.1721884 22.368863,51.3656228 C23.048127,51.8157974 23.2386738,52.7477994 22.7534852,53.4230613 C22.3035831,54.0983232 21.3684924,54.2917576 20.6892284,53.8099301 C20.0117287,53.357997 19.821182,52.425995 20.3010776,51.7507331 C20.5921907,51.3339699 21.0456215,51.1088826 21.5272814,51.1088826 Z M105.593839,50.7912159 C106.301531,50.7912159 106.910883,51.2744103 107.072441,51.9807528 C107.200633,52.7837341 106.686108,53.5867154 105.85198,53.7149816 L105.883589,53.7149816 C105.079314,53.8766321 104.276795,53.328426 104.148603,52.5254447 C103.988802,51.7224634 104.503327,50.9528664 105.337455,50.7912159 L105.593839,50.7912159 Z M113.269572,51.2744103 C113.367911,52.0773917 112.758559,52.8153614 111.95604,52.8821301 C111.1184,52.9453846 110.412464,52.3673083 110.315881,51.5309427 C110.252663,50.7279613 110.860259,49.9864775 111.662778,49.92498 C112.467053,49.8599684 113.206354,50.4380447 113.269572,51.2744103 Z M55.0922687,49.1370196 C55.4750387,49.1370196 55.8595644,49.2987281 56.1826362,49.6221449 C56.7269421,50.2303092 56.6970931,51.1636481 56.08431,51.7102929 C55.4750387,52.2868186 54.5409396,52.2569377 53.9966338,51.645258 C53.4505721,51.0335783 53.4505721,50.1019971 54.0633551,49.5237137 C54.3513105,49.2670895 54.7059872,49.1370196 55.0922687,49.1370196 Z M76.829604,48.6379086 C77.3506031,48.6379086 77.8379323,48.8986395 78.1285577,49.3544753 C78.5503189,50.0657209 78.3252615,50.9756187 77.6412285,51.4279071 C76.9288419,51.8500429 75.9896257,51.6230119 75.5678644,50.9099926 C75.1478753,50.2288995 75.3392628,49.2870754 76.0569657,48.8649396 C76.3139211,48.7035347 76.5744207,48.6379086 76.829604,48.6379086 Z M40.2746355,47.8016282 C40.6284218,47.8016282 40.985746,47.932613 41.2776198,48.1910423 C41.893208,48.7096711 41.9551206,49.6796662 41.4067518,50.2956485 C40.856614,50.9098607 39.9190802,50.973583 39.3017231,50.4248632 C38.6578319,49.8743733 38.6242222,48.9344692 39.1725911,48.320257 C39.4662337,47.9627041 39.8854705,47.8016282 40.2746355,47.8016282 Z M25.2411794,45.9617694 C25.562286,45.9617694 25.8516348,46.0584866 26.1445123,46.2853323 C26.7884898,46.7654013 26.9172853,47.6991619 26.4021033,48.3410124 L26.4356254,48.3744238 C25.918679,49.0180327 24.981824,49.1446443 24.3360821,48.6311639 C23.6568181,48.1493365 23.5615448,47.2173344 24.044969,46.5420725 C24.3360821,46.1868567 24.7895129,45.9617694 25.2411794,45.9617694 Z M82.3762959,45.5233267 C82.9274209,45.5233267 83.4431037,45.8159838 83.7018312,46.3356721 C84.0916946,47.0806176 83.8010692,47.9887417 83.0567846,48.3789513 C82.3426259,48.735461 81.4370797,48.4445775 81.0472164,47.6978582 C80.657353,46.9848389 80.9497505,46.0767148 81.692263,45.6865052 C81.9208646,45.5889528 82.1476942,45.5233267 82.3762959,45.5233267 Z M59.843532,44.9923624 C60.2596626,44.9923624 60.677549,45.182194 60.9655044,45.5390072 C61.4799612,46.1805678 61.3851466,47.1121489 60.7741194,47.6271551 C60.1314873,48.1421613 59.1991441,48.0437301 58.6864431,47.4355658 C58.1737421,46.7904898 58.2668009,45.8589086 58.8795839,45.3439024 L58.9111888,45.3439024 C59.1675393,45.1189168 59.4888553,44.9923624 59.843532,44.9923624 Z M44.6421278,43.1711407 C45.0312928,43.1711407 45.4186888,43.3003553 45.7087936,43.5924159 C46.2907722,44.1765371 46.2907722,45.1465322 45.7087936,45.7288832 C45.1285841,46.3130044 44.1539027,46.3130044 43.5736931,45.7288832 C42.9917146,45.1465322 42.9917146,44.1765371 43.5736931,43.5924159 C43.8637979,43.3003553 44.2529629,43.1711407 44.6421278,43.1711407 Z M88.142729,42.8645805 C88.7292961,42.8645805 89.2804211,43.2210901 89.5391486,43.7727046 C89.8297739,44.5513501 89.4735806,45.4275479 88.7292961,45.7503577 C87.9513415,46.0767148 87.074149,45.7202051 86.7516257,44.939786 C86.4592282,44.1930667 86.8136494,43.2867163 87.5614782,42.9940591 C87.7528657,42.8965067 87.9513415,42.8645805 88.142729,42.8645805 Z M64.8529016,41.1640911 C65.3023928,41.1640911 65.783489,41.3908345 66.074956,41.8074094 C66.5542963,42.4823664 66.3629113,43.4139475 65.6886744,43.8656765 L65.7202793,43.8656765 C65.0460423,44.3490441 64.1154549,44.1873356 63.6308472,43.510621 C63.1515069,42.8690604 63.311287,41.9374793 63.9855239,41.4541117 C64.2436302,41.2625224 64.5614346,41.1640911 64.8529016,41.1640911 Z M29.2073754,41.0397434 C29.5637685,41.0397434 29.8866394,41.1681135 30.1795169,41.3949593 C30.8217301,41.9418511 30.88701,42.8738531 30.3400702,43.4858092 C29.8231238,44.1294182 28.8862688,44.192724 28.2405269,43.6458322 C27.6283071,43.1323518 27.5312694,42.1985913 28.0799736,41.5549823 C28.3693224,41.2331778 28.7892311,41.0397434 29.2073754,41.0397434 Z M94.1058658,40.6581226 C94.7243309,40.6581226 95.3055816,41.0784848 95.5341833,41.6957254 C95.7929108,42.5062971 95.3427959,43.3523424 94.5630692,43.5775998 C93.7851147,43.836557 92.9415922,43.4161949 92.6828647,42.6357757 C92.4223651,41.825204 92.8423542,40.9844797 93.6539788,40.7237488 C93.7851147,40.6900489 93.9446042,40.6581226 94.1058658,40.6581226 Z M100.233809,38.9376531 C100.884171,38.9376531 101.49732,39.3934888 101.658582,40.1082819 C101.855286,40.9188536 101.367956,41.6957254 100.558104,41.8908302 C99.7482515,42.085935 98.9366269,41.598173 98.7452395,40.7876013 C98.5467636,39.9770295 99.0659907,39.1664578 99.8758432,39.0032793 C99.9750811,38.971353 100.104445,38.9376531 100.233809,38.9376531 Z M49.2678842,38.8008525 C49.687121,38.8008525 50.1116646,38.9636984 50.4017694,39.3177112 C50.9519072,39.9336935 50.8846878,40.8718275 50.2708685,41.4240874 C49.6570492,41.9745774 48.7177464,41.909085 48.1676087,41.2966428 C47.6174709,40.6788905 47.6493117,39.7425266 48.2967407,39.1884965 C48.5567737,38.9318373 48.9140979,38.8008525 49.2678842,38.8008525 Z M106.425547,37.7049456 C107.169832,37.7049456 107.786525,38.2583337 107.915888,38.971353 C108.047024,39.7819248 107.495899,40.5605702 106.650605,40.6900489 L106.686047,40.6900489 C105.83898,40.8195275 105.096468,40.2679131 104.967104,39.4573413 C104.83774,38.6148434 105.388865,37.8698978 106.198718,37.7404192 C106.296183,37.7049456 106.358207,37.7049456 106.425547,37.7049456 Z M70.1186216,37.7242717 C70.6330784,37.7242717 71.1141746,37.9844113 71.4021299,38.4343826 C71.8217722,39.1409781 71.5970265,40.0409207 70.8911848,40.4592533 C70.1835872,40.9092246 69.2863604,40.6824813 68.868474,39.9758857 C68.4172269,39.2675325 68.6437284,38.36759 69.3478143,37.9492573 L69.3478143,37.9193764 C69.5743158,37.7893066 69.8622711,37.7242717 70.1186216,37.7242717 Z M112.743105,36.96 C113.52106,36.96 114.171423,37.5754669 114.235218,38.3541124 C114.300786,39.1983841 113.684094,39.9114034 112.872469,39.9770295 C112.032491,40.0426557 111.318332,39.4271888 111.252764,38.5811434 C111.188968,37.7705717 111.803889,37.0238525 112.613741,36.96 L112.743105,36.96 Z M33.4682132,36.3445632 C33.8246063,36.3445632 34.1774707,36.4729333 34.4703482,36.731432 C35.0825679,37.3099767 35.1143257,38.2419787 34.5320994,38.8539348 C33.9851596,39.4324795 33.0165468,39.4658909 32.4343205,38.8855877 C31.8221007,38.3386959 31.8221007,37.4066939 32.3725692,36.7947378 C32.661918,36.4729333 33.0500689,36.3445632 33.4682132,36.3445632 Z M54.1554425,34.7226249 C54.608289,34.7226249 55.0275258,34.917332 55.3176306,35.3067461 C55.8359276,35.9528195 55.7368674,36.8909534 55.0894384,37.4095822 C54.4455473,37.9282109 53.4726348,37.7989963 52.9897165,37.1511528 C52.4714195,36.5050794 52.5687107,35.5634054 53.2161397,35.0465467 L53.2479805,35.0465467 C53.5080135,34.8199785 53.829959,34.7226249 54.1554425,34.7226249 Z M75.6108432,34.6061114 C76.1569048,34.6061114 76.6713616,34.8978896 76.9277121,35.4093804 C77.3139937,36.1511299 77.0225267,37.0493148 76.3166849,37.4360088 C75.5792383,37.8209452 74.6802557,37.5010437 74.2939742,36.7926905 C73.9094484,36.0544564 74.1974038,35.1527562 74.9366062,34.7695775 C75.1631077,34.6711463 75.3843417,34.6061114 75.6108432,34.6061114 Z M81.2944496,31.9062837 C81.873872,31.9062837 82.4199337,32.2279429 82.6762842,32.8062263 C82.9958444,33.5462181 82.6411676,34.414522 81.903721,34.7695775 C81.1346695,35.0894789 80.2690477,34.7344235 79.94422,33.9961894 C79.6246598,33.2263166 79.9810923,32.356255 80.7167831,32.0345958 C80.9116797,31.93968 81.1013089,31.9062837 81.2944496,31.9062837 Z M37.9531199,31.8428175 C38.3412708,31.8428175 38.7276573,32.0028404 39.0170061,32.3246449 C39.6009967,32.9031896 39.5657103,33.8686031 38.9870127,34.4154948 C38.3747929,34.9940395 37.4397022,34.9623866 36.8557116,34.3504305 C36.3070074,33.7718859 36.3070074,32.8398838 36.9227558,32.2595806 C37.2121047,32.0028404 37.5684977,31.8428175 37.9531199,31.8428175 Z M59.2641172,30.966549 C59.7505734,30.966549 60.2034199,31.1948873 60.4970626,31.5825313 C60.9799809,32.2622359 60.8172392,33.2003698 60.1397384,33.6871375 C59.4604686,34.1420439 58.5229348,33.977428 58.0347096,33.2977234 C57.5818631,32.6180188 57.7446049,31.6798848 58.4238746,31.2249784 C58.6821386,31.0320414 58.9722434,30.966549 59.2641172,30.966549 Z M87.1694411,29.5913924 C87.7822241,29.5913924 88.3598906,29.9780865 88.5846363,30.5880085 C88.8427426,31.3596389 88.456461,32.1963043 87.6838979,32.4863248 C86.9148464,32.7429491 86.0492245,32.356255 85.7911182,31.5846246 C85.5014071,30.8147518 85.8876886,29.9446902 86.6918566,29.688066 C86.8516367,29.6247887 87.0114168,29.5913924 87.1694411,29.5913924 Z M93.1761194,27.6649529 C93.8187515,27.6649529 94.4315345,28.1131665 94.6229195,28.7564848 C94.8476651,29.5597538 94.3648131,30.3630229 93.5940058,30.5880085 C92.7915937,30.8147518 91.9891815,30.3630229 91.7661917,29.5597538 C91.5396902,28.7881234 91.9891815,27.9532158 92.7915937,27.7282301 C92.9197689,27.6948338 93.0479442,27.6649529 93.1761194,27.6649529 Z M42.6638599,27.6277063 C43.0855328,27.6277063 43.5036772,27.7912462 43.8265481,28.1429451 C44.3434945,28.7865541 44.2782146,29.7203147 43.634237,30.233795 C43.0202529,30.7806868 42.0851622,30.7156225 41.5346937,30.073772 C40.9877539,29.461816 41.0847916,28.5298139 41.6970114,27.9829221 C41.9863602,27.726182 42.3409889,27.6277063 42.6638599,27.6277063 Z M64.6363627,27.5043037 C65.1228189,27.5043037 65.6039683,27.7291018 65.8993799,28.2158695 C66.3203857,28.9256651 66.0921935,29.833708 65.379314,30.2549833 C64.7018132,30.7081197 63.7625105,30.4815515 63.3432736,29.7699857 C62.9240368,29.05842 63.1469222,28.1167459 63.8615706,27.6972407 C64.086225,27.568026 64.3462579,27.5043037 64.6363627,27.5043037 Z M99.3092172,26.1849693 C99.9852099,26.1849693 100.627842,26.6665792 100.757773,27.3731747 C100.915797,28.1782014 100.403096,28.9814704 99.5989284,29.1414212 C98.7965162,29.3013719 98.0257089,28.7881234 97.864173,27.9848544 C97.6745438,27.1815853 98.1890006,26.3765586 99.0212618,26.2148502 C99.1195881,26.2148502 99.2144026,26.1849693 99.3092172,26.1849693 Z M105.509036,25.1233183 C106.248239,25.1233183 106.890871,25.6699631 106.985685,26.4099549 C107.113861,27.2448626 106.536194,27.9848544 105.733782,28.0815279 C104.899765,28.20984 104.158807,27.6297989 104.063992,26.8265299 C103.935817,25.9916222 104.513483,25.2516304 105.315896,25.1549569 C105.379105,25.1233183 105.445827,25.1233183 105.509036,25.1233183 Z M111.801914,24.48 C112.572721,24.48 113.215354,25.0916797 113.278563,25.8633101 C113.31368,26.6982178 112.700897,27.4048133 111.898485,27.4698482 C111.066223,27.5014868 110.358626,26.8915648 110.29366,26.0865381 C110.262055,25.2516304 110.869571,24.5432772 111.671983,24.48 L111.801914,24.48 Z M70.1678121,24.36244 C70.6861091,24.36244 71.2026371,24.6545006 71.4962798,25.1731293 C71.8518351,25.8846951 71.5918021,26.7909679 70.8470819,27.1786119 C70.1359713,27.568026 69.2285094,27.2777355 68.8411133,26.5626296 C68.4554862,25.8192027 68.745591,24.9147 69.4567016,24.5252859 C69.6848937,24.4279324 69.9077791,24.36244 70.1678121,24.36244 Z M47.6321908,23.6728522 C48.0873859,23.6728522 48.5055303,23.8645281 48.7948791,24.2513969 C49.3118255,24.8950059 49.1830299,25.8270079 48.5372881,26.3422468 C47.8597884,26.8240743 46.9246977,26.6957042 46.4412734,26.0538537 C45.9560849,25.3785919 46.0866447,24.4465898 46.7323866,23.9630038 C46.9899776,23.7695694 47.3128485,23.6728522 47.6321908,23.6728522 Z M75.8956129,21.5781292 C76.4457507,21.5781292 76.9958884,21.902051 77.2541524,22.4525409 C77.5778669,23.1959678 77.2541524,24.0703794 76.5076633,24.4279324 C75.7346401,24.7837153 74.8607879,24.4279324 74.5034637,23.6809653 C74.1797492,22.9056773 74.5034637,22.0312656 75.2800247,21.7073439 C75.4763761,21.6099904 75.6691896,21.5781292 75.8956129,21.5781292 Z M52.7663681,19.9747384 C53.2497923,19.9747384 53.7332166,20.1998257 54.0243297,20.6183474 C54.4742319,21.2936093 54.3136785,22.2256113 53.6044211,22.6757859 C52.9269214,23.127719 52.0235885,22.9659375 51.5366356,22.2906756 C51.0867335,21.6154137 51.2472868,20.6834117 51.9265508,20.2314786 C52.1841418,20.0398027 52.4734906,19.9747384 52.7663681,19.9747384 Z M81.7507768,19.1177402 C82.366365,19.1177402 82.9483435,19.5071543 83.1765357,20.0895054 C83.4666405,20.8665635 83.0774756,21.7409751 82.3009145,22.0312656 C81.5261225,22.3233262 80.6505013,21.9356822 80.3603965,21.1586241 C80.0702917,20.3815659 80.4576877,19.5071543 81.2324798,19.2150937 C81.3969905,19.1496014 81.589804,19.1177402 81.7507768,19.1177402 Z M87.7704513,17.0449952 C88.4178803,17.0449952 88.9980899,17.4662704 89.2262821,18.1141139 C89.4509364,18.8894019 89.0316996,19.7337225 88.2215289,19.9602907 C87.443199,20.2187201 86.6047253,19.7655837 86.3446924,18.9885255 C86.1200381,18.2114674 86.5392749,17.370687 87.3476767,17.1104876 C87.4803465,17.0786264 87.6395504,17.0449952 87.7704513,17.0449952 Z M58.1210856,16.5333648 C58.638032,16.5333648 59.1232205,16.790105 59.4125693,17.2719325 C59.832478,17.9806057 59.6048804,18.8827134 58.895623,19.2994766 C58.1881298,19.7162397 57.2830326,19.4911525 56.8648883,18.7842377 C56.4432153,18.1089758 56.6708128,17.1752153 57.3818346,16.7566936 C57.6076679,16.5984291 57.8652589,16.5333648 58.1210856,16.5333648 Z M93.9139511,15.3315732 C94.563149,15.3315732 95.1787372,15.7829395 95.3715508,16.4962753 C95.5679022,17.2715634 95.081446,18.0804827 94.2712753,18.2769598 C93.4628735,18.503528 92.6527028,17.9848992 92.4616582,17.206071 C92.2670757,16.3971518 92.751763,15.5882325 93.5601647,15.3952955 C93.6592249,15.3616643 93.7883569,15.3315732 93.9139511,15.3315732 Z M100.129977,14.0040252 C100.839319,14.0040252 101.453138,14.5226539 101.617649,15.2324496 C101.746781,16.0413689 101.194874,16.8520582 100.386472,16.9812729 C99.5780703,17.1441188 98.8032783,16.5936289 98.6741462,15.7829395 C98.5114045,14.9722502 99.0615423,14.1969621 99.871713,14.0341162 C99.9654664,14.0341162 100.030917,14.0040252 100.129977,14.0040252 Z M63.6734072,13.4120371 C64.1903535,13.4120371 64.7037712,13.7004302 64.9966487,14.2174276 C65.3812709,14.9261009 65.0919221,15.8246915 64.3509068,16.2115603 C63.639885,16.5984291 62.7383165,16.3399304 62.3501656,15.5996042 C61.9620147,14.8926895 62.2513636,13.9923403 62.9623854,13.60723 C63.1882186,13.4771014 63.4158161,13.4120371 63.6734072,13.4120371 Z M106.404378,13.0623511 C107.150867,13.0623511 107.794758,13.6146111 107.893818,14.3916692 C107.989341,15.2005885 107.409131,15.9457854 106.600729,16.0413689 C105.756949,16.1404925 105.015766,15.5581414 104.948547,14.7474521 C104.817646,13.9066716 105.435003,13.1597046 106.243405,13.0623511 L106.404378,13.0623511 Z M112.646938,12.48 L112.646938,12.5136312 C113.492487,12.4499089 114.201829,13.0623511 114.235438,13.9066716 C114.300889,14.7155909 113.65346,15.4271567 112.845058,15.490879 C112.003047,15.5245102 111.290167,14.9085279 111.258326,14.0677475 C111.194645,13.2588282 111.838536,12.5454924 112.646938,12.48 Z M69.3527599,10.6142725 C69.9314576,10.6142725 70.4484039,10.936077 70.705995,11.4513158 C71.0641523,12.2215364 70.7395171,13.0919912 69.9985018,13.4454485 C69.2239644,13.7989059 68.3523893,13.4771014 67.9977606,12.7068809 C67.6413675,11.9665547 67.9977606,11.0978585 68.7370115,10.7444011 C68.9346156,10.6476839 69.1586845,10.6142725 69.3527599,10.6142725 Z M75.1909017,8.1066594 C75.773128,8.1066594 76.3553542,8.46011679 76.5829518,9.03866146 C76.9022941,9.80888203 76.5141432,10.6476839 75.7396058,10.9694884 C75.0003549,11.2578815 74.1270155,10.9044241 73.8041445,10.132445 C73.5147957,9.36046594 73.8711888,8.49176969 74.6439618,8.2016181 C74.8380373,8.13655381 75.0321127,8.1066594 75.1909017,8.1066594 Z M81.1631319,5.91733382 C81.7753517,5.91733382 82.3893357,6.30420259 82.5816468,6.91615866 C82.8392379,7.68813772 82.4210935,8.55683398 81.6465561,8.81533266 C80.8737831,9.07031436 80.0322014,8.65179268 79.7428526,7.88157211 C79.4834973,7.10783456 79.9016416,6.24089679 80.7097011,5.9841566 C80.840261,5.91733382 81.0025786,5.91733382 81.1631319,5.91733382 Z M87.260629,4.0533297 C87.9063709,4.0533297 88.4885972,4.47185138 88.6826726,5.14711325 C88.9067415,5.95074521 88.4233172,6.75613567 87.6487799,6.97946446 C86.8424847,7.20631025 86.0361895,6.72096578 85.8085919,5.91733382 C85.584523,5.14711325 86.0661829,4.34348128 86.8424847,4.1166355 C86.9712802,4.0849826 87.1318335,4.0533297 87.260629,4.0533297 Z M93.3934125,2.54278297 C94.10267,2.54278297 94.7184184,2.99295755 94.8789717,3.69987232 C95.0377607,4.50350428 94.5208143,5.30889474 93.7145192,5.47067623 C92.908224,5.62894073 92.1336866,5.14711325 91.9413755,4.34348128 C91.7808222,3.53984932 92.2977685,2.73621736 93.1040637,2.57267738 C93.1975728,2.54278297 93.2963748,2.54278297 93.3934125,2.54278297 Z M99.6532273,1.35228223 C100.364249,1.35228223 101.006462,1.8675211 101.105264,2.60784727 C101.23406,3.41147923 100.68712,4.1816998 99.8790605,4.31006989 C99.0727653,4.44019848 98.2964636,3.89330671 98.1676681,3.08791625 C98.0388726,2.25263139 98.5875767,1.51406372 99.3938719,1.38393513 L99.3938719,1.35228223 L99.6532273,1.35228223 Z M105.9448,0.515238873 C106.689344,0.515238873 107.331557,1.06388914 107.430359,1.83410971 C107.495639,2.63774167 106.913413,3.37806783 106.107117,3.47478503 C105.2673,3.53984932 104.526285,2.95954615 104.461005,2.15591419 C104.363967,1.31887084 104.946193,0.611956068 105.784246,0.515238873 L105.9448,0.515238873 Z M112.269894,0 C113.044432,0 113.721931,0.611956068 113.755454,1.38393513 C113.820734,2.22097849 113.174992,2.92789325 112.335174,2.95954615 C111.528879,3.02461045 110.817857,2.38275998 110.7861,1.54395812 C110.722584,0.740326162 111.364797,0.0334113945 112.171092,0 L112.269894,0 Z M1.42560847,117.12 C1.05312169,117.12 0.682328042,117.276729 0.433439153,117.557818 C0.279365079,117.682178 0.186243386,117.837203 0.123597884,117.993932 C0.0321693122,118.181325 -7.10542736e-15,118.367014 -7.10542736e-15,118.554407 C-7.10542736e-15,118.929192 0.155767196,119.302274 0.433439153,119.58166 C0.805925926,119.988813 1.45608466,120.11147 1.98095238,119.893413 C2.16888889,119.801421 2.32296296,119.707724 2.44825397,119.58166 C2.72592593,119.302274 2.88,118.929192 2.88,118.554407 C2.88,118.181325 2.72592593,117.806539 2.44825397,117.557818 C2.16888889,117.276729 1.82687831,117.12 1.42560847,117.12 M118.559144,12.48 C118.374332,12.48 118.186096,12.5108067 117.997861,12.5741316 C117.811337,12.6357451 117.652193,12.7606834 117.528984,12.8856218 C117.24492,13.1680166 117.12,13.5428317 117.12,13.9193582 C117.12,14.1076215 117.154225,14.2958847 117.214118,14.484148 C117.279144,14.639893 117.404064,14.7973496 117.528984,14.9513832 C117.652193,15.078033 117.811337,15.1704531 117.997861,15.2662962 C118.341818,15.3912346 118.749091,15.3912346 119.093048,15.2662962 C119.281283,15.1704531 119.437005,15.078033 119.561925,14.9513832 C119.717647,14.7973496 119.811765,14.639893 119.876791,14.484148 C119.967487,14.2958847 120,14.1076215 120,13.9193582 C120,13.5137364 119.842567,13.1680166 119.561925,12.8856218 C119.310374,12.6049383 118.935615,12.48 118.559144,12.48 M13.9047529,117.12 C13.7217882,117.12 13.5337412,117.152368 13.3778824,117.2154 C13.1915294,117.307393 13.0373647,117.401089 12.9136941,117.52545 C12.6341647,117.806539 12.48,118.181325 12.48,118.554407 C12.48,118.740096 12.5104941,118.929192 12.6036706,119.114882 C12.6663529,119.27161 12.7578353,119.426635 12.9136941,119.58166 C13.2864,119.988813 13.9369412,120.11147 14.4621176,119.893413 C14.6484706,119.832085 14.8043294,119.707724 14.928,119.58166 C15.0533647,119.426635 15.1770353,119.27161 15.2363294,119.114882 C15.3007059,118.929192 15.36,118.740096 15.36,118.554407 C15.36,118.181325 15.2075294,117.806539 14.928,117.52545 C14.6806588,117.276729 14.3079529,117.12 13.9047529,117.12 M118.559144,24.48 C118.374332,24.48 118.186096,24.5143215 117.997861,24.5761001 C117.811337,24.6687681 117.652193,24.7648682 117.528984,24.8901415 C117.404064,25.0463042 117.279144,25.2024669 117.214118,25.3603456 C117.154225,25.5491137 117.12,25.7361656 117.12,25.9249337 C117.12,26.3024698 117.24492,26.6782899 117.528984,26.9597259 C118.026952,27.4934247 119.029733,27.4934247 119.561925,26.9597259 C119.842567,26.6782899 120,26.3024698 120,25.9249337 C120,25.7361656 119.967487,25.5491137 119.876791,25.3603456 C119.811765,25.2024669 119.717647,25.0463042 119.561925,24.8901415 C119.310374,24.6395948 118.935615,24.48 118.559144,24.48 M25.9047529,117.12 C25.5320471,117.12 25.1932235,117.276065 24.9153882,117.555965 C24.6341647,117.803634 24.48,118.176834 24.48,118.548338 C24.48,118.733241 24.5104941,118.921537 24.6036706,119.106441 C24.6680471,119.262506 24.7578353,119.44741 24.9153882,119.571244 C25.0356706,119.696775 25.1932235,119.82061 25.3778824,119.881679 C25.7217882,120.03944 26.1232941,120.03944 26.4655059,119.881679 C26.6484706,119.82061 26.8026353,119.696775 26.928,119.571244 C27.0821647,119.44741 27.1753412,119.262506 27.2397176,119.106441 C27.3312,118.921537 27.36,118.733241 27.36,118.548338 C27.36,118.176834 27.2075294,117.803634 26.928,117.555965 C26.6484706,117.276065 26.3062588,117.12 25.9047529,117.12 M118.559144,36.96 C118.374332,36.96 118.186096,36.9908205 117.997861,37.0541736 C117.811337,37.146635 117.652193,37.2408086 117.528984,37.3658026 C117.24492,37.6483234 117.12,38.0233056 117.12,38.4 C117.12,38.5883472 117.154225,38.7766944 117.214118,38.9650416 C117.279144,39.1208561 117.404064,39.2766706 117.528984,39.4341974 C117.652193,39.5609037 117.811337,39.6516528 117.997861,39.7475386 C118.341818,39.8708205 118.749091,39.8708205 119.093048,39.7475386 C119.281283,39.6516528 119.437005,39.5609037 119.561925,39.4341974 C119.717647,39.2766706 119.811765,39.1208561 119.876791,38.9650416 C119.967487,38.7766944 120,38.5883472 120,38.4 C120,38.0233056 119.842567,37.6483234 119.561925,37.3658026 C119.437005,37.2408086 119.281283,37.146635 119.093048,37.0541736 C118.935615,36.9908205 118.749091,36.96 118.559144,36.96 M38.4,117.12 C37.9941974,117.12 37.6483234,117.276065 37.3658026,117.523734 C37.2408086,117.6798 37.1158145,117.834169 37.0507491,117.990234 C36.9908205,118.176834 36.96,118.361738 36.96,118.548338 C36.96,118.921537 37.0849941,119.293041 37.3658026,119.571244 C37.4925089,119.696775 37.6483234,119.82061 37.8332461,119.881679 C38.1791201,120.03944 38.5849227,120.03944 38.9325089,119.881679 C39.1191439,119.82061 39.2749584,119.696775 39.3999524,119.571244 C39.680761,119.293041 39.84,118.921537 39.84,118.548338 C39.84,118.361738 39.8057551,118.176834 39.7150059,117.990234 C39.6499405,117.834169 39.5591914,117.6798 39.3999524,117.523734 C39.1191439,117.276065 38.7766944,117.12 38.4,117.12 M118.559144,48.96 C118.374332,48.96 118.186096,48.9925182 117.997861,49.0541316 C117.811337,49.1465518 117.652193,49.2423949 117.528984,49.3656218 C117.24492,49.6480166 117.12,50.0245432 117.12,50.3993582 C117.12,50.58591 117.154225,50.7758847 117.214118,50.964148 C117.279144,51.119893 117.404064,51.3064448 117.528984,51.4313832 C117.652193,51.558033 117.811337,51.6504531 117.997861,51.7462962 C118.341818,51.8712346 118.749091,51.8712346 119.093048,51.7462962 C119.281283,51.6504531 119.437005,51.558033 119.561925,51.4313832 C119.717647,51.3064448 119.811765,51.119893 119.878503,50.964148 C119.967487,50.7758847 120,50.58591 120,50.3993582 C120,50.0245432 119.842567,49.6480166 119.561925,49.3656218 C119.310374,49.1174565 118.935615,48.96 118.559144,48.96 M50.4008556,117.12 C50.2109091,117.12 50.024385,117.152368 49.837861,117.2154 C49.6787166,117.307393 49.4921925,117.401089 49.3672727,117.52545 C49.0849198,117.806539 48.96,118.181325 48.96,118.554407 C48.96,118.929192 49.1157219,119.302274 49.3672727,119.58166 C49.7745455,119.988813 50.4008556,120.11147 50.9330481,119.893413 C51.117861,119.832085 51.2770053,119.707724 51.4019251,119.58166 C51.6842781,119.302274 51.84,118.929192 51.84,118.554407 C51.84,118.181325 51.6842781,117.806539 51.4019251,117.52545 C51.1503743,117.276729 50.7773262,117.12 50.4008556,117.12 M118.559144,61.44 C118.374332,61.44 118.186096,61.4722642 117.997861,61.5639623 C117.811337,61.6250943 117.652193,61.7184906 117.528984,61.874717 C117.24492,62.1226415 117.12,62.4962264 117.12,62.8698113 C117.12,63.0549057 117.154225,63.2416981 117.214118,63.4267925 C117.279144,63.6135849 117.404064,63.7698113 117.528984,63.8937736 C117.652193,64.0177358 117.811337,64.1416981 117.997861,64.2028302 C118.341818,64.3590566 118.749091,64.3590566 119.093048,64.2028302 C119.281283,64.1416981 119.437005,64.0177358 119.561925,63.8937736 C119.717647,63.7698113 119.811765,63.6135849 119.878503,63.4267925 C119.967487,63.2416981 120,63.0549057 120,62.8698113 C120,62.4962264 119.842567,62.1226415 119.561925,61.874717 C119.310374,61.5945283 118.935615,61.44 118.559144,61.44 M62.8791444,117.12 C62.6943316,117.12 62.5026738,117.152368 62.317861,117.2154 C62.1604278,117.307393 62.0012834,117.401089 61.8455615,117.52545 C61.7206417,117.682178 61.5957219,117.837203 61.5341176,117.993932 C61.4708021,118.181325 61.44,118.367014 61.44,118.554407 C61.44,118.740096 61.4708021,118.929192 61.5341176,119.114882 C61.5957219,119.27161 61.7206417,119.426635 61.8455615,119.58166 C62.2528342,119.988813 62.8791444,120.11147 63.442139,119.893413 C63.6012834,119.801421 63.7570053,119.707724 63.9127273,119.58166 C64.0376471,119.426635 64.1317647,119.27161 64.2241711,119.114882 C64.2874866,118.929192 64.32,118.740096 64.32,118.554407 C64.32,118.367014 64.2874866,118.181325 64.2241711,117.993932 C64.1317647,117.837203 64.0376471,117.682178 63.9127273,117.52545 C63.6303743,117.276729 63.255615,117.12 62.8791444,117.12 M118.559144,73.44 C118.374332,73.44 118.186096,73.4705615 117.997861,73.563944 C117.811337,73.6250671 117.652193,73.7184495 117.528984,73.8746529 C117.404064,73.9985969 117.279144,74.1548003 117.214118,74.3398674 C117.154225,74.4943729 117.12,74.6811378 117.12,74.8679027 C117.12,75.0852292 117.154225,75.2414326 117.214118,75.4281975 C117.279144,75.6132646 117.404064,75.7677701 117.528984,75.8934119 C117.652193,76.0190538 117.811337,76.1412999 117.997861,76.2041209 C118.341818,76.3586264 118.749091,76.3586264 119.093048,76.2041209 C119.281283,76.1412999 119.437005,76.0190538 119.561925,75.8934119 C119.717647,75.7677701 119.811765,75.6132646 119.878503,75.4281975 C119.967487,75.2702962 120,75.0852292 120,74.8679027 C120,74.6811378 119.967487,74.4943729 119.878503,74.3398674 C119.811765,74.1548003 119.717647,73.9985969 119.561925,73.8746529 C119.310374,73.5945055 118.935615,73.44 118.559144,73.44 M74.8808556,117.12 C74.504385,117.12 74.1296257,117.276134 73.8472727,117.556158 C73.5974332,117.803936 73.44,118.177301 73.44,118.548969 C73.44,118.733954 73.4725134,118.922334 73.5358289,119.107319 C73.6316578,119.263453 73.7223529,119.448438 73.8472727,119.572328 C74.0064171,119.697914 74.162139,119.791255 74.317861,119.882899 C74.6943316,120.039034 75.099893,120.039034 75.4455615,119.882899 C75.6029947,119.791255 75.7587166,119.697914 75.9144385,119.572328 C76.0393583,119.448438 76.1334759,119.263453 76.2275936,119.107319 C76.2891979,118.922334 76.32,118.733954 76.32,118.548969 C76.32,118.177301 76.1642781,117.803936 75.9144385,117.556158 C75.7587166,117.400024 75.6029947,117.306682 75.4455615,117.215038 C75.2573262,117.152245 75.0690909,117.12 74.8808556,117.12 M118.559144,85.92 C118.374332,85.92 118.186096,85.9827562 117.997861,86.0438163 C117.811337,86.1065724 117.652193,86.2320848 117.528984,86.3559011 C117.24492,86.6340636 117.12,86.9766784 117.12,87.3786572 C117.12,87.5669258 117.154225,87.7518021 117.214118,87.9061484 C117.279144,88.0927208 117.404064,88.2470671 117.528984,88.3708834 C117.652193,88.4963958 117.811337,88.620212 117.997861,88.6829682 C118.341818,88.8390106 118.749091,88.8390106 119.093048,88.6829682 C119.281283,88.620212 119.437005,88.4963958 119.561925,88.3708834 C119.717647,88.2470671 119.811765,88.0927208 119.878503,87.9061484 C119.967487,87.7518021 120,87.5669258 120,87.3786572 C120,86.9766784 119.842567,86.6340636 119.561925,86.3559011 C119.310374,86.0777385 118.935615,85.92 118.559144,85.92 M87.3608556,117.12 C86.9860963,117.12 86.6113369,117.276729 86.328984,117.52545 C86.0791444,117.806539 85.92,118.181325 85.92,118.554407 C85.92,118.929192 86.0791444,119.302274 86.328984,119.58166 C86.7362567,119.988813 87.3950802,120.11147 87.9255615,119.893413 C88.0812834,119.832085 88.2678075,119.707724 88.3944385,119.58166 C88.6442781,119.302274 88.8,118.929192 88.8,118.554407 C88.8,118.181325 88.6442781,117.806539 88.3944385,117.52545 C88.1103743,117.276729 87.735615,117.12 87.3608556,117.12 M118.559144,97.92 C118.374332,97.92 118.186096,97.9543215 117.997861,98.0161001 C117.811337,98.0778787 117.652193,98.2031521 117.528984,98.3284254 C117.404064,98.4536988 117.279144,98.6115775 117.214118,98.8003456 C117.154225,98.9565083 117.12,99.1452763 117.12,99.3649337 C117.12,99.5519857 117.154225,99.7424698 117.214118,99.8986325 C117.279144,100.087401 117.404064,100.243563 117.528984,100.370553 C117.652193,100.495826 117.811337,100.621099 117.997861,100.682878 C118.341818,100.839041 118.749091,100.839041 119.093048,100.682878 C119.281283,100.621099 119.437005,100.495826 119.561925,100.370553 C119.717647,100.243563 119.811765,100.087401 119.878503,99.8986325 C119.967487,99.7424698 120,99.5519857 120,99.3649337 C120,98.9565083 119.842567,98.6115775 119.561925,98.3284254 C119.310374,98.0452734 118.935615,97.92 118.559144,97.92 M99.3608556,117.12 C98.984385,117.12 98.6096257,117.276729 98.3272727,117.557818 C98.2023529,117.682178 98.1082353,117.837203 98.0124064,117.993932 C97.9525134,118.181325 97.92,118.367014 97.92,118.554407 C97.92,118.929192 98.0774332,119.302274 98.3272727,119.58166 C98.7345455,119.988813 99.3916578,120.11147 99.9238503,119.893413 C100.108663,119.832085 100.267807,119.707724 100.394439,119.58166 C100.519358,119.457299 100.610053,119.302274 100.705882,119.114882 C100.765775,118.929192 100.8,118.740096 100.8,118.554407 C100.8,118.181325 100.640856,117.806539 100.394439,117.557818 C100.108663,117.276729 99.7664171,117.12 99.3608556,117.12 M118.559144,110.4 C118.374332,110.4 118.186096,110.461123 117.997861,110.523944 C117.811337,110.585067 117.652193,110.710709 117.528984,110.834653 C117.24492,111.113102 117.12,111.456071 117.12,111.858464 C117.12,112.046927 117.154225,112.231994 117.214118,112.3865 C117.279144,112.573265 117.404064,112.72777 117.528984,112.851714 C117.652193,113.009615 117.811337,113.1013 117.997861,113.164121 C118.341818,113.318626 118.749091,113.318626 119.093048,113.164121 C119.281283,113.1013 119.437005,113.009615 119.561925,112.851714 C119.717647,112.72777 119.811765,112.573265 119.878503,112.3865 C119.967487,112.231994 120,112.046927 120,111.858464 C120,111.456071 119.842567,111.113102 119.561925,110.834653 C119.310374,110.556203 118.935615,110.4 118.559144,110.4 M111.826447,117.12 C111.6384,117.12 111.453741,117.152368 111.297882,117.2154 C111.111529,117.307393 110.957365,117.401089 110.833694,117.52545 C110.677835,117.682178 110.586353,117.837203 110.523671,117.993932 C110.430494,118.181325 110.4,118.367014 110.4,118.554407 C110.4,118.740096 110.430494,118.929192 110.523671,119.114882 C110.586353,119.302274 110.677835,119.457299 110.833694,119.58166 C111.2352,119.988813 111.856941,120.11147 112.382118,119.893413 C112.570165,119.832085 112.724329,119.707724 112.849694,119.58166 C113.127529,119.302274 113.28,118.929192 113.28,118.554407 C113.28,118.181325 113.127529,117.806539 112.849694,117.52545 C112.570165,117.276729 112.227953,117.12 111.826447,117.12" id="radial-circle" transform="translate(60.000000, 60.000000) scale(-1, 1) translate(-60.000000, -60.000000) "></path>
            </g>
        </g>
    </g>
</svg>