<svg width="108" height="108" viewBox="0 0 108 108" fill="none" xmlns="http://www.w3.org/2000/svg">
<path fill-rule="evenodd" clip-rule="evenodd" d="M1.29677 0C1.4631 0 1.63251 0.0550108 1.80193 0.11155C1.9698 0.16656 2.11303 0.279638 2.22392 0.391188C2.33634 0.502737 2.44877 0.64332 2.50729 0.809881C2.5612 0.979497 2.592 1.14606 2.592 1.31262C2.592 1.48223 2.5612 1.64879 2.50729 1.78938C2.44877 1.95594 2.33634 2.09652 2.22392 2.20654C2.11303 2.34713 1.9698 2.4327 1.80193 2.48771C1.49236 2.62676 1.12582 2.62676 0.816261 2.48771C0.646843 2.4327 0.506699 2.34713 0.394272 2.20654C0.25412 2.09652 0.169411 1.95594 0.110886 1.78938C0.0292587 1.64879 0 1.48223 0 1.31262C0 1.14606 0.0292587 0.979497 0.110886 0.809881C0.169411 0.64332 0.25412 0.502737 0.394272 0.391188C0.620667 0.140583 0.957947 0 1.29677 0ZM6.04968 101.52C5.71534 101.52 5.37946 101.662 5.12756 101.914C4.62681 102.417 4.62681 103.229 5.12756 103.733C5.62984 104.238 6.46952 104.238 6.9718 103.733C7.47256 103.229 7.47256 102.417 6.94432 101.914H6.9718C6.72143 101.662 6.38555 101.52 6.04968 101.52ZM73.2728 100.124C72.5439 100.181 71.9873 100.825 72.0479 101.583C72.1037 102.314 72.7465 102.868 73.4753 102.812C74.2345 102.751 74.7879 102.11 74.7321 101.38C74.6715 100.649 74.0862 100.124 73.3892 100.124H73.2728ZM62.4811 100.146C61.7589 100.233 61.2073 100.868 61.2673 101.621C61.3543 102.344 61.9896 102.893 62.7119 102.807C63.4642 102.749 64.0126 102.111 63.9272 101.362C63.8703 100.666 63.2903 100.146 62.5965 100.146H62.4811ZM50.9574 100.109C50.8987 100.109 50.8415 100.109 50.7828 100.141C50.0573 100.198 49.5064 100.866 49.5921 101.619C49.6778 102.345 50.3478 102.869 51.0733 102.812C51.829 102.724 52.3498 102.056 52.2625 101.33C52.2053 100.633 51.6242 100.109 50.9574 100.109ZM39.523 100.138C38.7726 100.254 38.2797 100.95 38.365 101.672H38.3966C38.4803 102.395 39.1755 102.915 39.899 102.8C40.621 102.713 41.1392 102.017 41.0239 101.294C40.9386 100.63 40.3604 100.138 39.6952 100.138H39.523ZM28.8727 100.15C28.7834 100.15 28.6988 100.179 28.6111 100.179C27.8805 100.321 27.4131 101.01 27.5599 101.728C27.705 102.446 28.4053 102.933 29.1343 102.792C29.8633 102.646 30.361 101.957 30.2143 101.211C30.0691 100.579 29.5124 100.15 28.8727 100.15ZM17.683 100.119C17.5378 100.119 17.391 100.148 17.2474 100.178C16.5454 100.411 16.1673 101.199 16.4002 101.9C16.6348 102.6 17.391 102.98 18.093 102.747C18.7934 102.543 19.1732 101.753 18.9386 101.053C18.7631 100.498 18.2382 100.119 17.683 100.119ZM95.3389 100.131C94.5843 100.16 94.0286 100.8 94.0875 101.53H94.0573C94.1178 102.286 94.7562 102.869 95.4853 102.812C96.2416 102.753 96.7956 102.113 96.7669 101.383C96.708 100.655 96.1238 100.131 95.428 100.131H95.3389ZM106.6 99.2587C105.846 99.3173 105.294 99.9519 105.324 100.677C105.381 101.43 105.991 101.981 106.745 101.951C107.472 101.894 108.053 101.286 107.996 100.533C107.968 99.8095 107.386 99.2587 106.661 99.2587H106.6ZM84.5463 99.2856C83.7957 99.3425 83.2473 99.9785 83.3042 100.703C83.3326 101.454 83.9695 102.005 84.7217 101.948C85.4707 101.918 86.0222 101.253 85.9637 100.529C85.9069 99.8345 85.3269 99.2856 84.6332 99.2856H84.5463ZM15.2036 95.2989C14.9132 95.2989 14.6484 95.3883 14.417 95.5623C13.8012 96.0014 13.6879 96.8476 14.1235 97.4304C14.5622 98.0452 15.4078 98.192 15.9886 97.7242C16.6044 97.2867 16.7512 96.4692 16.2837 95.8561C16.0221 95.5048 15.6105 95.2989 15.2036 95.2989ZM27.2679 94.8962C27.0925 94.8962 26.917 94.9527 26.7415 95.0123C26.0715 95.2995 25.7206 96.0732 26.0125 96.7339C26.306 97.4228 27.0925 97.7383 27.7928 97.4511C28.4643 97.1921 28.7834 96.4169 28.4946 95.7295C28.2889 95.2132 27.7928 94.8962 27.2679 94.8962ZM38.5119 94.6726C38.3966 94.6726 38.2797 94.7011 38.1343 94.7296C37.4423 94.9604 37.0363 95.6848 37.2401 96.4075C37.4423 97.1018 38.1944 97.5067 38.8879 97.3042C39.6099 97.1018 40.0128 96.349 39.8106 95.6547C39.6384 95.0474 39.0886 94.6726 38.5119 94.6726ZM49.9985 94.5632C49.8826 94.5632 49.7953 94.5632 49.6778 94.5902C48.9809 94.7665 48.5157 95.4636 48.6919 96.1894C48.8364 96.9152 49.5619 97.3789 50.2891 97.2042C51.0146 97.0311 51.4528 96.3339 51.3035 95.6082C51.1591 94.9682 50.6082 94.5632 49.9985 94.5632ZM61.585 94.5636C60.8627 94.7091 60.3728 95.4017 60.5166 96.1244C60.632 96.8486 61.3543 97.3405 62.0781 97.1965C62.8004 97.0811 63.2635 96.3853 63.1481 95.6326C63.0311 94.9969 62.4527 94.5636 61.8173 94.5636H61.585ZM72.512 94.4602C71.7545 94.5767 71.2584 95.2791 71.3749 96.0086C71.4929 96.7382 72.1931 97.2617 72.9219 97.1165C73.6508 97.0287 74.1484 96.3295 74.0304 95.5681C73.9426 94.9279 73.3573 94.4602 72.7178 94.4602H72.512ZM94.7291 94.4199C94.0016 94.5075 93.473 95.1766 93.5622 95.9062V95.9349C93.6513 96.6629 94.32 97.1854 95.0475 97.101C95.8053 97.0134 96.3291 96.3411 96.2416 95.5844C96.1556 94.9153 95.5729 94.4199 94.9027 94.4199H94.7291ZM83.8541 93.6428C83.132 93.7583 82.6105 94.4243 82.7258 95.1472C82.8127 95.9002 83.5065 96.3922 84.2302 96.3036C84.9524 96.1897 85.4707 95.5221 85.3854 94.7992C85.2684 94.1332 84.6932 93.6428 84.0548 93.6428H83.8541ZM106.195 93.585C106.165 93.585 106.107 93.585 106.049 93.615C105.324 93.672 104.8 94.3383 104.858 95.0616C104.947 95.8149 105.614 96.334 106.34 96.2486C107.094 96.1916 107.62 95.5253 107.531 94.802C107.472 94.1057 106.893 93.585 106.195 93.585ZM11.3824 91.4748C10.942 91.4748 10.5368 91.6489 10.2703 92.0305C9.83477 92.6133 9.97996 93.4595 10.5639 93.8986C11.1766 94.3377 12.0222 94.2211 12.4594 93.6064C12.8981 93.0236 12.7529 92.1742 12.169 91.7383C11.9057 91.5627 11.6441 91.4748 11.3824 91.4748ZM24.6422 90.0736C24.3806 90.0736 24.1174 90.1614 23.8829 90.3043C23.2703 90.706 23.0948 91.5393 23.5048 92.1404C23.9403 92.743 24.7587 92.9172 25.3712 92.5139C26.0125 92.1121 26.1609 91.2804 25.7493 90.6762C25.4877 90.276 25.0793 90.0736 24.6422 90.0736ZM36.5734 89.4647C36.3728 89.4647 36.199 89.4948 35.9983 89.5802C35.3316 89.8696 35.0457 90.6793 35.3601 91.3436C35.6508 92.0094 36.4612 92.3004 37.1248 92.0094C37.7899 91.6915 38.079 90.9102 37.7899 90.246C37.5577 89.7542 37.0679 89.4647 36.5734 89.4647ZM48.4316 89.1303C48.2839 89.1303 48.1394 89.1589 47.995 89.2177C47.2964 89.4495 46.9202 90.2071 47.1535 90.9011C47.4139 91.5998 48.1696 91.9778 48.865 91.7443C49.5619 91.4823 49.9398 90.7279 49.6778 90.0308C49.5064 89.4797 48.9809 89.1303 48.4316 89.1303ZM60.5435 89.0683C60.4281 89.0683 60.2843 89.0683 60.1689 89.0968C59.4467 89.3008 59.0405 90.0504 59.2428 90.7462C59.4467 91.4688 60.1974 91.8753 60.8912 91.6713C61.615 91.4688 62.0181 90.7462 61.8173 90.0235C61.6419 89.4431 61.1235 89.0683 60.5435 89.0683ZM6.53848 88.992C5.98166 88.992 5.42802 89.372 5.25252 89.9261C5.01958 90.6286 5.39771 91.4174 6.12685 91.6489C6.82727 91.8836 7.58672 91.4748 7.81966 90.7723C8.0542 90.0426 7.67447 89.2858 6.94534 89.0798C6.82726 89.0223 6.68208 88.992 6.53848 88.992ZM71.6093 88.854C71.4929 88.854 71.3749 88.854 71.2871 88.8843C70.5583 89.0583 70.1213 89.7878 70.2967 90.4902C70.4722 91.2197 71.2026 91.6874 71.8996 91.5102C72.6285 91.3362 73.0958 90.6067 72.8932 89.8756C72.7465 89.2626 72.2218 88.854 71.6093 88.854ZM94.0286 88.7374C93.9713 88.7374 93.8838 88.7661 93.7962 88.7661C93.0686 88.9127 92.5735 89.612 92.7184 90.3401C92.8633 91.0697 93.5622 91.5635 94.2897 91.417C95.0189 91.3007 95.4853 90.5726 95.3675 89.8446C95.2513 89.2042 94.6686 88.7374 94.0286 88.7374ZM83.0735 88.0301C82.985 88.0301 82.8997 88.0586 82.8127 88.0586C82.0906 88.2326 81.6276 88.9255 81.7714 89.65C81.9183 90.373 82.6405 90.8365 83.3627 90.6909C84.0848 90.5486 84.5463 89.824 84.4025 89.1011C84.2587 88.4636 83.7072 88.0301 83.0735 88.0301ZM105.44 87.9413C105.352 87.9413 105.294 87.9413 105.208 87.9697C104.482 88.0853 103.988 88.7801 104.106 89.5033C104.222 90.2266 104.916 90.7188 105.641 90.6033C106.399 90.4877 106.893 89.7945 106.745 89.0697C106.661 88.405 106.08 87.9413 105.44 87.9413ZM21.0817 85.8567C20.7307 85.8567 20.4101 85.9697 20.1469 86.2286C19.6237 86.745 19.6237 87.5767 20.1469 88.1228C20.6749 88.6392 21.522 88.6392 22.0468 88.1228C22.57 87.5767 22.57 86.745 22.0468 86.2286C21.7836 85.9697 21.4326 85.8567 21.0817 85.8567ZM33.8876 84.5494C33.6285 84.5494 33.3963 84.6064 33.164 84.7503C32.5305 85.1552 32.3551 85.9949 32.7612 86.6006C33.164 87.238 34.0029 87.4104 34.6096 87.0055C35.2447 86.6006 35.4201 85.7909 35.0156 85.1552C34.7534 84.7788 34.3221 84.5494 33.8876 84.5494ZM46.2534 83.9007C46.0486 83.9007 45.8771 83.9595 45.6723 84.0484C45.0023 84.3661 44.742 85.1807 45.0627 85.8493C45.3802 86.5163 46.1946 86.7768 46.863 86.4576C47.5012 86.1384 47.7902 85.3539 47.4727 84.6853V84.6583C47.2393 84.193 46.7471 83.9007 46.2534 83.9007ZM58.7513 83.717C58.579 83.717 58.4051 83.7471 58.2613 83.804C57.5659 84.0649 57.2198 84.8445 57.4822 85.5103C57.7698 86.2045 58.5474 86.5508 59.2143 86.2915C59.9097 86.0321 60.2574 85.2509 59.9951 84.5567C59.7944 84.0349 59.2712 83.717 58.7513 83.717ZM70.0336 83.3355C69.9171 83.3355 69.7704 83.3658 69.6269 83.3946C68.9251 83.6276 68.5184 84.3891 68.7529 85.1186C68.9825 85.8178 69.7433 86.1961 70.4722 85.9646C71.1691 85.73 71.5519 84.9717 71.319 84.271C71.142 83.717 70.6189 83.3355 70.0336 83.3355ZM92.8346 83.1442C92.7184 83.1442 92.6324 83.1729 92.5162 83.2016C91.7886 83.3752 91.3492 84.1048 91.5244 84.8042V84.8329C91.6995 85.5322 92.427 85.999 93.1546 85.7951C93.8838 85.6214 94.32 84.8918 94.1448 84.1638V84.1925C94.0016 83.5791 93.4459 83.1442 92.8346 83.1442ZM81.7429 82.5329C81.6276 82.5329 81.5106 82.5329 81.3684 82.5899C80.6731 82.7639 80.2701 83.5153 80.4424 84.2113C80.6462 84.9343 81.3953 85.3409 82.0906 85.1368C82.8127 84.9612 83.2173 84.2113 83.0166 83.5153C82.8696 82.9078 82.3213 82.5329 81.7429 82.5329ZM104.366 82.3545C104.277 82.3545 104.161 82.3545 104.074 82.383C103.347 82.5571 102.885 83.2519 103.058 83.9751C103.202 84.6984 103.928 85.1621 104.654 84.9865C105.381 84.844 105.818 84.1208 105.673 83.3975C105.525 82.7882 104.974 82.3545 104.366 82.3545ZM16.7953 82.3523C16.3551 82.3523 15.9164 82.583 15.6548 82.955C15.248 83.5592 15.4203 84.3909 16.0328 84.7927C16.647 85.196 17.4925 85.0516 17.9024 84.4208C18.3108 83.8181 18.164 83.013 17.5244 82.583C17.3186 82.4402 17.057 82.3523 16.7953 82.3523ZM30.5351 80.0928C30.2191 80.0928 29.9 80.1798 29.6678 80.4107C29.0895 80.9025 29.0342 81.7407 29.5256 82.2911C30.0153 82.8398 30.8543 82.8984 31.4041 82.4366C31.9791 81.9431 32.0392 81.1049 31.5494 80.5546V80.5277C31.2887 80.2383 30.9096 80.0928 30.5351 80.0928ZM11.863 79.7708C11.3381 79.7708 10.842 80.0862 10.6362 80.6025C10.3475 81.2632 10.6665 82.0369 11.3652 82.3257C12.0384 82.6113 12.8249 82.2959 13.1152 81.6085C13.4103 80.9478 13.0865 80.1725 12.3862 79.8853C12.2139 79.7974 12.0384 79.7708 11.863 79.7708ZM43.5227 78.965C43.2909 78.965 43.029 79.0507 42.7956 79.1666C42.1875 79.5732 41.9843 80.4181 42.3907 81.0263C42.7956 81.6663 43.61 81.8394 44.2482 81.463C44.8864 81.0549 45.0627 80.2148 44.6531 79.6034C44.3927 79.1968 43.9593 78.965 43.5227 78.965ZM56.4391 78.5396C56.2652 78.5396 56.0376 78.5981 55.8606 78.6851C55.1968 79.003 54.9345 79.8126 55.2537 80.4768C55.5746 81.1425 56.3806 81.4035 57.046 81.0572C57.7097 80.7393 57.9721 79.9281 57.6544 79.2924C57.4237 78.8006 56.9306 78.5396 56.4391 78.5396ZM6.5509 78.192C5.90962 78.192 5.35767 78.622 5.20932 79.2529C5.06416 79.9701 5.56027 80.659 6.26057 80.8034H6.28928C7.01829 80.9478 7.71859 80.488 7.86535 79.7708C8.01051 79.0536 7.5144 78.3631 6.8173 78.2187C6.70084 78.192 6.61151 78.192 6.5509 78.192ZM68.0798 77.9943C67.906 77.9943 67.7289 78.0214 67.5551 78.0805C66.8549 78.3726 66.5328 79.1612 66.8262 79.8332C67.1165 80.534 67.906 80.8564 68.5742 80.5627C69.276 80.2993 69.595 79.5108 69.3031 78.81C69.1005 78.2848 68.6029 77.9943 68.0798 77.9943ZM91.2903 77.6354C91.1757 77.6354 91.0276 77.6657 90.9114 77.6944C90.1839 77.9269 89.8065 78.6852 90.0119 79.3846C90.2444 80.084 91.0006 80.4918 91.6995 80.2592C92.427 80.0537 92.8075 79.2986 92.5735 78.569C92.4 78.0162 91.8746 77.6354 91.2903 77.6354ZM80.0094 77.1211C79.8656 77.1211 79.7202 77.1512 79.5764 77.1797C78.8811 77.4391 78.505 78.1921 78.7657 78.885V78.9151C79.0281 79.6095 79.7787 79.956 80.4724 79.725C81.1646 79.4656 81.5106 78.7141 81.2799 78.0197C81.0792 77.4692 80.5577 77.1211 80.0094 77.1211ZM102.97 76.8248C102.855 76.8248 102.737 76.8532 102.621 76.8833C101.895 77.0859 101.489 77.8092 101.694 78.5324C101.895 79.2288 102.621 79.6624 103.347 79.4599C104.045 79.2557 104.482 78.5324 104.277 77.8092C104.106 77.2014 103.552 76.8248 102.97 76.8248ZM26.576 76.1295C26.2015 76.1295 25.854 76.2734 25.5664 76.5929C25.1035 77.1433 25.162 77.9815 25.7086 78.4733C26.26 78.9652 27.1258 78.9066 27.5887 78.3278C28.08 77.7775 28.02 76.9393 27.4733 76.449C27.2142 76.2466 26.8935 76.1295 26.576 76.1295ZM40.2411 74.3754C39.9522 74.3754 39.6617 74.4611 39.4267 74.666C38.8472 75.1297 38.7345 75.973 39.1965 76.5526C39.6617 77.1339 40.5031 77.2212 41.0841 76.7559C41.6652 76.2922 41.7827 75.4505 41.2874 74.8677C41.0238 74.5485 40.6476 74.3754 40.2411 74.3754ZM53.6938 73.6247C53.4615 73.6247 53.2023 73.6817 53 73.8256C52.3631 74.2019 52.1592 75.0401 52.5669 75.6473C52.9431 76.2846 53.7807 76.4854 54.4161 76.0806C55.023 75.7058 55.2268 74.8677 54.8507 74.2304C54.5915 73.8256 54.1553 73.6247 53.6938 73.6247ZM65.6572 72.7967C65.453 72.7967 65.2505 72.8254 65.0463 72.9419C64.4036 73.2644 64.142 74.0817 64.461 74.7521C64.8119 75.4226 65.6301 75.6876 66.2712 75.3364C66.9427 74.9868 67.2042 74.1982 66.8549 73.5262H66.8836C66.6221 73.0585 66.1548 72.7967 65.6572 72.7967ZM22.1255 72.7736C21.6941 72.7736 21.2597 73.0061 21.0006 73.3825C20.5961 74.0182 20.7699 74.828 21.4035 75.2344C22.0133 75.6393 22.849 75.4637 23.2551 74.828C23.6595 74.2207 23.4589 73.3825 22.849 72.9776C22.6199 72.8321 22.3561 72.7736 22.1255 72.7736ZM89.4276 72.2174C89.2844 72.2174 89.106 72.2461 88.9612 72.3035C88.2655 72.5663 87.9152 73.3533 88.1763 74.0526C88.4374 74.752 89.2239 75.1025 89.9228 74.8396C90.5946 74.5768 90.9449 73.7914 90.6806 73.0904C90.4784 72.5663 89.9817 72.2174 89.4276 72.2174ZM77.9266 71.8565C77.7544 71.8565 77.5821 71.8849 77.4083 71.9419C76.713 72.2615 76.427 73.0429 76.713 73.7073C77.0038 74.4034 77.8113 74.6913 78.4766 74.4034C79.1434 74.1123 79.4611 73.3308 79.1719 72.6364C78.9396 72.146 78.4497 71.8565 77.9266 71.8565ZM101.317 71.3836C101.17 71.3836 101.024 71.4121 100.879 71.4422C100.154 71.7017 99.7772 72.4535 100.011 73.1498H100.038C100.271 73.843 101.024 74.2213 101.722 73.9887C102.419 73.7576 102.796 73.0042 102.564 72.281C102.389 71.7286 101.867 71.3836 101.317 71.3836ZM36.496 70.1637C36.1467 70.1637 35.7974 70.3083 35.5371 70.5687C35.0163 71.0928 35.0163 71.9361 35.5371 72.457C36.0594 72.981 36.9326 72.981 37.4533 72.457C37.9756 71.9361 37.9756 71.0928 37.4533 70.5687L37.4263 70.5417C37.1644 70.3083 36.8437 70.1637 36.496 70.1637ZM17.2152 70.085C16.7254 70.085 16.2325 70.3745 16.0034 70.8663C15.7112 71.5321 16.0034 72.3418 16.6654 72.6581C17.3321 72.9491 18.1378 72.6581 18.4285 71.9939C18.7445 71.3281 18.4586 70.5184 17.7919 70.229C17.5912 70.1436 17.4158 70.085 17.2152 70.085ZM50.5139 68.966C50.2247 68.966 49.9355 69.0546 49.7047 69.227C49.0979 69.6618 48.9825 70.5 49.4456 71.1072C49.877 71.686 50.7147 71.7999 51.3216 71.3666C51.9 70.9048 52.017 70.0667 51.5839 69.4863C51.2947 69.14 50.9185 68.966 50.5139 68.966ZM11.9842 68.1461C11.406 68.1461 10.8878 68.5241 10.714 69.1013C10.5102 69.8241 10.9147 70.5468 11.6098 70.7509C12.3318 70.9802 13.0538 70.5769 13.2845 69.8541C13.4883 69.1314 13.0807 68.4087 12.3587 68.2046C12.2433 68.1461 12.0996 68.1461 11.9842 68.1461ZM62.8868 67.8034C62.6253 67.8034 62.3908 67.8625 62.1564 68.0077C61.5439 68.3876 61.3414 69.2337 61.7226 69.877C62.1006 70.49 62.9458 70.6943 63.587 70.3144C64.2281 69.9057 64.4036 69.0884 64.0256 68.4467C63.7608 68.0365 63.3238 67.8034 62.8868 67.8034ZM87.2434 66.9428C87.0698 66.9428 86.866 66.9731 86.6925 67.0591C86.0223 67.3793 85.7007 68.1663 86.0223 68.8354C86.3104 69.5061 87.1271 69.8294 87.799 69.5061C88.4676 69.2161 88.7606 68.4005 88.4676 67.7298C88.2336 67.2344 87.7671 66.9428 87.2434 66.9428ZM6.52419 66.96C5.88908 66.96 5.30927 67.4218 5.19393 68.0876C5.10704 68.842 5.59837 69.5062 6.34882 69.6217C7.0724 69.7086 7.73595 69.2168 7.85286 68.4925C7.96819 67.7428 7.44999 67.077 6.72799 66.96H6.52419ZM75.501 66.7358C75.3003 66.7358 75.068 66.7627 74.8926 66.8797C74.2304 67.2262 73.9697 68.0361 74.3142 68.6721C74.6603 69.338 75.4709 69.5975 76.1062 69.2526C76.7715 68.9046 77.0322 68.0931 76.6861 67.4287C76.4538 66.9952 75.9908 66.7358 75.501 66.7358ZM32.2841 66.3873C31.8792 66.3873 31.503 66.562 31.241 66.9113C30.7758 67.491 30.8616 68.3327 31.4426 68.798C32.0237 69.2633 32.8651 69.1474 33.3303 68.5661C33.7955 67.9833 33.7097 67.1432 33.1271 66.7065C32.8651 66.5032 32.5778 66.3873 32.2841 66.3873ZM99.3119 66.0564C99.1659 66.0564 98.9912 66.0865 98.8181 66.1435C98.1496 66.4347 97.8034 67.1849 98.0639 67.8812H98.0924C98.3529 68.5744 99.1389 68.8925 99.8328 68.633C100.503 68.3434 100.852 67.5615 100.558 66.8968H100.59C100.358 66.3761 99.8645 66.0564 99.3119 66.0564ZM46.901 64.6268C46.5818 64.6268 46.2341 64.7422 46.0033 64.9747C45.4565 65.4665 45.4249 66.3062 45.918 66.8549C46.4111 67.4037 47.2487 67.4321 47.7971 66.9419C48.3456 66.4501 48.3756 65.5835 47.8825 65.0332V65.0617C47.6233 64.7738 47.2487 64.6268 46.901 64.6268ZM27.6689 63.1333C27.2323 63.1333 26.7973 63.3381 26.5369 63.7447C26.1289 64.3831 26.3321 65.2248 26.9719 65.6028C27.58 66.0093 28.423 65.8044 28.7993 65.1962C29.2089 64.5578 29.0311 63.7447 28.3944 63.3381C28.1626 63.192 27.9293 63.1333 27.6689 63.1333ZM59.7082 63.0735C59.4163 63.0735 59.1548 63.131 58.89 63.3082C58.3079 63.7456 58.1596 64.5916 58.5998 65.2046C59.0384 65.8176 59.8836 65.9341 60.4961 65.4983C61.0766 65.0593 61.225 64.2133 60.788 63.629C60.5264 63.2491 60.1149 63.0735 59.7082 63.0735ZM84.7391 61.8148C84.5098 61.8148 84.3045 61.8434 84.0991 61.9597C83.4591 62.3118 83.1964 63.1259 83.5466 63.7679C83.8969 64.4385 84.7104 64.6998 85.3536 64.3493C86.0223 64.0004 86.2834 63.1848 85.9331 62.5141C85.672 62.076 85.2056 61.8148 84.7391 61.8148ZM72.7261 61.7875C72.4653 61.7875 72.233 61.846 72.0308 61.99C71.3955 62.3649 71.1948 63.1764 71.5709 63.8124C71.947 64.4499 72.7845 64.6508 73.4198 64.2743C74.0266 63.8693 74.2304 63.0609 73.8544 62.4218C73.592 62.0185 73.159 61.7875 72.7261 61.7875ZM97.0762 60.8179C96.8729 60.8179 96.6967 60.8749 96.495 60.9635C95.8265 61.2515 95.5359 62.0618 95.8535 62.7281C96.1743 63.3944 96.9603 63.6825 97.6272 63.3644C98.2957 63.0763 98.6149 62.2644 98.2957 61.5981C98.0639 61.1075 97.57 60.8179 97.0762 60.8179ZM42.9135 60.637C42.5358 60.637 42.1897 60.7809 41.8989 61.0703C41.409 61.6206 41.4674 62.4587 41.9874 62.9505C42.5358 63.4423 43.4035 63.4123 43.895 62.8636C44.3865 62.3133 44.3581 61.4751 43.8065 60.9833C43.5473 60.7524 43.2281 60.637 42.9135 60.637ZM22.7315 60.4033C22.2377 60.4033 21.7456 60.6638 21.5408 61.1593C21.1947 61.8279 21.4852 62.6124 22.1488 62.9316C22.8188 63.2492 23.6332 62.9888 23.9507 62.3202C24.2714 61.6532 23.9825 60.8385 23.3125 60.5193C23.1411 60.4335 22.9363 60.4033 22.7315 60.4033ZM56.1484 58.5783C55.8262 58.5783 55.5376 58.6645 55.276 58.8992C54.7194 59.3956 54.6301 60.2433 55.1261 60.7956C55.595 61.3798 56.469 61.4389 57.024 60.9425C57.579 60.4763 57.6651 59.6303 57.1691 59.046C56.9076 58.7236 56.528 58.5783 56.1484 58.5783ZM17.5067 58.2245C16.9558 58.2245 16.4604 58.5739 16.2588 59.1249C15.9968 59.8237 16.3747 60.6082 17.0685 60.8385C17.767 61.0719 18.5513 60.7225 18.7831 60.027C19.045 59.3282 18.6672 58.5437 17.9702 58.3134H17.9417C17.8258 58.2562 17.6511 58.2245 17.5067 58.2245ZM69.6035 57.0417C69.3443 57.0417 69.0567 57.1303 68.8244 57.2727C68.2176 57.7077 68.0738 58.5461 68.5052 59.1536C68.9398 59.7626 69.7789 59.9066 70.3841 59.4715C70.9641 59.0381 71.1079 58.1981 70.6733 57.5922C70.4426 57.2442 70.0096 57.0417 69.6035 57.0417ZM38.5768 57.0204C38.1706 57.0204 37.766 57.1944 37.5068 57.5423C37.0437 58.1195 37.1591 58.9592 37.7376 59.4225H37.766C38.3445 59.8542 39.1837 59.7388 39.6151 59.1616C40.0782 58.5544 39.9628 57.7162 39.3559 57.2814C39.1236 57.109 38.836 57.0204 38.5768 57.0204ZM81.9164 56.8333C81.6808 56.8333 81.4499 56.8906 81.2159 57.0069C80.5759 57.4163 80.3705 58.232 80.751 58.8724C81.1586 59.5144 81.9753 59.7167 82.6137 59.3089C83.2553 58.9313 83.4591 58.1157 83.0818 57.4737C82.8191 57.0659 82.3829 56.8333 81.9164 56.8333ZM12.0755 56.657C11.4658 56.657 10.9149 57.0922 10.7689 57.7036C10.6244 58.4293 11.0594 59.1551 11.7849 59.3282C12.5121 59.4743 13.2376 59.0392 13.4106 58.3134C13.5551 57.5877 13.0931 56.8619 12.3962 56.6856C12.2803 56.6856 12.1914 56.657 12.0755 56.657ZM6.52838 55.728C5.83301 55.728 5.25195 56.2203 5.19321 56.9191C5.10748 57.6448 5.6298 58.3134 6.35533 58.3992H6.38392C7.10945 58.4865 7.77942 57.9339 7.86356 57.2081C7.92389 56.4808 7.40157 55.8138 6.67603 55.728H6.52838ZM94.5197 55.7234C94.318 55.7234 94.0846 55.7803 93.8798 55.8974C93.243 56.244 92.981 57.0544 93.3288 57.6922C93.6765 58.3569 94.4895 58.5895 95.1596 58.2413C95.7979 57.8932 96.0584 57.0844 95.7106 56.4466C95.4772 55.9829 95.0151 55.7234 94.5197 55.7234ZM52.2696 54.3736C51.9187 54.3736 51.5679 54.5205 51.3063 54.7823C50.7816 55.3091 50.7816 56.1535 51.3063 56.6787C51.8294 57.2055 52.7082 57.2055 53.2313 56.6787C53.7561 56.1535 53.7561 55.3091 53.2313 54.7823C52.9698 54.5205 52.6205 54.3736 52.2696 54.3736ZM33.8939 53.8103C33.4577 53.8103 33.0247 54.0427 32.7639 54.4475C32.3893 55.0833 32.5632 55.8929 33.1985 56.2977C33.8338 56.6741 34.643 56.5002 35.0476 55.8644C35.4238 55.2272 35.2231 54.4191 34.6162 54.0127C34.3838 53.8688 34.1531 53.8103 33.8939 53.8103ZM66.1649 52.5269C65.8757 52.5269 65.5597 52.6155 65.3274 52.8179C64.749 53.2815 64.6605 54.1199 65.1235 54.6973C65.5865 55.2778 66.4541 55.3633 67.004 54.9013C67.5824 54.4378 67.6677 53.5694 67.2047 53.0204C66.9455 52.674 66.5694 52.5269 66.1649 52.5269ZM78.8024 52.0254C78.5381 52.0254 78.2754 52.1115 78.043 52.258C77.43 52.6945 77.2852 53.5102 77.6911 54.1522C78.1305 54.7352 78.9743 54.9089 79.557 54.4724C80.1699 54.0645 80.3419 53.2202 79.9072 52.6085C79.643 52.2293 79.237 52.0254 78.8024 52.0254ZM28.9787 51.0634C28.4872 51.0634 28.0241 51.3244 27.7934 51.8162C27.4457 52.4803 27.7064 53.2615 28.3718 53.6094C29.0356 53.9257 29.8448 53.6648 30.164 53.0006C30.5117 52.3364 30.2209 51.5268 29.5587 51.2089C29.3817 51.1204 29.181 51.0634 28.9787 51.0634ZM91.7028 50.7728C91.4709 50.7728 91.2359 50.8599 91.0041 50.9754C90.3944 51.3521 90.1609 52.1909 90.5706 52.8287C90.9469 53.4364 91.7615 53.6675 92.3999 53.2623C93.0382 52.8857 93.243 52.0769 92.8651 51.4391C92.6031 51.0055 92.1664 50.7728 91.7028 50.7728ZM48.0671 50.4898C47.6891 50.4898 47.3095 50.6654 47.0479 50.9575C46.5519 51.5418 46.6412 52.3894 47.1931 52.8555C47.7768 53.3504 48.6237 53.2929 49.091 52.7087C49.5854 52.1548 49.5264 51.3087 48.9459 50.8107C48.7114 50.6063 48.3892 50.4898 48.0671 50.4898ZM23.8043 48.7784C23.2859 48.7784 22.7628 49.0978 22.562 49.6449C22.2997 50.3392 22.6474 51.0919 23.3412 51.3528C24.0082 51.6422 24.7873 51.2943 25.075 50.6017C25.3373 49.9059 24.9896 49.1547 24.2958 48.8653C24.1235 48.8068 23.9766 48.7784 23.8043 48.7784ZM62.4371 48.2446C62.1179 48.2446 61.8018 48.3616 61.5395 48.5926C60.9928 49.1146 60.9627 49.9515 61.4542 50.5036C61.9741 51.0225 62.8116 51.0541 63.36 50.5605C63.8814 50.0401 63.9115 49.2017 63.4184 48.6796C63.1593 48.3917 62.7847 48.2446 62.4371 48.2446ZM75.4241 47.4215C75.1311 47.4215 74.8127 47.5091 74.5787 47.713C73.996 48.1495 73.9069 48.9938 74.3463 49.6072C74.8127 50.1886 75.6565 50.2778 76.236 49.8111C76.8203 49.3746 76.9365 48.4984 76.47 47.9456C76.2089 47.5951 75.8014 47.4215 75.4241 47.4215ZM18.4576 46.9851C17.8792 46.9851 17.3276 47.3615 17.1853 47.9687C16.9815 48.6613 17.3892 49.4141 18.1115 49.6165H18.0799C18.8022 49.8205 19.556 49.4141 19.7567 48.6914C19.959 47.9956 19.5244 47.246 18.8338 47.0436C18.6868 47.0136 18.5714 46.9851 18.4576 46.9851ZM43.5758 46.9572C43.1675 46.9572 42.7608 47.1328 42.4993 47.5111C42.0591 48.1257 42.2042 48.9717 42.788 49.4091C43.4004 49.8481 44.2489 49.7012 44.6859 49.0882C45.1213 48.5056 44.9778 47.6579 44.3924 47.2206C44.1309 47.045 43.8677 46.9572 43.5758 46.9572ZM88.6254 45.998C88.365 45.998 88.1014 46.055 87.868 46.2291C87.2567 46.6342 87.0852 47.473 87.5219 48.0808C87.9268 48.6885 88.7684 48.8626 89.3797 48.4289C89.9894 48.0222 90.1609 47.1834 89.729 46.5757C89.467 46.2006 89.0589 45.998 88.6254 45.998ZM12.9655 45.7121C12.3286 45.7121 11.7802 46.147 11.6348 46.7827C11.5194 47.5054 11.9825 48.228 12.7332 48.3435H12.7048C13.4286 48.489 14.1509 47.9956 14.2663 47.2729C14.4101 46.5502 13.947 45.8576 13.1963 45.7121H12.9655ZM6.05739 46.147C5.96888 46.8697 6.5173 47.5338 7.23956 47.5939C7.99344 47.6508 8.62878 47.1306 8.71571 46.3778C8.7726 45.6552 8.22577 44.9878 7.5035 44.9325C6.77966 44.874 6.11428 45.3942 6.05739 46.147ZM58.417 44.2233C58.0725 44.2233 57.7264 44.3689 57.4356 44.6599C56.9458 45.2073 56.9726 46.0473 57.5241 46.5393C58.0725 47.0581 58.9132 47.0312 59.403 46.4807C59.8945 45.9302 59.8945 45.0918 59.343 44.5713C59.0838 44.3404 58.7646 44.2233 58.417 44.2233ZM38.8534 43.7741C38.3845 43.7741 37.9459 44.0088 37.6843 44.419C37.3047 45.0592 37.5073 45.8781 38.1229 46.2851C38.764 46.665 39.6093 46.4607 39.9889 45.819C40.3669 45.206 40.1947 44.3584 39.5487 43.9784C39.3175 43.8332 39.083 43.7741 38.8534 43.7741ZM71.7528 43.0215C71.4344 43.0215 71.1128 43.1394 70.8501 43.3719C70.2961 43.8387 70.2404 44.7117 70.7339 45.2661C71.229 45.8189 72.0728 45.8762 72.6284 45.3824C73.208 44.8869 73.2382 44.041 72.7447 43.4882C72.4804 43.1664 72.1031 43.0215 71.7528 43.0215ZM85.2829 41.3656C84.9939 41.3656 84.7335 41.4526 84.4699 41.6568C83.8904 42.0889 83.7744 42.9292 84.2381 43.5069L84.2079 43.537C84.6732 44.1162 85.5164 44.2302 86.0975 43.768C86.7089 43.3344 86.7946 42.4956 86.3595 41.8879C86.0975 41.5682 85.6894 41.3656 85.2829 41.3656ZM33.8613 40.971C33.3653 40.971 32.9012 41.2344 32.6684 41.7021C32.3175 42.3726 32.579 43.1899 33.2489 43.5411C33.8916 43.8619 34.7066 43.6001 35.0575 42.9281C35.4084 42.2864 35.1452 41.469 34.477 41.1179C34.2712 41.0301 34.0671 40.971 33.8613 40.971ZM54.1408 40.4931C53.7663 40.4931 53.3902 40.664 53.131 40.9851C52.668 41.5625 52.7534 42.4009 53.3033 42.8644C53.8817 43.3279 54.7208 43.2394 55.1822 42.692C55.6436 42.1114 55.5599 41.273 55.0084 40.8095H54.9799C54.7492 40.607 54.46 40.4931 54.1408 40.4931ZM67.8221 38.854C67.4718 38.854 67.1232 38.9703 66.8621 39.2332C66.3383 39.7589 66.3383 40.6319 66.8621 41.156C67.3843 41.6817 68.2615 41.6817 68.7837 41.156C69.3075 40.6319 69.3075 39.7589 68.7837 39.2332C68.5226 38.9703 68.1723 38.854 67.8221 38.854ZM28.6715 38.5781C28.1436 38.5781 27.6476 38.899 27.4148 39.3954C27.1532 40.0962 27.4738 40.8848 28.1436 41.1753C28.8438 41.469 29.6333 41.1482 29.9235 40.4458C30.1867 39.7738 29.8677 38.958 29.1947 38.6947C29.0224 38.6069 28.8438 38.5781 28.6715 38.5781ZM49.6324 37.0477C49.2278 37.0477 48.7949 37.2518 48.5325 37.6267C48.1011 38.2341 48.2734 39.0726 48.8802 39.4791H48.8517C49.4586 39.9141 50.2961 39.7686 50.7322 39.1596C51.1636 38.5822 51.0198 37.7437 50.413 37.3087C50.1807 37.1363 49.8947 37.0477 49.6324 37.0477ZM81.7134 36.9358C81.3926 36.9358 81.102 37.0513 80.8384 37.2555C80.2604 37.7477 80.2017 38.5865 80.6939 39.1372C81.1592 39.7165 82.0024 39.7735 82.5835 39.2812C83.1345 38.8191 83.2219 37.9787 82.728 37.3995C82.4676 37.1099 82.0897 36.9358 81.7134 36.9358ZM23.3047 36.5923C22.7481 36.5923 22.225 36.9706 22.0192 37.5262C21.7864 38.2557 22.1915 39.0171 22.8932 39.2198C23.5934 39.4529 24.3526 39.0746 24.5854 38.3722C24.8199 37.6427 24.4419 36.886 23.7114 36.6514C23.5934 36.621 23.4499 36.5923 23.3047 36.5923ZM17.7896 35.0439C17.2042 35.0439 16.6524 35.4541 16.5073 36.0975C16.3302 36.827 16.7688 37.5262 17.4977 37.7017C18.2266 37.8773 18.957 37.4384 19.1293 36.7088C19.3079 35.9793 18.8406 35.2498 18.1117 35.103C18.0224 35.0742 17.906 35.0439 17.7896 35.0439ZM63.6589 34.9208C63.2816 34.9208 62.8995 35.0673 62.6384 35.3859C62.1433 35.9403 62.2038 36.7846 62.7562 37.2817C63.3087 37.7771 64.154 37.7182 64.6492 37.167C65.1443 36.611 65.1156 35.7683 64.5329 35.2696C64.2989 35.0387 63.9773 34.9208 63.6589 34.9208ZM12.217 33.9345C11.5471 33.9345 10.9921 34.4325 10.8757 35.0742C10.7577 35.8037 11.2537 36.5045 12.0145 36.621H11.9826C12.7449 36.7376 13.4132 36.2411 13.5296 35.5116C13.646 34.7534 13.15 34.0829 12.4212 33.9664C12.3334 33.9345 12.2776 33.9345 12.217 33.9345ZM44.8932 33.9518C44.4302 33.9518 43.9972 34.186 43.7381 34.5909C43.3604 35.2269 43.5627 36.0368 44.1979 36.4133C44.8348 36.8183 45.6423 36.6142 46.0184 35.9783C46.4245 35.3408 46.2206 34.5308 45.587 34.1543V34.1274C45.3831 34.0104 45.124 33.9518 44.8932 33.9518ZM6.5312 33.264C5.83104 33.264 5.24571 33.8179 5.1883 34.5187C5.12929 35.2785 5.68431 35.9203 6.41477 35.9793C7.17075 36.0384 7.8135 35.4845 7.87251 34.723C7.92992 33.9935 7.3765 33.3215 6.64763 33.264H6.5312ZM77.8786 32.7101C77.5579 32.7101 77.2403 32.8256 76.9767 33.0583C76.4257 33.579 76.3971 34.4178 76.9211 34.9685C77.4134 35.4892 78.2851 35.5193 78.8091 34.997C79.3601 34.5048 79.3601 33.666 78.8647 33.1153C78.6043 32.8256 78.2549 32.7101 77.8786 32.7101ZM59.2601 31.2504C58.8525 31.2504 58.4752 31.4256 58.2141 31.7761C57.7477 32.3575 57.8368 33.2019 58.4195 33.6686C58.999 34.1354 59.8746 34.0191 60.3093 33.436C60.7757 32.8546 60.6882 32.0071 60.1055 31.5419H60.0768C59.8428 31.338 59.553 31.2504 59.2601 31.2504ZM39.9502 31.1455C39.4588 31.1455 38.9958 31.4081 38.7651 31.8684C38.4174 32.536 38.6797 33.3444 39.315 33.6924C39.9787 34.0388 40.7878 33.7509 41.1354 33.1134C41.4815 32.449 41.2223 31.6375 40.5571 31.2926C40.3532 31.204 40.1541 31.1455 39.9502 31.1455ZM34.835 28.7157C34.3135 28.7157 33.8221 29.0051 33.5913 29.5256C33.3037 30.1916 33.6229 30.9731 34.2867 31.2926C34.9788 31.5805 35.7579 31.261 36.0502 30.5966C36.3378 29.9037 36.017 29.1206 35.3549 28.8311C35.1795 28.7457 35.0088 28.7157 34.835 28.7157ZM73.8422 28.6585C73.4929 28.6585 73.1451 28.8026 72.8847 29.0922C72.3591 29.6129 72.3909 30.4817 72.9117 30.9739C73.4627 31.4946 74.3043 31.4661 74.8299 30.9154C75.3237 30.3947 75.3237 29.5559 74.7695 29.0336C74.5091 28.8026 74.1884 28.6585 73.8422 28.6585ZM54.6623 27.8699C54.2245 27.8699 53.8169 28.0754 53.5526 28.4243C53.118 29.036 53.2645 29.8803 53.8742 30.3184C54.4856 30.7278 55.3294 30.5797 55.7688 29.968C56.1763 29.3562 56.0299 28.5119 55.4185 28.1025C55.1861 27.9288 54.925 27.8699 54.6623 27.8699ZM29.5475 26.6323C28.996 26.6323 28.4761 26.9803 28.2738 27.5292C28.0415 28.2237 28.3892 28.9767 29.0845 29.2377C29.7766 29.4687 30.5557 29.1206 30.788 28.4262C31.0487 27.7333 30.7011 26.9502 29.9773 26.7193C29.8335 26.6623 29.6897 26.6323 29.5475 26.6323ZM24.1415 24.8985C23.5631 24.8985 23.0116 25.3019 22.8394 25.8808C22.6371 26.6038 23.0717 27.3267 23.7654 27.5292C24.4876 27.7333 25.2097 27.3267 25.4104 26.6038C25.6143 25.9093 25.2097 25.1579 24.4876 24.9554C24.3722 24.9254 24.2569 24.8985 24.1415 24.8985ZM69.6025 24.8649C69.223 24.8649 68.8467 25.0121 68.5561 25.3286C68.0909 25.9079 68.1496 26.7483 68.7292 27.2104C69.2818 27.7026 70.1234 27.6441 70.6188 27.0664C71.111 26.5156 71.0237 25.6768 70.4727 25.1846C70.2123 24.9536 69.8931 24.8649 69.6025 24.8649ZM49.8273 24.7539C49.3895 24.7539 48.9564 24.9562 48.6906 25.3943C48.3117 26.0331 48.517 26.8503 49.1586 27.2295C49.7684 27.6373 50.6137 27.4334 50.9911 26.793C51.3684 26.1526 51.1678 25.3051 50.5246 24.9275C50.3224 24.8112 50.0884 24.7539 49.8273 24.7539ZM18.6217 23.5665C18.0133 23.5665 17.4349 23.9999 17.318 24.6359C17.1758 25.3604 17.6372 26.0833 18.361 26.2273C19.0831 26.3712 19.7769 25.9093 19.9222 25.1864C20.0929 24.4634 19.6299 23.7389 18.8809 23.5934C18.7924 23.5934 18.707 23.5665 18.6217 23.5665ZM13.0419 22.611C12.3766 22.611 11.7982 23.103 11.7129 23.769C11.5975 24.5204 12.1174 25.1864 12.8396 25.2734C13.5902 25.3889 14.2571 24.8668 14.3424 24.1439C14.4578 23.3925 13.9379 22.7265 13.2157 22.6395C13.1588 22.611 13.0988 22.611 13.0419 22.611ZM7.37828 22.032C6.68456 22.032 6.10618 22.5825 6.04929 23.277C6.01768 24.0284 6.56919 24.6643 7.29136 24.7229C8.0404 24.7513 8.67724 24.2024 8.7357 23.4779C8.76415 22.7265 8.21738 22.0889 7.49521 22.032H7.37828ZM44.849 21.9262C44.3825 21.9262 43.9176 22.1891 43.6533 22.6558C43.3333 23.2962 43.5674 24.1119 44.2376 24.4608C44.8776 24.8112 45.6943 24.55 46.043 23.9064C46.3901 23.2373 46.129 22.4232 45.489 22.0728C45.2836 21.9851 45.083 21.9262 44.849 21.9262ZM65.131 21.3056C64.7214 21.3056 64.345 21.4781 64.0846 21.8263C63.6194 22.4055 63.7353 23.2443 64.3164 23.708C64.9262 24.1417 65.7678 24.0261 66.2029 23.4485C66.6395 22.8407 66.522 22.0019 65.9409 21.5667C65.709 21.3926 65.4184 21.3056 65.131 21.3056ZM39.6939 19.4203C39.1988 19.4203 38.7037 19.7118 38.4713 20.2073C38.1799 20.8764 38.4713 21.6633 39.1431 21.9851C39.8388 22.3053 40.6253 21.9851 40.9469 21.3129C41.2382 20.6151 40.9469 19.8281 40.248 19.5366C40.0713 19.449 39.8977 19.4203 39.6939 19.4203ZM60.5103 17.9773C60.0752 17.9773 59.6401 18.1798 59.3781 18.5565C58.9732 19.1642 59.1177 20.003 59.756 20.4082C60.3658 20.8149 61.1788 20.6693 61.617 20.0616C62.0219 19.4539 61.8774 18.6151 61.2661 18.2083C61.0343 18.0358 60.7739 17.9773 60.5103 17.9773ZM34.4243 17.206C33.8703 17.206 33.3465 17.5564 33.1411 18.0806C32.88 18.7799 33.2303 19.5669 33.9292 19.8281C34.6265 20.091 35.4146 19.7421 35.6756 19.0428C35.9367 18.3434 35.5881 17.5564 34.8908 17.2936C34.7427 17.2346 34.5692 17.206 34.4243 17.206ZM29.0066 15.3405C28.4239 15.3405 27.9017 15.7196 27.6963 16.3027C27.4942 17.0005 27.8715 17.7604 28.6006 17.9643C29.3011 18.1968 30.0557 17.789 30.2898 17.0897C30.492 16.3903 30.1147 15.6336 29.3871 15.3994C29.2677 15.3708 29.1244 15.3405 29.0066 15.3405ZM55.691 14.88C55.2258 14.88 54.7891 15.1111 54.5287 15.5447C54.1508 16.1825 54.3556 16.9944 54.9939 17.3695C55.6307 17.7446 56.4453 17.542 56.8216 16.9058C57.2011 16.2981 56.9963 15.4577 56.3563 15.081C56.1531 14.9386 55.9213 14.88 55.691 14.88ZM23.4774 13.7984C22.8932 13.7984 22.3391 14.2046 22.1656 14.8466C21.9889 15.5444 22.4267 16.2724 23.1559 16.4493C23.8834 16.6532 24.6126 16.1864 24.7845 15.4855C24.9596 14.7574 24.5234 14.0294 23.7959 13.8558C23.7067 13.8255 23.5905 13.7984 23.4774 13.7984ZM17.883 12.6036C17.2446 12.6036 16.6922 13.0704 16.5441 13.7092C16.4279 14.4372 16.9246 15.1669 17.6522 15.2831C18.3797 15.4297 19.077 14.9343 19.1933 14.2046C19.3397 13.475 18.8446 12.7773 18.1155 12.6307C18.0311 12.6307 17.9722 12.6036 17.883 12.6036ZM50.6939 12.0708C50.2287 12.0708 49.7666 12.3304 49.503 12.7957C49.1569 13.4335 49.4173 14.2422 50.0842 14.5904C50.7241 14.9386 51.5355 14.7059 51.8848 14.0396C52.2342 13.4034 51.9738 12.5931 51.3339 12.2465C51.1306 12.1294 50.9258 12.0708 50.6939 12.0708ZM12.2361 11.7561C11.5642 11.7561 10.9847 12.2531 10.8956 12.9525C10.8096 13.6805 11.3318 14.3512 12.0593 14.4372C12.8187 14.5264 13.4858 14.0023 13.5463 13.2727C13.6641 12.516 13.1085 11.8437 12.3809 11.7561H12.2361ZM6.61775 11.232V11.2623C5.85676 11.2049 5.21835 11.7561 5.1881 12.516C5.1292 13.244 5.71188 13.8844 6.43945 13.9418C7.19725 13.9721 7.83884 13.4177 7.8675 12.661C7.92482 11.9329 7.34531 11.2909 6.61775 11.232ZM45.5825 9.55285C45.0617 9.55285 44.5964 9.84247 44.3646 10.3062C44.0423 10.9994 44.3344 11.7828 45.0013 12.1009C45.6984 12.419 46.4828 12.1294 46.802 11.4362C47.1228 10.7699 46.802 9.98807 46.1367 9.66996C45.9588 9.58292 45.7572 9.55285 45.5825 9.55285ZM40.3282 7.29599C39.8042 7.29599 39.2802 7.61411 39.0753 8.1348C38.7879 8.82799 39.1373 9.58292 39.8344 9.87254C40.4997 10.1321 41.2857 9.81398 41.5763 9.1192C41.8367 8.42442 41.5159 7.64259 40.8204 7.38146C40.6458 7.3229 40.4711 7.29599 40.3282 7.29599ZM34.9532 5.3256C34.4022 5.3256 33.8496 5.67378 33.6765 6.22454C33.4447 6.91932 33.821 7.70115 34.5181 7.9338C35.2136 8.16328 35.971 7.78661 36.2314 7.09341C36.4649 6.39705 36.0885 5.61681 35.3613 5.38574C35.2438 5.3256 35.0977 5.3256 34.9532 5.3256ZM29.4654 3.648C28.8843 3.648 28.3603 4.02467 28.1856 4.6324C27.9839 5.35567 28.419 6.08052 29.1161 6.28152C29.8418 6.48568 30.5674 6.04887 30.7723 5.3256C30.9739 4.6324 30.5404 3.90913 29.8418 3.70497C29.7258 3.67648 29.5814 3.648 29.4654 3.648ZM23.9459 2.2885C23.3076 2.2885 22.7534 2.69366 22.6089 3.32989C22.466 4.05315 22.9313 4.77801 23.6569 4.92361C24.3826 5.06605 25.0797 4.6324 25.2528 3.90913C25.3973 3.18586 24.932 2.4626 24.2063 2.31541C24.1222 2.2885 24.0333 2.2885 23.9459 2.2885ZM18.3121 1.21705C17.6722 1.21705 17.0942 1.68077 17.0053 2.34706C16.8893 3.07033 17.3816 3.76353 18.1088 3.87906C18.8345 3.99618 19.5332 3.50398 19.6491 2.77912C19.765 2.02737 19.2712 1.36266 18.5455 1.24554V1.21705H18.3121ZM12.6497 0.463715C11.9796 0.463715 11.4016 0.9575 11.3127 1.6507C11.2539 2.37397 11.7779 3.04026 12.5036 3.12731C13.2594 3.18586 13.9263 2.66359 13.9851 1.94032C14.0724 1.18698 13.5484 0.55076 12.7942 0.463715H12.6497ZM6.95709 0C6.26001 0 5.65026 0.55076 5.62009 1.24554C5.56134 1.99888 6.14251 2.6351 6.89835 2.66359C7.62401 2.72215 8.26393 2.14448 8.29251 1.38956C8.34967 0.666294 7.77168 0.0300703 7.04601 0H6.95709ZM106.717 105.408C107.052 105.408 107.386 105.549 107.61 105.802C107.749 105.914 107.832 106.053 107.889 106.195C107.971 106.363 108 106.53 108 106.699C108 107.036 107.86 107.372 107.61 107.623C107.275 107.99 106.69 108.1 106.217 107.904C106.048 107.821 105.909 107.737 105.797 107.623C105.547 107.372 105.408 107.036 105.408 106.699C105.408 106.363 105.547 106.026 105.797 105.802C106.048 105.549 106.356 105.408 106.717 105.408ZM1.29677 11.232C1.4631 11.232 1.63251 11.2597 1.80193 11.3167C1.9698 11.3722 2.11303 11.4846 2.22392 11.5971C2.47958 11.8512 2.592 12.1885 2.592 12.5274C2.592 12.6969 2.5612 12.8663 2.50729 13.0357C2.44877 13.1759 2.33634 13.3176 2.22392 13.4562C2.11303 13.5702 1.9698 13.6534 1.80193 13.7397C1.49236 13.8521 1.12582 13.8521 0.816261 13.7397C0.646843 13.6534 0.506699 13.5702 0.394272 13.4562C0.25412 13.3176 0.169411 13.1759 0.110886 13.0357C0.0292587 12.8663 0 12.6969 0 12.5274C0 12.1624 0.141693 11.8512 0.394272 11.5971C0.620667 11.3444 0.957947 11.232 1.29677 11.232ZM95.4857 105.408C95.6504 105.408 95.8196 105.437 95.9599 105.494C96.1276 105.577 96.2664 105.661 96.3777 105.773C96.6293 106.026 96.768 106.363 96.768 106.699C96.768 106.866 96.7406 107.036 96.6567 107.203C96.6003 107.344 96.5179 107.484 96.3777 107.623C96.0422 107.99 95.4568 108.1 94.9841 107.904C94.8164 107.849 94.6761 107.737 94.5648 107.623C94.452 107.484 94.3407 107.344 94.2873 107.203C94.2294 107.036 94.176 106.866 94.176 106.699C94.176 106.363 94.3132 106.026 94.5648 105.773C94.7874 105.549 95.1228 105.408 95.4857 105.408ZM1.29677 22.032C1.4631 22.032 1.63251 22.0629 1.80193 22.1185C1.9698 22.2019 2.11303 22.2884 2.22392 22.4011C2.33634 22.5417 2.44877 22.6822 2.50729 22.8243C2.5612 22.9942 2.592 23.1625 2.592 23.3324C2.592 23.6722 2.47958 24.0105 2.22392 24.2638C1.77574 24.7441 0.873245 24.7441 0.394272 24.2638C0.141693 24.0105 0 23.6722 0 23.3324C0 23.1625 0.0292587 22.9942 0.110886 22.8243C0.169411 22.6822 0.25412 22.5417 0.394272 22.4011C0.620667 22.1756 0.957947 22.032 1.29677 22.032ZM84.6857 105.408C85.0212 105.408 85.3261 105.548 85.5762 105.8C85.8293 106.023 85.968 106.359 85.968 106.694C85.968 106.86 85.9406 107.029 85.8567 107.196C85.7988 107.336 85.7179 107.503 85.5762 107.614C85.4679 107.727 85.3261 107.839 85.1599 107.894C84.8504 108.035 84.489 108.035 84.181 107.894C84.0164 107.839 83.8776 107.727 83.7648 107.614C83.6261 107.503 83.5422 107.336 83.4843 107.196C83.4019 107.029 83.376 106.86 83.376 106.694C83.376 106.359 83.5132 106.023 83.7648 105.8C84.0164 105.548 84.3244 105.408 84.6857 105.408ZM1.29677 33.264C1.4631 33.264 1.63251 33.2917 1.80193 33.3488C1.9698 33.432 2.11303 33.5167 2.22392 33.6292C2.47958 33.8835 2.592 34.221 2.592 34.56C2.592 34.7295 2.5612 34.899 2.50729 35.0685C2.44877 35.2088 2.33634 35.349 2.22392 35.4908C2.11303 35.6048 1.9698 35.6865 1.80193 35.7728C1.49236 35.8837 1.12582 35.8837 0.816261 35.7728C0.646843 35.6865 0.506699 35.6048 0.394272 35.4908C0.25412 35.349 0.169411 35.2088 0.110886 35.0685C0.0292587 34.899 0 34.7295 0 34.56C0 34.221 0.141693 33.8835 0.394272 33.6292C0.506699 33.5167 0.646843 33.432 0.816261 33.3488C0.957947 33.2917 1.12582 33.264 1.29677 33.264ZM73.44 105.408C73.8052 105.408 74.1165 105.548 74.3708 105.771C74.4833 105.912 74.5958 106.051 74.6543 106.191C74.7083 106.359 74.736 106.526 74.736 106.694C74.736 107.029 74.6235 107.364 74.3708 107.614C74.2567 107.727 74.1165 107.839 73.9501 107.894C73.6388 108.035 73.2736 108.035 72.9607 107.894C72.7928 107.839 72.6525 107.727 72.54 107.614C72.2873 107.364 72.144 107.029 72.144 106.694C72.144 106.526 72.1748 106.359 72.2565 106.191C72.3151 106.051 72.3967 105.912 72.54 105.771C72.7928 105.548 73.101 105.408 73.44 105.408ZM1.29677 44.064C1.4631 44.064 1.63251 44.0933 1.80193 44.1487C1.9698 44.2319 2.11303 44.3182 2.22392 44.4291C2.47958 44.6832 2.592 45.0221 2.592 45.3594C2.592 45.5273 2.5612 45.6983 2.50729 45.8677C2.44877 46.0079 2.33634 46.1758 2.22392 46.2882C2.11303 46.4022 1.9698 46.4854 1.80193 46.5717C1.49236 46.6841 1.12582 46.6841 0.816261 46.5717C0.646843 46.4854 0.506699 46.4022 0.394272 46.2882C0.25412 46.1758 0.169411 46.0079 0.109352 45.8677C0.0292664 45.6983 0 45.5273 0 45.3594C0 45.0221 0.141693 44.6832 0.394272 44.4291C0.620667 44.2057 0.957947 44.064 1.29677 44.064ZM62.6392 105.408C62.8102 105.408 62.9781 105.437 63.1459 105.494C63.2892 105.577 63.457 105.661 63.5695 105.773C63.8236 106.026 63.936 106.363 63.936 106.699C63.936 107.036 63.7958 107.372 63.5695 107.623C63.2029 107.99 62.6392 108.1 62.1603 107.904C61.9939 107.849 61.8507 107.737 61.7383 107.623C61.4841 107.372 61.344 107.036 61.344 106.699C61.344 106.363 61.4841 106.026 61.7383 105.773C61.9647 105.549 62.3004 105.408 62.6392 105.408ZM1.29677 55.296C1.4631 55.296 1.63251 55.325 1.80193 55.4076C1.9698 55.4626 2.11303 55.5466 2.22392 55.6872C2.47958 55.9104 2.592 56.2466 2.592 56.5828C2.592 56.7494 2.5612 56.9175 2.50729 57.0841C2.44877 57.2522 2.33634 57.3928 2.22392 57.5044C2.11303 57.616 1.9698 57.7275 1.80193 57.7826C1.49236 57.9232 1.12582 57.9232 0.816261 57.7826C0.646843 57.7275 0.506699 57.616 0.394272 57.5044C0.25412 57.3928 0.169411 57.2522 0.109352 57.0841C0.0292664 56.9175 0 56.7494 0 56.5828C0 56.2466 0.141693 55.9104 0.394272 55.6872C0.620667 55.4351 0.957947 55.296 1.29677 55.296ZM51.4088 105.408C51.5751 105.408 51.7476 105.437 51.9139 105.494C52.0556 105.577 52.1988 105.661 52.339 105.773C52.4514 105.914 52.5639 106.053 52.6193 106.195C52.6763 106.363 52.704 106.53 52.704 106.699C52.704 106.866 52.6763 107.036 52.6193 107.203C52.5639 107.344 52.4514 107.484 52.339 107.623C51.9725 107.99 51.4088 108.1 50.9021 107.904C50.7588 107.821 50.6187 107.737 50.4785 107.623C50.3661 107.484 50.2814 107.344 50.1982 107.203C50.1413 107.036 50.112 106.866 50.112 106.699C50.112 106.53 50.1413 106.363 50.1982 106.195C50.2814 106.053 50.3661 105.914 50.4785 105.773C50.7327 105.549 51.0699 105.408 51.4088 105.408ZM1.29677 66.096C1.4631 66.096 1.63251 66.1235 1.80193 66.2076C1.9698 66.2626 2.11303 66.3466 2.22392 66.4872C2.33634 66.5987 2.44877 66.7393 2.50729 66.9059C2.5612 67.0449 2.592 67.213 2.592 67.3811C2.592 67.5767 2.5612 67.7173 2.50729 67.8854C2.44877 68.0519 2.33634 68.191 2.22392 68.3041C2.11303 68.4172 1.9698 68.5272 1.80193 68.5837C1.49236 68.7228 1.12582 68.7228 0.816261 68.5837C0.646843 68.5272 0.506699 68.4172 0.394272 68.3041C0.25412 68.191 0.169411 68.0519 0.109352 67.8854C0.0292664 67.7433 0 67.5767 0 67.3811C0 67.213 0.0292664 67.0449 0.109352 66.9059C0.169411 66.7393 0.25412 66.5987 0.394272 66.4872C0.620667 66.2351 0.957947 66.096 1.29677 66.096ZM40.6072 105.408C40.9461 105.408 41.2833 105.549 41.5375 105.801C41.7623 106.024 41.904 106.36 41.904 106.694C41.904 106.861 41.8747 107.03 41.8177 107.197C41.7315 107.337 41.6499 107.504 41.5375 107.615C41.3942 107.728 41.2541 107.812 41.1139 107.895C40.7751 108.035 40.4101 108.035 40.099 107.895C39.9573 107.812 39.8172 107.728 39.677 107.615C39.5646 107.504 39.4799 107.337 39.3952 107.197C39.3397 107.03 39.312 106.861 39.312 106.694C39.312 106.36 39.4521 106.024 39.677 105.801C39.8172 105.66 39.9573 105.576 40.099 105.494C40.2684 105.437 40.4378 105.408 40.6072 105.408ZM1.29677 77.328C1.4631 77.328 1.63251 77.3845 1.80193 77.4394C1.9698 77.4959 2.11303 77.6089 2.22392 77.7203C2.47958 77.9707 2.592 78.279 2.592 78.6408C2.592 78.8102 2.5612 78.9766 2.50729 79.1155C2.44877 79.2834 2.33634 79.4224 2.22392 79.5338C2.11303 79.6468 1.9698 79.7582 1.80193 79.8147C1.49236 79.9551 1.12582 79.9551 0.816261 79.8147C0.646843 79.7582 0.506699 79.6468 0.394272 79.5338C0.25412 79.4224 0.169411 79.2834 0.109352 79.1155C0.0292664 78.9766 0 78.8102 0 78.6408C0 78.279 0.141693 77.9707 0.394272 77.7203C0.620667 77.47 0.957947 77.328 1.29677 77.328ZM29.3752 105.408C29.7125 105.408 30.0498 105.549 30.3039 105.773C30.5288 106.026 30.672 106.363 30.672 106.699C30.672 107.036 30.5288 107.372 30.3039 107.623C29.9374 107.99 29.3444 108.1 28.867 107.904C28.7268 107.849 28.559 107.737 28.445 107.623C28.2201 107.372 28.08 107.036 28.08 106.699C28.08 106.363 28.2201 106.026 28.445 105.773C28.7007 105.549 29.0379 105.408 29.3752 105.408ZM1.29677 88.128C1.4631 88.128 1.63251 88.1589 1.80193 88.2145C1.9698 88.2701 2.11303 88.3828 2.22392 88.4956C2.33634 88.6083 2.44877 88.7504 2.50729 88.9203C2.5612 89.0609 2.592 89.2307 2.592 89.4284C2.592 89.5968 2.5612 89.7682 2.50729 89.9088C2.44877 90.0787 2.33634 90.2192 2.22392 90.3335C2.11303 90.4463 1.9698 90.559 1.80193 90.6146C1.49236 90.7551 1.12582 90.7551 0.816261 90.6146C0.646843 90.559 0.506699 90.4463 0.394272 90.3335C0.25412 90.2192 0.169411 90.0787 0.109352 89.9088C0.0292664 89.7682 0 89.5968 0 89.4284C0 89.0609 0.141693 88.7504 0.394272 88.4956C0.620667 88.2407 0.957947 88.128 1.29677 88.128ZM18.5752 105.408C18.9141 105.408 19.2513 105.549 19.5055 105.802C19.6179 105.914 19.7026 106.053 19.7888 106.195C19.8427 106.363 19.872 106.53 19.872 106.699C19.872 107.036 19.7303 107.372 19.5055 107.623C19.1389 107.99 18.5475 108.1 18.0685 107.904C17.9022 107.849 17.759 107.737 17.645 107.623C17.5326 107.512 17.451 107.372 17.3647 107.203C17.3108 107.036 17.28 106.866 17.28 106.699C17.28 106.363 17.4232 106.026 17.645 105.802C17.9022 105.549 18.2102 105.408 18.5752 105.408ZM1.29677 99.36C1.4631 99.36 1.63251 99.415 1.80193 99.4716C1.9698 99.5266 2.11303 99.6396 2.22392 99.7512C2.47958 100.002 2.592 100.31 2.592 100.673C2.592 100.842 2.5612 101.009 2.50729 101.148C2.44877 101.316 2.33634 101.455 2.22392 101.567C2.11303 101.709 1.9698 101.791 1.80193 101.848C1.49236 101.987 1.12582 101.987 0.816261 101.848C0.646843 101.791 0.506699 101.709 0.394272 101.567C0.25412 101.455 0.169411 101.316 0.109352 101.148C0.0292664 101.009 0 100.842 0 100.673C0 100.31 0.141693 100.002 0.394272 99.7512C0.620667 99.5006 0.957947 99.36 1.29677 99.36ZM7.35619 105.408C7.52544 105.408 7.69164 105.437 7.83191 105.494C7.99963 105.577 8.13837 105.661 8.24967 105.773C8.38995 105.914 8.47227 106.053 8.52869 106.195C8.61255 106.363 8.64 106.53 8.64 106.699C8.64 106.866 8.61255 107.036 8.52869 107.203C8.47227 107.372 8.38995 107.512 8.24967 107.623C7.88832 107.99 7.32875 108.1 6.85609 107.904C6.68685 107.849 6.5481 107.737 6.43527 107.623C6.18522 107.372 6.048 107.036 6.048 106.699C6.048 106.363 6.18522 106.026 6.43527 105.773C6.68684 105.549 6.99484 105.408 7.35619 105.408Z" fill="#7FE3FF"/>
</svg>
