<?xml version="1.0" encoding="UTF-8"?>
<svg width="128px" height="128px" viewBox="0 0 128 128" version="1.1" xmlns="http://www.w3.org/2000/svg" xmlns:xlink="http://www.w3.org/1999/xlink">
    <title>1C66AE04-CF28-409A-A92D-F0E131FE55F5</title>
    <g id="Lula" stroke="none" stroke-width="1" fill="none" fill-rule="evenodd">
        <g id="Lula-Onboarding---Success-Modal" transform="translate(-369, -98)" fill="#00C8FF">
            <g id="Card" transform="translate(367, 64)">
                <g id="Banner" transform="translate(2, 2)">
                    <g id="Decorative-Elements/Radial/Circles" transform="translate(-0, 32)">
                        <path d="M126.463087,0 C126.265954,0 126.065169,0.0651979366 125.864385,0.132206927 C125.665426,0.197404864 125.495672,0.331422845 125.36425,0.463629772 C125.231002,0.595836699 125.097754,0.762453648 125.028392,0.959858511 C124.964506,1.16088548 124.928,1.35829035 124.928,1.55569521 C124.928,1.75672218 124.964506,1.95412704 125.028392,2.12074399 C125.097754,2.31814886 125.231002,2.48476581 125.36425,2.61516168 C125.495672,2.78177863 125.665426,2.88319764 125.864385,2.94839558 C126.231273,3.11320147 126.665697,3.11320147 127.032585,2.94839558 C127.233369,2.88319764 127.399472,2.78177863 127.53272,2.61516168 C127.698824,2.48476581 127.799216,2.31814886 127.868578,2.12074399 C127.965319,1.95412704 128,1.75672218 128,1.55569521 C128,1.35829035 127.965319,1.16088548 127.868578,0.959858511 C127.799216,0.762453648 127.698824,0.595836699 127.53272,0.463629772 C127.264399,0.166616949 126.864656,0 126.463087,0 M120.830005,120.32 C121.226265,120.32 121.624334,120.488801 121.922886,120.786472 C122.516371,121.383629 122.516371,122.345614 121.922886,122.942771 C121.327592,123.541743 120.332419,123.541743 119.737124,122.942771 C119.143639,122.345614 119.143639,121.383629 119.769693,120.786472 L119.737124,120.786472 C120.033867,120.488801 120.431936,120.32 120.830005,120.32 Z M41.1581688,118.665397 C42.0220114,118.733506 42.6817074,119.495952 42.6098781,120.394617 C42.5437195,121.261119 41.7819501,121.917617 40.9181075,121.851399 C40.0183502,121.779506 39.3624347,121.018952 39.4285933,120.154342 C39.5004227,119.28784 40.1941431,118.665397 41.0201808,118.665397 L41.1581688,118.665397 Z M53.9482901,118.691312 C54.8043102,118.794394 55.4580323,119.547825 55.3868534,120.439949 C55.2838313,121.296462 54.5308333,121.946813 53.6748133,121.845605 C52.7832038,121.77626 52.1332279,121.020954 52.2343769,120.132579 C52.3018096,119.307927 52.989248,118.691312 53.8115517,118.691312 L53.9482901,118.691312 Z M67.6059929,118.647472 C67.6756122,118.647472 67.74335,118.647472 67.8129693,118.685116 C68.6728618,118.752874 69.3257781,119.545273 69.2241715,120.437428 C69.122565,121.297585 68.3285285,121.918705 67.4686359,121.850947 C66.5729929,121.747427 65.9558271,120.955028 66.0593153,120.09487 C66.127053,119.268592 66.8157197,118.647472 67.6059929,118.647472 Z M81.1578876,118.682397 C82.0472986,118.819226 82.6315012,119.643949 82.5303892,120.500536 L82.4929403,120.500536 C82.3937008,121.357123 81.5698253,121.97379 80.7122459,121.836961 C79.8565389,121.733871 79.2423772,120.909148 79.3790656,120.052562 C79.4801776,119.265326 80.1654922,118.682397 80.9537912,118.682397 L81.1578876,118.682397 Z M93.7804868,118.696715 C93.8863617,118.696715 93.9865648,118.730194 94.0905491,118.730194 C94.9564545,118.899452 95.5104071,119.715979 95.3364698,120.565986 C95.1644231,121.417852 94.3344395,121.994443 93.4704246,121.827046 C92.6064098,121.654069 92.0165353,120.837542 92.1904727,119.954055 C92.3625194,119.204487 93.0223469,118.696715 93.7804868,118.696715 Z M15.0057734,118.673765 C15.9001452,118.70775 16.5586595,119.466754 16.4888457,120.331489 L16.5246961,120.331489 C16.4529954,121.228321 15.6963643,121.919354 14.8321822,121.851384 C13.9359235,121.781525 13.2792961,121.022522 13.3132595,120.157787 C13.3830734,119.294939 14.0755512,118.673765 14.9001092,118.673765 L15.0057734,118.673765 Z M107.042383,118.659838 C107.21446,118.659838 107.388428,118.693901 107.558613,118.729856 C108.390632,119.00614 108.838788,119.939072 108.562709,120.769817 C108.284739,121.600562 107.388428,122.050943 106.556409,121.774659 C105.726281,121.532437 105.276234,120.59572 105.554204,119.766867 C105.762209,119.108327 106.384332,118.659838 107.042383,118.659838 Z M27.7970106,117.67178 C28.6866288,117.739276 29.3365182,118.492977 29.2690946,119.351673 C29.2353827,120.242241 28.4806119,120.894699 27.5891209,120.827203 C26.7013756,120.791581 26.0477404,120.004131 26.117037,119.145436 C26.1844607,118.322363 26.8718077,117.67178 27.6940022,117.67178 L27.7970106,117.67178 Z M1.65883253,117.639996 C2.55275571,117.709398 3.20767207,118.461565 3.17191514,119.320648 C3.10416517,120.213494 2.38149885,120.866247 1.48757566,120.830608 C0.62564552,120.763082 -0.0631458186,120.042803 0.00460414908,119.149957 C0.0384791329,118.292749 0.727270472,117.639996 1.58731867,117.639996 L1.65883253,117.639996 Z M109.980923,112.946812 C110.325077,112.946812 110.638975,113.052784 110.913163,113.259051 C111.643071,113.779449 111.777328,114.782398 111.261098,115.473109 C110.741086,116.201666 109.738882,116.375763 109.050575,115.821302 C108.320667,115.302796 108.1467,114.333909 108.700749,113.607244 C109.010865,113.190926 109.498731,112.946812 109.980923,112.946812 Z M95.6824538,112.469532 C95.8904224,112.469532 96.098391,112.536491 96.3063595,112.60717 C97.1004213,112.947544 97.5163584,113.86451 97.1703744,114.647558 C96.8224997,115.464085 95.8904224,115.837939 95.0604388,115.497565 C94.2644864,115.190669 93.8863617,114.271844 94.2285646,113.457176 C94.472455,112.845246 95.0604388,112.469532 95.6824538,112.469532 Z M82.3562519,112.204576 C82.4929403,112.204576 82.6315012,112.238315 82.8037661,112.272054 C83.6238966,112.545712 84.1051148,113.404173 83.8635695,114.26076 C83.6238966,115.083608 82.7326132,115.563447 81.9106102,115.323527 C81.0549032,115.083608 80.5774299,114.191408 80.8171028,113.36856 C81.0211992,112.648802 81.6728098,112.204576 82.3562519,112.204576 Z M68.7424812,112.074891 C68.8798382,112.074891 68.9833263,112.074891 69.122565,112.106888 C69.9485887,112.31581 70.4998984,113.142088 70.2910404,114.002246 C70.1198146,114.862403 69.259922,115.412 68.3981478,115.20496 C67.5382552,114.999802 67.0189328,114.173524 67.1958035,113.313367 C67.3670294,112.554847 68.0199456,112.074891 68.7424812,112.074891 Z M55.0103544,112.075355 C55.8663745,112.247782 56.4470445,113.068686 56.2765898,113.925199 C56.1398513,114.783587 55.2838313,115.366466 54.4259381,115.195913 C53.569918,115.059095 53.0210912,114.234444 53.1578296,113.34232 C53.2964412,112.588888 53.9820065,112.075355 54.7350044,112.075355 L55.0103544,112.075355 Z M42.0598164,111.952846 C42.9576834,112.090957 43.5455501,112.923404 43.4075621,113.788014 C43.2676838,114.652624 42.4378657,115.273175 41.574023,115.10101 C40.7101804,114.996954 40.1204235,114.168291 40.2603017,113.265842 C40.3642653,112.50718 41.0579857,111.952846 41.8159746,111.952846 L42.0598164,111.952846 Z M15.7284409,111.90504 C16.5907362,112.008884 17.2171738,112.801872 17.1115097,113.666608 L17.1115097,113.700593 C17.0058455,114.56344 16.2133641,115.182727 15.3510688,115.082659 C14.4529233,114.978815 13.8321462,114.18205 13.9359235,113.285218 C14.037814,112.492229 14.7284049,111.90504 15.5227731,111.90504 L15.7284409,111.90504 Z M28.6173322,110.984082 C29.4732385,111.120948 30.091289,111.910273 29.9545687,112.767093 C29.8515603,113.659536 29.0293659,114.242624 28.1715867,114.13763 C27.3156804,114.002639 26.7013756,113.21144 26.8025112,112.354619 C26.9411043,111.565295 27.6228328,110.984082 28.3794764,110.984082 L28.6173322,110.984082 Z M2.13872813,110.915513 C2.17448506,110.915513 2.24411697,110.915513 2.31186694,110.951152 C3.17191514,111.018678 3.79295651,111.808359 3.7233246,112.665567 C3.61793576,113.558413 2.82751947,114.173652 1.96747127,114.072362 C1.07354808,114.004836 0.45062477,113.215155 0.556013609,112.357948 C0.62564552,111.532628 1.31255491,110.915513 2.13872813,110.915513 Z M114.509754,108.414616 C115.031657,108.414616 115.511959,108.620883 115.827748,109.073156 C116.343978,109.763866 116.171901,110.766816 115.479813,111.287214 C114.753687,111.807612 113.751482,111.66947 113.233361,110.940913 C112.71335,110.250202 112.885426,109.243468 113.577515,108.726855 C113.889522,108.518695 114.199638,108.414616 114.509754,108.414616 Z M98.7944197,106.753841 C99.1044819,106.753841 99.4164348,106.857999 99.6943564,107.027257 C100.420356,107.503409 100.628324,108.491054 100.142434,109.203423 C99.626294,109.917652 98.6564042,110.124108 97.9304049,109.646096 C97.1703744,109.169943 96.9945464,108.184159 97.4823272,107.46807 C97.7923894,106.993777 98.276389,106.753841 98.7944197,106.753841 Z M84.6537409,106.032278 C84.8915413,106.032278 85.0975102,106.067891 85.3353106,106.169107 C86.1254821,106.512116 86.4643945,107.471794 86.0917781,108.259029 C85.7472483,109.048138 84.7866845,109.393022 84.0002579,109.048138 C83.2119589,108.67139 82.8693016,107.745451 83.2119589,106.958216 C83.4872082,106.375287 84.0676659,106.032278 84.6537409,106.032278 Z M70.5996233,105.635944 C70.7746124,105.635944 70.9458383,105.669824 71.1170642,105.739464 C71.9449695,106.014263 72.3909094,106.912064 72.1143138,107.734578 C71.8057309,108.562738 70.9100878,109.010698 70.0859457,108.734017 C69.259922,108.423457 68.8121005,107.52942 69.122565,106.703142 C69.3257781,106.050025 69.9485887,105.635944 70.5996233,105.635944 Z M56.2447466,105.562479 C56.381485,105.562479 56.5519398,105.562479 56.6886782,105.596215 C57.5446983,105.837988 58.0260925,106.726363 57.7863319,107.551015 C57.5446983,108.407528 56.6549619,108.8892 55.8326581,108.647427 C54.974765,108.407528 54.497117,107.551015 54.7350044,106.694502 C54.9429218,106.006667 55.5573081,105.562479 56.2447466,105.562479 Z M120.250685,105.472 C120.910628,105.472 121.566788,105.922381 121.774793,106.579029 C122.050872,107.411666 121.602716,108.346491 120.738551,108.620883 C119.908423,108.899059 119.00833,108.414616 118.732251,107.581978 C118.454281,106.717171 118.904327,105.820194 119.768493,105.57608 C119.908423,105.507955 120.0805,105.472 120.250685,105.472 Z M43.5115256,105.344351 C44.3753683,105.550571 44.8932958,106.415181 44.6853687,107.247628 C44.4774416,108.112238 43.6117087,108.666572 42.785671,108.456568 C41.9218284,108.250349 41.3679862,107.385739 41.6080475,106.519237 C41.7819501,105.792738 42.4038412,105.308405 43.1296959,105.308405 C43.2676838,105.308405 43.4075621,105.308405 43.5115256,105.344351 Z M16.5586595,105.1703 C16.6265865,105.1703 16.7303638,105.204285 16.8341412,105.204285 C17.6964364,105.377988 18.28325,106.20685 18.1115457,107.069697 C17.9398414,107.934432 17.1115097,108.519733 16.2492144,108.346031 C15.3850323,108.208202 14.8321822,107.345355 14.9718099,106.482508 C15.1095507,105.723504 15.8001416,105.1703 16.5586595,105.1703 Z M29.5425351,104.332006 C29.6474164,104.332006 29.7485519,104.365754 29.8515603,104.365754 C30.7074666,104.571991 31.2562206,105.393189 31.0857885,106.251884 C30.9116106,107.108704 30.0557043,107.658044 29.199798,107.485555 C28.3438917,107.316816 27.7970106,106.458121 27.9674427,105.6013 C28.1378748,104.845724 28.7915101,104.332006 29.5425351,104.332006 Z M3.03453326,104.226669 C3.13804016,104.226669 3.20767207,104.226669 3.30929702,104.260432 C4.16934522,104.39736 4.75462966,105.220805 4.61536584,106.078012 C4.47798396,106.93522 3.65557463,107.518571 2.79552643,107.381643 C1.89783936,107.244715 1.31255491,106.423146 1.48757566,105.564063 C1.58731867,104.776257 2.27611001,104.226669 3.03453326,104.226669 Z M103.014291,101.756099 C103.430228,101.756099 103.810243,101.890016 104.122196,102.196912 C104.742321,102.808842 104.742321,103.794627 104.122196,104.441897 C103.4964,105.053827 102.492479,105.053827 101.870464,104.441897 C101.250339,103.794627 101.250339,102.808842 101.870464,102.196912 C102.182417,101.890016 102.598354,101.756099 103.014291,101.756099 Z M87.836896,100.206737 C88.1439769,100.206737 88.4192262,100.274215 88.6944755,100.444782 C89.4453256,100.924621 89.6531669,101.919911 89.1719488,102.637795 C88.6944755,103.393166 87.7002076,103.597472 86.9811891,103.117633 C86.2284665,102.637795 86.0206252,101.678117 86.4999709,100.924621 C86.8107966,100.478521 87.3219739,100.206737 87.836896,100.206737 Z M73.1811827,99.4379174 C73.4239095,99.4379174 73.6271226,99.5075582 73.8698494,99.6129604 C74.6638858,99.9893969 74.9724687,100.954957 74.5923849,101.747355 C74.2160643,102.537872 73.250802,102.84655 72.4586471,102.468231 C71.7022427,102.089913 71.3597909,101.160114 71.7361115,100.367716 L71.7361115,100.335718 C72.0127072,99.784239 72.5960041,99.4379174 73.1811827,99.4379174 Z M58.3688751,99.2201569 C58.5730462,99.2201569 58.7790904,99.2557668 58.9495452,99.3232384 C59.773722,99.6324828 60.1839373,100.556468 59.8729979,101.34551 C59.5320884,102.168287 58.6105088,102.578739 57.8200482,102.271369 C56.9958714,101.963999 56.583783,101.038139 56.8947224,100.215362 C57.1326098,99.5968728 57.7526156,99.2201569 58.3688751,99.2201569 Z M44.9972594,98.7680192 C45.1352473,98.7680192 45.30915,98.8039658 45.4792722,98.8380205 C46.3109806,99.1142416 46.7929935,100.01669 46.5151273,100.8813 C46.2429318,101.709963 45.3412842,102.158349 44.4774416,101.88402 C43.6514039,101.605907 43.1977447,100.707243 43.4737207,99.8766874 C43.6835381,99.2201894 44.3035389,98.7680192 44.9972594,98.7680192 Z M17.9738049,98.5412923 C18.1115457,98.5412923 18.2134362,98.5752776 18.351177,98.6092628 C19.2134722,98.8150622 19.7342457,99.6797975 19.5266911,100.50866 L19.5266911,100.542645 C19.3191364,101.371507 18.4568412,101.924711 17.5945459,101.683038 C16.7303638,101.477239 16.2133641,100.612503 16.4209187,99.7496561 L16.4209187,99.7836413 C16.5907362,99.056735 17.2492505,98.5412923 17.9738049,98.5412923 Z M31.1195003,97.8167974 C31.2562206,97.8167974 31.3948137,97.8167974 31.5633729,97.8842931 C32.3874403,98.0905299 32.8650248,98.981098 32.6608808,99.8060454 C32.4192792,100.662866 31.531534,101.14471 30.7074666,100.90285 C29.8515603,100.694739 29.372103,99.8060454 29.6099588,98.981098 C29.7841366,98.261144 30.4340261,97.8167974 31.1195003,97.8167974 Z M4.3067271,97.6053515 C4.41211594,97.6053515 4.54949782,97.6053515 4.65300471,97.6391146 C5.51493486,97.8454446 6.06258043,98.668889 5.85744858,99.5260964 C5.68619172,100.383304 4.82614352,100.932892 3.96609532,100.724686 C3.10416517,100.555871 2.5866307,99.6986633 2.75788756,98.8414559 C2.93290831,98.1193008 3.58594272,97.6053515 4.3067271,97.6053515 Z M108.094396,97.6027832 C108.616208,97.6027832 109.136129,97.876199 109.446191,98.3170121 C109.9283,99.033101 109.724113,100.018886 108.998113,100.495038 C108.270224,100.973051 107.268193,100.801933 106.782303,100.054225 C106.298303,99.3399962 106.472241,98.385831 107.230381,97.876199 C107.474271,97.7069416 107.784333,97.6027832 108.094396,97.6027832 Z M91.8102226,94.9247642 C92.1847115,94.9247642 92.5629452,95.0278545 92.8381945,95.3015125 C93.5235091,95.8844414 93.5890446,96.8778572 93.0067145,97.5301378 C92.4262568,98.180544 91.4319889,98.2498957 90.7803783,97.7025798 C90.0988086,97.1177765 90.0276558,96.1243607 90.6081135,95.4720801 L90.6081135,95.4402158 C90.9170667,95.0972062 91.3664534,94.9247642 91.8102226,94.9247642 Z M113.940203,94.5431309 C114.562218,94.5431309 115.150202,94.916985 115.394092,95.5289155 C115.736295,96.3119633 115.35817,97.2289291 114.530077,97.5711637 C113.732234,97.9096785 112.800157,97.5358243 112.456063,96.721157 C112.106298,95.9381092 112.490095,95.0192835 113.320078,94.6789088 C113.524266,94.5747504 113.732234,94.5431309 113.940203,94.5431309 Z M76.4175398,93.5880942 C76.6922539,93.5880942 77.0027184,93.6897321 77.279314,93.8271314 C77.999968,94.3089701 78.2408132,95.3102912 77.7591228,96.0311671 C77.279314,96.7896867 76.3140517,96.9948446 75.5576473,96.5487673 C74.8012429,96.0650464 74.5923849,95.0693719 75.0778385,94.3447316 C75.3864214,93.8628929 75.900099,93.5880942 76.4175398,93.5880942 Z M61.1092632,93.0839973 C61.3153074,93.0839973 61.585038,93.153343 61.7948285,93.2564245 C62.5815427,93.6331405 62.8924822,94.5927354 62.5141101,95.3799031 C62.1338649,96.168945 61.1785689,96.4781894 60.3899815,96.0677377 C59.6032673,95.6910217 59.2923278,94.7295526 59.6688268,93.9761207 C59.9423037,93.3932417 60.52672,93.0839973 61.1092632,93.0839973 Z M120.235978,92.672 C120.996009,92.672 121.650164,93.1816321 121.825992,93.9293404 C121.998039,94.7793472 121.410055,95.5958745 120.580072,95.7669918 L120.54604,95.7669918 C119.682026,95.9381092 118.852042,95.3931376 118.678105,94.5431309 C118.506058,93.6931241 119.094042,92.8747368 119.920244,92.7036195 C120.05826,92.672 120.164134,92.672 120.235978,92.672 Z M47.3128113,92.4376374 C47.5188481,92.4376374 47.7286655,92.4698001 47.9347023,92.5398013 C48.7645205,92.8860236 49.1463503,93.8206347 48.798545,94.6171352 C48.4545201,95.4476904 47.5188481,95.8298593 46.7268349,95.4817451 C45.8951264,95.1695774 45.5170771,94.2349663 45.8629922,93.4044112 C46.1030535,92.7819678 46.6928104,92.4376374 47.3128113,92.4376374 Z M19.8040595,92.0123521 C19.9399135,92.0123521 20.1153915,92.0482254 20.2531323,92.0822106 C21.1154276,92.3578686 21.5626135,93.2565891 21.3192085,94.0854511 C21.0437269,94.9143131 20.1474682,95.3976586 19.3191364,95.1220006 C18.4568412,94.8784398 18.0058815,93.9834954 18.28325,93.1187601 C18.4889178,92.4636004 19.1115818,92.0123521 19.8040595,92.0123521 Z M33.17405,91.4028318 C33.3444821,91.4028318 33.5167871,91.4384546 33.6872192,91.4722024 C34.5112866,91.7796828 34.9570321,92.6721258 34.6480068,93.4933234 L34.6480068,93.5289461 C34.3371087,94.3520186 33.4474905,94.7626173 32.6252961,94.4888848 C31.8049745,94.1814044 31.3948137,93.2908363 31.6682542,92.4677638 C31.90611,91.8153055 32.5241605,91.4028318 33.17405,91.4028318 Z M5.96095548,91.05156 C6.09833736,91.05156 6.23760118,91.0853231 6.37498306,91.1209619 C7.23503126,91.361055 7.71680881,92.2182624 7.47403809,93.0754698 C7.23503126,93.9007899 6.37498306,94.4147392 5.51493486,94.1746461 C4.6868797,93.9326773 4.16934522,93.0754698 4.41211594,92.2182624 C4.61536584,91.4979831 5.27216414,91.05156 5.96095548,91.05156 Z M96.5025678,90.2275943 C96.9463371,90.2275943 97.3582748,90.3981619 97.6990596,90.7767845 C98.2476858,91.4290651 98.1784053,92.4224809 97.5305396,93.0054098 C96.8770566,93.5883388 95.8509572,93.5189871 95.302331,92.8329679 C94.7200009,92.1806873 94.7911538,91.1872714 95.4390195,90.6062169 C95.7461003,90.3662976 96.1262065,90.2275943 96.5025678,90.2275943 Z M80.3068133,88.1485868 C80.649265,88.1485868 80.9935984,88.2502247 81.2720756,88.4930262 C81.9588607,89.0426235 82.0924545,90.0420624 81.5449081,90.729059 C80.9935984,91.4179378 79.9963488,91.5214579 79.3076821,90.9699784 C78.6190154,90.4203811 78.4797767,89.4228244 79.0668369,88.7320634 C79.379183,88.3537447 79.8251229,88.1485868 80.3068133,88.1485868 Z M64.3628886,87.2589564 C64.6382386,87.2589564 64.9454318,87.3264279 65.1851924,87.4969809 C65.9400634,87.9430426 66.1816971,88.9363732 65.6984298,89.6560694 C65.252625,90.4113755 64.2598665,90.6494001 63.5068686,90.1696026 C62.7875869,89.7254151 62.5459533,88.7320845 62.991758,87.9767783 C63.2989512,87.4969809 63.8159349,87.2589564 64.3628886,87.2589564 Z M50.1840956,86.2775288 C50.4260472,86.2775288 50.6661085,86.3115834 50.90806,86.449694 C51.6698293,86.8318629 51.9798298,87.8005286 51.6017805,88.5951372 C51.1859262,89.3897458 50.2162298,89.7038054 49.4563507,89.2875818 C48.660557,88.8732502 48.3505566,87.9386391 48.7645205,87.1421386 L48.7304961,87.1421386 C49.0404965,86.5878045 49.5943387,86.2775288 50.1840956,86.2775288 Z M101.777243,86.2501822 C102.28842,86.2501822 102.803342,86.5257145 103.110423,86.9718145 C103.589769,87.725311 103.3838,88.6849882 102.63295,89.1667011 C101.910187,89.6465397 100.919664,89.4384847 100.438445,88.6849882 C99.9590998,87.9652303 100.1969,86.9718145 100.919664,86.4919759 C101.191168,86.3195339 101.503866,86.2501822 101.777243,86.2501822 Z M22.0116863,85.5910317 C22.1815037,85.5910317 22.3928321,85.6250169 22.5645364,85.6929874 C23.3890944,86.0045186 23.8042037,86.9372244 23.4947586,87.7660864 C23.1853135,88.5949484 22.2532044,89.0103234 21.4248727,88.6987922 C20.6286176,88.3872609 20.2135083,87.4564432 20.5267271,86.6256931 C20.7663584,86.0045186 21.3550589,85.5910317 22.0116863,85.5910317 Z M35.6425063,85.1632302 C35.8466502,85.1632302 36.0507942,85.196978 36.256811,85.2644737 C37.0808784,85.6431995 37.4198697,86.5693904 37.0808784,87.3568401 C36.7362684,88.1817875 35.7792265,88.5230157 34.9907439,88.1817875 C34.2003884,87.8368095 33.8239395,86.9106186 34.1666766,86.0875462 C34.44199,85.5063333 35.0225829,85.1632302 35.6425063,85.1632302 Z M7.92005871,84.6028091 C8.09507946,84.6028091 8.26821827,84.6365722 8.43947513,84.672211 C9.29952333,84.9798303 9.74554395,85.8708009 9.46889825,86.6961209 L9.43690521,86.6961209 C9.16025951,87.5176895 8.26821827,87.9659884 7.44016311,87.6902564 C6.61398989,87.4164002 6.16796927,86.523554 6.44273303,85.6663466 C6.64974682,85.0117177 7.26890624,84.6028091 7.92005871,84.6028091 Z M84.7455148,83.1570389 C85.1594674,83.1570389 85.5734201,83.3283175 85.882003,83.6369954 C86.4991688,84.2581156 86.4991688,85.2575545 85.882003,85.8749104 C85.2629556,86.4960306 84.228074,86.4960306 83.6109082,85.8749104 C82.9918608,85.2575545 82.9918608,84.2581156 83.6109082,83.6369954 L83.6428954,83.6049983 C83.9533599,83.3283175 84.3334437,83.1570389 84.7455148,83.1570389 Z M107.5968,83.0637541 C108.177257,83.0637541 108.76146,83.4067637 109.032964,83.9896926 C109.379366,84.7788022 109.032964,85.7384794 108.24841,86.1133533 C107.458239,86.4582372 106.503292,86.1133533 106.158762,85.3261181 C105.784274,84.5370085 106.123186,83.5773313 106.913357,83.2343217 C107.151158,83.1331058 107.358999,83.0637541 107.5968,83.0637541 Z M68.1316246,81.7375373 C68.4744073,81.7375373 68.8171899,81.8424929 69.0906668,82.0467817 C69.8099484,82.5621891 69.9466868,83.5555198 69.39786,84.275216 C68.8864957,84.9611764 67.8937372,85.0961194 67.1744556,84.5825862 C66.4888903,84.0353172 66.3502787,83.0419866 66.8635161,82.3541519 C67.2062988,81.9437002 67.6521035,81.7375373 68.1316246,81.7375373 Z M113.796462,80.7657771 C114.481777,80.7657771 115.095939,81.2137514 115.301907,81.8978963 C115.543453,82.7544831 115.064107,83.61107 114.240232,83.8528637 C113.384525,84.1246472 112.528818,83.646683 112.255441,82.7900962 C112.013895,81.9335093 112.496986,81.0769224 113.352693,80.8351288 C113.489382,80.7657771 113.659774,80.7657771 113.796462,80.7657771 Z M53.4674537,80.3595866 C53.7774541,80.3595866 54.0553204,80.4295878 54.3331866,80.601753 C55.0590412,81.0520312 55.2991025,82.0547516 54.8473336,82.8171975 C54.3993452,83.5436968 53.3975146,83.7858632 52.6376355,83.335585 C51.8777565,82.8512521 51.6698293,81.8825864 52.1178178,81.1220325 C52.4315987,80.6358077 52.9495262,80.3595866 53.4674537,80.3595866 Z M24.6004589,79.3396375 C24.8061266,79.3396375 25.0476448,79.3755108 25.2533126,79.4774664 C26.0476808,79.8569682 26.4288266,80.7896739 26.0476808,81.5826626 C25.7061591,82.3775394 24.7381997,82.7608173 23.9419446,82.3775394 C23.1494632,82.033911 22.8022808,81.06722 23.1494632,80.2723432 C23.4268316,79.685154 23.9796818,79.3396375 24.6004589,79.3396375 Z M120.267629,79.36 C121.020352,79.36 121.707539,79.9073159 121.844227,80.6964254 C121.947212,81.5904997 121.364882,82.3777349 120.475471,82.5145638 C119.617891,82.6176542 118.831465,82.0347253 118.692904,81.176264 C118.556215,80.2878129 119.170377,79.4987033 120.026084,79.36 L120.267629,79.36 Z M38.5173776,79.0942426 C38.7552334,79.0942426 39.0305468,79.1261156 39.2384365,79.2648567 C40.0231733,79.6754555 40.3321986,80.6353942 39.9239107,81.3890961 C39.5137499,82.1784207 38.5529623,82.4859011 37.8000644,82.0771772 C37.0115818,81.6647035 36.7025565,80.7028899 37.1127173,79.9154402 C37.3880307,79.401723 37.9367847,79.0942426 38.5173776,79.0942426 Z M89.7374076,78.6812089 C90.2172163,78.6812089 90.6631563,78.888249 90.9736208,79.3023291 C91.5249304,79.9893257 91.4233239,80.9868825 90.7346572,81.5383619 C90.0459905,82.0898414 89.0487409,81.9524421 88.4974312,81.2635633 C87.9461215,80.5728023 88.0477281,79.5771278 88.7382764,79.0595276 C89.0487409,78.8186082 89.389311,78.6812089 89.7374076,78.6812089 Z M10.2969534,78.2891107 C10.4700922,78.2891107 10.677106,78.3247495 10.8822379,78.3922757 C11.6745361,78.7374095 12.0847998,79.6265043 11.776161,80.4518244 L11.7422861,80.4518244 C11.4336473,81.273393 10.5020853,81.6504142 9.67967593,81.3427949 C8.88549575,80.9995368 8.47146817,80.0729274 8.81962773,79.2851219 L8.78198886,79.2851219 C9.05675262,78.6680076 9.64203706,78.2891107 10.2969534,78.2891107 Z M72.413598,76.5947083 C72.7919701,76.5947083 73.2040586,76.7315256 73.4775354,77.0070343 C74.1256381,77.5899132 74.1631007,78.5851181 73.5786844,79.2354685 C72.9942681,79.885819 72.0015096,79.9195547 71.3515338,79.33855 C70.7015579,78.7556711 70.6659685,77.7286046 71.2503848,77.07638 L71.2503848,77.1101157 C71.557578,76.7690097 72.0015096,76.5947083 72.413598,76.5947083 Z M95.2072275,74.824617 C95.7246684,74.824617 96.2402276,75.0674185 96.5488105,75.5492572 C97.0323825,76.3058946 96.7915373,77.3034513 96.0332513,77.7514107 C95.3125973,78.2332495 94.3134661,77.9904479 93.8675262,77.269572 C93.3820726,76.5129347 93.5928122,75.5492572 94.347335,75.0674185 C94.622049,74.8942577 94.8986446,74.824617 95.2072275,74.824617 Z M57.2347149,74.7538121 C57.58063,74.7538121 57.8906304,74.8219214 58.2044113,75.0319251 C58.8943513,75.5503126 59.0701442,76.553033 58.5484362,77.2795323 C58.0286184,78.0060316 57.0267878,78.1441421 56.3009332,77.6276465 C55.6128834,77.1073671 55.4370905,76.1046467 55.9550181,75.4122021 C56.2650185,74.9619238 56.7527021,74.7538121 57.2347149,74.7538121 Z M27.5684904,73.2619455 C27.8401983,73.2619455 28.0836033,73.2959307 28.3270083,73.4337597 C29.0855262,73.8510228 29.3968582,74.8158257 28.9817489,75.5767173 C28.5666396,76.371594 27.6024539,76.6812373 26.8401622,76.2658622 C26.0476808,75.8523753 25.7382357,74.8856843 26.153345,74.0908075 C26.4627901,73.5715887 27.0156403,73.2619455 27.5684904,73.2619455 Z M41.8061554,73.229617 C42.1151806,73.229617 42.390494,73.2989876 42.6302227,73.4696017 C43.3831206,73.9139483 43.6209764,74.8757619 43.1752309,75.6294638 C42.7294854,76.3850406 41.7368588,76.6231504 40.9839609,76.1769289 C40.2647749,75.6969595 40.0231733,74.7388957 40.4689188,73.981444 C40.779817,73.5033495 41.2929862,73.229617 41.8061554,73.229617 Z M12.9467299,72.0804529 C13.1876187,72.0804529 13.3965144,72.1479791 13.6355213,72.2530199 C14.4278195,72.5944022 14.7722152,73.5547747 14.3958265,74.3444559 C14.0156739,75.1341372 13.0841118,75.4755195 12.2936955,75.0984983 C11.5013973,74.7571159 11.1231266,73.7948678 11.5013973,73.0051865 C11.776161,72.423711 12.3614455,72.0804529 12.9467299,72.0804529 Z M77.1395031,71.8660795 C77.5871809,71.8660795 77.9973962,72.0366325 78.342052,72.3796127 C78.9227221,73.0318374 78.8534163,74.0251681 78.2371568,74.608047 C77.5871809,75.1909259 76.558833,75.155316 75.9762898,74.5049655 C75.3937466,73.8527409 75.427463,72.8594102 76.0811851,72.2765313 C76.3883782,72.0028968 76.7667503,71.8660795 77.1395031,71.8660795 Z M101.059013,71.5891453 C101.644191,71.5891453 102.227488,71.8978232 102.470215,72.4850641 C102.880405,73.277463 102.536071,74.2072611 101.749561,74.5855798 C100.955525,74.9620163 99.9902624,74.6533384 99.6139418,73.8609395 C99.233858,73.0704229 99.5763097,72.1048633 100.370346,71.7265446 C100.573559,71.6249067 100.816286,71.5891453 101.059013,71.5891453 Z M61.453745,69.4261506 C61.8355748,69.4261506 62.1777094,69.5283145 62.4877098,69.8064276 C63.1474058,70.3948163 63.2532596,71.3994286 62.665393,72.0540347 C62.1096605,72.7464794 61.0738055,72.8164806 60.4159997,72.2280919 C59.7581939,71.6756497 59.6561206,70.6729293 60.2439873,69.9804847 C60.5539877,69.5983158 61.0038663,69.4261506 61.453745,69.4261506 Z M107.251368,69.0067909 C107.904285,69.0067909 108.491345,69.420871 108.730308,70.0739884 C109.040773,70.9021487 108.592951,71.8319468 107.770691,72.1048633 C106.942786,72.3815441 106.013274,71.9674639 105.73856,71.143068 C105.428095,70.3149077 105.875917,69.3851096 106.70194,69.1121931 L106.735809,69.1121931 C106.873166,69.0444345 107.080143,69.0067909 107.251368,69.0067909 Z M45.5069669,67.6049761 C45.8141193,67.6049761 46.1549835,67.7099694 46.4302969,67.8787086 C47.1494829,68.3943007 47.319915,69.3879873 46.8086187,70.1079413 C46.2935766,70.8297702 45.2990772,71.0003843 44.581764,70.4847922 C43.8944169,69.971075 43.7239848,68.9755136 44.2390269,68.2574344 C44.5124674,67.8449608 45.0256367,67.6049761 45.5069669,67.6049761 Z M82.2793697,67.579764 C82.7607639,67.579764 83.2402849,67.785927 83.5474781,68.1982529 C84.096305,68.8823391 83.9595666,69.877544 83.2740013,70.4266872 L83.2402849,70.4266872 C82.5547197,70.9383462 81.560088,70.8015289 81.0487238,70.1174427 C80.4998969,69.3977466 80.6366353,68.4044159 81.3559169,67.8890085 C81.6312669,67.6847197 81.9721765,67.579764 82.2793697,67.579764 Z M30.913894,67.3579559 C31.1931493,67.3579559 31.4667441,67.4259263 31.7441126,67.5637553 C32.5026305,68.0489889 32.7460355,69.0156798 32.2950758,69.7746833 C31.8120396,70.5355748 30.8440801,70.7753595 30.0874491,70.292014 C29.3270443,69.8445418 29.0855262,68.8778509 29.5327121,68.1169593 C29.8440441,67.6336138 30.3610439,67.3579559 30.913894,67.3579559 Z M113.688332,67.1490768 C114.410868,67.1490768 115.063784,67.6647948 115.236892,68.389435 C115.408117,69.2495924 114.892558,70.1097498 114.032666,70.3149077 C113.170892,70.4880685 112.310999,69.9723505 112.105904,69.1121931 C111.934678,68.2520357 112.482225,67.3918783 113.308249,67.182956 C113.445606,67.182956 113.550975,67.1490768 113.688332,67.1490768 Z M120.262653,66.048 C121.086795,66.048 121.775462,66.6314766 121.845081,67.4596369 C121.946688,68.3197943 121.327641,69.1121931 120.467748,69.213831 L120.433879,69.213831 C119.573987,69.317351 118.77995,68.6623515 118.680225,67.8021941 C118.608724,66.9401545 119.227772,66.1496379 120.087664,66.048 L120.262653,66.048 Z M15.976659,66.0424864 C16.2156659,66.0424864 16.4923116,66.1100126 16.7350823,66.2488164 C17.4897417,66.6596007 17.8002623,67.6199731 17.3881167,68.3758913 C16.9759711,69.1636968 16.012416,69.4394287 15.2182358,69.0267687 C14.4616945,68.6141087 14.1530557,67.655612 14.5652014,66.8996938 C14.8418471,66.3501057 15.3894927,66.0424864 15.976659,66.0424864 Z M66.0508244,64.4428195 C66.4666786,64.4428195 66.8825328,64.6168766 67.1925332,64.9271523 C67.8144243,65.5514877 67.8144243,66.5523161 67.1925332,67.1747595 C66.5725324,67.7990949 65.5310066,67.7990949 64.9110058,67.1747595 C64.2891147,66.5523161 64.2891147,65.5514877 64.9110058,64.9271523 C65.2210062,64.6168766 65.6349702,64.4428195 66.0508244,64.4428195 Z M87.8294515,63.7751202 C88.3464352,63.7751202 88.8596726,64.0506289 89.1687389,64.5304263 C89.6126706,65.2838583 89.4066264,66.2434532 88.6536284,66.7232506 C87.9006305,67.1693123 86.9415883,66.9631493 86.4620672,66.2097174 C86.0162625,65.4544113 86.2541499,64.4966906 86.9734315,64.0150189 C87.2487815,63.8444659 87.5222584,63.7751202 87.8294515,63.7751202 Z M49.5823545,62.2540677 C49.9250916,62.2540677 50.2996676,62.359061 50.574981,62.5990457 C51.2604552,63.1483856 51.3653365,64.1420722 50.8165826,64.8264035 C50.2678287,65.5144845 49.2396174,65.6157281 48.587855,65.068263 C47.9023808,64.5189231 47.8012453,63.4896138 48.3499992,62.8390303 C48.6571516,62.4284316 49.1028971,62.2540677 49.5823545,62.2540677 Z M34.6045931,61.6597656 C34.9178119,61.6597656 35.2291439,61.7617213 35.5046255,61.9354236 C36.2310668,62.4527543 36.4027711,63.4194453 35.9216217,64.1803369 C35.4008482,64.8713699 34.4008121,65.0771693 33.7102212,64.5598386 C32.9837799,64.0764931 32.779999,63.0758169 33.2951119,62.3507987 C33.6083307,61.9014384 34.0894801,61.6597656 34.6045931,61.6597656 Z M93.6548834,60.5196195 C94.2374266,60.5196195 94.7862535,60.828864 95.0597303,61.4117429 C95.4718188,62.1989106 95.1627525,63.1247697 94.3741651,63.5370957 C93.5874508,63.9119374 92.6284086,63.602693 92.2500365,62.8155253 C91.8379481,62.0283576 92.1826039,61.0687627 92.967445,60.6920467 C93.1772355,60.587091 93.4151229,60.5196195 93.6548834,60.5196195 Z M19.3152269,60.1752111 C19.5899907,60.1752111 19.8685183,60.2783761 20.1432821,60.4153042 C20.8659484,60.8617273 21.1425941,61.8558628 20.6570526,62.611781 C20.211032,63.3320603 19.245595,63.6059165 18.4890537,63.1257303 C17.7325124,62.6793071 17.4897417,61.7208104 17.9376442,60.9648923 C18.2481649,60.450943 18.7656994,60.1752111 19.3152269,60.1752111 Z M71.0316238,59.8397653 C71.4796122,59.8397653 71.9294908,60.0478771 72.2394913,60.3940994 C72.8273579,61.0865441 72.7215041,62.0911564 72.0674788,62.6435986 C71.3756486,63.2300954 70.3719278,63.1619861 69.8180856,62.4695414 C69.2321092,61.8130434 69.3020483,60.810323 69.990098,60.2200423 C70.2679642,59.9778759 70.649794,59.8397653 71.0316238,59.8397653 Z M99.7875085,57.8113878 C100.401895,57.8113878 101.021901,58.189978 101.259788,58.8384542 C101.570728,59.6612319 101.158639,60.5533553 100.336335,60.8625997 C99.5458748,61.2055799 98.6224221,60.793254 98.2815126,59.9723505 C97.9705732,59.1476987 98.3826616,58.2574495 99.2049653,57.9144693 C99.4091364,57.8451236 99.5833374,57.8113878 99.7875085,57.8113878 Z M54.0004791,57.1787667 C54.378801,57.1787667 54.753377,57.3175078 55.0642752,57.5912404 C55.7122917,58.2099509 55.7478765,59.2017625 55.1654107,59.8560958 C54.5492331,60.4710565 53.5566065,60.5085541 52.906717,59.9235915 C52.2886665,59.3067558 52.2530818,58.3130693 52.8374205,57.6943588 C53.1445728,57.3531306 53.5884455,57.1787667 54.0004791,57.1787667 Z M38.608511,56.2032482 C38.9556933,56.2032482 39.3330654,56.3070919 39.6104339,56.5487647 C40.3010248,57.0660954 40.406689,58.0667716 39.8859155,58.7936779 C39.3330654,59.4828229 38.3330293,59.5885547 37.6462121,59.0353507 C36.9537343,58.5180199 36.8159935,57.4795824 37.3688436,56.8244227 C37.6782888,56.4090476 38.161325,56.2032482 38.608511,56.2032482 Z M106.124305,55.686035 C106.80987,55.686035 107.463592,56.1320967 107.632174,56.8517929 C107.873807,57.6726964 107.39054,58.5648197 106.53452,58.8047185 L106.571983,58.8047185 C105.715963,59.0464914 104.82248,58.5648197 104.584592,57.7083063 C104.344832,56.8836544 104.859942,55.9952795 105.6785,55.7553808 C105.852701,55.7197708 105.989439,55.686035 106.124305,55.686035 Z M76.3545578,55.6529348 C76.8384609,55.6529348 77.3204737,55.8610466 77.6304742,56.3094328 C78.1521822,57.0378241 77.9801697,58.0405444 77.2883395,58.558932 C76.5624849,59.0792114 75.5568738,58.9051543 75.0389463,58.178655 C74.522909,57.4881023 74.6930312,56.48349 75.3867516,55.9651024 C75.696752,55.7569907 76.0086427,55.6529348 76.3545578,55.6529348 Z M22.9624335,54.5161415 C23.2710722,54.5161415 23.5834749,54.5836676 23.8601206,54.7899977 C24.5846688,55.2701839 24.7879187,56.2643194 24.2703843,56.9845987 C23.7904887,57.7048781 22.7930586,57.9112081 22.0685103,57.3972588 C21.345844,56.9151968 21.1425941,55.9210613 21.6544827,55.200782 C21.9650034,54.7562346 22.4486629,54.5161415 22.9624335,54.5161415 Z M112.633429,54.177297 C113.3883,54.177297 114.038276,54.6927044 114.210604,55.4461363 C114.347342,56.3026497 113.798515,57.1591631 112.908779,57.2959804 L112.942495,57.2959804 C112.084602,57.4684076 111.228582,56.8836544 111.091843,56.027141 C110.921389,55.1706276 111.470215,54.3497242 112.359952,54.177297 L112.633429,54.177297 Z M120.820877,54.6927044 C120.925772,55.5492178 120.275796,56.3363855 119.419776,56.4076054 C118.526293,56.4750769 117.773295,55.8584622 117.670273,54.9663389 C117.602841,54.1098254 118.250943,53.3189093 119.106963,53.253312 C119.964857,53.1839663 120.753444,53.800581 120.820877,54.6927044 Z M58.7650867,52.412821 C59.1733746,52.412821 59.5835354,52.5853099 59.9281453,52.9302879 C60.5087382,53.5789965 60.4768993,54.5745579 59.823264,55.1576457 C59.1733746,55.7726065 58.1770022,55.7407335 57.5964093,55.0882752 C57.0139436,54.4358168 57.0139436,53.4421302 57.6675788,52.8252946 C57.9747312,52.5515621 58.353053,52.412821 58.7650867,52.412821 Z M81.9515776,51.8804358 C82.50731,51.8804358 83.0271278,52.1585488 83.3371282,52.6447736 C83.7870069,53.4034357 83.5469456,54.3739933 82.8173104,54.8564342 C82.0574314,55.3067125 81.0556007,55.064546 80.6057221,54.3039921 C80.1577337,53.5774928 80.3618803,52.5728805 81.1274301,52.1226023 C81.4015158,51.9504371 81.6793821,51.8804358 81.9515776,51.8804358 Z M42.9596112,50.9884035 C43.3369833,50.9884035 43.7181291,51.1281205 44.0294611,51.4037785 C44.6860885,51.9569825 44.7521286,52.991644 44.1672019,53.6486917 C43.5803883,54.3038514 42.5803522,54.3718219 41.9218379,53.7865207 C41.2350207,53.1993315 41.1991704,52.1967672 41.7840971,51.5416075 C42.097316,51.1602177 42.5445019,50.9884035 42.9596112,50.9884035 Z M26.9239247,49.0258873 C27.2664384,49.0258873 27.5750771,49.1290523 27.8874798,49.3710212 C28.5743892,49.8830948 28.711771,50.879106 28.1622435,51.5637465 L28.1980004,51.5993853 C27.646591,52.2859016 26.647279,52.4209539 25.9584876,51.8732415 C25.2339394,51.3592922 25.1323144,50.3651567 25.6479669,49.6448774 C25.9584876,49.2659804 26.4421471,49.0258873 26.9239247,49.0258873 Z M87.868049,48.5582151 C88.4559156,48.5582151 89.0059773,48.8703828 89.2819533,49.4247169 C89.6978075,50.2193255 89.3878071,51.1879912 88.5939036,51.6042147 C87.8321343,51.9844917 86.8662183,51.674216 86.4503641,50.8777154 C86.0345099,50.1171615 86.3464006,49.1484958 87.1384138,48.7322722 C87.3822556,48.6282163 87.6242072,48.5582151 87.868049,48.5582151 Z M63.8331008,47.9918532 C64.2769734,47.9918532 64.7227189,48.1943403 65.0298713,48.574941 C65.5786252,49.2592723 65.4774897,50.2529588 64.8257274,50.8022988 C64.1402532,51.3516387 63.1457537,51.2466454 62.5988727,50.5979368 C62.0519916,49.9098557 62.1512543,48.9161692 62.8048895,48.3668293 L62.8386013,48.3668293 C63.1120419,48.1268446 63.454779,47.9918532 63.8331008,47.9918532 Z M47.6182697,46.0492167 C48.033379,46.0492167 48.4466014,46.1870457 48.7560466,46.498577 C49.3768236,47.1216395 49.3768236,48.156301 48.7560466,48.7774755 C48.1371563,49.400538 47.0974962,49.400538 46.478606,48.7774755 C45.8578289,48.156301 45.8578289,47.1216395 46.478606,46.498577 C46.7880511,46.1870457 47.2031604,46.0492167 47.6182697,46.0492167 Z M94.0189109,45.7222191 C94.6445825,45.7222191 95.2324491,46.1024961 95.5084251,46.6908849 C95.8184255,47.5214401 95.438486,48.4560511 94.6445825,48.8003815 C93.8147643,49.1484958 92.8790923,48.7682188 92.5350675,47.9357717 C92.2231768,47.1392712 92.6012261,46.1724974 93.3989101,45.8603297 C93.6030567,45.7562738 93.8147643,45.7222191 94.0189109,45.7222191 Z M69.1764283,43.9083639 C69.6558857,43.9083639 70.1690549,44.1502234 70.479953,44.5945701 C70.9912494,45.3145241 70.7871054,46.3082107 70.0679194,46.7900549 L70.1016312,46.7900549 C69.3824452,47.305647 68.3898186,47.133158 67.8729036,46.4113291 C67.3616073,45.7269978 67.5320394,44.7333112 68.2512255,44.2177191 C68.5265389,44.0133572 68.8655302,43.9083639 69.1764283,43.9083639 Z M31.1545338,43.7757263 C31.5346864,43.7757263 31.879082,43.9126544 32.1914847,44.1546232 C32.8765121,44.7379745 32.946144,45.73211 32.3627415,46.3848631 C31.8113321,47.0713794 30.81202,47.1389056 30.1232287,46.5555543 C29.4701943,46.0078419 29.3666874,45.0118307 29.9519718,44.3253144 C30.2606106,43.9820563 30.7085131,43.7757263 31.1545338,43.7757263 Z M100.37959,43.3686641 C101.039286,43.3686641 101.659287,43.8170504 101.903129,44.4754404 C102.179105,45.3400502 101.698982,46.2424986 100.867274,46.4827731 C100.037456,46.7589942 99.1376983,46.3106079 98.8617223,45.4781608 C98.5838561,44.613551 99.0318445,43.7167784 99.8975774,43.4386654 C100.037456,43.4027188 100.207578,43.3686641 100.37959,43.3686641 Z M106.916062,41.5334967 C107.609783,41.5334967 108.263808,42.0197214 108.435821,42.7821673 C108.645638,43.6467772 108.12582,44.4754404 107.261978,44.6835522 C106.398135,44.891664 105.532402,44.3713845 105.328255,43.5067747 C105.116548,42.6421648 105.67039,41.777555 106.534233,41.6034979 C106.640086,41.5694432 106.778074,41.5334967 106.916062,41.5334967 Z M52.5524098,41.387576 C52.9995957,41.387576 53.4524423,41.5612783 53.7618874,41.938892 C54.348701,42.5959397 54.2770003,43.596616 53.6222597,44.1856933 C52.9675191,44.7728825 51.9655962,44.703024 51.3787826,44.0497524 C50.791969,43.3908165 50.8259325,42.3920284 51.5165234,41.801063 C51.7938919,41.5272931 52.1750377,41.387576 52.5524098,41.387576 Z M113.520584,40.2186086 C114.314487,40.2186086 114.972293,40.8088893 115.110281,41.5694432 C115.250159,42.4340531 114.662292,43.2646083 113.760645,43.4027188 L113.79845,43.4027188 C112.894912,43.5408293 112.102899,42.9524406 111.964911,42.0878307 C111.826923,41.1891663 112.414789,40.3945577 113.278632,40.2564471 C113.382596,40.2186086 113.448754,40.2186086 113.520584,40.2186086 Z M74.7931964,40.2392231 C75.3419503,40.2392231 75.8551195,40.5167054 76.1622719,40.9966748 C76.6098903,41.7503766 76.3701616,42.7103154 75.6172637,43.1565369 C74.862493,43.6365062 73.9054511,43.3946467 73.4597056,42.6409448 C72.9783754,41.885368 73.2199769,40.9254293 73.9710019,40.4792078 L73.9710019,40.4473348 C74.2126035,40.3085937 74.5197559,40.2392231 74.7931964,40.2392231 Z M120.259312,39.424 C121.08913,39.424 121.782851,40.0804981 121.8509,40.9110532 C121.920839,41.8116097 121.263033,42.5721636 120.3973,42.6421648 C119.501323,42.7121661 118.739554,42.055668 118.669615,41.1532197 C118.601566,40.2886098 119.257482,39.4921093 120.121324,39.424 L120.259312,39.424 Z M35.6994274,38.7675341 C36.07958,38.7675341 36.4559687,38.9044622 36.7683714,39.1801942 C37.4214058,39.7973085 37.4552808,40.791444 36.8342394,41.4441971 C36.2508369,42.0613115 35.2176499,42.0969503 34.5966085,41.4779602 C33.9435741,40.894609 33.9435741,39.9004735 34.5307405,39.2477203 C34.8393792,38.9044622 35.2534068,38.7675341 35.6994274,38.7675341 Z M57.7658053,37.0374666 C58.2488416,37.0374666 58.6960275,37.2451541 59.0054726,37.6605291 C59.5583227,38.3496741 59.4526585,39.3503503 58.7620676,39.9035543 C58.0752504,40.4567583 57.0374771,40.3189293 56.5223642,39.6278963 C55.9695141,38.9387514 56.0732914,37.934299 56.7638824,37.3829831 L56.7978459,37.3829831 C57.0752144,37.1413104 57.418623,37.0374666 57.7658053,37.0374666 Z M80.651566,36.9131855 C81.2340318,36.9131855 81.7827857,37.2244156 82.0562263,37.7700058 C82.4682599,38.5612052 82.1573618,39.5192691 81.4044639,39.9317427 C80.6178542,40.3423415 79.6589395,40.0011133 79.2469058,39.2455366 C78.836745,38.4580868 79.1438974,37.4962732 79.93238,37.0875493 C80.1739816,36.982556 80.4099645,36.9131855 80.651566,36.9131855 Z M86.7140796,34.0333693 C87.3321301,34.0333693 87.9145959,34.3764724 88.1880364,34.993308 C88.5289006,35.7826326 88.1505788,36.7088235 87.3639691,37.0875493 C86.5436475,37.4287775 85.6203175,37.0500517 85.2738347,36.262602 C84.9329704,35.4414044 85.3131651,34.5133387 86.097902,34.1702356 C86.3057917,34.068992 86.5080628,34.0333693 86.7140796,34.0333693 Z M40.4833279,33.9656719 C40.8973555,33.9656719 41.3095011,34.1363631 41.6181399,34.4796213 C42.2410632,35.0967356 42.2034243,36.1265099 41.5861468,36.7098612 C40.9331124,37.3269755 39.9356824,37.2932124 39.312759,36.6404592 C38.7274746,36.0233449 38.7274746,35.0292094 39.3842729,34.4102193 C39.6929116,34.1363631 40.0730642,33.9656719 40.4833279,33.9656719 Z M63.2150583,33.0309856 C63.7339449,33.0309856 64.2169812,33.2745464 64.5302001,33.6880334 C65.045313,34.4130516 64.8717218,35.4137278 64.1490542,35.9329466 C63.4244998,36.4181802 62.4244638,36.2425898 61.9036903,35.5175716 C61.420654,34.7925534 61.5942452,33.7918771 62.3187996,33.3066436 C62.5942812,33.1008441 62.9037263,33.0309856 63.2150583,33.0309856 Z M92.9807372,31.5641519 C93.6343724,31.5641519 94.25055,31.9766256 94.4902787,32.6272091 C94.7655921,33.4502815 94.3535584,34.3427245 93.5294911,34.6520798 C92.7091695,34.9258123 91.7858395,34.5133387 91.5105261,33.6902662 C91.2015009,32.8690686 91.6135345,31.9410029 92.4713137,31.6672704 C92.6417458,31.5997747 92.8121779,31.5641519 92.9807372,31.5641519 Z M99.3878607,29.5092831 C100.073335,29.5092831 100.72697,29.9873776 100.931114,30.6735838 C101.170843,31.5304041 100.655801,32.3872244 99.8336062,32.6272091 C98.9776999,32.8690686 98.1217936,32.3872244 97.8839378,31.5304041 C97.6423363,30.7073316 98.1217936,29.8167635 98.9776999,29.5767788 C99.1144202,29.5411561 99.2511405,29.5092831 99.3878607,29.5092831 Z M45.5081172,29.4695533 C45.9579017,29.4695533 46.4039223,29.643996 46.748318,30.0191415 C47.2997275,30.7056577 47.2300955,31.701669 46.5431861,32.2493814 C45.8882698,32.8327326 44.8908397,32.7633307 44.3036733,32.0786902 C43.7202708,31.425937 43.8237777,30.4318015 44.4768121,29.8484503 C44.7854509,29.5745941 45.1637215,29.4695533 45.5081172,29.4695533 Z M68.9454536,29.337924 C69.4643402,29.337924 69.9775662,29.5777086 70.2926719,30.0969274 C70.7417447,30.8540428 70.4983397,31.8226219 69.737935,32.2719821 C69.0152674,32.7553276 68.0133445,32.5136549 67.5661586,31.7546514 C67.1189726,30.9956479 67.356717,29.9911956 68.1190087,29.5437234 C68.3586399,29.4058944 68.6360084,29.337924 68.9454536,29.337924 Z M105.929832,27.9306339 C106.650891,27.9306339 107.336365,28.4443511 107.474958,29.198053 C107.643517,30.0567482 107.096636,30.9135685 106.238857,31.0841826 C105.382951,31.2547967 104.560756,30.7073316 104.388451,29.8505113 C104.18618,28.993691 104.734934,28.1349959 105.622679,27.9625069 C105.727561,27.9625069 105.828696,27.9306339 105.929832,27.9306339 Z M112.542972,26.7982062 C113.331455,26.7982062 114.016929,27.381294 114.118064,28.1706186 C114.254785,29.0611867 113.638607,29.8505113 112.782701,29.9536298 C111.893083,30.090496 111.102727,29.4717855 111.001592,28.6149652 C110.864871,27.7243971 111.481049,26.9350725 112.336955,26.831954 C112.404379,26.7982062 112.475548,26.7982062 112.542972,26.7982062 Z M119.255375,26.112 C120.07757,26.112 120.763044,26.7644583 120.830467,27.5875308 C120.867925,28.4780989 120.21429,29.2318008 119.358384,29.3011714 C118.470638,29.3349192 117.715867,28.6843358 117.646571,27.8256406 C117.612859,26.9350725 118.260876,26.1794957 119.116782,26.112 L119.255375,26.112 Z M74.8456662,25.9866027 C75.3985164,25.9866027 75.9494796,26.298134 76.2626984,26.851338 C76.6419574,27.6103414 76.3645889,28.5770324 75.5702207,28.9905194 C74.8117027,29.4058944 73.8437433,29.0962512 73.4305209,28.3334716 C73.0191853,27.5404829 73.3286304,26.57568 74.0871483,26.160305 C74.3305533,26.0564612 74.5682977,25.9866027 74.8456662,25.9866027 Z M50.8076702,25.2510424 C51.2932117,25.2510424 51.7392323,25.4554967 52.047871,25.8681567 C52.5992805,26.554673 52.4618986,27.5488085 51.7731073,28.0983966 C51.0504409,28.6123459 50.0530109,28.4754178 49.5373583,27.7907773 C49.0198239,27.070498 49.1590877,26.0763625 49.847879,25.5605374 C50.1226428,25.3542074 50.4670384,25.2510424 50.8076702,25.2510424 Z M80.9553204,23.0166712 C81.542134,23.0166712 82.1289476,23.3621877 82.4044293,23.949377 C82.7497247,24.7423657 82.4044293,25.6750714 81.6081742,26.0564612 C80.7836161,26.4359629 79.8515071,26.0564612 79.4703612,25.2596964 C79.1250658,24.4327224 79.4703612,23.5000167 80.298693,23.1545002 C80.5081345,23.0506564 80.7138023,23.0166712 80.9553204,23.0166712 Z M56.284126,21.3063877 C56.7997785,21.3063877 57.315431,21.5464808 57.6259517,21.9929039 C58.1058473,22.7131832 57.9345904,23.7073187 57.1780491,24.187505 C56.4553828,24.6695669 55.4918277,24.497 54.9724113,23.7767207 C54.4925157,23.0564413 54.6637726,22.0623058 55.3883208,21.5802439 C55.6630846,21.3757896 55.9717233,21.3063877 56.284126,21.3063877 Z M87.2008286,20.3922562 C87.857456,20.3922562 88.4782331,20.8076313 88.7216381,21.4288057 C89.0310832,22.2576677 88.6159739,23.1903735 87.7876422,23.5000167 C86.9611973,23.811548 86.0272014,23.398061 85.7177562,22.569199 C85.4083111,21.740337 85.8215336,20.8076313 86.6479785,20.4961 C86.8234565,20.4262415 87.0291243,20.3922562 87.2008286,20.3922562 Z M93.6218147,18.1813282 C94.3124057,18.1813282 94.9312959,18.6306885 95.1747009,19.3217215 C95.4143322,20.1486954 94.9671463,21.049304 94.1029642,21.2909767 C93.2727456,21.5666347 92.3783737,21.0832892 92.1010052,20.2544272 C91.8613739,19.4255652 92.3085599,18.5287328 93.1708551,18.2511867 C93.3123696,18.2172015 93.4821871,18.1813282 93.6218147,18.1813282 Z M61.9958246,17.6355891 C62.5472341,17.6355891 63.0647686,17.9094453 63.3734073,18.4233946 C63.8213099,19.1793128 63.5785391,20.1415609 62.8219978,20.5861083 C62.0673385,21.0306557 61.1019014,20.7905626 60.6558808,20.0365202 C60.2060963,19.3162409 60.448867,18.3202296 61.2072903,17.8738065 C61.448179,17.704991 61.7229428,17.6355891 61.9958246,17.6355891 Z M100.174881,16.3536781 C100.867359,16.3536781 101.523986,16.8351355 101.729654,17.596027 C101.939096,18.423001 101.420209,19.2858482 100.556027,19.4954238 C99.6937317,19.7370965 98.8295496,19.1838925 98.6257687,18.3531424 C98.4182141,17.4902952 98.9352138,16.627448 99.7975091,16.4216485 C99.9031732,16.3857752 100.040914,16.3536781 100.174881,16.3536781 Z M106.805309,14.9376268 C107.56194,14.9376268 108.21668,15.4908308 108.392158,16.2479462 C108.529899,17.1107935 107.941199,17.9755288 107.078904,18.1133578 C106.216608,18.28706 105.390163,17.6998708 105.252423,16.8351355 C105.078832,15.9704002 105.665645,15.1434263 106.529827,14.969724 C106.629831,14.969724 106.699645,14.9376268 106.805309,14.9376268 Z M67.918301,14.306173 C68.4697104,14.306173 69.017356,14.6137923 69.3297586,15.1652561 C69.7400223,15.9211743 69.4313836,16.879671 68.6409673,17.292331 C67.882544,17.704991 66.9208709,17.4292591 66.5068433,16.6395779 C66.0928157,15.8855354 66.4014545,14.925163 67.1598777,14.5143787 C67.4007665,14.3755749 67.6435372,14.306173 67.918301,14.306173 Z M113.498003,13.9331745 C114.294258,13.9331745 114.981075,14.5222518 115.086739,15.3511138 C115.18863,16.213961 114.56974,17.0088378 113.707444,17.1107935 C112.807412,17.2165253 112.016817,16.5953508 111.945117,15.7306155 C111.805489,14.8337831 112.464003,14.0370182 113.326299,13.9331745 L113.498003,13.9331745 Z M120.156733,13.312 L120.156733,13.3478733 C121.058653,13.2799028 121.815284,13.9331745 121.851134,14.8337831 C121.920948,15.6966303 121.230357,16.4556338 120.368062,16.5236042 C119.469916,16.5594775 118.709512,15.9024297 118.675548,15.0055973 C118.607621,14.1427501 119.294438,13.3818585 120.156733,13.312 Z M73.9762772,11.3218906 C74.5935547,11.3218906 75.1449642,11.6651488 75.419728,12.2147369 C75.8017625,13.0363055 75.4554849,13.9647906 74.6650686,14.3418118 C73.8388954,14.718833 72.9092153,14.3755749 72.5309446,13.5540063 C72.150792,12.764325 72.5309446,11.8377157 73.319479,11.4606945 C73.5302566,11.3575295 73.7692635,11.3218906 73.9762772,11.3218906 Z M80.2036284,8.64710336 C80.8246698,8.64710336 81.4457112,9.02412457 81.6884819,9.64123889 C82.0291137,10.4628075 81.6150861,11.3575295 80.7889129,11.7007876 C80.0003785,12.0084069 79.0688165,11.6313857 78.7244208,10.8079413 C78.4157821,9.98449701 78.7959347,9.05788767 79.6202259,8.74839264 C79.8272397,8.67899073 80.0342535,8.64710336 80.2036284,8.64710336 Z M86.5740074,6.31182274 C87.2270418,6.31182274 87.8819581,6.72448277 88.08709,7.37723591 C88.3618537,8.20068024 87.9158331,9.12728958 87.0896599,9.40302151 C86.2653686,9.67500198 85.3676815,9.22857886 85.0590428,8.40701025 C84.7823971,7.58169019 85.2284177,6.65695658 86.0903479,6.38310038 C86.2296117,6.31182274 86.4027505,6.31182274 86.5740074,6.31182274 Z M93.0780043,4.32355168 C93.7667956,4.32355168 94.387837,4.7699748 94.5948508,5.49025413 C94.8338576,6.34746156 94.3182051,7.20654471 93.4920318,7.44476209 C92.6319836,7.68673093 91.7719354,7.16903016 91.5291647,6.31182274 C91.2901579,5.49025413 91.8039285,4.6330467 92.6319836,4.39107787 C92.7693655,4.35731477 92.9406224,4.32355168 93.0780043,4.32355168 Z M99.61964,2.71230184 C100.376181,2.71230184 101.03298,3.19248805 101.204237,3.94653047 C101.373611,4.8037379 100.822202,5.66282105 99.9621538,5.83538797 C99.1021056,6.00420344 98.2759323,5.49025413 98.0708005,4.6330467 C97.8995436,3.77583928 98.4509531,2.91863185 99.3110013,2.7441892 C99.4107443,2.71230184 99.5161331,2.71230184 99.61964,2.71230184 Z M106.296776,1.44243438 C107.055199,1.44243438 107.740226,1.99202251 107.845615,2.78170375 C107.982997,3.63891118 107.399595,4.46047978 106.537665,4.59740788 C105.677616,4.73621171 104.849561,4.15286049 104.712179,3.29377733 C104.574797,2.40280681 105.160082,1.6150013 106.02013,1.47619747 L106.02013,1.44243438 L106.296776,1.44243438 Z M113.007786,0.549588131 C113.801967,0.549588131 114.486994,1.13481508 114.592383,1.95638369 C114.662015,2.81359112 114.040973,3.60327236 113.180925,3.70643736 C112.28512,3.77583928 111.494704,3.15684923 111.425072,2.29964181 C111.321565,1.40679556 111.942606,0.652753139 112.83653,0.549588131 L113.007786,0.549588131 Z M119.754554,0 C120.580727,0 121.303394,0.652753139 121.339151,1.47619747 C121.408782,2.36904372 120.719991,3.12308614 119.824186,3.15684923 C118.964138,3.22625115 118.205715,2.54161064 118.17184,1.64688867 C118.10409,0.78968124 118.789117,0.0356388208 119.649165,0 L119.754554,0 Z M1.52064903,124.928 C1.12332981,124.928 0.727816578,125.095177 0.462335097,125.395006 C0.297989418,125.527657 0.198659612,125.693017 0.131837743,125.860194 C0.034313933,126.06008 0,126.258148 0,126.458034 C0,126.857805 0.166151675,127.255759 0.462335097,127.553771 C0.859654321,127.988068 1.55315697,128.118902 2.11301587,127.886308 C2.31348148,127.788182 2.47782716,127.688239 2.6114709,127.553771 C2.90765432,127.255759 3.072,126.857805 3.072,126.458034 C3.072,126.06008 2.90765432,125.660308 2.6114709,125.395006 C2.31348148,125.095177 1.94867019,124.928 1.52064903,124.928 M126.463087,13.312 C126.265954,13.312 126.065169,13.3448605 125.864385,13.4124071 C125.665426,13.4781281 125.495672,13.6113956 125.36425,13.7446632 C125.061248,14.0458844 124.928,14.4456871 124.928,14.8473154 C124.928,15.0481295 124.964506,15.2489437 125.028392,15.4497578 C125.097754,15.6158859 125.231002,15.7838395 125.36425,15.948142 C125.495672,16.0832352 125.665426,16.1818167 125.864385,16.2840493 C126.231273,16.4173169 126.665697,16.4173169 127.032585,16.2840493 C127.233369,16.1818167 127.399472,16.0832352 127.53272,15.948142 C127.698824,15.7838395 127.799216,15.6158859 127.868578,15.4497578 C127.965319,15.2489437 128,15.0481295 128,14.8473154 C128,14.4146522 127.832071,14.0458844 127.53272,13.7446632 C127.264399,13.4452676 126.864656,13.312 126.463087,13.312 M14.8317365,124.928 C14.6365741,124.928 14.4359906,124.962526 14.2697412,125.02976 C14.0709647,125.127886 13.9065224,125.227828 13.7746071,125.36048 C13.4764424,125.660308 13.312,126.06008 13.312,126.458034 C13.312,126.656102 13.3445271,126.857805 13.4439153,127.055874 C13.5107765,127.223051 13.6083576,127.388411 13.7746071,127.553771 C14.17216,127.988068 14.8660706,128.118902 15.4262588,127.886308 C15.6250353,127.820891 15.7912847,127.688239 15.9232,127.553771 C16.0569224,127.388411 16.1888376,127.223051 16.2520847,127.055874 C16.3207529,126.857805 16.384,126.656102 16.384,126.458034 C16.384,126.06008 16.2213647,125.660308 15.9232,125.36048 C15.6593694,125.095177 15.2618165,124.928 14.8317365,124.928 M126.463087,26.112 C126.265954,26.112 126.065169,26.1486096 125.864385,26.2145068 C125.665426,26.3133526 125.495672,26.4158594 125.36425,26.5494843 C125.231002,26.7160578 125.097754,26.8826313 125.028392,27.0510353 C124.964506,27.2523879 124.928,27.45191 124.928,27.6532626 C124.928,28.0559678 125.061248,28.4568425 125.36425,28.757041 C125.895415,29.3263197 126.965048,29.3263197 127.53272,28.757041 C127.832071,28.4568425 128,28.0559678 128,27.6532626 C128,27.45191 127.965319,27.2523879 127.868578,27.0510353 C127.799216,26.8826313 127.698824,26.7160578 127.53272,26.5494843 C127.264399,26.2822345 126.864656,26.112 126.463087,26.112 M27.6317365,124.928 C27.2341835,124.928 26.8727718,125.09447 26.5764141,125.39303 C26.2764424,125.65721 26.112,126.05529 26.112,126.45156 C26.112,126.64879 26.1445271,126.84964 26.2439153,127.04687 C26.3125835,127.21334 26.4083576,127.41057 26.5764141,127.542661 C26.7047153,127.67656 26.8727718,127.80865 27.0697412,127.873791 C27.4365741,128.04207 27.8648471,128.04207 28.2298729,127.873791 C28.4250353,127.80865 28.5894776,127.67656 28.7232,127.542661 C28.8876424,127.41057 28.9870306,127.21334 29.0556988,127.04687 C29.15328,126.84964 29.184,126.64879 29.184,126.45156 C29.184,126.05529 29.0213647,125.65721 28.7232,125.39303 C28.4250353,125.09447 28.0600094,124.928 27.6317365,124.928 M126.463087,39.424 C126.265954,39.424 126.065169,39.4568751 125.864385,39.5244518 C125.665426,39.6230773 125.495672,39.7235291 125.36425,39.8568561 C125.061248,40.1582117 124.928,40.5581926 124.928,40.96 C124.928,41.1609037 124.964506,41.3618074 125.028392,41.5627111 C125.097754,41.7289132 125.231002,41.8951153 125.36425,42.0631439 C125.495672,42.1982973 125.665426,42.2950963 125.864385,42.3973746 C126.231273,42.5288751 126.665697,42.5288751 127.032585,42.3973746 C127.233369,42.2950963 127.399472,42.1982973 127.53272,42.0631439 C127.698824,41.8951153 127.799216,41.7289132 127.868578,41.5627111 C127.965319,41.3618074 128,41.1609037 128,40.96 C128,40.5581926 127.832071,40.1582117 127.53272,39.8568561 C127.399472,39.7235291 127.233369,39.6230773 127.032585,39.5244518 C126.864656,39.4568751 126.665697,39.424 126.463087,39.424 M40.96,124.928 C40.5271439,124.928 40.1582117,125.09447 39.8568561,125.35865 C39.7235291,125.52512 39.5902021,125.68978 39.520799,125.85625 C39.4568751,126.05529 39.424,126.25252 39.424,126.45156 C39.424,126.84964 39.557327,127.24591 39.8568561,127.542661 C39.9920095,127.67656 40.1582117,127.80865 40.3554625,127.873791 C40.7243948,128.04207 41.1572509,128.04207 41.5280095,127.873791 C41.7270868,127.80865 41.8932889,127.67656 42.0266159,127.542661 C42.3261451,127.24591 42.496,126.84964 42.496,126.45156 C42.496,126.25252 42.4594721,126.05529 42.362673,125.85625 C42.2932699,125.68978 42.1964709,125.52512 42.0266159,125.35865 C41.7270868,125.09447 41.3618074,124.928 40.96,124.928 M126.463087,52.224 C126.265954,52.224 126.065169,52.2586861 125.864385,52.3244071 C125.665426,52.4229886 125.495672,52.5252212 125.36425,52.6566632 C125.061248,52.9578844 124.928,53.3595127 124.928,53.7593154 C124.928,53.958304 124.964506,54.1609437 125.028392,54.3617578 C125.097754,54.5278859 125.231002,54.7268745 125.36425,54.860142 C125.495672,54.9952352 125.665426,55.0938167 125.864385,55.1960493 C126.231273,55.3293169 126.665697,55.3293169 127.032585,55.1960493 C127.233369,55.0938167 127.399472,54.9952352 127.53272,54.860142 C127.698824,54.7268745 127.799216,54.5278859 127.870403,54.3617578 C127.965319,54.1609437 128,53.958304 128,53.7593154 C128,53.3595127 127.832071,52.9578844 127.53272,52.6566632 C127.264399,52.3919536 126.864656,52.224 126.463087,52.224 M53.7609127,124.928 C53.558303,124.928 53.359344,124.962526 53.160385,125.02976 C52.990631,125.127886 52.791672,125.227828 52.6584242,125.36048 C52.3572478,125.660308 52.224,126.06008 52.224,126.458034 C52.224,126.857805 52.3901034,127.255759 52.6584242,127.553771 C53.0928485,127.988068 53.7609127,128.118902 54.3285847,127.886308 C54.5257184,127.820891 54.6954724,127.688239 54.8287201,127.553771 C55.1298966,127.255759 55.296,126.857805 55.296,126.458034 C55.296,126.06008 55.1298966,125.660308 54.8287201,125.36048 C54.5603993,125.095177 54.1624813,124.928 53.7609127,124.928 M126.463087,65.536 C126.265954,65.536 126.065169,65.5704151 125.864385,65.6682264 C125.665426,65.733434 125.495672,65.8330566 125.36425,65.9996981 C125.061248,66.2641509 124.928,66.6626415 124.928,67.0611321 C124.928,67.258566 124.964506,67.4578113 125.028392,67.6552453 C125.097754,67.8544906 125.231002,68.0211321 125.36425,68.1533585 C125.495672,68.2855849 125.665426,68.4178113 125.864385,68.4830189 C126.231273,68.6496604 126.665697,68.6496604 127.032585,68.4830189 C127.233369,68.4178113 127.399472,68.2855849 127.53272,68.1533585 C127.698824,68.0211321 127.799216,67.8544906 127.870403,67.6552453 C127.965319,67.4578113 128,67.258566 128,67.0611321 C128,66.6626415 127.832071,66.2641509 127.53272,65.9996981 C127.264399,65.7008302 126.864656,65.536 126.463087,65.536 M67.0710873,124.928 C66.8739537,124.928 66.6695187,124.962526 66.472385,125.02976 C66.3044563,125.127886 66.1347023,125.227828 65.9685989,125.36048 C65.8353512,125.527657 65.7021034,125.693017 65.6363922,125.860194 C65.5688556,126.06008 65.536,126.258148 65.536,126.458034 C65.536,126.656102 65.5688556,126.857805 65.6363922,127.055874 C65.7021034,127.223051 65.8353512,127.388411 65.9685989,127.553771 C66.4030232,127.988068 67.0710873,128.118902 67.671615,127.886308 C67.841369,127.788182 68.0074724,127.688239 68.1735758,127.553771 C68.3068235,127.388411 68.4072157,127.223051 68.5057825,127.055874 C68.5733191,126.857805 68.608,126.656102 68.608,126.458034 C68.608,126.258148 68.5733191,126.06008 68.5057825,125.860194 C68.4072157,125.693017 68.3068235,125.527657 68.1735758,125.36048 C67.8723993,125.095177 67.472656,124.928 67.0710873,124.928 M126.463087,78.336 C126.265954,78.336 126.065169,78.368599 125.864385,78.4682069 C125.665426,78.5334049 125.495672,78.6330128 125.36425,78.7996298 C125.231002,78.9318367 125.097754,79.0984536 125.028392,79.2958585 C124.964506,79.4606644 124.928,79.6598803 124.928,79.8590962 C124.928,80.0909111 124.964506,80.2575281 125.028392,80.456744 C125.097754,80.6541489 125.231002,80.8189548 125.36425,80.9529727 C125.495672,81.0869907 125.665426,81.2173866 125.864385,81.2843956 C126.231273,81.4492015 126.665697,81.4492015 127.032585,81.2843956 C127.233369,81.2173866 127.399472,81.0869907 127.53272,80.9529727 C127.698824,80.8189548 127.799216,80.6541489 127.870403,80.456744 C127.965319,80.288316 128,80.0909111 128,79.8590962 C128,79.6598803 127.965319,79.4606644 127.870403,79.2958585 C127.799216,79.0984536 127.698824,78.9318367 127.53272,78.7996298 C127.264399,78.5008059 126.864656,78.336 126.463087,78.336 M79.8729127,124.928 C79.471344,124.928 79.0716007,125.094543 78.7704242,125.393235 C78.5039287,125.657532 78.336,126.055788 78.336,126.452233 C78.336,126.649551 78.3706809,126.850489 78.4382175,127.047807 C78.5404349,127.21435 78.6371765,127.411668 78.7704242,127.543816 C78.9401783,127.677775 79.1062816,127.777339 79.272385,127.875093 C79.6739537,128.041636 80.1065526,128.041636 80.4752656,127.875093 C80.6431943,127.777339 80.8092977,127.677775 80.9754011,127.543816 C81.1086488,127.411668 81.209041,127.21435 81.3094332,127.047807 C81.3751444,126.850489 81.408,126.649551 81.408,126.452233 C81.408,126.055788 81.2418966,125.657532 80.9754011,125.393235 C80.8092977,125.226692 80.6431943,125.127128 80.4752656,125.029374 C80.2744813,124.962395 80.073697,124.928 79.8729127,124.928 M126.463087,91.648 C126.265954,91.648 126.065169,91.7149399 125.864385,91.7800707 C125.665426,91.8470106 125.495672,91.9808905 125.36425,92.1129611 C125.061248,92.4096678 124.928,92.7751237 124.928,93.2039011 C124.928,93.4047208 124.964506,93.6019223 125.028392,93.7665583 C125.097754,93.9655689 125.231002,94.1302049 125.36425,94.2622756 C125.495672,94.3961555 125.665426,94.5282261 125.864385,94.5951661 C126.231273,94.7616113 126.665697,94.7616113 127.032585,94.5951661 C127.233369,94.5282261 127.399472,94.3961555 127.53272,94.2622756 C127.698824,94.1302049 127.799216,93.9655689 127.870403,93.7665583 C127.965319,93.6019223 128,93.4047208 128,93.2039011 C128,92.7751237 127.832071,92.4096678 127.53272,92.1129611 C127.264399,91.8162544 126.864656,91.648 126.463087,91.648 M93.1849127,124.928 C92.7851693,124.928 92.385426,125.095177 92.0842496,125.36048 C91.817754,125.660308 91.648,126.06008 91.648,126.458034 C91.648,126.857805 91.817754,127.255759 92.0842496,127.553771 C92.5186738,127.988068 93.2214189,128.118902 93.7872656,127.886308 C93.953369,127.820891 94.152328,127.688239 94.2874011,127.553771 C94.5538966,127.255759 94.72,126.857805 94.72,126.458034 C94.72,126.06008 94.5538966,125.660308 94.2874011,125.36048 C93.9843993,125.095177 93.584656,124.928 93.1849127,124.928 M126.463087,104.448 C126.265954,104.448 126.065169,104.48461 125.864385,104.550507 C125.665426,104.616404 125.495672,104.750029 125.36425,104.883654 C125.231002,105.017279 125.097754,105.185683 125.028392,105.387035 C124.964506,105.553609 124.928,105.754961 124.928,105.989263 C124.928,106.188785 124.964506,106.391968 125.028392,106.558541 C125.097754,106.759894 125.231002,106.926467 125.36425,107.061923 C125.495672,107.195548 125.665426,107.329173 125.864385,107.39507 C126.231273,107.561643 126.665697,107.561643 127.032585,107.39507 C127.233369,107.329173 127.399472,107.195548 127.53272,107.061923 C127.698824,106.926467 127.799216,106.759894 127.870403,106.558541 C127.965319,106.391968 128,106.188785 128,105.989263 C128,105.553609 127.832071,105.185683 127.53272,104.883654 C127.264399,104.581625 126.864656,104.448 126.463087,104.448 M105.984913,124.928 C105.583344,124.928 105.183601,125.095177 104.882424,125.395006 C104.749176,125.527657 104.648784,125.693017 104.546567,125.860194 C104.482681,126.06008 104.448,126.258148 104.448,126.458034 C104.448,126.857805 104.615929,127.255759 104.882424,127.553771 C105.316848,127.988068 106.017768,128.118902 106.58544,127.886308 C106.782574,127.820891 106.952328,127.688239 107.087401,127.553771 C107.220649,127.421119 107.31739,127.255759 107.419608,127.055874 C107.483494,126.857805 107.52,126.656102 107.52,126.458034 C107.52,126.06008 107.350246,125.660308 107.087401,125.395006 C106.782574,125.095177 106.417512,124.928 105.984913,124.928 M126.463087,117.76 C126.265954,117.76 126.065169,117.825198 125.864385,117.892207 C125.665426,117.957405 125.495672,118.091423 125.36425,118.22363 C125.061248,118.520643 124.928,118.886475 124.928,119.315695 C124.928,119.516722 124.964506,119.714127 125.028392,119.878933 C125.097754,120.078149 125.231002,120.242955 125.36425,120.375162 C125.495672,120.54359 125.665426,120.641387 125.864385,120.708396 C126.231273,120.873201 126.665697,120.873201 127.032585,120.708396 C127.233369,120.641387 127.399472,120.54359 127.53272,120.375162 C127.698824,120.242955 127.799216,120.078149 127.870403,119.878933 C127.965319,119.714127 128,119.516722 128,119.315695 C128,118.886475 127.832071,118.520643 127.53272,118.22363 C127.264399,117.926617 126.864656,117.76 126.463087,117.76 M119.281544,124.928 C119.08096,124.928 118.883991,124.962526 118.717741,125.02976 C118.518965,125.127886 118.354522,125.227828 118.222607,125.36048 C118.056358,125.527657 117.958776,125.693017 117.891915,125.860194 C117.792527,126.06008 117.76,126.258148 117.76,126.458034 C117.76,126.656102 117.792527,126.857805 117.891915,127.055874 C117.958776,127.255759 118.056358,127.421119 118.222607,127.553771 C118.65088,127.988068 119.314071,128.118902 119.874259,127.886308 C120.074842,127.820891 120.239285,127.688239 120.373007,127.553771 C120.669365,127.255759 120.832,126.857805 120.832,126.458034 C120.832,126.06008 120.669365,125.660308 120.373007,125.36048 C120.074842,125.095177 119.709816,124.928 119.281544,124.928" id="radial-circle" transform="translate(64, 64) scale(-1, 1) translate(-64, -64)"></path>
                    </g>
                </g>
            </g>
        </g>
    </g>
</svg>