<svg width="128" height="128" viewBox="0 0 128 128" fill="none" xmlns="http://www.w3.org/2000/svg">
<path fill-rule="evenodd" clip-rule="evenodd" d="M1.53691 0C1.73405 0 1.93483 0.0651979 2.13562 0.132207C2.33458 0.197405 2.50433 0.331423 2.63575 0.46363C2.769 0.595837 2.90224 0.762454 2.9716 0.959859C3.03549 1.16089 3.072 1.35829 3.072 1.5557C3.072 1.75672 3.03549 1.95413 2.9716 2.12074C2.90224 2.31815 2.769 2.48477 2.63575 2.61516C2.50433 2.78178 2.33458 2.8832 2.13562 2.9484C1.76873 3.1132 1.33431 3.1132 0.967418 2.9484C0.766633 2.8832 0.600531 2.78178 0.467283 2.61516C0.30118 2.48477 0.200781 2.31815 0.131419 2.12074C0.0346776 1.95413 -1.90735e-06 1.75672 -1.90735e-06 1.5557C-1.90735e-06 1.35829 0.0346776 1.16089 0.131419 0.959859C0.200781 0.762454 0.30118 0.595837 0.467283 0.46363C0.735604 0.166617 1.13534 0 1.53691 0ZM7.16999 120.32C6.77373 120.32 6.37566 120.489 6.07711 120.786C5.48363 121.384 5.48363 122.346 6.07711 122.943C6.6724 123.542 7.66758 123.542 8.26288 122.943C8.85636 122.346 8.85636 121.384 8.23031 120.786H8.26288C7.96613 120.489 7.56806 120.32 7.16999 120.32ZM86.8418 118.665C85.978 118.734 85.3183 119.496 85.3901 120.395C85.4563 121.261 86.2181 121.918 87.0819 121.851C87.9817 121.78 88.6376 121.019 88.5714 120.154C88.4996 119.288 87.8059 118.665 86.9798 118.665H86.8418ZM74.0517 118.691C73.1957 118.794 72.542 119.548 72.6131 120.44C72.7162 121.296 73.4692 121.947 74.3252 121.846C75.2168 121.776 75.8668 121.021 75.7656 120.133C75.6982 119.308 75.0107 118.691 74.1884 118.691H74.0517ZM60.394 118.647C60.3244 118.647 60.2566 118.647 60.187 118.685C59.3271 118.753 58.6742 119.545 58.7758 120.437C58.8774 121.298 59.6715 121.919 60.5314 121.851C61.427 121.747 62.0442 120.955 61.9407 120.095C61.8729 119.269 61.1843 118.647 60.394 118.647ZM46.8421 118.682C45.9527 118.819 45.3685 119.644 45.4696 120.501H45.5071C45.6063 121.357 46.4302 121.974 47.2878 121.837C48.1435 121.734 48.7576 120.909 48.6209 120.053C48.5198 119.265 47.8345 118.682 47.0462 118.682H46.8421ZM34.2195 118.697C34.1136 118.697 34.0134 118.73 33.9094 118.73C33.0435 118.899 32.4896 119.716 32.6635 120.566C32.8356 121.418 33.6656 121.994 34.5296 121.827C35.3936 121.654 35.9835 120.838 35.8095 119.954C35.6375 119.204 34.9777 118.697 34.2195 118.697ZM20.9576 118.66C20.7855 118.66 20.6116 118.694 20.4414 118.73C19.6094 119.006 19.1612 119.939 19.4373 120.77C19.7153 121.601 20.6116 122.051 21.4436 121.775C22.2737 121.532 22.7238 120.596 22.4458 119.767C22.2378 119.108 21.6157 118.66 20.9576 118.66ZM112.994 118.674C112.1 118.708 111.441 119.467 111.511 120.331H111.475C111.547 121.228 112.304 121.919 113.168 121.851C114.064 121.782 114.721 121.023 114.687 120.158C114.617 119.295 113.924 118.674 113.1 118.674H112.994ZM126.341 117.64C125.447 117.709 124.792 118.462 124.828 119.321C124.896 120.213 125.619 120.866 126.512 120.831C127.374 120.763 128.063 120.043 127.995 119.15C127.962 118.293 127.273 117.64 126.413 117.64H126.341ZM100.203 117.672C99.3134 117.739 98.6635 118.493 98.7309 119.352C98.7646 120.242 99.5194 120.895 100.411 120.827C101.299 120.792 101.952 120.004 101.883 119.145C101.816 118.322 101.128 117.672 100.306 117.672H100.203ZM18.0191 112.947C17.6749 112.947 17.361 113.053 17.0868 113.259C16.3569 113.779 16.2227 114.782 16.7389 115.473C17.2589 116.202 18.2611 116.376 18.9494 115.821C19.6793 115.303 19.8533 114.334 19.2993 113.607C18.9891 113.191 18.5013 112.947 18.0191 112.947ZM32.3175 112.47C32.1096 112.47 31.9016 112.536 31.6936 112.607C30.8996 112.948 30.4836 113.865 30.8296 114.648C31.1775 115.464 32.1096 115.838 32.9396 115.498C33.7355 115.191 34.1136 114.272 33.7714 113.457C33.5275 112.845 32.9396 112.47 32.3175 112.47ZM45.6437 112.205C45.5071 112.205 45.3685 112.238 45.1962 112.272C44.3761 112.546 43.8949 113.404 44.1364 114.261C44.3761 115.084 45.2674 115.563 46.0894 115.324C46.9451 115.084 47.4226 114.191 47.1829 113.369C46.9788 112.649 46.3272 112.205 45.6437 112.205ZM59.2575 112.075C59.1202 112.075 59.0167 112.075 58.8774 112.107C58.0514 112.316 57.5001 113.142 57.709 114.002C57.8802 114.862 58.7401 115.412 59.6018 115.205C60.4617 115 60.9811 114.174 60.8042 113.313C60.633 112.555 59.9801 112.075 59.2575 112.075ZM72.9896 112.075C72.1336 112.248 71.553 113.069 71.7234 113.925C71.8602 114.784 72.7162 115.366 73.5741 115.196C74.4301 115.059 74.9789 114.234 74.8422 113.342C74.7036 112.589 74.018 112.075 73.265 112.075H72.9896ZM85.9402 111.953C85.0423 112.091 84.4544 112.923 84.5924 113.788C84.7323 114.653 85.5621 115.273 86.426 115.101C87.2898 114.997 87.8796 114.168 87.7397 113.266C87.6357 112.507 86.942 111.953 86.184 111.953H85.9402ZM112.272 111.905C111.409 112.009 110.783 112.802 110.888 113.667V113.701C110.994 114.563 111.787 115.183 112.649 115.083C113.547 114.979 114.168 114.182 114.064 113.285C113.962 112.492 113.272 111.905 112.477 111.905H112.272ZM99.3827 110.984C98.5268 111.121 97.9087 111.91 98.0454 112.767C98.1484 113.66 98.9706 114.243 99.8284 114.138C100.684 114.003 101.299 113.211 101.197 112.355C101.059 111.565 100.377 110.984 99.6205 110.984H99.3827ZM125.861 110.916C125.826 110.916 125.756 110.916 125.688 110.951C124.828 111.019 124.207 111.808 124.277 112.666C124.382 113.558 125.172 114.174 126.033 114.072C126.926 114.005 127.549 113.215 127.444 112.358C127.374 111.533 126.687 110.916 125.861 110.916ZM13.4902 108.415C12.9683 108.415 12.488 108.621 12.1723 109.073C11.656 109.764 11.8281 110.767 12.5202 111.287C13.2463 111.808 14.2485 111.669 14.7666 110.941C15.2866 110.25 15.1146 109.243 14.4225 108.727C14.1105 108.519 13.8004 108.415 13.4902 108.415ZM29.2056 106.754C28.8955 106.754 28.5836 106.858 28.3056 107.027C27.5796 107.503 27.3717 108.491 27.8576 109.203C28.3737 109.918 29.3436 110.124 30.0696 109.646C30.8296 109.17 31.0055 108.184 30.5177 107.468C30.2076 106.994 29.7236 106.754 29.2056 106.754ZM43.3463 106.032C43.1085 106.032 42.9025 106.068 42.6647 106.169C41.8745 106.512 41.5356 107.472 41.9082 108.259C42.2527 109.048 43.2133 109.393 43.9997 109.048C44.788 108.671 45.1307 107.745 44.788 106.958C44.5128 106.375 43.9323 106.032 43.3463 106.032ZM57.4004 105.636C57.2254 105.636 57.0542 105.67 56.8829 105.739C56.055 106.014 55.6091 106.912 55.8857 107.735C56.1943 108.563 57.0899 109.011 57.9141 108.734C58.7401 108.423 59.1879 107.529 58.8774 106.703C58.6742 106.05 58.0514 105.636 57.4004 105.636ZM71.7553 105.562C71.6185 105.562 71.4481 105.562 71.3113 105.596C70.4553 105.838 69.9739 106.726 70.2137 107.551C70.4553 108.408 71.345 108.889 72.1673 108.647C73.0252 108.408 73.5029 107.551 73.265 106.695C73.0571 106.007 72.4427 105.562 71.7553 105.562ZM7.74931 105.472C7.08937 105.472 6.43321 105.922 6.22521 106.579C5.94913 107.412 6.39728 108.346 7.26145 108.621C8.09158 108.899 8.99167 108.415 9.26775 107.582C9.54572 106.717 9.09567 105.82 8.2315 105.576C8.09157 105.508 7.9195 105.472 7.74931 105.472ZM84.8703 105.308C84.7323 105.308 84.5924 105.308 84.4885 105.344C83.6246 105.551 83.1067 106.415 83.3146 107.248C83.5226 108.112 84.3883 108.667 85.2143 108.457C86.0782 108.25 86.632 107.386 86.392 106.519C86.218 105.793 85.5962 105.308 84.8703 105.308ZM111.441 105.17C111.373 105.17 111.27 105.204 111.166 105.204C110.304 105.378 109.717 106.207 109.888 107.07C110.06 107.934 110.888 108.52 111.751 108.346C112.615 108.208 113.168 107.345 113.028 106.483C112.89 105.724 112.2 105.17 111.441 105.17ZM98.4575 104.332C98.3526 104.332 98.2514 104.366 98.1484 104.366C97.2925 104.572 96.7438 105.393 96.9142 106.252C97.0884 107.109 97.9443 107.658 98.8002 107.486C99.6561 107.317 100.203 106.458 100.033 105.601C99.8621 104.846 99.2085 104.332 98.4575 104.332ZM124.965 104.227C124.862 104.227 124.792 104.227 124.691 104.26C123.831 104.397 123.245 105.221 123.385 106.078C123.522 106.935 124.344 107.519 125.204 107.382C126.102 107.245 126.687 106.423 126.512 105.564C126.413 104.776 125.724 104.227 124.965 104.227ZM24.9857 101.756C24.5698 101.756 24.1898 101.89 23.8778 102.197C23.2577 102.809 23.2577 103.795 23.8778 104.442C24.5036 105.054 25.5075 105.054 26.1295 104.442C26.7497 103.795 26.7497 102.809 26.1295 102.197C25.8176 101.89 25.4016 101.756 24.9857 101.756ZM40.1631 100.207C39.856 100.207 39.5808 100.274 39.3055 100.445C38.5547 100.925 38.3468 101.92 38.8281 102.638C39.3055 103.393 40.2998 103.597 41.0188 103.118C41.7715 102.638 41.9794 101.678 41.5 100.925C41.1892 100.479 40.678 100.207 40.1631 100.207ZM54.8188 99.4379C54.5761 99.4379 54.3729 99.5076 54.1302 99.613C53.3361 99.9894 53.0275 100.955 53.4076 101.747C53.7839 102.538 54.7492 102.847 55.5414 102.468C56.2978 102.09 56.6402 101.16 56.2639 100.368V100.336C55.9873 99.7842 55.404 99.4379 54.8188 99.4379ZM69.6311 99.2202C69.427 99.2202 69.2209 99.2558 69.0505 99.3232C68.2263 99.6325 67.8161 100.556 68.127 101.346C68.4679 102.168 69.3895 102.579 70.1799 102.271C71.0041 101.964 71.4162 101.038 71.1053 100.215C70.8674 99.5969 70.2474 99.2202 69.6311 99.2202ZM83.0027 98.768C82.8648 98.768 82.6908 98.804 82.5207 98.838C81.689 99.1142 81.207 100.017 81.4849 100.881C81.7571 101.71 82.6587 102.158 83.5226 101.884C84.3486 101.606 84.8023 100.707 84.5263 99.8767C84.3165 99.2202 83.6965 98.768 83.0027 98.768ZM110.026 98.5413C109.888 98.5413 109.787 98.5753 109.649 98.6093C108.787 98.8151 108.266 99.6798 108.473 100.509V100.543C108.681 101.372 109.543 101.925 110.405 101.683C111.27 101.477 111.787 100.613 111.579 99.7497V99.7836C111.409 99.0567 110.751 98.5413 110.026 98.5413ZM96.8805 97.8168C96.7438 97.8168 96.6052 97.8168 96.4366 97.8843C95.6126 98.0905 95.135 98.9811 95.3391 99.806C95.5807 100.663 96.4685 101.145 97.2925 100.903C98.1484 100.695 98.6279 99.806 98.39 98.9811C98.2159 98.2611 97.566 97.8168 96.8805 97.8168ZM123.693 97.6054C123.588 97.6054 123.451 97.6054 123.347 97.6391C122.485 97.8454 121.937 98.6689 122.143 99.5261C122.314 100.383 123.174 100.933 124.034 100.725C124.896 100.556 125.413 99.6987 125.242 98.8415C125.067 98.1193 124.414 97.6054 123.693 97.6054ZM19.9056 97.6028C19.3838 97.6028 18.8639 97.8762 18.5538 98.317C18.0717 99.0331 18.2759 100.019 19.0019 100.495C19.7298 100.973 20.7318 100.802 21.2177 100.054C21.7017 99.34 21.5278 98.3858 20.7696 97.8762C20.5257 97.7069 20.2157 97.6028 19.9056 97.6028ZM36.1898 94.9248C35.8153 94.9248 35.4371 95.0279 35.1618 95.3015C34.4765 95.8844 34.411 96.8779 34.9933 97.5301C35.5737 98.1805 36.568 98.2499 37.2196 97.7026C37.9012 97.1178 37.9723 96.1244 37.3919 95.4721V95.4402C37.0829 95.0972 36.6335 94.9248 36.1898 94.9248ZM14.0598 94.5431C13.4378 94.5431 12.8498 94.917 12.6059 95.5289C12.2637 96.312 12.6418 97.2289 13.4699 97.5712C14.2678 97.9097 15.1998 97.5358 15.5439 96.7212C15.8937 95.9381 15.5099 95.0193 14.6799 94.6789C14.4757 94.5747 14.2678 94.5431 14.0598 94.5431ZM51.5825 93.5881C51.3077 93.5881 50.9973 93.6897 50.7207 93.8271C50 94.309 49.7592 95.3103 50.2409 96.0312C50.7207 96.7897 51.6859 96.9948 52.4424 96.5488C53.1988 96.065 53.4076 95.0694 52.9222 94.3447C52.6136 93.8629 52.0999 93.5881 51.5825 93.5881ZM66.8907 93.084C66.6847 93.084 66.415 93.1533 66.2052 93.2564C65.4185 93.6331 65.1075 94.5927 65.4859 95.3799C65.8661 96.1689 66.8214 96.4782 67.61 96.0677C68.3967 95.691 68.7077 94.7296 68.3312 93.9761C68.0577 93.3932 67.4733 93.084 66.8907 93.084ZM7.76402 92.672C7.00399 92.672 6.34984 93.1816 6.17401 93.9293C6.00196 94.7793 6.58995 95.5959 7.41993 95.767H7.45395C8.31797 95.9381 9.14796 95.3931 9.3219 94.5431C9.49394 93.6931 8.90596 92.8747 8.07976 92.7036C7.94174 92.672 7.83587 92.672 7.76402 92.672ZM80.6872 92.4376C80.4812 92.4376 80.2713 92.4698 80.0653 92.5398C79.2355 92.886 78.8536 93.8206 79.2015 94.6171C79.5455 95.4477 80.4812 95.8299 81.2732 95.4817C82.1049 95.1696 82.4829 94.235 82.137 93.4044C81.8969 92.782 81.3072 92.4376 80.6872 92.4376ZM108.196 92.0124C108.06 92.0124 107.885 92.0482 107.747 92.0822C106.885 92.3579 106.437 93.2566 106.681 94.0855C106.956 94.9143 107.853 95.3977 108.681 95.122C109.543 94.8784 109.994 93.9835 109.717 93.1188C109.511 92.4636 108.888 92.0124 108.196 92.0124ZM94.8259 91.4028C94.6555 91.4028 94.4832 91.4385 94.3128 91.4722C93.4887 91.7797 93.043 92.6721 93.352 93.4933V93.529C93.6629 94.352 94.5525 94.7626 95.3747 94.4889C96.195 94.1814 96.6052 93.2908 96.3317 92.4678C96.0939 91.8153 95.4758 91.4028 94.8259 91.4028ZM122.039 91.0516C121.902 91.0516 121.762 91.0853 121.625 91.121C120.765 91.3611 120.283 92.2183 120.526 93.0755C120.765 93.9008 121.625 94.4147 122.485 94.1746C123.313 93.9327 123.831 93.0755 123.588 92.2183C123.385 91.498 122.728 91.0516 122.039 91.0516ZM31.4974 90.2276C31.0537 90.2276 30.6417 90.3982 30.3009 90.7768C29.7523 91.4291 29.8216 92.4225 30.4695 93.0054C31.1229 93.5883 32.149 93.519 32.6977 92.833C33.28 92.1807 33.2088 91.1873 32.561 90.6062C32.2539 90.3663 31.8738 90.2276 31.4974 90.2276ZM47.6932 88.1486C47.3507 88.1486 47.0064 88.2502 46.7279 88.493C46.0411 89.0426 45.9075 90.0421 46.4551 90.7291C47.0064 91.4179 48.0036 91.5215 48.6923 90.97C49.381 90.4204 49.5202 89.4228 48.9332 88.7321C48.6208 88.3537 48.1749 88.1486 47.6932 88.1486ZM63.6371 87.259C63.3618 87.259 63.0546 87.3264 62.8148 87.497C62.0599 87.943 61.8183 88.9364 62.3016 89.6561C62.7474 90.4114 63.7401 90.6494 64.4931 90.1696C65.2124 89.7254 65.454 88.7321 65.0082 87.9768C64.701 87.497 64.1841 87.259 63.6371 87.259ZM77.8159 86.2775C77.574 86.2775 77.3339 86.3116 77.0919 86.4497C76.3302 86.8319 76.0202 87.8005 76.3982 88.5951C76.8141 89.3897 77.7838 89.7038 78.5436 89.2876C79.3394 88.8732 79.6494 87.9386 79.2355 87.1421H79.2695C78.9595 86.5878 78.4057 86.2775 77.8159 86.2775ZM26.2228 86.2502C25.7116 86.2502 25.1967 86.5257 24.8896 86.9718C24.4102 87.7253 24.6162 88.685 25.3671 89.1667C26.0898 89.6465 27.0803 89.4385 27.5616 88.685C28.0409 87.9652 27.8031 86.9718 27.0803 86.492C26.8088 86.3195 26.4961 86.2502 26.2228 86.2502ZM105.988 85.591C105.818 85.591 105.607 85.625 105.435 85.693C104.611 86.0045 104.196 86.9372 104.505 87.7661C104.815 88.595 105.747 89.0103 106.575 88.6988C107.371 88.3873 107.786 87.4564 107.473 86.6257C107.234 86.0045 106.645 85.591 105.988 85.591ZM92.3575 85.1632C92.1534 85.1632 91.9492 85.197 91.7432 85.2645C90.9191 85.6432 90.5801 86.5694 90.9191 87.3568C91.2637 88.1818 92.2208 88.523 93.0093 88.1818C93.7996 87.8368 94.1761 86.9106 93.8333 86.0876C93.558 85.5063 92.9774 85.1632 92.3575 85.1632ZM120.08 84.6028C119.905 84.6028 119.732 84.6366 119.561 84.6722C118.7 84.9798 118.254 85.8708 118.531 86.6961H118.563C118.84 87.5177 119.732 87.966 120.56 87.6903C121.386 87.4164 121.832 86.5236 121.557 85.6663C121.35 85.0117 120.731 84.6028 120.08 84.6028ZM43.2545 83.157C42.8405 83.157 42.4266 83.3283 42.118 83.637C41.5008 84.2581 41.5008 85.2576 42.118 85.8749C42.737 86.496 43.7719 86.496 44.3891 85.8749C45.0081 85.2576 45.0081 84.2581 44.3891 83.637L44.3571 83.605C44.0466 83.3283 43.6666 83.157 43.2545 83.157ZM20.4032 83.0638C19.8227 83.0638 19.2385 83.4068 18.967 83.9897C18.6206 84.7788 18.967 85.7385 19.7516 86.1134C20.5418 86.4582 21.4967 86.1134 21.8412 85.3261C22.2157 84.537 21.8768 83.5773 21.0866 83.2343C20.8488 83.1331 20.641 83.0638 20.4032 83.0638ZM59.8684 81.7375C59.5256 81.7375 59.1828 81.8425 58.9093 82.0468C58.19 82.5622 58.0533 83.5555 58.6021 84.2752C59.1135 84.9612 60.1063 85.0961 60.8255 84.5826C61.5111 84.0353 61.6497 83.042 61.1365 82.3542C60.7937 81.9437 60.3479 81.7375 59.8684 81.7375ZM14.2035 80.7658C13.5182 80.7658 12.9041 81.2138 12.6981 81.8979C12.4565 82.7545 12.9359 83.6111 13.7598 83.8529C14.6155 84.1246 15.4712 83.6467 15.7446 82.7901C15.9861 81.9335 15.503 81.0769 14.6473 80.8351C14.5106 80.7658 14.3402 80.7658 14.2035 80.7658ZM74.5325 80.3596C74.2225 80.3596 73.9447 80.4296 73.6668 80.6018C72.941 81.052 72.7009 82.0548 73.1527 82.8172C73.6007 83.5437 74.6025 83.7859 75.3624 83.3356C76.1222 82.8513 76.3302 81.8826 75.8822 81.122C75.5684 80.6358 75.0505 80.3596 74.5325 80.3596ZM103.4 79.3396C103.194 79.3396 102.952 79.3755 102.747 79.4775C101.952 79.857 101.571 80.7897 101.952 81.5827C102.294 82.3775 103.262 82.7608 104.058 82.3775C104.851 82.0339 105.198 81.0672 104.851 80.2723C104.573 79.6852 104.02 79.3396 103.4 79.3396ZM7.73237 79.36C6.97965 79.36 6.29246 79.9073 6.15577 80.6964C6.05279 81.5905 6.63511 82.3777 7.52452 82.5146C8.3821 82.6177 9.16853 82.0347 9.30709 81.1763C9.44378 80.2878 8.82962 79.4987 7.97391 79.36H7.73237ZM89.4826 79.0942C89.2448 79.0942 88.9695 79.1261 88.7616 79.2649C87.9768 79.6755 87.6678 80.6354 88.0761 81.3891C88.4862 82.1784 89.447 82.4859 90.1999 82.0772C90.9884 81.6647 91.2974 80.7029 90.8873 79.9154C90.612 79.4017 90.0632 79.0942 89.4826 79.0942ZM38.2626 78.6812C37.7828 78.6812 37.3368 78.8883 37.0264 79.3023C36.4751 79.9893 36.5767 80.9869 37.2653 81.5384C37.954 82.0898 38.9513 81.9524 39.5026 81.2636C40.0539 80.5728 39.9523 79.5771 39.2617 79.0595C38.9513 78.8186 38.6107 78.6812 38.2626 78.6812ZM117.703 78.2891C117.53 78.2891 117.323 78.3247 117.118 78.3923C116.325 78.7374 115.915 79.6265 116.224 80.4518H116.258C116.566 81.2734 117.498 81.6504 118.32 81.3428C119.115 80.9995 119.529 80.0729 119.18 79.2851H119.218C118.943 78.668 118.358 78.2891 117.703 78.2891ZM55.5864 76.5947C55.208 76.5947 54.7959 76.7315 54.5225 77.007C53.8744 77.5899 53.8369 78.5851 54.4213 79.2355C55.0057 79.8858 55.9985 79.9196 56.6485 79.3386C57.2984 78.7557 57.334 77.7286 56.7496 77.0764V77.1101C56.4424 76.769 55.9985 76.5947 55.5864 76.5947ZM32.7928 74.8246C32.2753 74.8246 31.7598 75.0674 31.4512 75.5493C30.9676 76.3059 31.2085 77.3035 31.9667 77.7514C32.6874 78.2332 33.6865 77.9905 34.1325 77.2696C34.6179 76.5129 34.4072 75.5493 33.6527 75.0674C33.378 74.8943 33.1014 74.8246 32.7928 74.8246ZM70.7653 74.7538C70.4194 74.7538 70.1094 74.8219 69.7956 75.0319C69.1056 75.5503 68.9299 76.553 69.4516 77.2795C69.9714 78.006 70.9732 78.1441 71.6991 77.6277C72.3871 77.1074 72.5629 76.1046 72.045 75.4122C71.735 74.9619 71.2473 74.7538 70.7653 74.7538ZM100.432 73.2619C100.16 73.2619 99.9164 73.2959 99.673 73.4338C98.9145 73.851 98.6031 74.8158 99.0183 75.5767C99.4334 76.3716 100.398 76.6812 101.16 76.2659C101.952 75.8524 102.262 74.8857 101.847 74.0908C101.537 73.5716 100.984 73.2619 100.432 73.2619ZM86.1938 73.2296C85.8848 73.2296 85.6095 73.299 85.3698 73.4696C84.6169 73.914 84.379 74.8758 84.8248 75.6295C85.2705 76.385 86.2631 76.6232 87.016 76.1769C87.7352 75.697 87.9768 74.7389 87.5311 73.9814C87.2202 73.5034 86.707 73.2296 86.1938 73.2296ZM115.053 72.0805C114.812 72.0805 114.603 72.148 114.364 72.253C113.572 72.5944 113.228 73.5548 113.604 74.3445C113.984 75.1341 114.916 75.4755 115.706 75.0985C116.499 74.7571 116.877 73.7949 116.499 73.0052C116.224 72.4237 115.639 72.0805 115.053 72.0805ZM50.8605 71.8661C50.4128 71.8661 50.0026 72.0366 49.6579 72.3796C49.0773 73.0318 49.1466 74.0252 49.7628 74.608C50.4128 75.1909 51.4412 75.1553 52.0237 74.505C52.6063 73.8527 52.5725 72.8594 51.9188 72.2765C51.6116 72.0029 51.2332 71.8661 50.8605 71.8661ZM26.941 71.5891C26.3558 71.5891 25.7725 71.8978 25.5298 72.4851C25.1196 73.2775 25.4639 74.2073 26.2504 74.5856C27.0445 74.962 28.0097 74.6533 28.3861 73.8609C28.7661 73.0704 28.4237 72.1049 27.6296 71.7265C27.4264 71.6249 27.1837 71.5891 26.941 71.5891ZM66.5463 69.4262C66.1644 69.4262 65.8223 69.5283 65.5123 69.8064C64.8526 70.3948 64.7467 71.3994 65.3346 72.054C65.8903 72.7465 66.9262 72.8165 67.584 72.2281C68.2418 71.6757 68.3439 70.6729 67.756 69.9805C67.446 69.5983 66.9961 69.4262 66.5463 69.4262ZM20.7486 69.0068C20.0957 69.0068 19.5087 69.4209 19.2697 70.074C18.9592 70.9021 19.407 71.8319 20.2293 72.1049C21.0572 72.3815 21.9867 71.9675 22.2614 71.1431C22.5719 70.3149 22.1241 69.3851 21.2981 69.1122H21.2642C21.1268 69.0444 20.9199 69.0068 20.7486 69.0068ZM82.493 67.605C82.1859 67.605 81.845 67.71 81.5697 67.8787C80.8505 68.3943 80.6801 69.388 81.1914 70.1079C81.7064 70.8298 82.7009 71.0004 83.4182 70.4848C84.1056 69.9711 84.276 68.9755 83.761 68.2574C83.4875 67.845 82.9744 67.605 82.493 67.605ZM45.7206 67.5798C45.2392 67.5798 44.7597 67.7859 44.4525 68.1983C43.9037 68.8823 44.0404 69.8775 44.726 70.4267H44.7597C45.4453 70.9383 46.4399 70.8015 46.9513 70.1174C47.5001 69.3977 47.3634 68.4044 46.6441 67.889C46.3687 67.6847 46.0278 67.5798 45.7206 67.5798ZM97.0861 67.358C96.8068 67.358 96.5333 67.4259 96.2559 67.5638C95.4974 68.049 95.254 69.0157 95.7049 69.7747C96.188 70.5356 97.1559 70.7754 97.9126 70.292C98.673 69.8445 98.9145 68.8779 98.4673 68.117C98.156 67.6336 97.639 67.358 97.0861 67.358ZM14.3117 67.1491C13.5891 67.1491 12.9362 67.6648 12.7631 68.3894C12.5919 69.2496 13.1074 70.1097 13.9673 70.3149C14.8291 70.4881 15.689 69.9724 15.8941 69.1122C16.0653 68.252 15.5178 67.3919 14.6917 67.183C14.5544 67.183 14.449 67.1491 14.3117 67.1491ZM7.73734 66.048C6.9132 66.048 6.22454 66.6315 6.15492 67.4596C6.05331 68.3198 6.67236 69.1122 7.53225 69.2138H7.56612C8.42602 69.3174 9.22005 68.6623 9.31977 67.8022C9.39127 66.9402 8.77223 66.1496 7.91234 66.048H7.73734ZM112.023 66.0425C111.784 66.0425 111.508 66.11 111.265 66.2488C110.51 66.6596 110.2 67.62 110.612 68.3759C111.024 69.1637 111.988 69.4394 112.782 69.0268C113.538 68.6141 113.847 67.6556 113.435 66.8997C113.158 66.3501 112.611 66.0425 112.023 66.0425ZM61.9492 64.4428C61.5333 64.4428 61.1175 64.6169 60.8075 64.9272C60.1856 65.5515 60.1856 66.5523 60.8075 67.1748C61.4275 67.7991 62.469 67.7991 63.089 67.1748C63.7109 66.5523 63.7109 65.5515 63.089 64.9272C62.779 64.6169 62.365 64.4428 61.9492 64.4428ZM40.1705 63.7751C39.6536 63.7751 39.1403 64.0506 38.8313 64.5304C38.3873 65.2839 38.5934 66.2435 39.3464 66.7232C40.0994 67.1693 41.0584 66.9631 41.5379 66.2097C41.9837 65.4544 41.7458 64.4967 41.0266 64.015C40.7512 63.8445 40.4777 63.7751 40.1705 63.7751ZM78.4176 62.2541C78.0749 62.2541 77.7003 62.3591 77.425 62.599C76.7395 63.1484 76.6347 64.1421 77.1834 64.8264C77.7322 65.5145 78.7604 65.6157 79.4121 65.0683C80.0976 64.5189 80.1988 63.4896 79.65 62.839C79.3428 62.4284 78.8971 62.2541 78.4176 62.2541ZM93.3954 61.6598C93.0822 61.6598 92.7709 61.7617 92.4954 61.9354C91.7689 62.4528 91.5972 63.4194 92.0784 64.1803C92.5992 64.8714 93.5992 65.0772 94.2898 64.5598C95.0162 64.0765 95.22 63.0758 94.7049 62.3508C94.3917 61.9014 93.9105 61.6598 93.3954 61.6598ZM34.3451 60.5196C33.7626 60.5196 33.2137 60.8289 32.9403 61.4117C32.5282 62.1989 32.8372 63.1248 33.6258 63.5371C34.4125 63.9119 35.3716 63.6027 35.75 62.8155C36.1621 62.0284 35.8174 61.0688 35.0326 60.692C34.8228 60.5871 34.5849 60.5196 34.3451 60.5196ZM108.685 60.1752C108.41 60.1752 108.131 60.2784 107.857 60.4153C107.134 60.8617 106.857 61.8559 107.343 62.6118C107.789 63.3321 108.754 63.6059 109.511 63.1257C110.267 62.6793 110.51 61.7208 110.062 60.9649C109.752 60.4509 109.234 60.1752 108.685 60.1752ZM56.9684 59.8398C56.5204 59.8398 56.0705 60.0479 55.7605 60.3941C55.1726 61.0865 55.2785 62.0912 55.9325 62.6436C56.6243 63.2301 57.6281 63.162 58.1819 62.4695C58.7679 61.813 58.6979 60.8103 58.0099 60.22C57.732 59.9779 57.3502 59.8398 56.9684 59.8398ZM28.2125 57.8114C27.5981 57.8114 26.9781 58.19 26.7402 58.8385C26.4293 59.6612 26.8414 60.5534 27.6637 60.8626C28.4541 61.2056 29.3776 60.7933 29.7185 59.9724C30.0294 59.1477 29.6173 58.2575 28.795 57.9145C28.5909 57.8451 28.4167 57.8114 28.2125 57.8114ZM73.9995 57.1788C73.6212 57.1788 73.2466 57.3175 72.9357 57.5912C72.2877 58.21 72.2521 59.2018 72.8346 59.8561C73.4508 60.4711 74.4434 60.5086 75.0933 59.9236C75.7113 59.3068 75.7469 58.3131 75.1626 57.6944C74.8554 57.3531 74.4116 57.1788 73.9995 57.1788ZM89.3915 56.2032C89.0443 56.2032 88.6669 56.3071 88.3896 56.5488C87.699 57.0661 87.5933 58.0668 88.1141 58.7937C88.6669 59.4828 89.667 59.5886 90.3538 59.0354C91.0463 58.518 91.184 57.4796 90.6312 56.8244C90.3217 56.409 89.8387 56.2032 89.3915 56.2032ZM21.8757 55.686C21.1901 55.686 20.5364 56.1321 20.3678 56.8518C20.1262 57.6727 20.6095 58.5648 21.4655 58.8047H21.428C22.284 59.0465 23.1775 58.5648 23.4154 57.7083C23.6552 56.8837 23.1401 55.9953 22.3215 55.7554C22.1473 55.7198 22.0106 55.686 21.8757 55.686ZM51.6454 55.6529C51.1615 55.6529 50.6795 55.861 50.3695 56.3094C49.8478 57.0378 50.0198 58.0405 50.7117 58.5589C51.4375 59.0792 52.4431 58.9052 52.9611 58.1787C53.4771 57.4881 53.307 56.4835 52.6132 55.9651C52.3032 55.757 51.9914 55.6529 51.6454 55.6529ZM105.038 54.5161C104.729 54.5161 104.417 54.5837 104.14 54.79C103.415 55.2702 103.212 56.2643 103.73 56.9846C104.21 57.7049 105.207 57.9112 105.931 57.3973C106.654 56.9152 106.857 55.9211 106.346 55.2008C106.035 54.7562 105.551 54.5161 105.038 54.5161ZM15.3666 54.1773C14.6117 54.1773 13.9617 54.6927 13.7894 55.4461C13.6527 56.3027 14.2015 57.1592 15.0912 57.296H15.0575C15.9154 57.4684 16.7714 56.8837 16.9082 56.0271C17.0786 55.1706 16.5298 54.3497 15.64 54.1773H15.3666ZM7.17912 54.6927C7.07423 55.5492 7.7242 56.3364 8.58022 56.4076C9.47371 56.4751 10.2267 55.8585 10.3297 54.9663C10.3972 54.1098 9.74906 53.3189 8.89304 53.2533C8.03515 53.184 7.24656 53.8006 7.17912 54.6927ZM69.2349 52.4128C68.8266 52.4128 68.4165 52.5853 68.0719 52.9303C67.4913 53.579 67.5231 54.5746 68.1767 55.1576C68.8266 55.7726 69.823 55.7407 70.4036 55.0883C70.9861 54.4358 70.9861 53.4421 70.3324 52.8253C70.0253 52.5516 69.6469 52.4128 69.2349 52.4128ZM46.0484 51.8804C45.4927 51.8804 44.9729 52.1586 44.6629 52.6448C44.213 53.4034 44.4531 54.374 45.1827 54.8564C45.9426 55.3067 46.9444 55.0645 47.3943 54.304C47.8423 53.5775 47.6381 52.5729 46.8726 52.1226C46.5985 51.9504 46.3206 51.8804 46.0484 51.8804ZM85.0404 50.9884C84.663 50.9884 84.2819 51.1281 83.9705 51.4038C83.3139 51.957 83.2479 52.9916 83.8328 53.6487C84.4196 54.3039 85.4196 54.3718 86.0782 53.7865C86.765 53.1993 86.8008 52.1968 86.2159 51.5416C85.9027 51.1602 85.4555 50.9884 85.0404 50.9884ZM101.076 49.0259C100.734 49.0259 100.425 49.1291 100.113 49.371C99.4256 49.8831 99.2882 50.8791 99.8378 51.5637L99.802 51.5994C100.353 52.2859 101.353 52.421 102.042 51.8732C102.766 51.3593 102.868 50.3652 102.352 49.6449C102.042 49.266 101.558 49.0259 101.076 49.0259ZM40.132 48.5582C39.5441 48.5582 38.994 48.8704 38.718 49.4247C38.3022 50.2193 38.6122 51.188 39.4061 51.6042C40.1679 51.9845 41.1338 51.6742 41.5496 50.8777C41.9655 50.1172 41.6536 49.1485 40.8616 48.7323C40.6177 48.6282 40.3758 48.5582 40.132 48.5582ZM64.1669 47.9919C63.723 47.9919 63.2773 48.1943 62.9701 48.5749C62.4214 49.2593 62.5225 50.253 63.1743 50.8023C63.8597 51.3516 64.8542 51.2466 65.4011 50.5979C65.948 49.9099 65.8487 48.9162 65.1951 48.3668H65.1614C64.888 48.1268 64.5452 47.9919 64.1669 47.9919ZM80.3817 46.0492C79.9666 46.0492 79.5534 46.187 79.244 46.4986C78.6232 47.1216 78.6232 48.1563 79.244 48.7775C79.8628 49.4005 80.9025 49.4005 81.5214 48.7775C82.1422 48.1563 82.1422 47.1216 81.5214 46.4986C81.2119 46.187 80.7968 46.0492 80.3817 46.0492ZM33.9811 45.7222C33.3554 45.7222 32.7676 46.1025 32.4916 46.6909C32.1816 47.5214 32.5615 48.4561 33.3554 48.8004C34.1852 49.1485 35.1209 48.7682 35.4649 47.9358C35.7768 47.1393 35.3988 46.1725 34.6011 45.8603C34.3969 45.7563 34.1852 45.7222 33.9811 45.7222ZM58.8236 43.9084C58.3441 43.9084 57.8309 44.1502 57.52 44.5946C57.0088 45.3145 57.2129 46.3082 57.9321 46.7901H57.8984C58.6176 47.3056 59.6102 47.1332 60.1271 46.4113C60.6384 45.727 60.468 44.7333 59.7488 44.2177C59.4735 44.0134 59.1345 43.9084 58.8236 43.9084ZM96.8455 43.7757C96.4653 43.7757 96.1209 43.9127 95.8085 44.1546C95.1235 44.738 95.0539 45.7321 95.6373 46.3849C96.1887 47.0714 97.188 47.1389 97.8768 46.5556C98.5298 46.0078 98.6333 45.0118 98.048 44.3253C97.7394 43.9821 97.2915 43.7757 96.8455 43.7757ZM27.6204 43.3687C26.9607 43.3687 26.3407 43.8171 26.0969 44.4754C25.8209 45.34 26.301 46.2425 27.1327 46.4828C27.9625 46.759 28.8623 46.3106 29.1383 45.4782C29.4161 44.6136 28.9682 43.7168 28.1024 43.4387C27.9625 43.4027 27.7924 43.3687 27.6204 43.3687ZM21.0839 41.5335C20.3902 41.5335 19.7362 42.0197 19.5642 42.7822C19.3544 43.6468 19.8742 44.4754 20.738 44.6836C21.6019 44.8917 22.4676 44.3714 22.6717 43.5068C22.8834 42.6422 22.3296 41.7776 21.4658 41.6035C21.3599 41.5694 21.2219 41.5335 21.0839 41.5335ZM75.4476 41.3876C75.0004 41.3876 74.5476 41.5613 74.2381 41.9389C73.6513 42.5959 73.723 43.5966 74.3777 44.1857C75.0325 44.7729 76.0344 44.703 76.6212 44.0498C77.208 43.3908 77.1741 42.392 76.4835 41.8011C76.2061 41.5273 75.825 41.3876 75.4476 41.3876ZM14.4794 40.2186C13.6855 40.2186 13.0277 40.8089 12.8897 41.5694C12.7498 42.4341 13.3377 43.2646 14.2394 43.4027H14.2015C15.1051 43.5408 15.8971 42.9524 16.0351 42.0878C16.1731 41.1892 15.5852 40.3946 14.7214 40.2564C14.6174 40.2186 14.5512 40.2186 14.4794 40.2186ZM53.2068 40.2392C52.6581 40.2392 52.1449 40.5167 51.8377 40.9967C51.3901 41.7504 51.6298 42.7103 52.3827 43.1565C53.1375 43.6365 54.0945 43.3946 54.5403 42.6409C55.0216 41.8854 54.78 40.9254 54.029 40.4792V40.4473C53.7874 40.3086 53.4802 40.2392 53.2068 40.2392ZM7.74068 39.424C6.91087 39.424 6.21714 40.0805 6.14909 40.9111C6.07916 41.8116 6.73696 42.5722 7.6027 42.6422C8.49867 42.7122 9.26044 42.0557 9.33038 41.1532C9.39843 40.2886 8.74252 39.4921 7.87867 39.424H7.74068ZM92.3006 38.7675C91.9204 38.7675 91.544 38.9045 91.2316 39.1802C90.5786 39.7973 90.5447 40.7914 91.1658 41.4442C91.7492 42.0613 92.7823 42.097 93.4034 41.478C94.0564 40.8946 94.0564 39.9005 93.4693 39.2477C93.1606 38.9045 92.7466 38.7675 92.3006 38.7675ZM70.2342 37.0375C69.7512 37.0375 69.304 37.2452 68.9945 37.6605C68.4417 38.3497 68.5473 39.3504 69.2379 39.9036C69.9247 40.4568 70.9625 40.3189 71.4776 39.6279C72.0305 38.9388 71.9267 37.9343 71.2361 37.383H71.2022C70.9248 37.1413 70.5814 37.0375 70.2342 37.0375ZM47.3484 36.9132C46.766 36.9132 46.2172 37.2244 45.9438 37.77C45.5317 38.5612 45.8426 39.5193 46.5955 39.9317C47.3821 40.3423 48.3411 40.0011 48.7531 39.2455C49.1633 38.4581 48.8561 37.4963 48.0676 37.0875C47.826 36.9826 47.59 36.9132 47.3484 36.9132ZM41.2859 34.0334C40.6679 34.0334 40.0854 34.3765 39.812 34.9933C39.4711 35.7826 39.8494 36.7088 40.636 37.0875C41.4563 37.4288 42.3797 37.0501 42.7262 36.2626C43.067 35.4414 42.6868 34.5133 41.9021 34.1702C41.6942 34.069 41.4919 34.0334 41.2859 34.0334ZM87.5167 33.9657C87.1026 33.9657 86.6905 34.1364 86.3819 34.4796C85.7589 35.0967 85.7966 36.1265 86.4139 36.7099C87.0669 37.327 88.0643 37.2932 88.6872 36.6405C89.2725 36.0233 89.2725 35.0292 88.6157 34.4102C88.3071 34.1364 87.9269 33.9657 87.5167 33.9657ZM64.7849 33.031C64.2661 33.031 63.783 33.2745 63.4698 33.688C62.9547 34.4131 63.1283 35.4137 63.8509 35.9329C64.5755 36.4182 65.5755 36.2426 66.0963 35.5176C66.5793 34.7926 66.4058 33.7919 65.6812 33.3066C65.4057 33.1008 65.0963 33.031 64.7849 33.031ZM35.0193 31.5642C34.3656 31.5642 33.7495 31.9766 33.5097 32.6272C33.2344 33.4503 33.6464 34.3427 34.4705 34.6521C35.2908 34.9258 36.2142 34.5133 36.4895 33.6903C36.7985 32.8691 36.3865 31.941 35.5287 31.6673C35.3583 31.5998 35.1878 31.5642 35.0193 31.5642ZM28.6121 29.5093C27.9267 29.5093 27.273 29.9874 27.0689 30.6736C26.8292 31.5304 27.3442 32.3872 28.1664 32.6272C29.0223 32.8691 29.8782 32.3872 30.1161 31.5304C30.3577 30.7073 29.8782 29.8168 29.0223 29.5768C28.8856 29.5412 28.7489 29.5093 28.6121 29.5093ZM82.4919 29.4696C82.0421 29.4696 81.5961 29.644 81.2517 30.0191C80.7003 30.7057 80.7699 31.7017 81.4568 32.2494C82.1117 32.8327 83.1092 32.7633 83.6963 32.0787C84.2797 31.4259 84.1762 30.4318 83.5232 29.8485C83.2145 29.5746 82.8363 29.4696 82.4919 29.4696ZM59.0545 29.3379C58.5357 29.3379 58.0224 29.5777 57.7073 30.0969C57.2583 30.854 57.5017 31.8226 58.2621 32.272C58.9847 32.7553 59.9867 32.5137 60.4338 31.7547C60.881 30.9956 60.6433 29.9912 59.881 29.5437C59.6414 29.4059 59.364 29.3379 59.0545 29.3379ZM22.0702 27.9306C21.3491 27.9306 20.6636 28.4444 20.525 29.1981C20.3565 30.0567 20.9034 30.9136 21.7611 31.0842C22.617 31.2548 23.4392 30.7073 23.6115 29.8505C23.8138 28.9937 23.2651 28.135 22.3773 27.9625C22.2724 27.9625 22.1713 27.9306 22.0702 27.9306ZM15.457 26.7982C14.6685 26.7982 13.9831 27.3813 13.8819 28.1706C13.7452 29.0612 14.3614 29.8505 15.2173 29.9536C16.1069 30.0905 16.8973 29.4718 16.9984 28.615C17.1351 27.7244 16.519 26.9351 15.663 26.832C15.5956 26.7982 15.5245 26.7982 15.457 26.7982ZM8.74463 26.112C7.92243 26.112 7.23695 26.7645 7.16953 27.5875C7.13207 28.4781 7.78571 29.2318 8.64161 29.3012C9.52936 29.3349 10.2841 28.6843 10.3534 27.8256C10.3871 26.9351 9.73912 26.1795 8.88321 26.112H8.74463ZM53.1543 25.9866C52.6015 25.9866 52.0505 26.2981 51.7373 26.8513C51.358 27.6103 51.6354 28.577 52.4298 28.9905C53.1883 29.4059 54.1563 29.0963 54.5695 28.3335C54.9808 27.5405 54.6714 26.5757 53.9129 26.1603C53.6694 26.0565 53.4317 25.9866 53.1543 25.9866ZM77.1923 25.251C76.7068 25.251 76.2608 25.4555 75.9521 25.8682C75.4007 26.5547 75.5381 27.5488 76.2269 28.0984C76.9496 28.6123 77.947 28.4754 78.4626 27.7908C78.9802 27.0705 78.8409 26.0764 78.1521 25.5605C77.8774 25.3542 77.533 25.251 77.1923 25.251ZM47.0447 23.0167C46.4579 23.0167 45.871 23.3622 45.5956 23.9494C45.2503 24.7424 45.5956 25.6751 46.3918 26.0565C47.2164 26.436 48.1485 26.0565 48.5296 25.2597C48.8749 24.4327 48.5296 23.5 47.7013 23.1545C47.4919 23.0507 47.2862 23.0167 47.0447 23.0167ZM71.7159 21.3064C71.2002 21.3064 70.6846 21.5465 70.374 21.9929C69.8942 22.7132 70.0654 23.7073 70.8219 24.1875C71.5446 24.6696 72.5082 24.497 73.0276 23.7767C73.5075 23.0564 73.3362 22.0623 72.6117 21.5802C72.3369 21.3758 72.0283 21.3064 71.7159 21.3064ZM40.7992 20.3923C40.1425 20.3923 39.5218 20.8076 39.2784 21.4288C38.9689 22.2577 39.384 23.1904 40.2124 23.5C41.0388 23.8115 41.9728 23.3981 42.2822 22.5692C42.5917 21.7403 42.1785 20.8076 41.352 20.4961C41.1765 20.4262 40.9709 20.3923 40.7992 20.3923ZM34.3782 18.1813C33.6876 18.1813 33.0687 18.6307 32.8253 19.3217C32.5857 20.1487 33.0329 21.0493 33.897 21.291C34.7273 21.5666 35.6216 21.0833 35.899 20.2544C36.1386 19.4256 35.6914 18.5287 34.8291 18.2512C34.6876 18.2172 34.5178 18.1813 34.3782 18.1813ZM66.0042 17.6356C65.4528 17.6356 64.9352 17.9094 64.6266 18.4234C64.1787 19.1793 64.4215 20.1416 65.178 20.5861C65.9327 21.0307 66.8981 20.7906 67.3441 20.0365C67.7939 19.3162 67.5511 18.3202 66.7927 17.8738C66.5518 17.705 66.2771 17.6356 66.0042 17.6356ZM27.8251 16.3537C27.1326 16.3537 26.476 16.8351 26.2703 17.596C26.0609 18.423 26.5798 19.2858 27.444 19.4954C28.3063 19.7371 29.1704 19.1839 29.3742 18.3531C29.5818 17.4903 29.0648 16.6274 28.2025 16.4216C28.0968 16.3858 27.9591 16.3537 27.8251 16.3537ZM21.1947 14.9376C20.4381 14.9376 19.7833 15.4908 19.6078 16.2479C19.4701 17.1108 20.0588 17.9755 20.9211 18.1134C21.7834 18.2871 22.6098 17.6999 22.7476 16.8351C22.9212 15.9704 22.3344 15.1434 21.4702 14.9697C21.3702 14.9697 21.3004 14.9376 21.1947 14.9376ZM60.0817 14.3062C59.5303 14.3062 58.9826 14.6138 58.6702 15.1653C58.26 15.9212 58.5686 16.8797 59.359 17.2923C60.1175 17.705 61.0791 17.4293 61.4932 16.6396C61.9072 15.8855 61.5985 14.9252 60.8401 14.5144C60.5992 14.3756 60.3565 14.3062 60.0817 14.3062ZM14.502 13.9332C13.7057 13.9332 13.0189 14.5223 12.9133 15.3511C12.8114 16.214 13.4303 17.0088 14.2926 17.1108C15.1926 17.2165 15.9832 16.5954 16.0549 15.7306C16.1945 14.8338 15.536 14.037 14.6737 13.9332H14.502ZM7.84326 13.312V13.3479C6.94134 13.2799 6.18471 13.9332 6.14886 14.8338C6.07905 15.6966 6.76964 16.4556 7.63193 16.5236C8.53008 16.5595 9.29049 15.9024 9.32445 15.0056C9.39238 14.1427 8.70556 13.3819 7.84326 13.312ZM54.0237 11.3219C53.4064 11.3219 52.855 11.6651 52.5803 12.2147C52.1982 13.0363 52.5445 13.9648 53.3349 14.3418C54.1611 14.7188 55.0908 14.3756 55.4691 13.554C55.8492 12.7643 55.4691 11.8377 54.6805 11.4607C54.4697 11.3575 54.2307 11.3219 54.0237 11.3219ZM47.7964 8.6471C47.1753 8.6471 46.5543 9.02412 46.3115 9.64124C45.9709 10.4628 46.3849 11.3575 47.2111 11.7008C47.9996 12.0084 48.9312 11.6314 49.2756 10.8079C49.5842 9.9845 49.2041 9.05789 48.3798 8.74839C48.1728 8.67899 47.9657 8.6471 47.7964 8.6471ZM41.426 6.31182C40.773 6.31182 40.118 6.72448 39.9129 7.37724C39.6381 8.20068 40.0842 9.12729 40.9103 9.40302C41.7346 9.675 42.6323 9.22858 42.941 8.40701C43.2176 7.58169 42.7716 6.65696 41.9096 6.3831C41.7704 6.31182 41.5973 6.31182 41.426 6.31182ZM34.922 4.32355C34.2332 4.32355 33.6122 4.76997 33.4051 5.49025C33.1661 6.34746 33.6818 7.20655 34.508 7.44476C35.368 7.68673 36.2281 7.16903 36.4708 6.31182C36.7098 5.49025 36.1961 4.63305 35.368 4.39108C35.2306 4.35731 35.0594 4.32355 34.922 4.32355ZM28.3804 2.7123C27.6238 2.7123 26.967 3.19249 26.7958 3.94653C26.6264 4.80374 27.1778 5.66282 28.0378 5.83539C28.8979 6.0042 29.7241 5.49025 29.9292 4.63305C30.1005 3.77584 29.549 2.91863 28.689 2.74419C28.5893 2.7123 28.4839 2.7123 28.3804 2.7123ZM21.7032 1.44243C20.9448 1.44243 20.2598 1.99202 20.1544 2.7817C20.017 3.63891 20.6004 4.46048 21.4623 4.59741C22.3224 4.73621 23.1504 4.15286 23.2878 3.29378C23.4252 2.40281 22.8399 1.615 21.9799 1.4762V1.44243H21.7032ZM14.9922 0.549588C14.198 0.549588 13.513 1.13482 13.4076 1.95638C13.338 2.81359 13.959 3.60327 14.8191 3.70644C15.7149 3.77584 16.5053 3.15685 16.5749 2.29964C16.6784 1.4068 16.0574 0.652753 15.1635 0.549588H14.9922ZM8.24544 0C7.41927 0 6.69661 0.652753 6.66085 1.4762C6.59122 2.36904 7.28001 3.12309 8.17582 3.15685C9.03586 3.22625 9.79428 2.54161 9.82816 1.64689C9.89591 0.789681 9.21088 0.0356388 8.35083 0H8.24544ZM126.479 124.928C126.877 124.928 127.272 125.095 127.538 125.395C127.702 125.528 127.801 125.693 127.868 125.86C127.966 126.06 128 126.258 128 126.458C128 126.858 127.834 127.256 127.538 127.554C127.14 127.988 126.447 128.119 125.887 127.886C125.687 127.788 125.522 127.688 125.389 127.554C125.092 127.256 124.928 126.858 124.928 126.458C124.928 126.06 125.092 125.66 125.389 125.395C125.687 125.095 126.051 124.928 126.479 124.928ZM1.53691 13.312C1.73405 13.312 1.93483 13.3449 2.13562 13.4124C2.33458 13.4781 2.50433 13.6114 2.63575 13.7447C2.93875 14.0459 3.072 14.4457 3.072 14.8473C3.072 15.0481 3.03549 15.2489 2.9716 15.4498C2.90224 15.6159 2.769 15.7838 2.63575 15.9481C2.50433 16.0832 2.33458 16.1818 2.13562 16.2841C1.76873 16.4173 1.33431 16.4173 0.967418 16.2841C0.766633 16.1818 0.600531 16.0832 0.467283 15.9481C0.30118 15.7838 0.200781 15.6159 0.131419 15.4498C0.0346776 15.2489 -1.90735e-06 15.0481 -1.90735e-06 14.8473C-1.90735e-06 14.4147 0.167932 14.0459 0.467283 13.7447C0.735604 13.4453 1.13534 13.312 1.53691 13.312ZM113.168 124.928C113.363 124.928 113.564 124.963 113.73 125.03C113.929 125.128 114.093 125.228 114.225 125.36C114.524 125.66 114.688 126.06 114.688 126.458C114.688 126.656 114.655 126.858 114.556 127.056C114.489 127.223 114.392 127.388 114.225 127.554C113.828 127.988 113.134 128.119 112.574 127.886C112.375 127.821 112.209 127.688 112.077 127.554C111.943 127.388 111.811 127.223 111.748 127.056C111.679 126.858 111.616 126.656 111.616 126.458C111.616 126.06 111.779 125.66 112.077 125.36C112.341 125.095 112.738 124.928 113.168 124.928ZM1.53691 26.112C1.73405 26.112 1.93483 26.1486 2.13562 26.2145C2.33458 26.3134 2.50433 26.4159 2.63575 26.5495C2.769 26.7161 2.90224 26.8826 2.9716 27.051C3.03549 27.2524 3.072 27.4519 3.072 27.6533C3.072 28.056 2.93875 28.4568 2.63575 28.757C2.10459 29.3263 1.03496 29.3263 0.467283 28.757C0.167932 28.4568 -1.90735e-06 28.056 -1.90735e-06 27.6533C-1.90735e-06 27.4519 0.0346776 27.2524 0.131419 27.051C0.200781 26.8826 0.30118 26.7161 0.467283 26.5495C0.735604 26.2822 1.13534 26.112 1.53691 26.112ZM100.368 124.928C100.766 124.928 101.127 125.094 101.424 125.393C101.724 125.657 101.888 126.055 101.888 126.452C101.888 126.649 101.855 126.85 101.756 127.047C101.687 127.213 101.592 127.411 101.424 127.543C101.295 127.677 101.127 127.809 100.93 127.874C100.563 128.042 100.135 128.042 99.7701 127.874C99.575 127.809 99.4105 127.677 99.2768 127.543C99.1124 127.411 99.013 127.213 98.9443 127.047C98.8467 126.85 98.816 126.649 98.816 126.452C98.816 126.055 98.9786 125.657 99.2768 125.393C99.575 125.094 99.94 124.928 100.368 124.928ZM1.53691 39.424C1.73405 39.424 1.93483 39.4569 2.13562 39.5245C2.33458 39.6231 2.50433 39.7235 2.63575 39.8569C2.93875 40.1582 3.072 40.5582 3.072 40.96C3.072 41.1609 3.03549 41.3618 2.9716 41.5627C2.90224 41.7289 2.769 41.8951 2.63575 42.0631C2.50433 42.1983 2.33458 42.2951 2.13562 42.3974C1.76873 42.5289 1.33431 42.5289 0.967418 42.3974C0.766633 42.2951 0.600531 42.1983 0.467283 42.0631C0.30118 41.8951 0.200781 41.7289 0.131419 41.5627C0.0346776 41.3618 -1.90735e-06 41.1609 -1.90735e-06 40.96C-1.90735e-06 40.5582 0.167932 40.1582 0.467283 39.8569C0.600531 39.7235 0.766633 39.6231 0.967418 39.5245C1.13535 39.4569 1.3343 39.424 1.53691 39.424ZM87.04 124.928C87.4729 124.928 87.8418 125.094 88.1431 125.359C88.2765 125.525 88.4098 125.69 88.4792 125.856C88.5431 126.055 88.576 126.253 88.576 126.452C88.576 126.85 88.4427 127.246 88.1431 127.543C88.008 127.677 87.8418 127.809 87.6445 127.874C87.2756 128.042 86.8427 128.042 86.472 127.874C86.2729 127.809 86.1067 127.677 85.9734 127.543C85.6739 127.246 85.504 126.85 85.504 126.452C85.504 126.253 85.5405 126.055 85.6373 125.856C85.7067 125.69 85.8035 125.525 85.9734 125.359C86.2729 125.094 86.6382 124.928 87.04 124.928ZM1.53691 52.224C1.73405 52.224 1.93483 52.2587 2.13562 52.3244C2.33458 52.423 2.50433 52.5252 2.63575 52.6567C2.93875 52.9579 3.072 53.3595 3.072 53.7593C3.072 53.9583 3.03549 54.1609 2.9716 54.3618C2.90224 54.5279 2.769 54.7269 2.63575 54.8601C2.50433 54.9952 2.33458 55.0938 2.13562 55.1961C1.76873 55.3293 1.33431 55.3293 0.967418 55.1961C0.766633 55.0938 0.600531 54.9952 0.467283 54.8601C0.30118 54.7269 0.200787 54.5279 0.1296 54.3618C0.034684 54.1609 -1.90735e-06 53.9583 -1.90735e-06 53.7593C-1.90735e-06 53.3595 0.167932 52.9579 0.467283 52.6567C0.735604 52.392 1.13534 52.224 1.53691 52.224ZM74.2391 124.928C74.4417 124.928 74.6407 124.963 74.8396 125.03C75.0094 125.128 75.2083 125.228 75.3416 125.36C75.6428 125.66 75.776 126.06 75.776 126.458C75.776 126.858 75.6099 127.256 75.3416 127.554C74.9072 127.988 74.2391 128.119 73.6714 127.886C73.4743 127.821 73.3045 127.688 73.1713 127.554C72.8701 127.256 72.704 126.858 72.704 126.458C72.704 126.06 72.8701 125.66 73.1713 125.36C73.4396 125.095 73.8375 124.928 74.2391 124.928ZM1.53691 65.536C1.73405 65.536 1.93483 65.5704 2.13562 65.6682C2.33458 65.7334 2.50433 65.8331 2.63575 65.9997C2.93875 66.2642 3.072 66.6626 3.072 67.0611C3.072 67.2586 3.03549 67.4578 2.9716 67.6552C2.90224 67.8545 2.769 68.0211 2.63575 68.1534C2.50433 68.2856 2.33458 68.4178 2.13562 68.483C1.76873 68.6497 1.33431 68.6497 0.967418 68.483C0.766633 68.4178 0.600531 68.2856 0.467283 68.1534C0.30118 68.0211 0.200787 67.8545 0.1296 67.6552C0.034684 67.4578 -1.90735e-06 67.2586 -1.90735e-06 67.0611C-1.90735e-06 66.6626 0.167932 66.2642 0.467283 65.9997C0.735604 65.7008 1.13534 65.536 1.53691 65.536ZM60.9289 124.928C61.126 124.928 61.3305 124.963 61.5276 125.03C61.6955 125.128 61.8653 125.228 62.0314 125.36C62.1646 125.528 62.2979 125.693 62.3636 125.86C62.4311 126.06 62.464 126.258 62.464 126.458C62.464 126.656 62.4311 126.858 62.3636 127.056C62.2979 127.223 62.1646 127.388 62.0314 127.554C61.597 127.988 60.9289 128.119 60.3284 127.886C60.1586 127.788 59.9925 127.688 59.8264 127.554C59.6932 127.388 59.5928 127.223 59.4942 127.056C59.4267 126.858 59.392 126.656 59.392 126.458C59.392 126.258 59.4267 126.06 59.4942 125.86C59.5928 125.693 59.6932 125.528 59.8264 125.36C60.1276 125.095 60.5273 124.928 60.9289 124.928ZM1.53691 78.336C1.73405 78.336 1.93483 78.3686 2.13562 78.4682C2.33458 78.5334 2.50433 78.633 2.63575 78.7996C2.769 78.9318 2.90224 79.0985 2.9716 79.2959C3.03549 79.4607 3.072 79.6599 3.072 79.8591C3.072 80.0909 3.03549 80.2575 2.9716 80.4567C2.90224 80.6542 2.769 80.819 2.63575 80.953C2.50433 81.087 2.33458 81.2174 2.13562 81.2844C1.76873 81.4492 1.33431 81.4492 0.967418 81.2844C0.766633 81.2174 0.600531 81.087 0.467283 80.953C0.30118 80.819 0.200787 80.6542 0.1296 80.4567C0.034684 80.2883 -1.90735e-06 80.0909 -1.90735e-06 79.8591C-1.90735e-06 79.6599 0.034684 79.4607 0.1296 79.2959C0.200787 79.0985 0.30118 78.9318 0.467283 78.7996C0.735604 78.5008 1.13534 78.336 1.53691 78.336ZM48.1271 124.928C48.5287 124.928 48.9284 125.095 49.2296 125.393C49.4961 125.658 49.664 126.056 49.664 126.452C49.664 126.65 49.6293 126.85 49.5618 127.048C49.4596 127.214 49.3628 127.412 49.2296 127.544C49.0598 127.678 48.8937 127.777 48.7276 127.875C48.326 128.042 47.8934 128.042 47.5247 127.875C47.3568 127.777 47.1907 127.678 47.0246 127.544C46.8913 127.412 46.791 127.214 46.6906 127.048C46.6249 126.85 46.592 126.65 46.592 126.452C46.592 126.056 46.7581 125.658 47.0246 125.393C47.1907 125.227 47.3568 125.127 47.5247 125.029C47.7255 124.962 47.9263 124.928 48.1271 124.928ZM1.53691 91.648C1.73405 91.648 1.93483 91.7149 2.13562 91.7801C2.33458 91.847 2.50433 91.9809 2.63575 92.113C2.93875 92.4097 3.072 92.7751 3.072 93.2039C3.072 93.4047 3.03549 93.6019 2.9716 93.7666C2.90224 93.9656 2.769 94.1302 2.63575 94.2623C2.50433 94.3962 2.33458 94.5282 2.13562 94.5952C1.76873 94.7616 1.33431 94.7616 0.967418 94.5952C0.766633 94.5282 0.600531 94.3962 0.467283 94.2623C0.30118 94.1302 0.200787 93.9656 0.1296 93.7666C0.034684 93.6019 -1.90735e-06 93.4047 -1.90735e-06 93.2039C-1.90735e-06 92.7751 0.167932 92.4097 0.467283 92.113C0.735604 91.8163 1.13534 91.648 1.53691 91.648ZM34.8151 124.928C35.2148 124.928 35.6146 125.095 35.9158 125.36C36.1822 125.66 36.352 126.06 36.352 126.458C36.352 126.858 36.1822 127.256 35.9158 127.554C35.4813 127.988 34.7786 128.119 34.2127 127.886C34.0466 127.821 33.8477 127.688 33.7126 127.554C33.4461 127.256 33.28 126.858 33.28 126.458C33.28 126.06 33.4461 125.66 33.7126 125.36C34.0156 125.095 34.4153 124.928 34.8151 124.928ZM1.53691 104.448C1.73405 104.448 1.93483 104.485 2.13562 104.551C2.33458 104.616 2.50433 104.75 2.63575 104.884C2.769 105.017 2.90224 105.186 2.9716 105.387C3.03549 105.554 3.072 105.755 3.072 105.989C3.072 106.189 3.03549 106.392 2.9716 106.559C2.90224 106.76 2.769 106.926 2.63575 107.062C2.50433 107.196 2.33458 107.329 2.13562 107.395C1.76873 107.562 1.33431 107.562 0.967418 107.395C0.766633 107.329 0.600531 107.196 0.467283 107.062C0.30118 106.926 0.200787 106.76 0.1296 106.559C0.034684 106.392 -1.90735e-06 106.189 -1.90735e-06 105.989C-1.90735e-06 105.554 0.167932 105.186 0.467283 104.884C0.735604 104.582 1.13534 104.448 1.53691 104.448ZM22.0151 124.928C22.4167 124.928 22.8164 125.095 23.1176 125.395C23.2508 125.528 23.3512 125.693 23.4534 125.86C23.5173 126.06 23.552 126.258 23.552 126.458C23.552 126.858 23.3841 127.256 23.1176 127.554C22.6832 127.988 21.9822 128.119 21.4146 127.886C21.2174 127.821 21.0477 127.688 20.9126 127.554C20.7793 127.421 20.6826 127.256 20.5804 127.056C20.5165 126.858 20.48 126.656 20.48 126.458C20.48 126.06 20.6498 125.66 20.9126 125.395C21.2174 125.095 21.5825 124.928 22.0151 124.928ZM1.53691 117.76C1.73405 117.76 1.93483 117.825 2.13562 117.892C2.33458 117.957 2.50433 118.091 2.63575 118.224C2.93875 118.521 3.072 118.886 3.072 119.316C3.072 119.517 3.03549 119.714 2.9716 119.879C2.90224 120.078 2.769 120.243 2.63575 120.375C2.50433 120.544 2.33458 120.641 2.13562 120.708C1.76873 120.873 1.33431 120.873 0.967418 120.708C0.766633 120.641 0.600531 120.544 0.467283 120.375C0.30118 120.243 0.200787 120.078 0.1296 119.879C0.034684 119.714 -1.90735e-06 119.517 -1.90735e-06 119.316C-1.90735e-06 118.886 0.167932 118.521 0.467283 118.224C0.735604 117.927 1.13534 117.76 1.53691 117.76ZM8.71846 124.928C8.91904 124.928 9.11601 124.963 9.28226 125.03C9.48104 125.128 9.64548 125.228 9.77739 125.36C9.94364 125.528 10.0412 125.693 10.1081 125.86C10.2075 126.06 10.24 126.258 10.24 126.458C10.24 126.656 10.2075 126.858 10.1081 127.056C10.0412 127.256 9.94364 127.421 9.77739 127.554C9.34912 127.988 8.68593 128.119 8.12574 127.886C7.92516 127.821 7.76071 127.688 7.62699 127.554C7.33063 127.256 7.168 126.858 7.168 126.458C7.168 126.06 7.33063 125.66 7.62699 125.36C7.92515 125.095 8.29018 124.928 8.71846 124.928Z" fill="#7FE3FF"/>
</svg>
