<?xml version="1.0" standalone="no"?>
<!DOCTYPE svg PUBLIC "-//W3C//DTD SVG 1.1//EN" "http://www.w3.org/Graphics/SVG/1.1/DTD/svg11.dtd" >
<svg xmlns="http://www.w3.org/2000/svg">
<metadata>Generated by IcoMoon</metadata>
<defs>
<font id="tt-icons" horiz-adv-x="1024">
<font-face units-per-em="1024" ascent="960" descent="-64" />
<missing-glyph horiz-adv-x="1024" />
<glyph unicode="&#x20;" horiz-adv-x="512" d="" />
<glyph unicode="&#xe900;" glyph-name="dollar-sign-filled" d="M512 874.667c235.622 0 426.667-191.023 426.667-426.667s-191.044-426.667-426.667-426.667c-235.689 0-426.667 190.989-426.667 426.667s190.977 426.667 426.667 426.667zM509.833 725.333c-16.311 0-29.538-12.845-29.538-28.689l-0.047-32.546c-55.333-13.721-96.247-62.464-96.247-120.465 0-58.026 40.906-106.751 96.243-120.468v-130.231c-22.089 11.153-37.167 33.579-37.167 59.435 0 15.846-13.222 28.689-29.538 28.689-16.314 0-29.539-12.843-29.539-28.689 0-58.022 40.906-106.752 96.243-120.465l0.051-32.546c0-15.846 13.227-28.689 29.538-28.689 16.316 0 29.538 12.843 29.538 28.689l0.030 31.543c57.532 12.181 100.599 61.931 100.599 121.468 0 59.516-43.076 109.282-100.604 121.468l0.004 131.239c24.431-10.295 41.523-33.937 41.523-61.441 0-15.846 13.222-28.688 29.538-28.688 16.311 0 29.538 12.843 29.538 28.688 0 59.514-43.076 109.28-100.604 121.467l-0.026 31.545c0 15.845-13.222 28.689-29.538 28.689zM539.401 413.811c24.431-10.3 41.523-33.937 41.523-61.444 0-27.52-17.084-51.153-41.519-61.444l-0.004 122.889zM480.252 603.061l-0.009-118.863c-22.089 11.153-37.167 33.574-37.167 59.434 0 25.841 15.087 48.273 37.175 59.429z" />
<glyph unicode="&#xe901;" glyph-name="error-1-filled" d="M512 874.667c234.667 0 426.667-192 426.667-426.667s-192-426.667-426.667-426.667c-234.667 0-426.667 192-426.667 426.667s192 426.667 426.667 426.667zM364.308 661.333l-65.641-65.641 147.669-147.692-147.669-147.691 65.641-65.643 147.692 147.712 147.691-147.712 65.643 65.643-147.712 147.691 147.712 147.692-65.643 65.641-147.691-147.669-147.692 147.669z" />
<glyph unicode="&#xe902;" glyph-name="circle-star-filled" d="M938.667 448c0-234.667-192-426.667-426.667-426.667s-426.667 192-426.667 426.667c0 234.667 192 426.667 426.667 426.667s426.667-192 426.667-426.667zM514.675 661.065c-0.171 0.036-0.363 0.076-0.585 0.123l-1.387 0.15c-1.429 0-2.769-0.066-4.156-0.446-2.705-0.742-5.137-2.367-6.861-4.582-0.623-0.806-0.811-1.155-1.182-1.852-0.085-0.154-0.175-0.326-0.282-0.524l-0.538-1.292-49.173-139.324h-138.795c-0.152-0.004-0.304-0.013-0.456-0.017-0.316-0.013-0.632-0.021-0.948-0.055-1.865-0.201-3.68-0.811-5.291-1.771-4.948-2.957-7.407-8.994-5.932-14.562 0.48-1.813 1.355-3.516 2.548-4.962 0.198-0.243 0.414-0.469 0.629-0.695 0.108-0.115 0.216-0.226 0.321-0.341l1.057-0.926 114.684-90.112-49.34-148.023c-0.041-0.145-0.084-0.294-0.128-0.444-0.091-0.311-0.183-0.619-0.25-0.939-0.404-1.869-0.389-3.823 0.044-5.692 1.325-5.73 6.503-9.963 12.386-10.112 1.912-0.051 3.832 0.324 5.584 1.092 0.286 0.128 0.562 0.273 0.839 0.418 0.147 0.077 0.294 0.154 0.441 0.23l1.2 0.781 122.897 90.125 122.897-90.125c0.128-0.081 0.26-0.171 0.388-0.256 0.265-0.183 0.533-0.367 0.811-0.525 1.66-0.956 3.524-1.54 5.431-1.702 5.862-0.491 11.477 3.149 13.423 8.7 0.631 1.805 0.862 3.746 0.666 5.649-0.034 0.32-0.090 0.631-0.145 0.947-0.026 0.158-0.055 0.311-0.081 0.469l-0.375 1.382-49.344 148.023 114.684 90.112c0.115 0.098 0.226 0.192 0.341 0.29 0.243 0.205 0.486 0.414 0.717 0.636 1.344 1.31 2.394 2.91 3.068 4.659 2.065 5.38 0.269 11.648-4.331 15.117-1.502 1.131-3.243 1.929-5.073 2.33-0.299 0.064-0.602 0.107-0.9 0.154-0.162 0.021-0.324 0.047-0.486 0.073l-1.404 0.073h-138.795l-49.173 139.324c-0.085 0.207-0.158 0.386-0.226 0.548-0.294 0.736-0.444 1.103-0.981 1.971-1.472 2.388-3.716 4.262-6.327 5.289-0.951 0.373-1.335 0.454-2.112 0.615z" />
<glyph unicode="&#xe903;" glyph-name="thumbs-up-filled" d="M735.492 41.651h-406.349v528.253l284.446 284.444 50.79-50.793c4.74-4.741 8.636-11.175 11.682-19.302 3.051-8.127 4.574-15.916 4.574-23.365v-14.223l-44.698-176.762h221.457c21.675 0 40.636-8.127 56.892-24.381 16.252-16.252 24.38-35.217 24.38-56.888v-81.271c0-4.74-0.508-9.818-1.523-15.236s-2.539-10.5-4.574-15.241l-121.903-286.477c-6.097-13.542-16.256-25.058-30.477-34.539s-29.12-14.221-44.698-14.221zM247.873 569.905v-528.253h-162.54v528.253h162.54z" />
<glyph unicode="&#xe904;" glyph-name="question-filled" d="M512 874.667c235.635 0 426.667-191.030 426.667-426.667 0-235.635-191.031-426.667-426.667-426.667s-426.667 191.031-426.667 426.667c0 235.637 191.030 426.667 426.667 426.667zM512 277.333c-23.552 0-42.667-19.115-42.667-42.667s19.115-42.667 42.667-42.667c23.552 0 42.667 19.115 42.667 42.667s-19.115 42.667-42.667 42.667zM512 704c-82.47 0-149.333-62.537-149.333-139.636 0-19.28 16.715-34.909 37.333-34.909s37.333 15.629 37.333 34.909c0 38.544 33.438 69.818 74.667 69.818 41.207 0 74.667-31.289 74.667-69.818 0-38.574-33.434-69.818-74.667-69.818l-4.352-0.235c-18.569-2.018-32.981-16.772-32.981-34.675v-104.725c0-19.281 16.717-34.91 37.333-34.91l4.352 0.235c18.569 2.018 32.981 16.772 32.981 34.675v74.253l5.794 1.476c61.444 17.297 106.206 70.613 106.206 133.725 0 77.089-66.893 139.636-149.333 139.636z" />
<glyph unicode="&#xe905;" glyph-name="flag-filled" d="M128 888.599v-881.196c0-15.872 12.58-28.736 28.098-28.736s28.097 12.864 28.097 28.736v881.196c0 15.87-12.579 28.735-28.097 28.735s-28.098-12.865-28.098-28.735zM860.544 813.138c17.865 4.959 35.456-8.799 35.456-27.731v-461.366c0-13.018-8.559-24.41-20.864-27.763-3.857-1.054-10.782-2.837-20.241-5.111-15.671-3.772-32.794-7.539-50.837-11.055-31.945-6.225-63.287-10.987-92.855-13.709-115.465-10.628-189.837 9.37-189.837 85.798 0 21.867-43.554 29.73-126.238 14.805-23.483-4.237-48.532-10.048-74.354-17.041-20.169-5.457-39.639-11.315-57.654-17.165-10.759-3.499-18.589-6.195-22.743-7.693-18.281-6.601-37.449 7.27-37.449 27.093v459.757c0 12.183 7.512 23.042 18.746 27.097 4.691 1.693 13.078 4.583 24.433 8.271 18.842 6.121 39.177 12.237 60.287 17.952 27.25 7.377 53.801 13.537 78.968 18.080 116.339 20.996 192.201 7.306 192.201-71.4 0-24.018 44.954-35.88 128.465-27.771 27.277 2.648 56.55 7.229 86.519 13.197 17.408 3.467 33.963 7.183 49.092 10.894 9.020 2.213 15.505 3.918 18.906 4.861z" />
<glyph unicode="&#xe906;" glyph-name="verified-filled" d="M512.367 874.667c5.542 0 10.782-2.443 14.255-6.643 40.759-49.325 101.803-78.512 167.795-78.512 55.868 0 109.585 20.484 172.821 63.459 12.122 8.237 28.762-0.193 28.762-14.571v-526.647l-0.653-4.715-1.779-5.414c-12.373-34.667-38.515-77.79-83.396-122.351-67.802-67.324-164.023-122.065-293.235-157.278-3.23-0.883-6.643-0.883-9.873 0-102.934 28.058-185.425 68.77-249.593 118.925-45.663 35.691-79.49 74.091-103.213 112.653-14.468 23.514-22.403 42.163-25.601 53.461l-0.656 4.719v526.647c0 14.377 16.642 22.808 28.762 14.571 63.202-42.953 117.004-63.459 172.856-63.459 65.919 0 126.966 29.185 167.849 78.53 3.469 4.189 8.708 6.626 14.238 6.626h0.661zM707.469 603.903c-15.411 13.699-39.006 12.31-52.706-3.1l-201.728-226.915-85.787 82.701-3.883 3.273c-14.833 10.867-35.786 9.374-48.905-4.233-14.312-14.844-13.882-38.477 0.96-52.787l113.778-109.717 3.998-3.354c15.275-11.11 36.902-9.105 49.822 5.427l227.554 255.999 3.11 4.013c10.257 15.262 7.915 36.137-6.212 48.693z" />
<glyph unicode="&#xe907;" glyph-name="thumbs-down-filled" d="M288.508 854.349h406.349v-528.252l-284.444-284.446-50.794 50.795c-4.741 4.74-8.635 11.174-11.683 19.298-3.048 8.128-4.571 15.919-4.571 23.369v14.221l44.698 176.764h-221.46c-21.672 0-40.635 8.124-56.889 24.38-16.254 16.252-24.381 35.217-24.381 56.887v81.271c0 4.74 0.508 9.818 1.524 15.236s2.54 10.496 4.572 15.241l121.905 286.475c6.095 13.545 16.254 25.058 30.476 34.54s29.122 14.222 44.698 14.222zM776.128 326.097v528.252h162.539v-528.252h-162.539z" />
<glyph unicode="&#xe908;" glyph-name="play-filled" d="M512 874.667c235.614 0 426.667-191.042 426.667-426.667 0-235.627-191.053-426.667-426.667-426.667-235.66 0-426.667 191.019-426.667 426.667s191.006 426.667 426.667 426.667zM400 235.537l352 203.226c7.113 4.105 7.113 14.37 0 18.475l-352 203.228c-7.111 4.105-16-1.027-16-9.238v-406.453c0-8.213 8.889-13.346 16-9.237z" />
<glyph unicode="&#xe909;" glyph-name="home-filled" d="M483.021 862.521c15.889 16.194 42.138 16.194 57.941 0l430.626-439.52 2.052-2.53c10.675-15.057 10.074-35.204-0.777-49.54l-3.563-4.117-4.553-3.917c-14.357-10.893-34.428-10.897-48.815-0.034l-4.134 3.588-64.61 65.847 0.034-410.965h-260.732v265.783h-148.988v-265.783h-260.729l-0.007 410.923-64.148-65.442-4.249-3.691c-14.525-11.307-34.924-11.452-50.566 1.152l-4.14 3.755c-15.292 16.858-14.342 42.103 1.017 57.847l428.34 436.644zM828.582 813.972c10.317 0 18.624-8.467 18.624-18.985v-170.861c0-10.479-8.346-18.985-18.624-18.985-4.804 0-9.574 1.936-13.15 5.581l-167.612 170.861c-5.363 5.429-6.929 13.593-4.023 20.655 2.867 7.139 9.647 11.732 17.173 11.732h167.612z" />
<glyph unicode="&#xe90a;" glyph-name="star-filled" d="M516.186 874.367c2.423-0.526 3.068-0.564 5.385-1.477 5.227-2.055 9.711-5.803 12.663-10.578 1.306-2.118 1.459-2.745 2.406-5.037l98.347-278.645 280.401-0.15c0.922-0.153 1.856-0.254 2.773-0.453 3.665-0.801 7.142-2.4 10.142-4.657 9.199-6.935 12.796-19.475 8.666-30.231-1.348-3.501-3.452-6.702-6.135-9.321-0.67-0.655-1.408-1.236-2.116-1.854l-229.367-180.22 98.684-296.047 0.755-2.765c0.154-0.943 0.354-1.882 0.452-2.829 0.388-3.81-0.073-7.693-1.335-11.307-3.891-11.102-15.113-18.377-26.842-17.395-3.814 0.32-7.543 1.489-10.859 3.401-0.832 0.478-1.604 1.045-2.402 1.566l-245.794 180.25-248.195-181.815c-0.853-0.427-1.686-0.909-2.56-1.293-3.504-1.536-7.343-2.287-11.167-2.185-11.767 0.303-22.122 8.764-24.773 20.224-0.864 3.733-0.896 7.642-0.087 11.383 0.199 0.934 0.502 1.843 0.756 2.765l98.68 296.047-231.482 182.074c-0.634 0.69-1.306 1.345-1.902 2.069-2.386 2.895-4.134 6.301-5.096 9.927-2.95 11.136 1.968 23.216 11.864 29.123 3.222 1.923 6.851 3.139 10.582 3.543 0.934 0.098 1.871 0.101 2.807 0.15h277.59l98.347 278.645 1.071 2.585c1.19 2.177 1.408 2.783 2.935 4.751 3.443 4.431 8.307 7.68 13.717 9.164 2.773 0.759 5.457 0.892 8.307 0.892 0.93-0.098 1.856-0.198 2.782-0.3z" />
<glyph unicode="&#xe90b;" glyph-name="lock-filled" d="M512 874.667c119.428 0 216.218-97.447 216.218-217.687l-0.026-95.742 77.862-0.040c14.327 0 25.946-11.695 25.946-26.122v-487.621c0-14.426-11.618-26.121-25.946-26.121h-588.108c-14.33 0-25.946 11.695-25.946 26.121v487.621c0 14.427 11.616 26.122 25.946 26.122l77.819 0.040 0.018 95.742c0 117.157 91.889 212.675 207.077 217.496l9.139 0.191zM512 387.046c23.881 0 43.243-19.465 43.243-43.537 0-14.204-6.78-26.842-17.263-34.795l-0.034-87.108c0-14.43-11.618-26.125-25.946-26.125s-25.946 11.695-25.946 26.125l-0.034 87.108c-10.483 7.953-17.263 20.591-17.263 34.795 0 24.073 19.362 43.537 43.243 43.537zM512 822.422c-90.769 0-164.324-74.056-164.324-165.442v-95.782h328.651v95.782c0 88.848-69.53 161.315-156.804 165.272l-7.522 0.17z" />
<glyph unicode="&#xe90c;" glyph-name="checkmark-filled" d="M512 874.667c235.622 0 426.667-191.023 426.667-426.667s-191.044-426.667-426.667-426.667c-235.689 0-426.667 190.989-426.667 426.667s190.977 426.667 426.667 426.667zM734.17 606.17c-16.661 16.662-43.678 16.662-60.339 0l-225.83-225.797-97.83 97.796-4.020 3.55c-16.738 13.013-40.94 11.831-56.32-3.55-16.662-16.661-16.662-43.678 0-60.339l120.458-120.457 4.33-3.891c20.945-16.845 51.656-15.548 71.095 3.891l248.457 248.456 3.55 4.020c13.013 16.738 11.831 40.94-3.55 56.32z" />
<glyph unicode="&#xe90d;" glyph-name="plus-filled" d="M938.667 448c0 235.637-191.031 426.667-426.667 426.667-235.637 0-426.667-191.030-426.667-426.667 0-235.635 191.030-426.667 426.667-426.667 235.635 0 426.667 191.031 426.667 426.667zM471.471 610.133c0 22.386 18.146 40.533 40.533 40.533 22.383 0 40.533-18.147 40.533-40.533v-121.6h121.169c22.387 0 40.533-18.15 40.533-40.533 0-22.387-18.146-40.533-40.533-40.533h-121.169v-121.173c0-22.387-18.15-40.533-40.533-40.533-22.387 0-40.533 18.146-40.533 40.533v121.173h-121.604c-22.386 0-40.533 18.146-40.533 40.533 0 22.383 18.147 40.533 40.533 40.533h121.604v121.6z" />
<glyph unicode="&#xe90e;" glyph-name="exclamation-filled" d="M512 874.667c235.635 0 426.667-191.030 426.667-426.667 0-235.635-191.031-426.667-426.667-426.667s-426.667 191.031-426.667 426.667c0 235.637 191.030 426.667 426.667 426.667zM512 277.333c-29.44 0-53.333-23.893-53.333-53.333s23.893-53.333 53.333-53.333c29.44 0 53.333 23.893 53.333 53.333s-23.893 53.333-53.333 53.333zM512 725.333c-23.565 0-42.667-13.081-42.667-29.217v-325.565l0.388-3.964c2.825-14.263 20.676-25.254 42.278-25.254 23.565 0 42.667 13.082 42.667 29.218v325.565l-0.388 3.965c-2.825 14.261-20.676 25.253-42.278 25.253z" />
<glyph unicode="&#xe90f;" glyph-name="error-2-filled" d="M499.2 874.837c-2.816-1.792-97.408-95.659-210.219-208.64-171.989-172.245-205.355-206.421-206.805-211.797-3.84-14.549-15.019-2.475 209.365-226.859 174.379-174.379 208.683-207.915 214.059-209.365 14.549-3.84 2.475-15.019 226.859 209.365s213.205 212.309 209.365 226.859c-1.451 5.376-34.944 39.637-207.659 212.608-113.28 113.408-208.043 207.275-210.56 208.64-3.343 1.495-7.245 2.366-11.351 2.366-4.769 0-9.264-1.175-13.21-3.251l0.156 0.075zM525.568 671.787c2.261-1.621 5.717-5.12 7.68-7.68 3.456-4.693 3.499-6.229 3.968-158.464 0.427-152.576 0.427-153.771-3.115-161.067-3.712-7.723-13.952-14.336-22.101-14.336-7.424 0-17.963 6.485-21.888 13.44l-3.712 6.656v152.149c0 164.053-0.299 158.549 8.96 167.040 4.367 3.947 10.184 6.362 16.565 6.362 5.081 0 9.804-1.531 13.733-4.157l-0.090 0.057zM530.944 266.496c26.965-13.056 33.067-47.36 12.416-69.419-20.821-22.272-56.661-16.683-71.083 11.008-6.997 13.483-4.309 34.688 5.973 47.147 3.712 4.48 14.549 12.032 19.541 13.611 7.381 2.347 26.24 1.024 33.152-2.347z" />
<glyph unicode="&#xe910;" glyph-name="info-filled" d="M512 874.667c-235.66 0-426.667-191.018-426.667-426.667s191.006-426.667 426.667-426.667c235.614 0 426.667 191.040 426.667 426.667 0 235.625-191.053 426.667-426.667 426.667zM512 572.445c19.635 0 35.554-15.919 35.554-35.556l-0.034-284.409 71.147-0.034c19.635 0 35.554-15.919 35.554-35.558 0-19.635-15.919-35.554-35.554-35.554h-213.333c-19.637 0-35.555 15.919-35.555 35.554 0 19.639 15.919 35.558 35.555 35.558l71.095 0.034 0.017 248.853h-35.558c-19.635 0-35.554 15.919-35.554 35.555s15.919 35.556 35.554 35.556h71.113zM494.221 732.445c29.414 0 53.333-23.919 53.333-53.333 0-29.483-23.915-53.333-53.333-53.333-29.483 0-53.333 23.848-53.333 53.333 0 29.417 23.851 53.333 53.333 53.333z" />
<glyph unicode="&#xe911;" glyph-name="lightning-filled" d="M442.931 409.28h-124.445c-15.179 0-24.708 13.965-17.202 25.212l202.656 303.647c3.52 5.272 10.086 8.528 17.203 8.528h188.113c15.701 0 25.148-14.841 16.593-26.063l-134.502-176.369h156.821c17.425 0 26.347-17.805 14.298-28.535l-405.439-361.037c-15.226-13.559-41.145 1.028-32.497 18.291l118.401 236.326z" />
<glyph unicode="&#xe912;" glyph-name="warning-filled" d="M530.846 867.155l408.905-818.912c7.083-14.182-3.23-30.865-19.085-30.865h-817.815c-15.854 0-26.169 16.683-19.087 30.865l408.908 818.912c7.859 15.738 30.315 15.738 38.174 0zM537.357 572.275c0 14.138-11.46 25.6-25.6 25.6s-25.6-11.462-25.6-25.6v-282.257c0-14.14 11.46-25.6 25.6-25.6s25.6 11.46 25.6 25.6v282.257zM511.753 216.457c-24.457 0-44.023-19.567-44.023-44.023s19.567-44.023 44.023-44.023c24.457 0 44.023 19.567 44.023 44.023s-19.567 44.023-44.023 44.023z" />
<glyph unicode="&#xe913;" glyph-name="accounting" d="M220.832 333.841c9.997 9.997 26.206 9.997 36.204 0l140.986-140.988c9.998-9.997 9.998-26.206 0-36.203s-26.206-9.997-36.204 0l-140.985 140.983c-9.998 9.997-9.998 26.206 0 36.207zM398.021 333.841c9.998-10.001 9.998-26.21 0-36.207l-140.986-140.983c-9.997-9.997-26.206-9.997-36.204 0s-9.998 26.206 0 36.203l140.985 140.988c9.998 9.997 26.207 9.997 36.204 0zM308.913 747.098c14.138 0 25.6-11.462 25.6-25.6v-141.227c0-14.138-11.462-25.6-25.6-25.6s-25.6 11.462-25.6 25.6v141.227c0 14.138 11.462 25.6 25.6 25.6zM212.906 651.154c0 14.138 11.462 25.6 25.6 25.6h141.227c14.138 0 25.6-11.462 25.6-25.6s-11.462-25.6-25.6-25.6h-141.227c-14.138 0-25.6 11.462-25.6 25.6zM600.742 650.671c0 14.138 11.46 25.6 25.6 25.6h176.23c14.14 0 25.6-11.462 25.6-25.6s-11.46-25.6-25.6-25.6h-176.23c-14.14 0-25.6 11.462-25.6 25.6zM600.738 199.142c0 14.14 11.465 25.6 25.6 25.6h176.235c14.135 0 25.6-11.46 25.6-25.6s-11.465-25.6-25.6-25.6h-176.235c-14.135 0-25.6 11.46-25.6 25.6zM600.738 290.991c0 14.14 11.465 25.6 25.6 25.6h176.235c14.135 0 25.6-11.46 25.6-25.6s-11.465-25.6-25.6-25.6h-176.235c-14.135 0-25.6 11.46-25.6 25.6zM511.996 878.938c14.14 0 25.6-11.462 25.6-25.6v-810.667c0-14.14-11.46-25.6-25.6-25.6s-25.6 11.46-25.6 25.6v810.667c0 14.138 11.46 25.6 25.6 25.6zM81.062 448.004c0 14.14 11.462 25.6 25.6 25.6h810.667c14.14 0 25.6-11.46 25.6-25.6s-11.46-25.6-25.6-25.6h-810.667c-14.138 0-25.6 11.46-25.6 25.6zM212.401 827.738c-44.259 0-80.139-35.88-80.139-80.139v-599.187c0-44.262 35.88-80.141 80.139-80.141h599.187c44.262 0 80.141 35.878 80.141 80.141v599.187c0 44.259-35.878 80.139-80.141 80.139h-599.187zM81.062 747.599c0 72.536 58.803 131.339 131.339 131.339h599.187c72.538 0 131.341-58.803 131.341-131.339v-599.187c0-72.538-58.803-131.341-131.341-131.341h-599.187c-72.536 0-131.339 58.803-131.339 131.341v599.187z" />
<glyph unicode="&#xe914;" glyph-name="add-thick" d="M512 800c20.932 0 37.901-16.969 37.901-37.901l-0.013-276.168 276.211-0.030c20.932 0 37.901-16.969 37.901-37.901s-16.969-37.901-37.901-37.901l-276.211 0.013 0.013-276.211c0-20.932-16.969-37.901-37.901-37.901s-37.901 16.969-37.901 37.901l-0.030 276.211-276.169-0.013c-20.932 0-37.901 16.969-37.901 37.901s16.968 37.901 37.9 37.901l276.17 0.030 0.030 276.169c0 20.931 16.969 37.901 37.901 37.901z" />
<glyph unicode="&#xe915;" glyph-name="add" d="M512 885.333c17.673 0 32-14.327 32-32v-810.667c0-17.673-14.327-32-32-32s-32 14.327-32 32v810.667c0 17.673 14.327 32 32 32zM74.667 448c0 17.673 14.327 32 32 32h810.667c17.673 0 32-14.327 32-32s-14.327-32-32-32h-810.667c-17.673 0-32 14.327-32 32z" />
<glyph unicode="&#xe916;" glyph-name="additional-occupants" d="M367.485 864.854c-95.135 0-164.824-90.737-164.824-192.667 0-64.381 27.802-124.297 72.257-159.705v-45.026l-121.978-43.648c-43.348-15.68-71.877-56.73-71.877-102.673v-52.527c0-14.14 11.462-25.6 25.6-25.6h370.086v51.2h-344.486v26.927c0 24.533 15.199 46.225 38.092 54.524l138.788 49.664c10.181 3.644 16.975 13.291 16.975 24.107v36.070c13.101-3.895 26.941-5.982 41.367-5.982 17.041 0 33.265 2.914 48.419 8.277v-38.366c0-10.816 6.794-20.463 16.976-24.107l138.871-49.694 17.25 48.209-121.899 43.618v50.974c40.324 35.942 65.207 92.851 65.207 153.757 0 101.93-69.692 192.667-164.825 192.667zM283.952 711.529c-8.956 0-17.041 1.065-24.913 3.306 15.018 59.564 60.577 98.819 108.446 98.819 49.279 0 96.11-41.603 109.691-104.136-13.897-1.297-24.149 0.939-32.563 5.367-10.91 5.741-22.041 16.906-33.773 37.358-4.662 8.127-13.391 13.058-22.758 12.856s-17.875-5.505-22.182-13.826c-4.317-8.339-15.197-18.552-31.845-26.915-16.218-8.146-34.599-12.829-50.102-12.829zM420.77 669.574c18.453-9.711 38.468-12.929 59.823-11.148-5.705-75.432-57.869-127.709-113.108-127.709-56.433 0-109.656 54.56-113.412 132.631 9.545-2.016 19.425-3.020 29.879-3.020 24.677 0 50.883 7.125 73.084 18.277 10.249 5.148 20.409 11.546 29.46 19.131 9.936-11.675 21.196-21.28 34.275-28.162zM645.005 487.437c-15.151-5.363-31.369-8.269-48.405-8.269-14.135 0-25.6 11.46-25.6 25.6 0 14.135 11.465 25.6 25.6 25.6 19.682 0 38.972 6.633 55.906 18.586 1.685 1.686 3.61 3.138 5.709 4.302 27.789 22.319 48.158 59.522 51.52 105.174-21.372-1.789-41.395 1.427-59.861 11.144-22.75 11.971-39.991 32.175-54.345 57.192-7.036 12.264-2.795 27.909 9.468 34.944s27.908 2.796 34.944-9.468c11.733-20.452 22.861-31.616 33.775-37.358 8.401-4.421 18.637-6.657 32.503-5.372-13.679 62.34-60.429 103.789-109.619 103.789-14.135 0-25.6 11.462-25.6 25.6s11.465 25.6 25.6 25.6c95.138 0 164.826-90.737 164.826-192.667 0-60.913-24.887-117.83-65.22-153.771v-33.391c0-14.135-11.46-25.6-25.6-25.6s-25.6 11.465-25.6 25.6v2.765zM741.099 347.076c14.135 0 25.6-11.46 25.6-25.6v-62.515h62.515c14.14 0 25.6-11.46 25.6-25.6 0-14.135-11.46-25.6-25.6-25.6h-62.515v-62.515c0-14.14-11.465-25.6-25.6-25.6-14.14 0-25.6 11.46-25.6 25.6v62.515h-62.515c-14.14 0-25.6 11.465-25.6 25.6 0 14.14 11.46 25.6 25.6 25.6h62.515v62.515c0 14.14 11.46 25.6 25.6 25.6zM539.264 233.361c0 111.471 90.364 201.835 201.835 201.835 111.467 0 201.83-90.364 201.83-201.835 0-111.467-90.364-201.83-201.83-201.83-111.471 0-201.835 90.364-201.835 201.83zM741.099 383.996c-83.191 0-150.635-67.443-150.635-150.635s67.443-150.63 150.635-150.63c83.191 0 150.63 67.439 150.63 150.63s-67.439 150.635-150.63 150.635z" />
<glyph unicode="&#xe917;" glyph-name="ai" d="M385.111 593.212c-11.629-43.77-27.31-75.605-51.566-100.096-24.285-24.491-55.853-40.307-99.255-52.002 43.402-11.729 74.97-27.541 99.255-52.006 24.285-24.491 39.966-56.324 51.566-100.096 11.628 43.772 27.31 75.605 51.565 100.096 24.286 24.495 55.855 40.307 99.255 52.006-43.401 11.725-74.97 27.511-99.255 52.002s-39.965 56.326-51.565 100.096zM789.333 770.375c-12.365-41.389-28.826-72.403-53.15-96.909-24.32-24.506-55.104-41.054-96.183-53.549 41.079-12.457 71.898-29.043 96.183-53.512 24.324-24.506 40.785-55.557 53.15-96.91 12.365 41.391 28.826 72.403 53.15 96.91 24.32 24.506 55.104 41.091 96.183 53.512-41.079 12.458-71.863 29.043-96.183 53.549-24.324 24.506-40.785 55.557-53.15 96.909zM679.778 300.467c-20.851-21.005-47.232-35.191-82.445-45.901 35.213-10.679 61.628-24.892 82.445-45.867 20.847-21.005 34.957-47.62 45.555-83.063 10.598 35.473 24.708 62.059 45.555 83.063 20.851 21.005 47.232 35.221 82.445 45.867-35.213 10.679-61.594 24.896-82.445 45.901-20.847 21.005-34.957 47.62-45.555 83.063-10.598-35.477-24.708-62.059-45.555-83.063zM302.419 524.476c34.211 34.502 47.748 94.086 60.815 199.098 1.028 10.039 8.839 18.42 19.205 19.694 12.040 1.481 23.022-7.167 24.491-19.338 13.068-105.25 26.606-164.922 60.846-199.454 34.21-34.5 93.291-48.154 197.423-61.329 9.954-1.037 18.266-8.917 19.529-19.371 1.468-12.169-7.108-23.215-19.149-24.695-104.363-13.18-163.533-26.833-197.773-61.363-34.214-34.5-47.75-94.084-60.817-199.095-1.028-10.039-8.839-18.423-19.205-19.695-12.040-1.481-23.023 7.168-24.491 19.337-13.068 105.25-26.605 164.924-60.845 199.454-34.211 34.5-93.294 48.154-197.423 61.333-9.955 1.037-18.265 8.913-19.528 19.366-1.469 12.173 7.106 23.219 19.146 24.7 104.364 13.175 163.536 26.829 197.776 61.359z" />
<glyph unicode="&#xe918;" glyph-name="alarm" d="M399.551 578.47c8.233 54.698 55.459 96.666 112.445 96.666s104.213-41.969 112.444-96.666c84.271-41.531 142.259-128.316 142.259-228.527v-158.609c0-24.717 19.989-44.894 44.89-44.894 14.14 0 25.6-11.46 25.6-25.6s-11.46-25.6-25.6-25.6h-599.187c-14.138 0-25.6 11.46-25.6 25.6s11.462 25.6 25.6 25.6c24.633 0 44.893 20.262 44.893 44.894v158.609c0 100.211 57.987 186.996 142.257 228.527zM297.316 146.441h429.293c-7.1 13.419-11.11 28.706-11.11 44.894v158.609c0 84.476-51.614 157.146-125.239 187.849-9.536 3.977-15.748 13.296-15.748 23.628 0 34.502-28.015 62.516-62.515 62.516s-62.515-28.015-62.515-62.516c0-10.332-6.212-19.651-15.748-23.628-73.623-30.703-125.238-103.373-125.238-187.849v-158.609c0-16.196-4.046-31.479-11.179-44.894zM426.714 146.436c14.135 0 25.6-11.46 25.6-25.6 0-32.794 26.935-59.733 59.733-59.733 32.794 0 59.733 26.94 59.733 59.733 0 14.14 11.46 25.6 25.6 25.6 14.135 0 25.6-11.46 25.6-25.6 0-61.069-49.865-110.933-110.933-110.933-61.073 0-110.935 49.865-110.935 110.933 0 14.14 11.462 25.6 25.601 25.6zM406.257 729.676c-93.010 0-168.255-75.245-168.255-168.255 0-14.138-11.462-25.6-25.6-25.6s-25.6 11.462-25.6 25.6c0 121.288 98.168 219.455 219.455 219.455 14.138 0 25.598-11.462 25.598-25.6s-11.46-25.6-25.598-25.6zM406.257 835.415c-151.5 0-273.994-122.807-273.994-273.994 0-14.138-11.462-25.6-25.6-25.6s-25.6 11.462-25.6 25.6c0 179.424 145.378 325.194 325.194 325.194 14.138 0 25.598-11.462 25.598-25.6s-11.46-25.6-25.598-25.6zM592.137 755.276c0 14.138 11.46 25.6 25.6 25.6 121.284 0 219.452-98.167 219.452-219.455 0-14.138-11.46-25.6-25.6-25.6-14.135 0-25.6 11.462-25.6 25.6 0 93.010-75.243 168.255-168.252 168.255-14.14 0-25.6 11.462-25.6 25.6zM592.137 861.015c0 14.138 11.46 25.6 25.6 25.6 179.443 0 325.193-145.75 325.193-325.194 0-14.138-11.46-25.6-25.6-25.6s-25.6 11.462-25.6 25.6c0 151.167-122.829 273.994-273.993 273.994-14.14 0-25.6 11.462-25.6 25.6z" />
<glyph unicode="&#xe919;" glyph-name="apartment" d="M186.876 782.845c0 14.138 11.462 25.6 25.6 25.6h599.189c14.135 0 25.6-11.462 25.6-25.6v-740.174c0-14.14-11.465-25.6-25.6-25.6h-599.189c-14.138 0-25.6 11.46-25.6 25.6v740.174zM238.076 757.245v-688.974h547.989v688.974h-547.989zM433.6 183.654c0 14.14 11.46 25.6 25.6 25.6h105.741c14.135 0 25.6-11.46 25.6-25.6v-140.983c0-14.14-11.465-25.6-25.6-25.6h-105.741c-14.14 0-25.6 11.46-25.6 25.6v140.983zM484.8 158.054v-89.783h54.541v89.783h-54.541zM273.063 675.012c0 14.138 11.462 25.6 25.6 25.6h68.267c14.138 0 25.6-11.462 25.6-25.6s-11.462-25.604-25.6-25.604h-68.267c-14.138 0-25.6 11.466-25.6 25.604zM447.996 675.012c0 14.138 11.46 25.6 25.6 25.6h68.267c14.14 0 25.6-11.462 25.6-25.6s-11.46-25.604-25.6-25.604h-68.267c-14.14 0-25.6 11.466-25.6 25.604zM622.929 675.012c0 14.138 11.46 25.6 25.6 25.6h68.267c14.14 0 25.6-11.462 25.6-25.6s-11.46-25.604-25.6-25.604h-68.267c-14.14 0-25.6 11.466-25.6 25.604zM273.063 579.008c0 14.138 11.462 25.6 25.6 25.6h68.267c14.138 0 25.6-11.462 25.6-25.6s-11.462-25.604-25.6-25.604h-68.267c-14.138 0-25.6 11.466-25.6 25.604zM447.996 579.008c0 14.138 11.46 25.6 25.6 25.6h68.267c14.14 0 25.6-11.462 25.6-25.6s-11.46-25.604-25.6-25.604h-68.267c-14.14 0-25.6 11.466-25.6 25.604zM622.929 579.008c0 14.138 11.46 25.6 25.6 25.6h68.267c14.14 0 25.6-11.462 25.6-25.6s-11.46-25.604-25.6-25.604h-68.267c-14.14 0-25.6 11.466-25.6 25.604zM273.063 483.004c0 14.14 11.462 25.6 25.6 25.6h68.267c14.138 0 25.6-11.46 25.6-25.6s-11.462-25.604-25.6-25.604h-68.267c-14.138 0-25.6 11.465-25.6 25.604zM447.996 483.004c0 14.14 11.46 25.6 25.6 25.6h68.267c14.14 0 25.6-11.46 25.6-25.6s-11.46-25.604-25.6-25.604h-68.267c-14.14 0-25.6 11.465-25.6 25.604zM622.929 483.004c0 14.14 11.46 25.6 25.6 25.6h68.267c14.14 0 25.6-11.46 25.6-25.6s-11.46-25.604-25.6-25.604h-68.267c-14.14 0-25.6 11.465-25.6 25.604zM273.063 386.999c0 14.14 11.462 25.6 25.6 25.6h68.267c14.138 0 25.6-11.46 25.6-25.6s-11.462-25.604-25.6-25.604h-68.267c-14.138 0-25.6 11.465-25.6 25.604zM447.996 386.999c0 14.14 11.46 25.6 25.6 25.6h68.267c14.14 0 25.6-11.46 25.6-25.6s-11.46-25.604-25.6-25.604h-68.267c-14.14 0-25.6 11.465-25.6 25.604zM622.929 386.999c0 14.14 11.46 25.6 25.6 25.6h68.267c14.14 0 25.6-11.46 25.6-25.6s-11.46-25.604-25.6-25.604h-68.267c-14.14 0-25.6 11.465-25.6 25.604zM273.063 290.995c0 14.14 11.462 25.6 25.6 25.6h68.267c14.138 0 25.6-11.46 25.6-25.6s-11.462-25.604-25.6-25.604h-68.267c-14.138 0-25.6 11.465-25.6 25.604zM447.996 290.995c0 14.14 11.46 25.6 25.6 25.6h68.267c14.14 0 25.6-11.46 25.6-25.6s-11.46-25.604-25.6-25.604h-68.267c-14.14 0-25.6 11.465-25.6 25.604zM622.929 290.995c0 14.14 11.46 25.6 25.6 25.6h68.267c14.14 0 25.6-11.46 25.6-25.6s-11.46-25.604-25.6-25.604h-68.267c-14.14 0-25.6 11.465-25.6 25.604zM264.867 871.439c4.801 4.801 11.312 7.498 18.102 7.498h458.203c6.788 0 13.299-2.697 18.103-7.498l70.49-70.493c7.322-7.322 9.515-18.333 5.551-27.899s-13.295-15.803-23.65-15.803h-599.189c-10.354 0-19.689 6.237-23.651 15.803s-1.772 20.577 5.55 27.899l70.493 70.493zM293.572 827.738l-19.293-19.293h475.583l-19.294 19.293h-436.996z" />
<glyph unicode="&#xe91a;" glyph-name="applicants" d="M439.462 485.265c0-27.494 13.188-51.247 32.563-65.041 11.516-8.201 14.208-24.183 6.007-35.703-1.378-1.937-2.978-3.627-4.74-5.056-2.449-2.202-5.363-3.964-8.666-5.12-24.124-8.444-48.288-23.595-66.429-47.782-14.701-19.601-26.256-46.208-29.99-82.206h287.574c-3.733 35.998-15.287 62.605-29.99 82.206-18.138 24.188-42.304 39.339-66.428 47.782-3.285 1.152-6.187 2.901-8.627 5.086-1.779 1.438-3.392 3.136-4.783 5.090-8.201 11.52-5.508 27.503 6.007 35.703 19.375 13.794 32.567 37.547 32.567 65.041 0 44.361-33.754 77.943-72.533 77.943-38.784 0-72.533-33.583-72.533-77.943zM413.541 407.023c-15.927 21.807-25.281 48.981-25.281 78.242 0 70.012 54.121 129.143 123.735 129.143 69.611 0 123.733-59.131 123.733-129.143 0-29.261-9.357-56.435-25.28-78.242 20.429-11.797 40.030-28.036 56.303-49.741 25.412-33.882 41.51-79.467 41.51-138.526 0-14.14-11.46-25.6-25.6-25.6h-341.333c-14.138 0-25.6 11.46-25.6 25.6 0 59.059 16.099 104.644 41.509 138.526 16.276 21.7 35.872 37.939 56.303 49.741zM170.667 849.067c0 14.138 11.462 25.6 25.6 25.6h217.596c9.538 0 18.283-5.302 22.694-13.758l44.023-84.371h347.149c14.14 0 25.6-11.462 25.6-25.6v-704c0-14.14-11.46-25.6-25.6-25.6h-631.462c-14.138 0-25.6 11.46-25.6 25.6v802.129zM221.867 823.467v-750.929h580.262v652.8h-337.067c-9.536 0-18.283 5.302-22.694 13.758l-44.023 84.371h-176.478z" />
<glyph unicode="&#xe91b;" glyph-name="archive" d="M912.546 832c14.426 0 26.121-11.756 26.121-26.256v-175.043c0-14.501-11.695-26.256-26.121-26.256l-8.738 0.014 0.030-428.868c0-14.502-11.695-26.257-26.125-26.257h-731.427c-14.427 0-26.122 11.755-26.122 26.257l-0.014 428.868-8.694-0.014c-14.427 0-26.122 11.755-26.122 26.256v175.043c0 14.501 11.695 26.256 26.122 26.256h801.091zM851.593 604.445h-679.184v-402.597h679.184v402.597zM633.903 551.932c14.43 0 26.125-14.181 26.125-31.676v-84.463c0-17.493-11.695-31.676-26.125-31.676h-243.808c-14.427 0-26.123 14.182-26.123 31.676v84.463c0 17.495 11.695 31.676 26.123 31.676h243.808zM607.782 499.354h-191.565v-47.62h191.565v47.62zM886.421 779.487h-748.843v-122.53h748.843v122.53z" />
<glyph unicode="&#xe91c;" glyph-name="arrow-backward" d="M864 480.013h-621.728l323.36 296.417c13.026 11.936 13.888 32.192 1.95 45.216-11.934 12.992-32.188 13.888-45.214 1.952l-384-351.999c-0.192-0.162-0.288-0.354-0.448-0.512-0.96-0.896-1.728-1.89-2.56-2.88-0.544-0.674-1.152-1.25-1.6-1.954-0.832-1.216-1.504-2.526-2.176-3.806-0.32-0.576-0.672-1.122-0.928-1.728-0.736-1.634-1.216-3.328-1.664-5.090-0.064-0.35-0.256-0.704-0.32-1.054-0.416-2.112-0.672-4.322-0.672-6.562s0.256-4.446 0.672-6.558c0.064-0.384 0.224-0.704 0.32-1.024 0.448-1.762 0.928-3.52 1.664-5.12 0.256-0.61 0.608-1.152 0.928-1.728 0.672-1.314 1.344-2.594 2.176-3.81 0.448-0.704 1.056-1.28 1.568-1.95 0.864-0.994 1.632-1.984 2.592-2.88 0.16-0.192 0.256-0.354 0.448-0.512l384-352c6.144-5.632 13.888-8.418 21.632-8.418 8.64 0 17.28 3.49 23.582 10.368 11.938 13.026 11.076 33.25-1.95 45.218l-323.36 296.414h621.728c17.664 0 32 14.306 32 32 0 17.664-14.336 32-32 32z" />
<glyph unicode="&#xe91d;" glyph-name="arrow-down" d="M716.442 533.333h-408.89c-3.2 0-6.151-1.233-7.733-3.226s-1.529-4.429 0.125-6.396l204.445-243.307c1.583-1.903 4.497-3.072 7.607-3.072 3.132 0 6.012 1.169 7.612 3.072l204.442 243.307c1.673 1.967 1.707 4.403 0.124 6.396-1.579 1.993-4.531 3.226-7.731 3.226z" />
<glyph unicode="&#xe91e;" glyph-name="arrow-forward" d="M160 415.996h621.73l-323.362-296.414c-13.026-11.938-13.888-32.192-1.95-45.218 11.934-12.992 32.188-13.888 45.214-1.95l384 352c0.192 0.158 0.29 0.35 0.448 0.512 0.96 0.896 1.728 1.886 2.56 2.88 0.546 0.67 1.152 1.246 1.6 1.95 0.832 1.216 1.506 2.53 2.176 3.81 0.32 0.576 0.674 1.118 0.93 1.728 0.734 1.63 1.216 3.328 1.664 5.086 0.064 0.354 0.256 0.704 0.32 1.058 0.414 2.112 0.67 4.318 0.67 6.558s-0.256 4.45-0.67 6.562c-0.064 0.384-0.226 0.704-0.32 1.024-0.448 1.758-0.93 3.52-1.664 5.12-0.256 0.606-0.61 1.152-0.93 1.728-0.67 1.31-1.344 2.59-2.176 3.806-0.448 0.704-1.054 1.28-1.566 1.954-0.866 0.99-1.634 1.984-2.594 2.88-0.158 0.192-0.256 0.35-0.448 0.512l-384 351.999c-6.144 5.632-13.888 8.416-21.632 8.416-8.64 0-17.28-3.488-23.582-10.368-11.938-13.024-11.072-33.248 1.95-45.216l323.362-296.417h-621.73c-17.664 0-32-14.302-32-32 0-17.664 14.336-32 32-32z" />
<glyph unicode="&#xe91f;" glyph-name="arrow-left" d="M640 652.442v-408.887c0-3.2-1.233-6.153-3.226-7.735s-4.429-1.527-6.396 0.124l-243.307 204.446c-1.904 1.583-3.072 4.497-3.072 7.607 0 3.132 1.168 6.012 3.072 7.612l243.307 204.443c1.967 1.671 4.403 1.707 6.396 0.125s3.226-4.533 3.226-7.733z" />
<glyph unicode="&#xe920;" glyph-name="arrow-right" d="M384 243.558v408.89c0 3.2 1.231 6.151 3.224 7.733s4.431 1.529 6.398-0.125l243.305-204.445c1.903-1.583 3.072-4.497 3.072-7.607 0-3.132-1.169-6.012-3.072-7.612l-243.305-204.442c-1.968-1.673-4.405-1.707-6.398-0.124-1.993 1.579-3.224 4.531-3.224 7.731z" />
<glyph unicode="&#xe921;" glyph-name="arrow-up" d="M307.558 277.333h408.887c3.2 0 6.153 1.233 7.735 3.226s1.527 4.429-0.124 6.396l-204.446 243.307c-1.583 1.903-4.497 3.072-7.607 3.072-3.132 0-6.012-1.169-7.612-3.072l-204.443-243.307c-1.671-1.967-1.707-4.403-0.125-6.396s4.533-3.226 7.733-3.226z" />
<glyph unicode="&#xe922;" glyph-name="attachment" d="M841.289 739.319c-67.251 67.252-176.077 67.252-243.328 0l-431.101-431.1c-46.128-46.451-46.071-121.173-0.086-167.189 46.455-46.127 121.162-46.037 167.174-0.043l412.488 413.927c18.027 18.028 18.027 47.449 0 65.477s-47.45 18.028-65.476 0l-305.405-305.405c-9.997-9.997-26.206-9.997-36.204 0-9.997 10.001-9.997 26.21 0 36.207l305.402 305.402c38.025 38.023 99.866 38.023 137.886 0 38.020-38.018 38.025-99.846 0.017-137.871l-412.491-413.926c-66.080-66.078-173.147-65.997-239.509-0.055l-0.058 0.055c-66.080 66.082-65.997 173.15-0.058 239.509l0.058 0.060 431.159 431.156c87.245 87.247 228.489 87.247 315.738 0 87.245-87.247 87.245-228.492 0-315.739l-305.404-305.404c-9.997-9.997-26.206-9.997-36.203 0-10.001 9.997-10.001 26.206 0 36.207l305.399 305.404c67.255 67.249 67.255 176.076 0 243.328z" />
<glyph unicode="&#xe923;" glyph-name="bank-account" d="M81.065 42.671c0 14.14 11.462 25.6 25.6 25.6h810.669c14.135 0 25.6-11.46 25.6-25.6s-11.465-25.6-25.6-25.6h-810.669c-14.138 0-25.6 11.46-25.6 25.6zM81.065 128.004c0 14.14 11.462 25.6 25.6 25.6h810.669c14.135 0 25.6-11.46 25.6-25.6s-11.465-25.6-25.6-25.6h-810.669c-14.138 0-25.6 11.46-25.6 25.6zM202.754 503.898v-281.971h-51.2v281.971h51.2zM116.314 221.931c0 14.135 11.462 25.6 25.6 25.6h176.232c14.138 0 25.6-11.465 25.6-25.6 0-14.14-11.462-25.6-25.6-25.6h-176.232c-14.138 0-25.6 11.46-25.6 25.6zM116.314 503.898c0 14.14 11.462 25.6 25.6 25.6h176.232c14.138 0 25.6-11.46 25.6-25.6s-11.462-25.6-25.6-25.6h-176.232c-14.138 0-25.6 11.46-25.6 25.6zM308.494 503.898v-281.971h-51.2v281.971h51.2zM398.284 221.931c0 14.135 11.462 25.6 25.6 25.6h176.232c14.14 0 25.6-11.465 25.6-25.6 0-14.14-11.46-25.6-25.6-25.6h-176.232c-14.138 0-25.6 11.46-25.6 25.6zM398.284 503.898c0 14.14 11.462 25.6 25.6 25.6h176.232c14.14 0 25.6-11.46 25.6-25.6s-11.46-25.6-25.6-25.6h-176.232c-14.138 0-25.6 11.46-25.6 25.6zM484.732 503.898v-281.971h-51.2v281.971h51.2zM590.464 503.898v-281.971h-51.2v281.971h51.2zM680.252 221.931c0 14.135 11.46 25.6 25.6 25.6h176.23c14.14 0 25.6-11.465 25.6-25.6 0-14.14-11.46-25.6-25.6-25.6h-176.23c-14.14 0-25.6 11.46-25.6 25.6zM680.252 503.898c0 14.14 11.46 25.6 25.6 25.6h176.23c14.14 0 25.6-11.46 25.6-25.6s-11.46-25.6-25.6-25.6h-176.23c-14.14 0-25.6 11.46-25.6 25.6zM766.703 503.898v-281.971h-51.2v281.971h51.2zM872.444 503.898v-281.971h-51.2v281.971h51.2zM499.409 874.998c8.358 5.264 18.995 5.251 27.341-0.032l404.275-256c9.626-6.095 14.067-17.817 10.893-28.758s-13.193-18.47-24.585-18.47h-810.669c-11.404 0-21.432 7.543-24.595 18.499s1.302 22.683 10.95 28.762l406.389 256zM195.334 622.938h633.718l-316.032 200.122-317.686-200.122z" />
<glyph unicode="&#xe924;" glyph-name="basketball" d="M512 874.667c235.631 0 426.667-191.035 426.667-426.667 0-235.657-191.023-426.667-426.667-426.667-235.667 0-426.667 191.002-426.667 426.667 0 235.644 191.011 426.667 426.667 426.667zM586.057 414.046l-4.198-3.426c-58.722-49.519-96.026-123.631-96.026-206.443 0-46.353 11.686-90.91 33.596-130.487l-7.428-0.111c70.609 0 136.653 19.541 193.015 53.517-20.659 111.902-61.884 207.023-118.959 286.95zM476.753 533.736l-10.359-9.187c-100.555-91.174-171.47-210.193-217.423-343.074 55.938-55.164 129.103-92.864 210.699-104.269-17.109 39.671-26.082 82.667-26.082 126.972 0 101.538 46.985 192.115 120.401 251.17-23.646 28.25-49.493 54.345-77.235 78.388zM755.763 474.108c-45.47 0-88.316-11.247-125.909-31.108 56.585-79.65 98.556-173.427 121.809-282.658 80.555 67.149 132.463 167.539 134.686 280.119-39.535 21.952-84.143 33.647-130.586 33.647zM387.986 599.881l-7.002-6.615c-57.292-52.367-133.565-84.312-217.291-84.312-7.035 0-14.042 0.226-20.999 0.674-3.383-19.985-5.116-40.602-5.116-61.628 0-82.731 26.822-159.194 72.247-221.158 49.504 131.405 123.215 249.092 225.37 340.355-15.248 11.412-31.009 22.311-47.209 32.684zM797.909 689.766l13.901 2.808c-115.418-21.975-212.663-65.646-293.572-125.505 28.518-25.238 55.087-52.585 79.492-82.097 46.682 26.351 100.604 41.382 158.033 41.382 44.343 0 87.364-8.964 126.993-25.975-9.98 71.581-40.269 136.724-84.847 189.388zM220.845 683.408l-1.015-1.225c-28.513-35.528-50.679-76.367-64.779-120.799 2.875-0.142 5.755-0.187 8.642-0.187 67.918 0 129.981 25.091 177.426 66.508-38.176 21.164-78.403 39.664-120.275 55.702zM512 822.422c-8.849 0-17.626-0.307-26.321-0.911l0.192 9.618c0-71.706-23.433-137.944-63.056-191.475 18.508-12.015 36.462-24.733 53.831-38.128 77.542 59.532 169.604 105.003 277.666 131.908-65.301 55.503-149.901 88.988-242.313 88.988zM433.097 814.063l-6.952-1.53c-63.296-14.849-120.404-45.757-166.792-88.19 41.245-16.688 80.896-35.753 118.633-57.288 31.664 41.2 51.668 91.861 55.111 147.008z" />
<glyph unicode="&#xe925;" glyph-name="baths" d="M81.062 367.863c0 14.14 11.462 25.6 25.6 25.6h211.478v-51.2h-184.769c12.968-149.047 138.098-266.018 290.508-266.018h176.231c152.41 0 277.542 116.971 290.509 266.018h-325.756v51.2h352.465c14.14 0 25.6-11.46 25.6-25.6 0-189.312-153.506-342.818-342.818-342.818h-176.231c-189.313 0-342.817 153.506-342.817 342.818zM746.918 808.743c13.274 11.333 31.919 14.080 47.915 6.971 15.957-7.092 26.385-23.184 26.385-41.105v-407.099h51.2v407.099c0 37.768-21.995 72.427-56.794 87.893-34.539 15.351-74.816 9.112-103.104-15.818-0.401-0.355-0.794-0.724-1.173-1.104l-31.723-31.723 36.207-36.203 31.087 31.089zM715.81 813.554c42.91-42.504 42.756-111.62 0.051-154.326l-19.738-19.74c-4.804-4.801-11.315-7.499-18.103-7.499-6.793 0-13.303 2.697-18.103 7.498l-118.076 118.074c-9.997 9.997-9.997 26.205 0 36.203l19.691 19.695c42.487 42.894 111.569 42.751 154.278 0.095zM679.654 777.302c-22.835 22.836-59.422 22.694-81.775 0.098l-0.094-0.098-1.638-1.638 81.869-81.871 1.638 1.636c22.835 22.836 22.694 59.421 0.098 81.774l-0.098 0.098zM514.449 763.485c5.922-12.837 0.32-28.047-12.518-33.972l-64.145-29.61c-12.839-5.926-28.049-0.323-33.974 12.515s-0.323 28.047 12.515 33.972l64.147 29.61c12.838 5.926 28.049 0.323 33.975-12.515zM659.106 617.718c13.018-5.518 19.098-20.544 13.581-33.561l-27.494-64.856c-5.517-13.018-20.54-19.098-33.557-13.581-13.018 5.521-19.098 20.544-13.581 33.563l27.494 64.856c5.517 13.018 20.54 19.097 33.557 13.579zM572.877 674.855c9.924-10.068 9.809-26.277-0.26-36.203l-50.048-49.341c-10.069-9.926-26.278-9.81-36.203 0.258-9.929 10.068-9.813 26.277 0.256 36.203l50.052 49.341c10.069 9.926 26.278 9.81 36.203-0.258zM292.541 403.11c0 33.523 27.322 60.847 60.847 60.847h176.23c33.527 0 60.847-27.324 60.847-60.847v-211.477c0-14.14-11.46-25.6-25.6-25.6h-246.723c-14.138 0-25.6 11.46-25.6 25.6v211.477zM353.387 412.757c-5.247 0-9.647-4.399-9.647-9.647v-185.877h195.523v185.877c0 5.248-4.399 9.647-9.647 9.647h-176.23z" />
<glyph unicode="&#xe926;" glyph-name="beds" d="M151.904 716.561c2.057 12.344 12.738 21.391 25.252 21.391h80.362v-51.2h-58.675l-61.96-371.757h750.226l-61.956 371.757h-49.865v51.2h71.548c12.514 0 23.194-9.047 25.254-21.391l70.49-422.959c1.237-7.42-0.853-15.010-5.717-20.753s-12.006-9.054-19.533-9.054h-810.666c-7.525 0-14.669 3.311-19.534 9.054s-6.955 13.333-5.718 20.753l70.493 422.959zM81.063 289.395c0 14.14 11.462 25.6 25.6 25.6h810.666c14.14 0 25.6-11.46 25.6-25.6v-158.609c0-43.392-35.076-78.468-78.468-78.468h-704.928c-43.393 0-78.47 35.076-78.47 78.468v158.609zM132.263 263.795v-133.009c0-15.117 12.154-27.268 27.27-27.268h704.928c15.117 0 27.268 12.151 27.268 27.268v133.009h-759.466zM139.921 571.366c0 14.138 11.462 25.6 25.6 25.6h692.945c14.135 0 25.6-11.462 25.6-25.6s-11.465-25.6-25.6-25.6h-692.945c-14.138 0-25.6 11.462-25.6 25.6zM237.099 751.148c1.77 12.643 12.585 22.051 25.353 22.051h200.2c6.878 0 13.466-2.768 18.283-7.68 4.813-4.912 7.45-11.555 7.313-18.432l-2.116-105.739c-0.277-13.936-11.657-25.088-25.596-25.088h-212.887c-7.409 0-14.454 3.209-19.316 8.8s-7.064 13.012-6.036 20.35l14.804 105.739zM284.717 721.999l-7.635-54.539h158.361l1.092 54.539h-151.818zM551.868 765.519c4.813 4.912 11.405 7.68 18.283 7.68h200.196c12.77 0 23.586-9.407 25.353-22.051l14.805-105.739c1.028-7.337-1.173-14.76-6.037-20.35-4.86-5.59-11.908-8.8-19.315-8.8h-212.89c-13.939 0-25.314 11.152-25.591 25.088l-2.116 105.739c-0.137 6.877 2.496 13.52 7.313 18.432zM596.267 721.999l1.092-54.539h158.357l-7.633 54.539h-151.817zM230.025 827.738c-15.116 0-27.27-12.154-27.27-27.27v-88.116c0-14.138-11.462-25.6-25.6-25.6s-25.6 11.462-25.6 25.6v88.116c0 43.393 35.077 78.47 78.47 78.47h563.942c43.392 0 78.468-35.077 78.468-78.47v-88.116c0-14.138-11.46-25.6-25.6-25.6-14.135 0-25.6 11.462-25.6 25.6v88.116c0 15.116-12.151 27.27-27.268 27.27h-563.942zM212.402 103.518c14.138 0 25.6-11.46 25.6-25.6v-35.247c0-14.14-11.462-25.6-25.6-25.6s-25.6 11.46-25.6 25.6v35.247c0 14.14 11.462 25.6 25.6 25.6zM811.588 103.518c14.14 0 25.6-11.46 25.6-25.6v-35.247c0-14.14-11.46-25.6-25.6-25.6-14.135 0-25.6 11.46-25.6 25.6v35.247c0 14.14 11.465 25.6 25.6 25.6zM437.056 708.122c0 14.138 11.46 25.6 25.6 25.6h107.499c14.14 0 25.6-11.462 25.6-25.6s-11.46-25.6-25.6-25.6h-107.499c-14.14 0-25.6 11.462-25.6 25.6z" />
<glyph unicode="&#xe927;" glyph-name="bicycle" d="M247.648 457.95c-63.726 0-115.386-51.661-115.386-115.383 0-63.727 51.66-115.388 115.386-115.388s115.386 51.661 115.386 115.388c0 63.723-51.66 115.383-115.386 115.383zM81.062 342.566c0 92.002 74.583 166.583 166.586 166.583s166.586-74.581 166.586-166.583c0-92.006-74.583-166.588-166.586-166.588s-166.586 74.581-166.586 166.588zM776.346 457.95c-63.727 0-115.388-51.661-115.388-115.383 0-63.727 51.661-115.388 115.388-115.388 63.723 0 115.383 51.661 115.383 115.388 0 63.723-51.661 115.383-115.383 115.383zM609.758 342.566c0 92.002 74.581 166.583 166.588 166.583 92.002 0 166.583-74.581 166.583-166.583 0-92.006-74.581-166.588-166.583-166.588-92.006 0-166.588 74.581-166.588 166.588zM407.119 570.583c4.864 5.746 12.011 9.060 19.54 9.060h261.568c14.14 0 25.6-11.462 25.6-25.6s-11.46-25.599-25.6-25.599h-249.698l-171.34-202.419c-9.135-10.79-25.288-12.134-36.079-2.999s-12.134 25.289-3 36.079l179.011 211.479zM641.003 676.511c5.551 6.429 13.931 9.687 22.366 8.696l111.723-13.129c33.212-4.831 56.508-35.671 51.605-68.884-4.847-33.206-35.695-56.481-68.911-51.561-13.986 2.072-23.642 15.089-21.572 29.075 2.074 13.986 15.091 23.644 29.077 21.572 4.843-0.717 9.937 2.768 10.743 8.316l0.009 0.067c0.708 4.769-2.667 9.791-8.077 10.709l-73.028 8.575 69.073-256.214 20.506-6.908c13.397-4.514 20.599-19.038 16.085-32.435s-19.034-20.599-32.431-16.085l-33.485 11.281c-8.111 2.731-14.319 9.335-16.546 17.596l-82.475 305.936c-2.21 8.201-0.213 16.963 5.338 23.392zM329.843 703.124c4.471 13.413 18.969 20.662 32.382 16.191l105.739-35.247c13.414-4.471 20.663-18.969 16.192-32.381s-18.97-20.662-32.384-16.191l-105.738 35.247c-13.413 4.471-20.662 18.969-16.191 32.382zM387.907 706.919c13.638 3.73 27.717-4.3 31.448-17.938l94.62-345.877c3.729-13.636-4.301-27.716-17.937-31.445-13.636-3.733-27.716 4.301-31.45 17.937l-94.619 345.876c-3.731 13.638 4.3 27.717 17.937 31.448z" />
<glyph unicode="&#xe928;" glyph-name="binoculars" d="M282.894 403.691c-83.191 0-150.632-67.443-150.632-150.635s67.44-150.63 150.632-150.63c83.192 0 150.633 67.439 150.633 150.63s-67.441 150.635-150.633 150.635zM81.062 253.056c0 111.471 90.363 201.835 201.832 201.835s201.833-90.364 201.833-201.835c0-111.467-90.365-201.83-201.833-201.83s-201.832 90.364-201.832 201.83zM406.257 844.802c24.907 0 51.868-8.219 70.97-27.324 4.804-4.801 7.501-11.312 7.501-18.102v-140.986c0-14.138-11.465-25.6-25.6-25.6-14.14 0-25.6 11.462-25.6 25.6v128.521c-7.235 4.136-16.729 6.691-27.271 6.691-12.552 0-23.616-3.622-31.152-9.221l-50.617-134.979c-1.283-3.422-3.284-6.529-5.868-9.113l-49.383-49.384-103.797-242.195c-5.57-12.992-20.619-19.012-33.615-13.444s-19.015 20.621-13.446 33.613l105.739 246.726c1.283 2.993 3.125 5.715 5.428 8.017l48.948 48.948 50.923 135.793c1.283 3.422 3.284 6.529 5.868 9.113 19.105 19.105 46.065 27.324 70.972 27.324zM741.099 403.691c-83.191 0-150.635-67.443-150.635-150.635s67.443-150.63 150.635-150.63c83.191 0 150.63 67.439 150.63 150.63s-67.439 150.635-150.63 150.635zM539.264 253.056c0 111.471 90.364 201.835 201.835 201.835 111.467 0 201.83-90.364 201.83-201.835 0-111.467-90.364-201.83-201.83-201.83-111.471 0-201.835 90.364-201.835 201.83zM590.464 784.795v-126.406c0-14.138-11.46-25.6-25.6-25.6-14.135 0-25.6 11.462-25.6 25.6v138.871c0 6.79 2.697 13.301 7.501 18.102 19.102 19.104 46.063 27.324 70.972 27.324 24.905 0 51.866-8.22 70.972-27.324 2.551-2.554 4.535-5.619 5.82-8.994l50.923-133.751 48.994-48.996c2.304-2.303 4.147-5.024 5.427-8.017l105.741-246.724c5.568-12.996-0.452-28.045-13.444-33.613-12.996-5.572-28.045 0.448-33.617 13.444l-103.795 242.193-49.382 49.384c-2.556 2.554-4.54 5.618-5.824 8.993l-50.615 132.949c-7.535 5.619-18.62 9.256-31.198 9.256-10.543 0-20.036-2.555-27.273-6.691zM423.757 544.301c-22.822-11.429-27.147-22.441-27.147-26.895 0-14.14-11.462-25.6-25.6-25.6s-25.6 11.46-25.6 25.6c0 34.316 27.22 58.551 55.418 72.674 29.755 14.904 69.090 23.418 111.168 23.418s81.412-8.514 111.168-23.418c28.198-14.123 55.42-38.358 55.42-72.674 0-14.14-11.465-25.6-25.6-25.6-14.14 0-25.6 11.46-25.6 25.6 0 4.454-4.326 15.467-27.149 26.895-21.265 10.65-52.425 17.997-88.239 17.997s-66.974-7.347-88.239-17.997zM459.127 608.214c14.135 0 25.6-11.461 25.6-25.6v-329.558c0-14.135-11.465-25.596-25.6-25.596-14.14 0-25.6 11.46-25.6 25.596v329.558c0 14.139 11.46 25.6 25.6 25.6zM564.864 608.214c14.14 0 25.6-11.461 25.6-25.6v-329.558c0-14.135-11.46-25.596-25.6-25.596-14.135 0-25.6 11.46-25.6 25.596v329.558c0 14.139 11.465 25.6 25.6 25.6zM291.349 324.608c-44.37 0-80.139-35.767-80.139-80.137 0-14.14-11.462-25.6-25.6-25.6s-25.6 11.46-25.6 25.6c0 72.644 58.692 131.337 131.339 131.337 14.138 0 25.6-11.46 25.6-25.6s-11.462-25.6-25.6-25.6zM749.589 324.608c-44.369 0-80.141-35.767-80.141-80.137 0-14.14-11.46-25.6-25.6-25.6-14.135 0-25.6 11.46-25.6 25.6 0 72.644 58.692 131.337 131.341 131.337 14.14 0 25.6-11.46 25.6-25.6s-11.46-25.6-25.6-25.6z" />
<glyph unicode="&#xe929;" glyph-name="block" d="M511.996 827.738c-209.721 0-379.733-170.013-379.733-379.733 0-209.719 170.013-379.733 379.733-379.733 209.719 0 379.733 170.014 379.733 379.733 0 209.721-170.014 379.733-379.733 379.733zM81.062 448.004c0 237.998 192.936 430.933 430.933 430.933 237.999 0 430.933-192.936 430.933-430.933 0-237.999-192.934-430.933-430.933-430.933-237.998 0-430.933 192.934-430.933 430.933zM224.854 463.701c0 150.067 121.747 271.45 271.449 271.45 56.614 0 109.056-17.361 152.589-47.090 6.293-4.297 10.342-11.174 11.051-18.76s-1.997-15.094-7.386-20.482l-341.369-341.371c-5.388-5.385-12.896-8.094-20.482-7.386s-14.463 4.757-18.76 11.051c-29.729 43.533-47.091 95.974-47.091 152.589zM496.303 683.951c-121.468 0-220.249-98.504-220.249-220.25 0-34.735 8.027-67.456 22.361-96.619l294.507 294.508c-29.158 14.333-61.884 22.36-96.619 22.36zM733.286 595.947c7.586-0.709 14.464-4.759 18.761-11.052 29.73-43.532 47.091-95.974 47.091-152.588 0-150.067-121.749-271.45-271.45-271.45-56.614 0-109.056 17.361-152.588 47.091-6.292 4.297-10.343 11.174-11.052 18.761s1.999 15.095 7.387 20.48l341.371 341.37c5.385 5.388 12.894 8.096 20.48 7.387zM431.070 234.419c29.158-14.336 61.884-22.362 96.619-22.362 121.468 0 220.25 98.505 220.25 220.25 0 34.735-8.026 67.456-22.362 96.619l-294.507-294.507z" />
<glyph unicode="&#xe92a;" glyph-name="bug" d="M645.606 874.666c12.646-0.060 23.053-9.935 24.653-22.691l0.213-3.546-0.132-34.888c-0.132-25.331-14.182-62.933-31.846-87.226l-10.654-14.659c41.015-32.762 69.227-82.431 74.671-139.118 1.476-15.38-10.074-28.73-24.853-28.73h-331.309c-14.78 0-26.327 13.349-24.851 28.73 5.44 56.663 33.632 106.318 74.618 139.081l-10.57 14.638c-17.697 24.397-31.753 61.984-31.885 87.331l-0.134 34.841c-0.061 14.426 11.072 26.172 24.865 26.237 12.644 0.058 23.135-9.72 24.843-22.461l0.243-3.543 0.133-34.835c0.068-13.059 10.159-40.044 21.771-56.052l14.391-19.908c22.349 9.609 46.75 14.905 72.213 14.905 25.468 0 49.873-5.295 72.23-14.904l14.455 19.987c11.571 15.911 21.645 42.883 21.713 55.924l0.137 34.883c0.060 14.426 11.29 26.068 25.084 26.005zM511.987 700.53c-60.813 0-113.605-41.124-133.286-98.49l-1.903-5.991h270.369l-1.865 5.993c-18.923 55.161-68.467 95.301-126.336 98.307l-6.98 0.181zM700.659 265.114c-4.493-21.585-14.242-44.544-28.463-68.928-15.031-25.779-34.837-52.698-58.287-80.26-18.748-22.037-38.771-43.26-58.79-62.933-2.334-2.3-4.617-4.518-6.839-6.66l-12.548-11.887-7.582-6.916c-9.318-8.26-22.98-8.26-32.299 0l-5.099 4.625-15.031 14.178-6.839 6.66c-20.019 19.674-40.043 40.896-58.792 62.933-23.448 27.563-43.253 54.481-58.284 80.26-14.221 24.384-23.972 47.343-28.464 68.928l-19.471 0.009c-14.553 0-38.561-10.547-53.181-23.292l-4.085-3.883-33.301-34.829c-9.754-10.202-25.567-10.202-35.321 0-8.867 9.271-9.673 23.782-2.418 34.010l2.418 2.931 33.317 34.842c21.247 22.182 57.215 39.782 86.053 42.185l6.518 0.277 16.642 0.034v52.224l-16.642-0.017c-14.553 0-38.561-10.547-53.181-23.296l-4.085-3.883-33.301-34.825c-9.754-10.202-25.567-10.202-35.321 0-8.867 9.271-9.673 23.782-2.418 34.010l2.418 2.931 33.317 34.842c21.247 22.182 57.215 39.782 86.053 42.18l6.518 0.282h16.642v52.267l-16.642-0.026c-14.553 0-38.561-10.547-53.181-23.296l-4.085-3.883-33.301-34.825c-9.754-10.202-25.567-10.202-35.321 0-8.867 9.271-9.673 23.782-2.418 34.010l2.418 2.927 33.317 34.846c21.247 22.178 57.215 39.778 86.053 42.18l6.518 0.282 40.578 0.009 1.048 0.060h333.007c0.35 0 0.695-0.009 1.041-0.021l40.585-0.047c29.751 0 69.747-18.59 92.574-42.462l33.335-34.867c9.745-10.21 9.724-26.748-0.038-36.937-8.879-9.263-22.754-10.091-32.525-2.492l-3.87 3.657-32.209 33.681c-12.523 13.099-36.365 24.841-52.634 26.867l-4.634 0.311-16.683 0.026v-52.267h16.683c29.751 0 69.747-18.59 92.574-42.462l33.335-34.863c9.745-10.214 9.724-26.752-0.038-36.941-8.879-9.263-22.754-10.091-32.525-2.492l-3.87 3.657-32.209 33.681c-12.523 13.103-36.365 24.845-52.634 26.871l-4.634 0.307-16.683 0.017v-52.224l16.683-0.034c29.751 0 69.747-18.586 92.574-42.462l33.335-34.863c9.745-10.21 9.724-26.752-0.038-36.941-8.879-9.263-22.754-10.091-32.525-2.492l-3.87 3.657-32.209 33.685c-12.523 13.099-36.365 24.841-52.634 26.867l-4.634 0.307-19.469-0.009zM653.53 474.155h-283.058v-182.912c0-15.812 6.65-36.224 19.475-59.861l4.503-7.996c13.287-22.784 31.344-47.33 52.957-72.734 17.673-20.774 36.676-40.913 55.68-59.593l8.913-8.64 4.198 4.032 18.944 18.876c14.191 14.519 28.194 29.743 41.451 45.325 21.611 25.404 39.671 49.95 52.958 72.734 15.77 27.042 23.979 50.287 23.979 67.857v182.912z" />
<glyph unicode="&#xe92b;" glyph-name="built" d="M689.459 810.023l41.638-29.731c11.473-8.15 19.358-23.696 19.469-38.268 0.013-1.68-0.047-3.448-0.188-6.306-0.026-0.551-0.026-0.551-0.047-1.009-0.017-0.303-0.017-0.303-0.030-0.607-0.154-3.118-0.222-4.939-0.239-6.88-0.077-7.511 0.922-11.917 2.193-12.824 1.178-0.843 5.261-0.661 11.405 1.162 2.078 0.618 4.301 1.382 6.921 2.362 2.082 0.788 2.082 0.788 4.049 1.549l0.661 0.258c2.159 0.835 2.159 0.835 4.164 1.568 12.766 4.596 27.52 0.705 40.329-8.442 2.594-1.83 2.594-1.83 5.858-4.1 36.561-25.388 53.709-40.208 56.606-56.638 2.142-12.143-0.495-24.080-7.612-34.441l-103.629-142.224c-7.027-10.18-17.284-16.802-28.89-18.85-15.437-2.722-30.455 6.421-60.838 30.583-3.486 2.773-5.662 4.489-7.33 5.764l-2.893 2.146c-11.46 8.141-19.311 23.65-19.409 38.204-0.017 2.836 0.299 5.573 1.374 13.196l0.324 2.313c0.435 3.183 0.61 4.493 0.828 6.381 0.324 2.787 0.521 5.299 0.627 7.472l0.021 1.551-14.43-21.865c-5.286-7.645-12.608-13.285-21.069-16.51l-2.432-0.708-102.357-150.955 0.623-1.698c3.469-11.503 2.428-24.205-2.965-34.876l-3.059-5.154-202.391-294.938c-9.92-14.498-24.996-24.060-41.911-27.046-16.898-2.974-34.297 0.849-48.623 11.076l-47.374 33.826c-29.373 20.928-36.628 62.076-16.198 91.827l202.389 294.938c8.285 12.117 21.652 19.136 35.914 19.554l0.932-0.043 102.313 150.785-0.119 2.717c0.077 7.391 1.835 14.551 5.197 20.969l2.82 4.667 3.196 4.757c-0.717 1.222-1.284 2.184-1.907 3.221l-2.027 3.33c-4.864 7.877-10.219 15.751-15.893 23.072-9.276 11.968-18.441 21.206-26.953 26.59-32.943 20.843-65.804 19.828-122.489 4.688-14.861-3.972-30.353 1.814-39.135 14.631-8.706 12.713-8.747 29.134-0.078 41.823 35.233 51.585 127.256 110.612 191.312 121.905 55.142 9.722 128.132-22.496 201.353-74.772zM394.387 405.278l-198.194-288.862c-3.815-5.555-2.438-13.363 3.046-17.28l47.38-33.826c5.401-3.857 12.841-2.543 16.595 2.923l198.328 289.088-67.156 47.957zM527.377 566.26l-86.912-128.343 35.584-25.387 86.912 128.343-35.584 25.387zM495.526 831.633c-34.005-5.996-86.315-34.38-120.097-61.799l-4.851-4.065 1.964 0.208c51.823 5.4 80.245 2.801 110.056-16.096l5.986-3.999c42.517-29.809 84.25-96.873 62.891-127.374l-1.783-2.541 51.371-36.693 17.997 26.169c6.020 8.766 14.771 15.041 24.666 17.981l5.039 1.188c9.51 1.677 19.319 0.224 28.122-4.313 2.709-1.444 5.291-3.037 7.966-4.912 15.462-11.039 18.163-31.569 17.54-76.748-0.034-2.368-0.055-4.161-0.073-5.629l-0.051-1.609 3.43-2.59c1.783-1.323 3.511-2.586 5.252-3.849l5.338-3.81c1.276-0.9 1.276-0.9 2.56-1.792 4.561-3.166 8.845-5.897 11.716-7.659l0.845-0.482 95.616 131.372-34.603 24.405-3.119-1.032c-20.698-5.841-42.893-4.503-59.627 4.749l-5.367 3.378c-16.38 11.728-24.794 33.847-26.398 59.842l-0.166 4.232-38.622 28.139c-56.090 40.046-126.729 71.831-163.597 65.33z" />
<glyph unicode="&#xe92c;" glyph-name="calendar" d="M512 373.333c29.457 0 53.333 23.876 53.333 53.333s-23.876 53.333-53.333 53.333c-29.457 0-53.333-23.876-53.333-53.333s23.876-53.333 53.333-53.333zM565.333 202.667c0-29.457-23.876-53.333-53.333-53.333s-53.333 23.876-53.333 53.333c0 29.457 23.876 53.333 53.333 53.333s53.333-23.876 53.333-53.333zM277.333 149.333c29.455 0 53.333 23.876 53.333 53.333s-23.878 53.333-53.333 53.333c-29.455 0-53.333-23.876-53.333-53.333s23.878-53.333 53.333-53.333zM800 426.667c0-29.457-23.876-53.333-53.333-53.333s-53.333 23.876-53.333 53.333c0 29.457 23.876 53.333 53.333 53.333s53.333-23.876 53.333-53.333zM746.667 149.333c29.457 0 53.333 23.876 53.333 53.333s-23.876 53.333-53.333 53.333c-29.457 0-53.333-23.876-53.333-53.333s23.876-53.333 53.333-53.333zM328.533 861.869c0 14.138-11.462 25.6-25.6 25.6s-25.6-11.462-25.6-25.6v-64.004h-123.733c-37.703 0-68.267-30.564-68.267-68.267v-652.798c0-37.705 30.564-68.267 68.267-68.267h716.8c37.705 0 68.267 30.562 68.267 68.267v652.798c0 37.703-30.562 68.267-68.267 68.267h-123.733v64.004c0 14.138-11.46 25.6-25.6 25.6s-25.6-11.462-25.6-25.6v-64.004h-366.933v64.004zM721.067 674.135c14.14 0 25.6 11.462 25.6 25.6v46.929h123.733c9.425 0 17.067-7.641 17.067-17.067v-104.533h-750.933v104.533c0 9.426 7.641 17.067 17.067 17.067h123.733v-46.929c0-14.138 11.462-25.6 25.6-25.6s25.6 11.462 25.6 25.6v46.929h366.933v-46.929c0-14.138 11.46-25.6 25.6-25.6zM153.6 59.733c-9.425 0-17.067 7.637-17.067 17.067v497.065h750.933v-497.065c0-9.429-7.642-17.067-17.067-17.067h-716.8z" />
<glyph unicode="&#xe92d;" glyph-name="camera" d="M686.148 768c30.123 0 55.215-18.213 75.61-48.937l27.593-54.847h51.584c61.918 0 95.121-28.768 97.583-79.375l0.149-6.177v-359.37c0-55.411-33.762-91.294-97.732-91.294h-657.868c-63.971 0-97.733 35.883-97.733 91.294v359.37c0 46.257 24.063 75.94 70.295 83.589l0.34 10.612c0 32.346 27.311 60.541 59.977 60.541h32.88c33.444 0 62.903-27.793 62.903-60.541l-0.005-8.63 82.726-0.018 43.575 57.645c17.515 26.064 40.538 43.667 68.019 45.899l5.956 0.24h174.148zM686.148 716.108h-174.148c-9.323 0-20.463-8.088-31.347-24.216l-52.245-69.19c-4.933-6.533-12.675-10.378-20.897-10.378h-226.394c-34.447 0-43.537-8.675-43.537-33.661v-359.37c0-27.507 11.191-39.403 45.488-39.403h657.868c34.295 0 45.487 11.895 45.487 39.403v359.37c0 25.032-9.246 33.661-45.487 33.661h-67.712c-9.894 0-18.94 5.553-23.364 14.343l-33.19 66.391c-10.052 14.962-21.197 23.050-30.519 23.050zM599.074 629.622c120.218 0 217.69-96.8 217.69-216.216 0-119.394-97.485-216.218-217.69-216.218-120.23 0-217.686 96.811-217.686 216.218 0 119.428 97.447 216.216 217.686 216.216zM599.074 577.73c-91.388 0-165.44-73.555-165.44-164.324 0-90.748 74.065-164.326 165.44-164.326 91.354 0 165.444 73.591 165.444 164.326 0 90.756-74.078 164.324-165.444 164.324zM599.074 543.135c72.115 0 130.611-58.088 130.611-129.729s-58.496-129.732-130.611-129.732c-72.141 0-130.611 58.078-130.611 129.732s58.47 129.729 130.611 129.729zM599.074 491.243c-43.285 0-78.366-34.842-78.366-77.837s35.081-77.837 78.366-77.837c43.264 0 78.37 34.854 78.37 77.837 0 42.978-35.106 77.837-78.37 77.837zM233.361 595.027c43.276 0 78.367-34.839 78.367-77.839 0-42.974-35.101-77.837-78.367-77.837-43.292 0-78.368 34.854-78.368 77.837 0 43.009 35.066 77.839 78.368 77.839zM233.361 543.135c-14.447 0-26.123-11.598-26.123-25.947 0-14.327 11.69-25.946 26.123-25.946 14.412 0 26.122 11.631 26.122 25.946 0 14.336-11.695 25.947-26.122 25.947zM248.825 681.513h-32.88c-3.351 0-7.732-4.523-7.742-9.375l-0.246-7.904h51.499l0.027 8.63c0 3.475-5.484 8.649-10.658 8.649z" />
<glyph unicode="&#xe92e;" glyph-name="cancel-showing" d="M142.922 748.363c-4.361 0-10.659-4.273-10.659-13.071v-406.272c0-8.798 6.299-13.069 10.659-13.069h273.625c14.139 0 25.599-11.465 25.599-25.6 0-14.14-11.46-25.6-25.599-25.6h-273.625c-35.693 0-61.859 30.349-61.859 64.269v406.272c0 33.92 26.166 64.271 61.859 64.271h472.69c35.695 0 61.862-30.351 61.862-64.271v-152.041c0-14.138-11.465-25.6-25.6-25.6-14.14 0-25.6 11.462-25.6 25.6v152.041c0 8.798-6.302 13.071-10.662 13.071h-472.69zM89.792 636.331c0.002 14.138 11.465 25.598 25.604 25.597l536.479-0.077c14.14-0.002 25.6-11.465 25.596-25.604 0-14.138-11.465-25.598-25.604-25.596l-536.477 0.077c-14.138 0.002-25.599 11.465-25.597 25.603zM711.855 468.049c-99.371 0-179.874-80.499-179.874-179.87 0-99.319 80.508-179.874 179.874-179.874 99.328 0 179.87 80.555 179.87 179.874 0 99.366-80.538 179.87-179.87 179.87zM480.781 288.179c0 127.646 103.424 231.070 231.074 231.070 127.603 0 231.070-103.42 231.070-231.070 0-127.59-103.462-231.074-231.070-231.074-127.654 0-231.074 103.484-231.074 231.074zM814.703 391.040c9.997-9.997 9.997-26.206-0.004-36.203l-169.519-169.485c-9.997-9.997-26.206-9.997-36.203 0.004-9.997 9.997-9.997 26.206 0 36.203l169.523 169.485c9.997 9.997 26.206 9.997 36.203-0.004zM608.977 391.040c9.997 10.001 26.206 10.001 36.203 0.004l169.519-169.485c10.001-9.997 10.001-26.206 0.004-36.203-9.997-10.001-26.206-10.001-36.203-0.004l-169.523 169.485c-9.997 9.997-9.997 26.206 0 36.203zM257.933 839.25c14.138 0 25.6-11.462 25.6-25.6v-81.067c0-14.138-11.462-25.6-25.6-25.6s-25.6 11.462-25.6 25.6v81.067c0 14.138 11.462 25.6 25.6 25.6zM501.133 839.25c14.135 0 25.6-11.462 25.6-25.6v-81.067c0-14.138-11.465-25.6-25.6-25.6-14.14 0-25.6 11.462-25.6 25.6v81.067c0 14.138 11.46 25.6 25.6 25.6z" />
<glyph unicode="&#xe92f;" glyph-name="cancel" d="M511.996 827.738c-209.721 0-379.733-170.013-379.733-379.733 0-209.719 170.013-379.733 379.733-379.733 209.719 0 379.733 170.014 379.733 379.733 0 209.721-170.014 379.733-379.733 379.733zM81.062 448.004c0 237.998 192.936 430.933 430.933 430.933 237.999 0 430.933-192.936 430.933-430.933 0-237.999-192.934-430.933-430.933-430.933-237.998 0-430.933 192.934-430.933 430.933zM686.327 622.353c9.997-9.997 9.997-26.206 0-36.204l-312.476-312.485c-9.997-9.997-26.206-9.997-36.204 0s-9.998 26.206 0 36.203l312.477 312.486c9.997 9.997 26.206 9.998 36.203 0zM337.648 622.353c9.998 9.997 26.207 9.997 36.204 0l312.476-312.486c9.997-9.997 9.997-26.206 0-36.203s-26.206-9.997-36.203 0l-312.477 312.485c-9.997 9.998-9.997 26.207 0 36.204z" />
<glyph unicode="&#xe930;" glyph-name="carport" d="M295.524 136.977c0 14.14 11.462 25.6 25.6 25.6h67.368c14.138 0 25.6-11.46 25.6-25.6v-44.911c0-14.14-11.462-25.6-25.6-25.6h-67.368c-14.138 0-25.6 11.46-25.6 25.6v44.911zM609.907 136.977c0 14.14 11.46 25.6 25.6 25.6h67.366c14.14 0 25.6-11.46 25.6-25.6v-44.911c0-14.14-11.46-25.6-25.6-25.6h-67.366c-14.14 0-25.6 11.46-25.6 25.6v44.911zM325.475 289.818c4.801 4.8 11.312 7.497 18.102 7.497h336.842c6.788 0 13.299-2.697 18.103-7.497l44.911-44.915c4.8-4.8 7.497-11.311 7.497-18.099v-89.826c0-14.14-11.46-25.6-25.6-25.6h-426.665c-14.138 0-25.6 11.46-25.6 25.6v89.826c0 6.788 2.697 13.299 7.498 18.099l44.912 44.915zM354.18 246.114l-29.916-29.918v-53.619h375.465v53.619l-29.914 29.918h-315.635zM364.719 393.502c3.888 9.719 13.301 16.094 23.769 16.094h247.019c10.466 0 19.878-6.374 23.765-16.094l44.915-112.282c3.153-7.885 2.193-16.823-2.573-23.859-4.762-7.036-12.702-11.247-21.197-11.247h-336.842c-8.495 0-16.436 4.211-21.199 11.247s-5.725 15.974-2.57 23.859l44.912 112.282zM405.82 358.396l-24.432-61.082h261.219l-24.435 61.082h-212.352zM191.997 494.929c14.138 0 25.6-11.465 25.6-25.6v-384c0-14.14-11.462-25.6-25.6-25.6s-25.6 11.46-25.6 25.6v384c0 14.135 11.462 25.6 25.6 25.6zM831.996 494.929c-14.135 0-25.6-11.465-25.6-25.6v-384c0-14.14 11.465-25.6 25.6-25.6 14.14 0 25.6 11.46 25.6 25.6v384c0 14.135-11.46 25.6-25.6 25.6zM496.811 831.27c9.033 6.654 21.342 6.654 30.374 0l405.333-298.666c11.379-8.388 13.807-24.414 5.423-35.797-8.388-11.379-24.414-13.807-35.797-5.423l-390.148 287.478-390.146-287.478c-11.382-8.384-27.408-5.956-35.795 5.423-8.387 11.383-5.959 27.409 5.423 35.797l405.332 298.666z" />
<glyph unicode="&#xe931;" glyph-name="cash" d="M94.549 751.957c-3.434-2.244-6.384-4.855-8.911-7.835l-0.049-0.059-3.669-4.693v-233.131c0.043-225.536 0.128-233.344 3.243-238.037 2.247-3.174 4.933-5.859 8.003-8.037l0.103-0.070c4.736-3.115 14.976-3.2 360.875-3.243h356.011l5.803 3.883c3.609 2.597 6.559 5.874 8.711 9.664l0.078 0.149c2.816 5.589 2.987 19.627 2.56 237.184l-0.427 231.253-3.797 5.333c-8.405 11.776 22.613 10.88-369.365 10.88-343.552 0-354.048-0.085-359.168-3.243zM220.501 701.013c1.621-8.149-2.133-26.752-7.808-38.443-13.355-27.733-40.917-45.611-70.357-45.611h-10.923v87.040h44.245c40.789 0 44.288-0.213 44.843-2.987zM636.587 691.456c0-31.232 17.067-68.907 40.875-90.325 21.636-20.322 50.387-33.293 82.139-34.805l0.293-0.011 16.64-1.067v-117.248l-12.373-0.043c-33.664-0.085-63.915-13.227-90.112-39.211-12.672-12.544-15.787-16.896-23.296-32.427-10.411-21.419-12.629-29.568-13.995-52.053l-1.024-17.067h-363.52l-1.067 17.28c-3.115 51.712-33.877 94.805-81.28 114.091-13.978 5.461-30.147 8.872-47.039 9.423l-0.236 0.006h-11.179v117.248l17.493 1.067c33.482 1.609 63.301 16.075 84.866 38.528l0.041 0.043c24.107 24.619 37.419 55.723 37.504 87.595l0.043 11.52h365.227v-12.544zM776.533 660.48v-43.52h-9.899c-39.595 0-73.472 30.208-78.933 70.4-0.981 7.296-1.323 13.995-0.768 14.933 0.64 1.067 17.877 1.707 45.312 1.707h44.288v-43.52zM438.272 635.691c-53.42-6.911-96.383-44.971-110.413-95.116l-0.221-0.927c-2.787-10.184-4.389-21.877-4.389-33.945 0-24.802 6.766-48.025 18.552-67.922l-0.339 0.618c8.917-15.104 32.469-38.101 47.659-46.507 43.776-24.192 97.024-22.656 137.088 3.925 67.712 44.971 79.189 140.416 23.893 199.040-24.121 25.726-58.32 41.754-96.262 41.754-5.486 0-10.894-0.335-16.205-0.986l0.637 0.064zM912.213 613.547c-7.936-1.707-12.672-4.864-16.299-10.795-3.243-5.291-3.328-10.411-3.328-208.085v-202.624l-653.397-0.896-4.736-3.499c-12.16-9.088-15.275-20.779-8.832-33.067 2.257-4.469 5.622-8.095 9.741-10.602l0.115-0.065c5.717-2.987 20.267-3.115 347.307-3.115 337.621 0 341.419 0.043 346.923 3.413 3.578 2.398 6.562 5.382 8.887 8.845l0.073 0.115c3.328 5.461 3.413 9.045 3.413 224.853 0 214.144-0.085 219.435-3.328 224.725-4.622 6.89-12.381 11.364-21.186 11.364-1.896 0-3.744-0.208-5.522-0.601l0.169 0.031zM480.725 581.12c56.363-19.456 71.637-93.184 27.733-133.845-14.116-13.367-33.226-21.586-54.255-21.586-22.162 0-42.192 9.129-56.535 23.831l-0.016 0.016c-14.245 14.342-23.049 34.103-23.049 55.92 0 21.518 8.564 41.035 22.469 55.33l-0.018-0.018c14.618 15.191 35.122 24.628 57.831 24.628 9.25 0 18.134-1.566 26.401-4.446l-0.563 0.171zM164.096 393.429c21.648-6.789 38.936-21.99 48.349-41.676l0.206-0.478c5.973-12.373 9.387-29.611 7.851-39.851l-0.725-5.12-87.509 0.896-0.469 44.8-0.427 44.8h10.923c6.059 0 15.787-1.493 21.803-3.371zM776.533 351.573v-45.227h-88.491l-1.067 4.864c-1.749 8.107 2.304 27.691 8.491 40.832 12.303 26.269 38.354 44.224 68.641 44.629l12.426 0.129v-45.227z" />
<glyph unicode="&#xe932;" glyph-name="categories" d="M442.338 417.958c14.43 0 26.125-11.695 26.125-26.121v-330.884c0-14.43-11.695-26.125-26.125-26.125h-330.883c-14.427 0-26.122 11.695-26.122 26.125v330.884c0 14.426 11.695 26.121 26.122 26.121h330.883zM416.218 365.713h-278.639v-278.639h278.639v278.639zM303.020 330.884c14.427 0 26.123-11.695 26.123-26.121 0-14.43-11.696-26.125-26.123-26.125h-78.367v-78.366c0-13.227-9.827-24.154-22.578-25.886l-3.545-0.239c-14.427 0-26.122 11.695-26.122 26.125v104.491c0 14.426 11.695 26.121 26.122 26.121h104.49zM842.884 417.958c52.898 0 95.782-42.884 95.782-95.782v-191.565c0-52.898-42.884-95.782-95.782-95.782h-191.565c-52.898 0-95.782 42.884-95.782 95.782v191.565c0 52.898 42.884 95.782 95.782 95.782h191.565zM842.884 365.713h-191.565c-24.043 0-43.537-19.49-43.537-43.537v-191.565c0-24.043 19.494-43.537 43.537-43.537h191.565c24.047 0 43.537 19.494 43.537 43.537v191.565c0 24.047-19.49 43.537-43.537 43.537zM773.222 330.884c14.43 0 26.125-11.695 26.125-26.121 0-14.43-11.695-26.125-26.125-26.125h-78.366v-78.366c0-13.227-9.826-24.154-22.579-25.886l-3.541-0.239c-14.43 0-26.125 11.695-26.125 26.125v104.491c0 14.426 11.695 26.121 26.125 26.121h104.486zM372.68 853.333c52.899 0 95.783-42.883 95.783-95.782v-191.564c0-52.899-42.883-95.783-95.783-95.783h-191.564c-52.899 0-95.782 42.884-95.782 95.783v191.564c0 52.899 42.883 95.782 95.782 95.782h191.564zM372.68 801.088h-191.564c-24.045 0-43.537-19.492-43.537-43.537v-191.564c0-24.045 19.492-43.537 43.537-43.537h191.564c24.045 0 43.537 19.492 43.537 43.537v191.564c0 24.045-19.492 43.537-43.537 43.537zM303.020 766.258c14.427 0 26.123-11.695 26.123-26.122s-11.696-26.123-26.123-26.123h-78.367v-78.367c0-13.225-9.827-24.154-22.578-25.884l-3.545-0.239c-14.427 0-26.122 11.696-26.122 26.123v104.49c0 14.427 11.695 26.122 26.122 26.122h104.49zM912.546 853.333c14.426 0 26.121-11.695 26.121-26.122v-330.883c0-14.43-11.695-26.125-26.121-26.125h-330.884c-14.43 0-26.125 11.695-26.125 26.125v330.883c0 14.427 11.695 26.122 26.125 26.122h330.884zM886.421 801.088h-278.639v-278.639h278.639v278.639zM773.222 766.258c14.43 0 26.125-11.695 26.125-26.122s-11.695-26.123-26.125-26.123h-78.366v-78.367c0-13.225-9.826-24.154-22.579-25.884l-3.541-0.239c-14.43 0-26.125 11.696-26.125 26.123v104.49c0 14.427 11.695 26.122 26.125 26.122h104.486z" />
<glyph unicode="&#xe933;" glyph-name="check" d="M600.111 799.573c6.788 0 13.303-2.697 18.103-7.498l70.494-70.493c9.997-9.997 9.997-26.206 0-36.204l-387.712-387.71c-2.81-2.812-6.236-4.928-10.007-6.187l-105.739-35.243c-9.199-3.068-19.341-0.674-26.197 6.182s-9.251 16.998-6.184 26.197l35.246 105.741c1.257 3.767 3.374 7.194 6.185 10.005l387.712 387.71c4.8 4.801 11.311 7.498 18.099 7.498zM234.777 372.433l-17.144-51.43 51.433 17.143 365.336 365.334-34.291 34.289-365.334-365.336zM194.3 404.365c9.997 9.997 26.206 9.997 36.204 0l70.493-70.494c9.998-9.997 9.998-26.206 0-36.203s-26.206-9.997-36.204 0l-70.493 70.494c-9.998 9.997-9.998 26.206 0 36.203zM363.034 262.899c0 14.14 11.462 25.6 25.6 25.6h422.955c14.14 0 25.6-11.46 25.6-25.6 0-14.135-11.46-25.6-25.6-25.6h-422.955c-14.138 0-25.6 11.465-25.6 25.6zM504.017 368.64c0 14.14 11.465 25.6 25.6 25.6h281.971c14.14 0 25.6-11.46 25.6-25.6s-11.46-25.6-25.6-25.6h-281.971c-14.135 0-25.6 11.46-25.6 25.6zM81.062 580.118c0 14.138 11.462 25.6 25.6 25.6h299.594c14.138 0 25.598-11.462 25.598-25.6s-11.46-25.6-25.598-25.6h-273.994v-407.002h759.467v407.002h-344.486c-14.14 0-25.6 11.462-25.6 25.6s11.46 25.6 25.6 25.6h370.086c14.14 0 25.6-11.462 25.6-25.6v-458.202c0-14.14-11.46-25.6-25.6-25.6h-810.667c-14.138 0-25.6 11.46-25.6 25.6v458.202zM458.65 668.713c9.997 9.997 26.206 9.997 36.203 0l70.494-70.493c9.997-9.998 9.997-26.207 0-36.204-10.001-9.998-26.21-9.998-36.207 0l-70.49 70.493c-10.001 9.998-10.001 26.207 0 36.204zM494.374 781.95c6.788 0 13.299-2.697 18.099-7.498l44.058-44.058c9.997-9.997 9.997-26.206 0-36.204s-26.206-9.997-36.203 0l-25.954 25.956-87.639-87.637c-9.997-9.997-26.206-9.997-36.204 0s-9.997 26.207 0 36.204l105.74 105.739c4.8 4.801 11.311 7.498 18.103 7.498z" />
<glyph unicode="&#xe934;" glyph-name="checkmark-plain" d="M875.059 725.727c11.996-11.997 11.996-31.448 0-43.445l-469.334-469.331c-5.761-5.765-13.575-9.001-21.723-9.001s-15.961 3.236-21.722 9.001l-213.334 213.33c-11.997 11.996-11.997 31.45 0 43.446s31.448 11.997 43.445 0l191.611-191.609 447.613 447.609c11.996 11.997 31.447 11.997 43.443 0z" />
<glyph unicode="&#xe935;" glyph-name="checkmark" d="M706.944 588.834c9.647-10.336 9.088-26.535-1.25-36.182l-264.346-246.723c-10.086-9.412-25.816-9.143-35.57 0.61l-88.116 88.115c-9.997 10.001-9.997 26.21 0 36.207s26.207 9.997 36.204 0l70.627-70.63 246.265 229.851c10.338 9.647 26.539 9.088 36.186-1.248zM511.996 827.738c-209.721 0-379.733-170.013-379.733-379.733 0-209.719 170.013-379.733 379.733-379.733 209.719 0 379.733 170.014 379.733 379.733 0 209.721-170.014 379.733-379.733 379.733zM81.062 448.004c0 237.998 192.936 430.933 430.933 430.933 237.999 0 430.933-192.936 430.933-430.933 0-237.999-192.934-430.933-430.933-430.933-237.998 0-430.933 192.934-430.933 430.933z" />
<glyph unicode="&#xe936;" glyph-name="cheeseburger" d="M512 874.667c193.331 0 346.022-135.328 356.442-319.442 6.426-2.166 13.397-4.887 20.459-8.232 29.926-14.179 49.766-34.54 49.766-64.163 0-25.289-9.19-44.407-25.015-57.429 15.535-16.93 25.015-39.59 25.015-64.474 0-27.452-11.55-52.211-30.063-69.679 18.513-17.417 30.063-42.176 30.063-69.641 0-43.827-29.44-80.785-69.628-92.169l-0.034-12.322c0-52.89-42.876-95.782-95.782-95.782h-522.447c-52.879 0-95.782 42.901-95.782 95.782l-0.022 12.322c-40.181 11.383-69.638 48.35-69.638 92.169 0 27.46 11.556 52.215 30.067 69.683-18.509 17.429-30.067 42.189-30.067 69.636 0 24.879 9.485 47.539 25.033 64.563-15.836 12.932-25.033 32.051-25.033 57.34 0 29.623 19.842 49.984 49.769 64.163 7.060 3.345 14.029 6.066 20.533 8.234 10.319 184.105 162.999 319.44 356.365 319.44zM816.764 125.824h-609.526v-8.708c0-22.524 17.149-41.079 39.089-43.311l4.448-0.226h522.447c24.047 0 43.541 19.499 43.541 43.537v8.708zM505.771 265.173l-324.655-0.030c-24.039 0-43.537-19.49-43.537-43.537 0-24.026 19.512-43.537 43.537-43.537l498.82 0.021-174.165 87.083zM842.884 265.143l-6.618 0.030-87.083-87.083 93.7-0.021c24.047 0 43.537 19.499 43.537 43.537 0 24.060-19.477 43.537-43.537 43.537zM762.411 265.173h-139.819l93.197-46.596 46.622 46.596zM800.994 411.857l-2.867 1.207-2.283-2.765c-21.517-24.179-50.573-38.519-84.39-40.444l-7.889-0.222c-37.658 0-67.145 10.662-88.346 32.896l-0.401 0.435-1.843-1.643c-23.59-19.639-56.708-30.225-93.124-31.548l-7.851-0.141c-39.514 0-75.738 10.645-101.005 31.697l-1.848 1.668-0.396-0.482c-19.689-20.642-46.503-31.305-80.374-32.721l-7.942-0.162c-37.22 0-69.148 14.63-92.309 40.674l-2.324 2.756-2.831-1.212c-10.816-4.079-22.685-6.494-34.663-7.181l-7.192-0.209c-24.039 0-43.537-19.49-43.537-43.537 0-24.026 19.512-43.537 43.537-43.537h661.769c24.047 0 43.537 19.499 43.537 43.537 0 24.060-19.477 43.537-43.537 43.537-14.391 0-28.902 2.496-41.89 7.394zM839.962 508.992l-658.339-0.576c-6.675-1.677-15.55-4.561-24.153-8.64-13.61-6.447-19.891-12.894-19.891-16.947 0-17.809 12.699-26.121 43.537-26.121 14.083 0 28.081 4.386 34.284 10.261 12.403 11.742 32.555 8.619 40.821-6.327 13.97-25.259 35.807-38.763 64.215-38.763 33.933 0 51.727 10.432 63.133 36.57 9.124 20.907 38.785 20.894 47.894-0.021 9.754-22.404 41.178-36.548 80.538-36.548 39.33 0 70.767 14.148 80.546 36.57 9.126 20.907 38.788 20.894 47.893-0.021 11.371-26.108 29.184-36.548 63.125-36.548 28.378 0 50.219 13.504 64.226 38.78 8.282 14.946 28.446 18.048 40.836 6.285 6.157-5.845 20.169-10.236 34.257-10.236 30.861 0 43.537 8.303 43.537 26.121 0 4.053-6.281 10.5-19.891 16.947-9.685 4.591-19.721 7.676-26.569 9.216zM512 822.422c-162.93 0-290.196-109.771-303.595-260.807l607.207-0.417c-13.158 148.539-135.851 256.987-294.255 261.103l-9.357 0.121zM363.973 726.639c14.42 0 26.123-11.651 26.123-26.122 0-14.368-11.703-26.123-26.123-26.123s-26.122 11.755-26.122 26.123c0 14.472 11.703 26.122 26.122 26.122zM520.708 726.639c14.417 0 26.121-11.651 26.121-26.122 0-14.368-11.703-26.123-26.121-26.123-14.421 0-26.125 11.755-26.125 26.123 0 14.472 11.703 26.122 26.125 26.122zM678.903 726.639c14.421 0 26.125-11.651 26.125-26.122 0-14.368-11.703-26.123-26.125-26.123-14.417 0-26.121 11.755-26.121 26.123 0 14.472 11.703 26.122 26.121 26.122zM433.634 761.469c14.417 0 26.121-11.651 26.121-26.123 0-14.367-11.703-26.122-26.121-26.122-14.421 0-26.124 11.755-26.124 26.122 0 14.472 11.703 26.123 26.124 26.123zM607.782 761.469c14.366 0 26.121-11.651 26.121-26.123 0-14.367-11.755-26.122-26.121-26.122s-26.121 11.755-26.121 26.122c0 14.472 11.755 26.123 26.121 26.123z" />
<glyph unicode="&#xe937;" glyph-name="chevron-arrow-down" d="M218.209 628.961c13.464 11.448 33.659 9.815 45.108-3.649l-48.756-41.458c-11.449 13.463-9.815 33.659 3.649 45.107zM512 337.101c6.135 6.818 13.329 14.916 21.355 24.030 25.775 29.257 59.61 68.343 93.325 107.52 33.698 39.155 67.204 78.322 92.288 107.704 12.54 14.689 22.976 26.93 30.272 35.497l11.443 13.44c0 0 0.013 0.014 24.388-20.716l-24.388 20.716c11.447 13.463 31.654 15.11 45.12 3.662 13.461-11.449 15.095-31.644 3.648-45.107l-24.38 20.73c24.371-20.725 24.38-20.73 24.38-20.73l-11.49-13.496c-7.309-8.582-17.762-20.842-30.319-35.552-25.118-29.417-58.679-68.653-92.45-107.893-33.754-39.223-67.785-78.537-93.811-108.079-12.992-14.746-24.124-27.213-32.282-36.062-4.032-4.378-7.595-8.145-10.389-10.931-1.331-1.327-2.931-2.876-4.535-4.254-0.738-0.627-2.125-1.788-3.878-2.961-0.858-0.576-2.458-1.6-4.582-2.59-1.417-0.661-6.605-3.051-13.713-3.051s-12.292 2.389-13.713 3.051c-2.125 0.99-3.725 2.014-4.582 2.59-1.754 1.173-3.14 2.334-3.874 2.965-1.609 1.378-3.209 2.923-4.54 4.25-2.795 2.786-6.353 6.554-10.389 10.931-8.158 8.849-19.29 21.316-32.277 36.062-26.028 29.542-60.058 68.86-93.81 108.083-33.77 39.241-67.332 78.477-92.447 107.895-12.559 14.711-23.008 26.97-30.319 35.553l-11.488 13.496c0 0 0 0 24.378 20.729s24.378 20.729 24.378 20.729l11.453-13.455c7.298-8.567 17.731-20.809 30.272-35.498 25.084-29.382 58.588-68.549 92.284-107.704 33.715-39.181 67.549-78.268 93.32-107.524 8.030-9.114 15.223-17.212 21.355-24.030z" />
<glyph unicode="&#xe938;" glyph-name="chevron-arrow-left" d="M693.188 741.791c11.452-13.464 9.818-33.659-3.648-45.108l-41.459 48.756c13.466 11.449 33.66 9.815 45.107-3.649zM401.328 448c6.819-6.135 14.918-13.329 24.032-21.355 29.257-25.775 68.34-59.61 107.52-93.325 39.155-33.698 78.319-67.204 107.703-92.288 14.69-12.54 26.931-22.976 35.499-30.272l13.44-11.443c0 0 0.013-0.013-20.719-24.388l20.719 24.388c13.461-11.447 15.108-31.654 3.661-45.12-11.447-13.461-31.646-15.095-45.107-3.648l20.727 24.38c-20.723-24.371-20.727-24.38-20.727-24.38l-13.495 11.49c-8.585 7.309-20.843 17.762-35.554 30.319-29.419 25.118-68.651 58.679-107.895 92.45-39.219 33.754-78.534 67.785-108.078 93.811-14.744 12.992-27.212 24.124-36.060 32.282-4.377 4.032-8.145 7.595-10.93 10.389-1.328 1.331-2.874 2.931-4.253 4.535-0.631 0.738-1.789 2.125-2.964 3.878-0.573 0.858-1.598 2.458-2.588 4.582-0.661 1.417-3.051 6.605-3.051 13.713s2.39 12.292 3.051 13.713c0.99 2.125 2.015 3.725 2.588 4.582 1.175 1.754 2.334 3.14 2.964 3.874 1.378 1.609 2.924 3.209 4.253 4.54 2.786 2.795 6.554 6.353 10.931 10.389 8.848 8.158 21.316 19.29 36.061 32.277 29.544 26.028 68.861 60.058 108.080 93.81 39.245 33.77 78.481 67.332 107.9 92.447 14.707 12.559 26.97 23.008 35.55 30.319l13.495 11.488c0 0 0 0 20.732-24.378 20.727-24.378 20.727-24.378 20.727-24.378l-13.453-11.453c-8.567-7.298-20.809-17.731-35.499-30.272-29.385-25.084-68.548-58.588-107.708-92.284-39.177-33.715-78.263-67.549-107.52-93.32-9.114-8.030-17.214-15.223-24.033-21.355z" />
<glyph unicode="&#xe939;" glyph-name="chevron-arrow-right-circle" d="M511.996 827.738c-209.721 0-379.733-170.013-379.733-379.733 0-209.719 170.013-379.733 379.733-379.733 209.719 0 379.733 170.014 379.733 379.733 0 209.721-170.014 379.733-379.733 379.733zM81.062 448.004c0 237.998 192.936 430.933 430.933 430.933 237.999 0 430.933-192.936 430.933-430.933 0-237.999-192.934-430.933-430.933-430.933-237.998 0-430.933 192.934-430.933 430.933zM429.892 636.773c10.001 9.998 26.21 9.998 36.207 0l166.14-166.142c12.497-12.497 12.497-32.755 0-45.252l-166.14-166.144c-9.997-9.997-26.206-9.997-36.207 0-9.996 9.997-9.996 26.206 0 36.207l152.567 152.563-152.567 152.564c-9.996 9.998-9.996 26.207 0 36.204z" />
<glyph unicode="&#xe93a;" glyph-name="chevron-arrow-right" d="M330.831 154.197c-11.448 13.466-9.815 33.66 3.649 45.107l41.458-48.755c-13.464-11.447-33.659-9.813-45.108 3.648zM622.694 447.991c-6.822 6.131-14.921 13.325-24.034 21.355-29.257 25.775-68.343 59.61-107.52 93.324-39.155 33.697-78.321 67.201-107.703 92.286-14.69 12.541-26.93 22.975-35.497 30.273l-13.441 11.442c0 0-0.014 0.012 20.716 24.39l-20.716-24.39c-13.463 11.449-15.11 31.656-3.662 45.119s31.644 15.097 45.108 3.648l-20.73-24.378c20.725 24.372 20.73 24.378 20.73 24.378l13.495-11.488c8.583-7.311 20.842-17.76 35.552-30.32 29.416-25.116 68.652-58.679 107.892-92.45 39.223-33.753 78.537-67.785 108.083-93.813 14.741-12.988 27.213-24.124 36.058-32.277 4.378-4.036 8.145-7.595 10.931-10.389 1.327-1.331 2.876-2.931 4.254-4.54 0.631-0.734 1.788-2.121 2.961-3.874 0.576-0.858 1.6-2.462 2.59-4.587 0.661-1.417 3.051-6.601 3.051-13.709s-2.389-12.297-3.051-13.713c-0.99-2.125-2.014-3.729-2.59-4.582-1.173-1.758-2.334-3.14-2.961-3.878-1.378-1.609-2.927-3.204-4.254-4.54-2.786-2.795-6.554-6.353-10.931-10.389-8.849-8.154-21.316-19.285-36.062-32.277-29.542-26.027-68.86-60.058-108.079-93.807-39.245-33.771-78.481-67.332-107.898-92.446-14.711-12.561-26.97-23.010-35.553-30.319l-13.496-11.49c0 0 0 0-20.729 24.38-20.729 24.375-20.729 24.375-20.729 24.375l13.455 11.456c8.567 7.296 20.809 17.728 35.498 30.272 29.382 25.084 68.548 58.586 107.708 92.284 39.177 33.711 78.263 67.546 107.52 93.321 9.114 8.030 17.212 15.223 24.034 21.355z" />
<glyph unicode="&#xe93b;" glyph-name="chevron-arrow-up" d="M805.803 266.603c-13.466-11.447-33.66-9.818-45.107 3.648l48.755 41.459c11.447-13.466 9.813-33.66-3.648-45.107zM512.009 558.464c-6.131-6.819-13.325-14.918-21.355-24.032-25.775-29.258-59.61-68.34-93.324-107.521-33.697-39.155-67.201-78.319-92.286-107.703-12.541-14.686-22.975-26.927-30.273-35.494l-11.442-13.44c0 0-0.012-0.017-24.39 20.715l24.39-20.715c-11.449-13.466-31.656-15.113-45.119-3.665-13.463 11.452-15.097 31.646-3.648 45.107l24.378-20.727c-24.372 20.723-24.378 20.727-24.378 20.727l11.488 13.495c7.311 8.585 17.76 20.843 30.32 35.554 25.116 29.419 58.679 68.651 92.45 107.895 33.753 39.219 67.785 78.534 93.813 108.079 12.988 14.744 24.124 27.212 32.277 36.060 4.036 4.377 7.595 8.145 10.389 10.93 1.331 1.328 2.931 2.874 4.54 4.253 0.734 0.631 2.121 1.789 3.874 2.964 0.858 0.573 2.462 1.598 4.587 2.588 1.417 0.661 6.601 3.051 13.709 3.051s12.297-2.391 13.713-3.051c2.125-0.99 3.729-2.015 4.582-2.588 1.758-1.176 3.14-2.334 3.878-2.964 1.609-1.378 3.204-2.925 4.54-4.253 2.795-2.785 6.353-6.553 10.389-10.93 8.154-8.848 19.285-21.316 32.277-36.061 26.027-29.545 60.058-68.858 93.807-108.081 33.771-39.245 67.332-78.477 92.446-107.895 12.561-14.711 23.010-26.974 30.319-35.554l11.49-13.495c0 0 0 0-24.38-20.732-24.375-20.727-24.375-20.727-24.375-20.727l-11.456 13.453c-7.296 8.567-17.728 20.809-30.272 35.499-25.084 29.385-58.586 68.548-92.284 107.708-33.711 39.177-67.546 78.263-93.321 107.521-8.030 9.114-15.223 17.214-21.355 24.033z" />
<glyph unicode="&#xe93c;" glyph-name="close" d="M811.959 747.961c12.497-12.497 12.497-32.758 0-45.255l-554.665-554.665c-12.497-12.497-32.758-12.497-45.255 0s-12.497 32.755 0 45.252l554.668 554.668c12.497 12.497 32.755 12.497 45.252 0zM212.039 747.961c12.497 12.497 32.758 12.497 45.255 0l554.665-554.668c12.497-12.497 12.497-32.755 0-45.252s-32.755-12.497-45.252 0l-554.668 554.665c-12.497 12.497-12.497 32.758 0 45.255z" />
<glyph unicode="&#xe93d;" glyph-name="code-violation" d="M909.517 491.537c14.426 0 26.121-11.695 26.121-26.121v-132.023c0-129.66-71.855-248.67-186.59-309.056-7.616-4.006-16.717-4.006-24.329 0-114.756 60.373-186.598 179.375-186.598 309.056v132.023c0 14.426 11.699 26.121 26.125 26.121h345.271zM883.392 439.292h-293.026v-105.899c0-103.39 53.696-198.797 140.813-252.621l5.683-3.362 5.713 3.366c84.207 52.036 137.199 142.929 140.638 242.308l0.179 10.308v105.899zM506.59 871.751l1.284-0.717c1.873-1.107 3.618-2.453 5.184-4.018l174.148-174.15c2.982-2.982 5.167-6.609 6.421-10.555 0.201-0.612 0.371-1.216 0.516-1.829 0.171-0.728 0.316-1.476 0.427-2.23l0.286-3.857v-156.733h-52.245l-0.009 130.615-148.019-0.005c-14.426 0-26.121 11.695-26.121 26.122l-0.026 148.048-330.859-0.021v-679.185h444.084v-52.241h-470.206c-14.427 0-26.122 11.695-26.122 26.121v731.429c0 14.427 11.695 26.122 26.122 26.122h383.128c2.773 0 5.5-0.44 8.085-1.282 0.998-0.325 1.805-0.64 2.594-0.992 0.393-0.184 0.785-0.371 1.169-0.567l0.158-0.074zM738.394 204.19c14.37 0 26.125-11.755 26.125-26.121 0-14.473-11.755-26.125-26.125-26.125-14.473 0-26.121 11.652-26.121 26.125 0 14.366 11.648 26.121 26.121 26.121zM738.394 390.212c14.43 0 26.125-11.699 26.125-26.125v-113.963c0-14.426-11.695-26.125-26.125-26.125-14.426 0-26.121 11.699-26.121 26.125v113.963c0 14.426 11.695 26.125 26.121 26.125zM390.095 352.218c14.427 0 26.122-11.695 26.122-26.121 0-14.43-11.695-26.125-26.122-26.125h-174.15c-14.427 0-26.122 11.695-26.122 26.125 0 14.426 11.695 26.121 26.122 26.121h174.15zM424.925 456.708c14.426 0 26.121-11.695 26.121-26.125 0-14.426-11.695-26.121-26.121-26.121h-208.98c-14.427 0-26.122 11.695-26.122 26.121 0 14.43 11.695 26.125 26.122 26.125h208.98zM494.583 561.197c14.43 0 26.125-11.695 26.125-26.122s-11.695-26.121-26.125-26.121h-278.638c-14.427 0-26.122 11.695-26.122 26.121s11.695 26.122 26.122 26.122h278.638zM372.68 665.687c14.427 0 26.123-11.695 26.123-26.122s-11.695-26.123-26.123-26.123h-156.735c-14.427 0-26.122 11.695-26.122 26.123s11.695 26.122 26.122 26.122h156.735zM605.653 700.544l-84.949 84.907 0.004-84.934 84.945 0.027z" />
<glyph unicode="&#xe93e;" glyph-name="collapse-horizontal" d="M982.822 448c0-14.14-11.46-25.6-25.6-25.6h-370.458c-14.14 0-25.6 11.46-25.6 25.6s11.46 25.6 25.6 25.6h370.458c14.14 0 25.6-11.46 25.6-25.6zM462.827 448c0-14.14-11.465-25.6-25.6-25.6h-370.46c-14.138 0-25.6 11.46-25.6 25.6s11.461 25.6 25.6 25.6h370.46c14.135 0 25.6-11.46 25.6-25.6zM779.319 640.554c9.997-9.997 9.997-26.206 0-36.204l-156.352-156.35 156.361-156.361c9.997-9.997 9.997-26.206 0-36.203-10.001-9.997-26.21-9.997-36.207 0l-174.46 174.46c-9.997 9.997-9.997 26.206 0 36.207l174.455 174.45c9.997 9.998 26.206 9.998 36.203 0zM244.666 640.554c9.998 9.998 26.207 9.998 36.204 0l174.456-174.45c10.001-10.001 10.001-26.21 0-36.207l-174.456-174.455c-9.997-9.997-26.206-9.997-36.204 0s-9.997 26.206 0 36.203l156.356 156.356-156.356 156.35c-9.997 9.997-9.997 26.206 0 36.204z" />
<glyph unicode="&#xe93f;" glyph-name="collapse" d="M935.433 871.439c9.997-9.997 9.997-26.206 0-36.204l-352.465-352.462c-9.997-10.001-26.206-10.001-36.203 0-9.997 9.997-9.997 26.206 0 36.203l352.461 352.463c10.001 9.998 26.21 9.998 36.207 0zM477.227 413.235c10.001-9.997 10.001-26.206 0-36.203l-352.462-352.465c-9.998-9.997-26.207-9.997-36.204 0s-9.998 26.206 0 36.207l352.463 352.461c9.997 9.997 26.206 9.997 36.203 0zM564.864 773.199c14.14 0 25.6-11.462 25.6-25.6v-221.126h221.124c14.14 0 25.6-11.46 25.6-25.6 0-14.135-11.46-25.6-25.6-25.6h-246.724c-14.135 0-25.6 11.465-25.6 25.6v246.726c0 14.138 11.465 25.6 25.6 25.6zM186.801 395.136c0 14.135 11.462 25.6 25.6 25.6h246.726c14.135 0 25.6-11.465 25.6-25.6v-246.724c0-14.14-11.465-25.6-25.6-25.6-14.14 0-25.6 11.46-25.6 25.6v221.124h-221.126c-14.138 0-25.6 11.46-25.6 25.6z" />
<glyph unicode="&#xe940;" glyph-name="collections" d="M337.062 470.447c-23.467 0-42.667 19.2-42.667 42.667s19.2 42.668 42.667 42.668 42.667-19.2 42.667-42.668c0-23.467-19.2-42.667-42.667-42.667zM847.356 536.155c11.52 0 23.040 4.693 31.147 12.8s12.8 19.627 12.8 31.147c0 14.080 11.52 25.6 25.6 25.6s25.6-11.52 25.6-25.6c0-25.173-10.24-49.495-27.733-67.415-17.92-17.92-42.24-27.733-67.413-27.733-14.080 0-25.6 11.52-25.6 25.6s11.52 25.601 25.6 25.601zM696.316 82.18h-47.787c-11.52 0-22.613 3.413-32 10.24s-16.64 15.787-20.48 26.88c-0.427 1.28-0.853 2.987-1.28 4.267 0 0-2.987 17.493-7.68 41.387-66.56-26.453-130.56-11.947-167.68 1.28l-8.107-43.52c-4.693-14.507-11.947-23.893-21.333-30.72s-20.48-10.24-32-10.24h-47.787c-11.52 0-22.613 3.413-32 10.24s-16.64 15.787-20.48 26.88c-0.853 3.413-11.52 40.96-19.2 98.987-25.173 28.16-47.36 69.547-58.453 91.733h-13.653c-32.427-0.853-54.613-1.28-69.973 14.080-15.36 14.933-15.36 35.413-15.36 71.68v50.773c0 33.707 0 52.48 14.080 66.133 13.227 13.227 29.867 12.8 55.040 12.373h11.093c2.133 7.68 4.267 15.361 6.827 20.908 17.92 41.813 57.173 116.907 116.907 158.293-0.427 5.973-7.68 23.467-38.827 43.093-7.253 4.693-11.947 12.373-11.947 20.907s3.84 16.64 10.667 21.76c78.080 55.893 141.227 2.133 171.52-23.467 2.133-1.707 3.84-3.413 5.547-4.693 119.040 20.48 244.48 27.307 360.96-89.173 63.573-63.573 95.573-137.813 95.573-221.015 0-83.2-27.733-130.56-82.347-190.72-37.973-97.707-46.080-136.96-46.080-137.387-4.693-14.507-11.947-23.893-21.333-30.293-9.387-6.827-20.48-10.24-32-10.24l-0.427-0.427zM644.689 136.367l3.84-2.56h47.787c3.413 0.853 11.947 43.52 53.76 150.187 1.28 2.987 2.987 5.547 5.12 8.107 49.92 54.187 72.107 90.027 72.107 159.573s-26.453 130.561-80.64 184.748c-93.013 93.013-190.293 97.28-327.253 72.96-6.827-1.28-14.080 0-19.627 4.693-5.12 3.84-10.667 8.533-17.067 13.653-26.453 22.187-49.067 38.827-75.093 35.413 17.92-18.773 27.733-39.253 27.733-58.88 0-17.067-7.253-32-20.053-40.533-52.48-34.56-88.32-107.947-101.547-137.815-2.133-5.12-4.267-12.8-5.973-20.053-1.28-5.12-2.56-9.813-3.84-14.080-3.413-10.667-13.227-17.92-24.32-17.92h-31.147c-5.547 0-11.947 0-16.64 0-0.427-6.827-0.427-17.067-0.427-27.733v-50.773c0-13.653 0-27.307 0.853-34.133 7.253-0.853 22.187-0.427 32.853 0h30.72c10.24 0 19.2-5.973 23.467-15.36 0-0.853 30.293-67.413 61.013-98.133 3.84-3.84 6.4-9.387 7.253-14.933 7.253-58.88 17.92-97.707 18.347-98.133l51.627-1.28 17.493 74.24c1.707 8.107 6.827 14.933 14.507 18.347 7.253 3.413 16.213 2.987 23.467-0.853 3.84-2.133 94.72-51.627 179.627 0 7.253 4.267 15.787 4.693 23.467 1.707 7.68-3.413 13.227-10.24 14.933-18.347 6.827-32.427 11.947-61.44 13.653-71.68v-0.427zM667.302 601.862c-47.36 31.573-103.253 44.8-159.147 37.973-14.080-1.707-26.88 8.533-28.587 22.187-1.707 14.080 8.533 26.88 22.187 28.587 67.413 8.107 136.107-7.68 193.707-46.507 11.52-7.68 14.933-23.893 6.827-35.413-7.68-11.52-23.893-14.933-35.413-6.827h0.427z" />
<glyph unicode="&#xe941;" glyph-name="columns" d="M77.354 814.379c0 14.138 11.462 25.6 25.6 25.6h176.232c14.138 0 25.6-11.462 25.6-25.6v-775.42c0-14.14-11.462-25.6-25.6-25.6h-176.232c-14.138 0-25.6 11.46-25.6 25.6v775.42zM128.554 788.779v-724.22h125.032v724.22h-125.032zM376.948 814.379c0 14.138 11.462 25.6 25.6 25.6h176.233c14.135 0 25.6-11.462 25.6-25.6v-775.42c0-14.14-11.465-25.6-25.6-25.6h-176.233c-14.138 0-25.6 11.46-25.6 25.6v775.42zM428.147 788.779v-724.22h125.035v724.22h-125.035zM676.544 814.379c0 14.138 11.46 25.6 25.6 25.6h176.23c14.14 0 25.6-11.462 25.6-25.6v-775.42c0-14.14-11.46-25.6-25.6-25.6h-176.23c-14.14 0-25.6 11.46-25.6 25.6v775.42zM727.744 788.779v-724.22h125.030v724.22h-125.030z" />
<glyph unicode="&#xe942;" glyph-name="company" d="M843.708 832c9.506 0 18.193-5.51 22.447-14.234l69.833-143.297c0.256-0.526 0.495-1.055 0.713-1.586 0.26-0.632 0.508-1.308 0.721-1.997 0.819-2.555 1.216-5.104 1.246-7.611l-0.030-36.145c0-51.359-28.322-95.926-69.811-118.159l-0.021-419.221c0-12.928-9.289-23.633-21.389-25.472l-3.708-0.277h-663.415c-12.6 0-23.031 9.527-24.824 21.943l-0.272 3.806-0.020 419.221c-41.493 22.234-69.812 66.801-69.812 118.159l-0.031 36.145c0.030 2.479 0.416 4.998 1.201 7.488 0.26 0.812 0.505 1.488 0.776 2.15l0.704 1.556 69.833 143.297c4.251 8.723 12.941 14.234 22.447 14.234h663.415zM818.577 115.503l0.077 378.786c-3.255-0.252-6.545-0.38-9.865-0.38-22.191 0-41.442 6.746-59.981 19.58l-6.204 4.599-4.804-5.376c-29.602-31.108-70.387-51.733-112.102-54.349l-8.947-0.277c-38.306 0-74.5 13.577-103.377 37.559l-1.374 1.229-1.374-1.229c-26.47-21.986-59.089-35.226-93.846-37.282l-9.53-0.277c-44.781 0-89.332 21.295-121.050 54.626l-4.845 5.376-6.12-4.578c-16.221-11.234-33.015-17.818-51.833-19.285l-8.193-0.316c-3.318 0-6.607 0.128-9.863 0.38l0.037-378.786 114.612 0.026v264.205c0 14.14 11.462 25.6 25.6 25.6h332.8c14.14 0 25.6-11.46 25.6-25.6v-264.205l114.581-0.026zM652.796 115.537v238.596h-115.2v-238.571l115.2-0.026zM486.396 115.563v238.571h-115.2v-238.596l115.2 0.026zM486.891 542.811l-0.021 94.415h-176.768l0.015-73.882c20.659-29.6 55.127-50.615 89.339-53.439l7.795-0.324c30.19 0 58.452 12.113 79.64 33.231zM713.856 563.371l-0.043 73.856h-176.725l0.021-94.415c19.243-19.176 44.318-30.927 71.373-32.923l8.269-0.307c36.297 0 74.099 21.453 96.427 52.76l0.678 1.030zM888.444 627.13l-0.038 10.097h-124.373l0.026-70.664c13.803-12.623 26.014-19.318 38.967-20.826l5.764-0.331c43.998 0 79.654 36.584 79.654 81.724zM259.941 566.551l-0.015 70.676h-124.373l0.004-10.097c0-33.877 20.083-62.935 48.702-75.326-1.292 0.21-2.616 0.32-3.965 0.32l4.015-0.341-0.050 0.022c2.955-0.481 5.738-1.492 8.255-2.934 5.333-1.726 10.956-2.801 16.751-3.239l5.946-0.224c15.173 0 28.945 6.694 44.731 21.145zM287.787 780.544l-91.999-0.023-44.732-91.789 114.374 0.036 22.357 91.776zM339.541 780.544l-22.357-91.776h169.685v91.776h-147.328zM706.773 688.768l-22.357 91.776h-147.328v-91.776h169.685zM828.173 780.521l-92.002 0.023 22.357-91.776 114.377-0.036-44.732 91.789z" />
<glyph unicode="&#xe943;" glyph-name="computer" d="M159.532 801.279c-15.060 0-27.27-12.209-27.27-27.27v-528.698c0-15.057 12.209-27.268 27.27-27.268h704.929c15.061 0 27.268 12.211 27.268 27.268v528.698c0 15.060-12.207 27.27-27.268 27.27h-704.929zM81.062 774.010c0 43.337 35.132 78.47 78.47 78.47h704.929c43.337 0 78.468-35.132 78.468-78.47v-528.698c0-43.337-35.132-78.468-78.468-78.468h-704.929c-43.337 0-78.47 35.132-78.47 78.468v528.698zM239.667 69.547c0 14.14 11.462 25.6 25.6 25.6h493.449c14.14 0 25.6-11.46 25.6-25.6s-11.46-25.6-25.6-25.6h-493.449c-14.138 0-25.6 11.46-25.6 25.6zM399.272 199.501c3.148 10.978 13.187 18.543 24.608 18.543h176.231c11.422 0 21.461-7.565 24.61-18.543l35.247-122.893c2.214-7.727 0.674-16.047-4.164-22.464-4.838-6.421-12.407-10.197-20.446-10.197h-246.724c-8.038 0-15.609 3.776-20.445 10.197-4.837 6.417-6.378 14.737-4.163 22.464l35.247 122.893zM443.17 166.844l-20.562-71.697h178.775l-20.561 71.697h-137.651zM81.062 389.12c0 14.14 11.462 25.6 25.6 25.6h789.333c14.14 0 25.6-11.46 25.6-25.6s-11.46-25.6-25.6-25.6h-789.333c-14.138 0-25.6 11.46-25.6 25.6zM511.996 282.88c4.403 0 7.974 3.571 7.974 7.974 0 4.407-3.571 7.979-7.974 7.979-4.407 0-7.979-3.571-7.979-7.979 0-4.403 3.571-7.974 7.979-7.974zM468.77 290.854c0 23.872 19.354 43.226 43.226 43.226 23.868 0 43.221-19.354 43.221-43.226s-19.354-43.221-43.221-43.221c-23.872 0-43.226 19.349-43.226 43.221z" />
<glyph unicode="&#xe944;" glyph-name="condo" d="M81.066 42.671c0 14.14 11.462 25.6 25.6 25.6h810.668c14.14 0 25.6-11.46 25.6-25.6s-11.46-25.6-25.6-25.6h-810.668c-14.138 0-25.6 11.46-25.6 25.6zM170.666 644.271c14.138 0 25.6-11.462 25.6-25.6v-550.4h631.468v550.4c0 14.138 11.46 25.6 25.6 25.6s25.6-11.462 25.6-25.6v-576c0-14.14-11.46-25.6-25.6-25.6h-682.668c-14.138 0-25.6 11.46-25.6 25.6v576c0 14.138 11.462 25.6 25.6 25.6zM498.33 874.982c8.35 5.274 18.991 5.274 27.341 0l405.333-256c11.951-7.55 15.522-23.361 7.974-35.315-7.552-11.954-23.36-15.524-35.315-7.974l-391.663 247.366-391.664-247.366c-11.954-7.549-27.765-3.98-35.315 7.974s-3.98 27.765 7.974 35.315l405.334 256zM251.732 586.671c0 14.138 11.462 25.6 25.6 25.6h102.4c14.138 0 25.6-11.462 25.6-25.6s-11.462-25.604-25.6-25.604h-102.4c-14.138 0-25.6 11.466-25.6 25.604zM435.2 586.671c0 14.138 11.46 25.6 25.6 25.6h102.4c14.14 0 25.6-11.462 25.6-25.6s-11.46-25.604-25.6-25.604h-102.4c-14.14 0-25.6 11.466-25.6 25.604zM618.667 586.671c0 14.138 11.46 25.6 25.6 25.6h102.4c14.14 0 25.6-11.462 25.6-25.6s-11.46-25.604-25.6-25.604h-102.4c-14.14 0-25.6 11.466-25.6 25.604zM251.732 480.004c0 14.14 11.462 25.6 25.6 25.6h102.4c14.138 0 25.6-11.46 25.6-25.6s-11.462-25.604-25.6-25.604h-102.4c-14.138 0-25.6 11.465-25.6 25.604zM435.191 480.004c0 14.14 11.46 25.6 25.6 25.6h102.4c14.14 0 25.6-11.46 25.6-25.6s-11.46-25.604-25.6-25.604h-102.4c-14.14 0-25.6 11.465-25.6 25.604zM618.671 480.004c0 14.14 11.46 25.6 25.6 25.6h102.4c14.135 0 25.6-11.46 25.6-25.6s-11.465-25.604-25.6-25.604h-102.4c-14.14 0-25.6 11.465-25.6 25.604zM283.732 258.138c0 14.14 11.462 25.6 25.6 25.6h128.001c14.14 0 25.6-11.46 25.6-25.6v-213.333c0-14.135-11.46-25.6-25.6-25.6s-25.601 11.465-25.601 25.6v187.733h-76.8v-187.733c0-14.135-11.462-25.6-25.6-25.6s-25.6 11.465-25.6 25.6v213.333zM561.067 258.138c0 14.14 11.46 25.6 25.6 25.6h128c14.14 0 25.6-11.46 25.6-25.6v-213.333c0-14.135-11.46-25.6-25.6-25.6s-25.6 11.465-25.6 25.6v187.733h-76.8v-187.733c0-14.135-11.46-25.6-25.6-25.6s-25.6 11.465-25.6 25.6v213.333zM283.732 343.471c0 14.14 11.462 25.6 25.6 25.6h128.001c14.14 0 25.6-11.46 25.6-25.6 0-14.135-11.46-25.6-25.6-25.6h-128.001c-14.138 0-25.6 11.465-25.6 25.6zM561.067 343.471c0 14.14 11.46 25.6 25.6 25.6h128c14.14 0 25.6-11.46 25.6-25.6 0-14.135-11.46-25.6-25.6-25.6h-128c-14.14 0-25.6 11.465-25.6 25.6zM699.733 810.671c0 14.138 11.46 25.6 25.6 25.6h128c14.14 0 25.6-11.462 25.6-25.6v-183.039h-51.2v157.439h-76.8v-63.148h-51.2v88.748z" />
<glyph unicode="&#xe945;" glyph-name="contact" d="M511.996 797.008c-214.801 0-379.733-141.199-379.733-305.006 0-83.277 41.904-160.23 111.969-216.149 9.449-7.543 12.334-20.668 6.919-31.475l-58.366-116.506 166.356 77.517c5.719 2.667 12.221 3.123 18.259 1.289 41.638-12.659 87.062-19.691 134.597-19.691 214.801 0 379.733 141.205 379.733 305.015 0 163.807-164.932 305.006-379.733 305.006zM81.062 492.002c0 201.344 198.105 356.206 430.933 356.206s430.933-154.862 430.933-356.206c0-201.344-198.106-356.215-430.933-356.215-49.003 0-96.158 6.754-139.977 19.119l-224.232-104.486c-9.874-4.604-21.577-2.449-29.169 5.359-7.593 7.812-9.411 19.571-4.532 29.312l82.249 164.177c-70.858 62.912-115.273 148.228-115.273 242.735zM300.518 515.038c-15.060 0-27.27-12.211-27.27-27.268 0-15.061 12.209-27.273 27.27-27.273s27.27 12.211 27.27 27.273c0 15.057-12.209 27.268-27.27 27.268zM222.048 487.77c0 43.337 35.132 78.468 78.47 78.468s78.47-35.131 78.47-78.468c0-43.341-35.132-78.473-78.47-78.473s-78.47 35.132-78.47 78.473zM511.996 515.038c-15.061 0-27.268-12.211-27.268-27.268 0-15.061 12.207-27.273 27.268-27.273s27.268 12.211 27.268 27.273c0 15.057-12.207 27.268-27.268 27.268zM433.527 487.77c0 43.337 35.132 78.468 78.468 78.468s78.468-35.131 78.468-78.468c0-43.341-35.132-78.473-78.468-78.473s-78.468 35.132-78.468 78.473zM723.473 515.038c-15.061 0-27.268-12.211-27.268-27.268 0-15.061 12.207-27.273 27.268-27.273s27.273 12.211 27.273 27.273c0 15.057-12.211 27.268-27.273 27.268zM645.005 487.77c0 43.337 35.132 78.468 78.468 78.468s78.473-35.131 78.473-78.468c0-43.341-35.136-78.473-78.473-78.473s-78.468 35.132-78.468 78.473z" />
<glyph unicode="&#xe946;" glyph-name="copy" d="M149.329 68.267c-9.425 0-17.067 7.642-17.067 17.067v586.175c0 9.425 7.641 17.067 17.067 17.067h15.429c14.138 0 25.6 11.462 25.6 25.6s-11.462 25.6-25.6 25.6h-15.429c-37.702 0-68.267-30.564-68.267-68.267v-586.175c0-37.705 30.564-68.267 68.267-68.267h586.176c37.7 0 68.267 30.562 68.267 68.267v15.428c0 14.14-11.46 25.6-25.6 25.6s-25.6-11.46-25.6-25.6v-15.428c0-9.425-7.642-17.067-17.067-17.067h-586.176zM220.225 224.495c0-37.7 30.564-68.267 68.267-68.267h586.175c37.705 0 68.267 30.566 68.267 68.267v586.176c0 37.702-30.562 68.267-68.267 68.267h-586.175c-37.703 0-68.267-30.564-68.267-68.267v-586.176zM288.492 207.428c-9.425 0-17.067 7.642-17.067 17.067v586.176c0 9.425 7.641 17.067 17.067 17.067h586.175c9.425 0 17.067-7.641 17.067-17.067v-586.176c0-9.425-7.642-17.067-17.067-17.067h-586.175z" />
<glyph unicode="&#xe947;" glyph-name="coverage" d="M511.637 663.998c-44.258 0-80.137-35.879-80.137-80.139s35.878-80.14 80.137-80.14c44.262 0 80.141 35.881 80.141 80.14s-35.878 80.139-80.141 80.139zM380.3 583.859c0 72.537 58.804 131.339 131.337 131.339 72.538 0 131.341-58.802 131.341-131.339s-58.803-131.34-131.341-131.34c-72.533 0-131.337 58.803-131.337 131.34zM351.022 315.507h321.225c-12.271 77.666-79.479 137.011-160.61 137.011-81.126 0-148.344-59.345-160.615-137.011zM297.82 289.907c0 118.114 95.703 213.811 213.817 213.811 118.118 0 213.815-95.697 213.815-213.811 0-14.14-11.465-25.6-25.6-25.6h-376.433c-14.138 0-25.6 11.46-25.6 25.6zM512.009 820.565c-70.622-56.734-141.71-87.807-327.346-145.853-12.061-273.244 69.212-423.089 151.933-505.091 76.278-75.61 156.661-96.388 175.383-100.369 18.573 3.998 98.027 24.798 173.811 100.369 82.274 82.039 163.533 231.94 153.429 505.132-185.536 58.019-256.61 89.091-327.211 145.812zM492.646 870.982c11.157 9.469 27.563 9.469 38.724 0 68.881-58.455 129.25-87.192 337.327-151.785 12.13-3.765 20.433-14.787 21.030-27.174 14.221-294.48-72.111-463.252-167.787-558.659-94.882-94.613-195.593-113.698-205.218-115.349 0.35 0.060-0.329-0.055-0.623-0.102-0.58-0.090-2.086-0.316-4.019-0.32-1.937-0.004-3.452 0.209-4.062 0.303-0.337 0.051-0.986 0.162-0.674 0.111-9.579 1.621-111.354 20.646-206.795 115.255-96.281 95.441-182.627 264.329-166.278 558.969 0.683 12.303 8.966 23.217 21.021 26.96 208.093 64.597 268.464 93.334 337.353 151.792z" />
<glyph unicode="&#xe948;" glyph-name="credit-card" d="M177.155 699.738c-22.061 0-44.893-21.118-44.893-53.638v-396.192c0-32.521 22.832-53.636 44.893-53.636h669.68c22.063 0 44.894 21.116 44.894 53.636v396.192c0 32.521-22.831 53.638-44.894 53.638h-669.68zM81.062 646.099c0 55.004 40.29 104.838 96.093 104.838h669.68c55.804 0 96.094-49.835 96.094-104.838v-396.192c0-55.002-40.29-104.836-96.094-104.836h-669.68c-55.803 0-96.093 49.835-96.093 104.836v396.192zM81.062 566.86c0 14.138 11.462 25.6 25.6 25.6h810.667c14.14 0 25.6-11.462 25.6-25.6s-11.46-25.6-25.6-25.6h-810.667c-14.138 0-25.6 11.461-25.6 25.6zM680.252 447.991c0 14.14 11.46 25.6 25.6 25.6h105.737c14.14 0 25.6-11.46 25.6-25.6s-11.46-25.6-25.6-25.6h-105.737c-14.14 0-25.6 11.46-25.6 25.6zM186.802 447.991c0 14.14 11.462 25.6 25.6 25.6h281.972c14.135 0 25.6-11.46 25.6-25.6s-11.465-25.6-25.6-25.6h-281.972c-14.138 0-25.6 11.46-25.6 25.6zM186.802 348.958c0 14.14 11.462 25.6 25.6 25.6h105.739c14.139 0 25.6-11.46 25.6-25.6 0-14.135-11.461-25.6-25.6-25.6h-105.739c-14.138 0-25.6 11.465-25.6 25.6z" />
</font>
</defs>
</svg>
