<?xml version="1.0" standalone="no"?>
<!DOCTYPE svg PUBLIC "-//W3C//DTD SVG 1.1//EN" "http://www.w3.org/Graphics/SVG/1.1/DTD/svg11.dtd" >
<svg xmlns="http://www.w3.org/2000/svg">
<metadata>Generated by IcoMoon</metadata>
<defs>
<font id="tt-icons-mc" horiz-adv-x="1024">
<font-face units-per-em="1024" ascent="960" descent="-64" />
<missing-glyph horiz-adv-x="1024" />
<glyph unicode="&#x20;" horiz-adv-x="512" d="" />
<glyph unicode="&#xe900;" d="M790.586 803.556l-36.736 35.555h-462.404l-36.736-35.555h535.876zM559.405 56.89v106.667h-73.472v-106.667h73.472z" />
<glyph unicode="&#xe901;" d="M761.455 874.667c4.873 0 9.545-1.873 12.988-5.207l73.474-71.111c0.192-0.187 0.38-0.376 0.563-0.567 0.115-0.125 0.233-0.252 0.348-0.381 0.375-0.41 0.717-0.824 1.035-1.246 0.096-0.152 0.209-0.309 0.318-0.468 2.315-3.24 3.281-6.895 3.14-10.462l-0.023-746.114c0-9.818-8.224-17.777-18.368-17.777h-624.524c-10.144 0-18.368 7.959-18.368 17.777l-0.023 746.114c-0.142 3.566 0.825 7.222 3.115 10.463 0.134 0.157 0.247 0.314 0.362 0.47 0.552 0.755 1.2 1.488 1.926 2.191l-0.911-0.948c0.115 0.129 0.233 0.256 0.352 0.382l0.56 0.566 73.474 71.111c3.443 3.334 8.115 5.207 12.988 5.207h477.577zM816.559 768h-587.785v-711.11l220.399 0.006 0.019 124.437c0 9.062 7.008 16.542 16.066 17.638l2.304 0.139h110.208c10.146 0 18.37-7.959 18.37-17.777l-0.002-124.437 220.42-0.006v711.11zM559.403 163.556h-73.472v-106.667h73.472v106.667zM577.771 376.89c10.146 0 18.37-7.959 18.37-17.779v-106.667c0-9.818-8.224-17.777-18.37-17.777h-110.208c-10.146 0-18.37 7.959-18.37 17.777v106.667c0 9.82 8.224 17.779 18.37 17.779h110.208zM761.455 376.89c10.144 0 18.368-7.959 18.368-17.779v-106.667c0-9.818-8.224-17.777-18.368-17.777h-110.21c-10.144 0-18.368 7.959-18.368 17.777v106.667c0 9.82 8.224 17.779 18.368 17.779h110.21zM394.089 376.89c10.144 0 18.368-7.959 18.368-17.779v-106.667c0-9.818-8.224-17.777-18.368-17.777h-110.21c-10.144 0-18.368 7.959-18.368 17.777v106.667c0 9.82 8.224 17.779 18.368 17.779h110.21zM559.403 341.333h-73.472v-71.11h73.472v71.11zM743.087 341.333h-73.474v-71.11h73.474v71.11zM375.721 341.333h-73.474v-71.11h73.474v71.11zM577.771 554.667c10.146 0 18.37-7.959 18.37-17.777v-106.667c0-9.82-8.224-17.779-18.37-17.779h-110.208c-10.146 0-18.37 7.959-18.37 17.779v106.667c0 9.818 8.224 17.777 18.37 17.777h110.208zM761.455 554.667c10.144 0 18.368-7.959 18.368-17.777v-106.667c0-9.82-8.224-17.779-18.368-17.779h-110.21c-10.144 0-18.368 7.959-18.368 17.779v106.667c0 9.818 8.224 17.777 18.368 17.777h110.21zM394.089 554.667c10.144 0 18.368-7.959 18.368-17.777v-106.667c0-9.82-8.224-17.779-18.368-17.779h-110.21c-10.144 0-18.368 7.959-18.368 17.779v106.667c0 9.818 8.224 17.777 18.368 17.777h110.21zM559.403 519.11h-73.472v-71.11h73.472v71.11zM743.087 519.11h-73.474v-71.11h73.474v71.11zM375.721 519.11h-73.474v-71.11h73.474v71.11zM577.771 732.444c10.146 0 18.37-7.959 18.37-17.777v-106.667c0-9.818-8.224-17.777-18.37-17.777h-110.208c-10.146 0-18.37 7.959-18.37 17.777v106.667c0 9.818 8.224 17.777 18.37 17.777h110.208zM761.455 732.444c10.144 0 18.368-7.959 18.368-17.777v-106.667c0-9.818-8.224-17.777-18.368-17.777h-110.21c-10.144 0-18.368 7.959-18.368 17.777v106.667c0 9.818 8.224 17.777 18.368 17.777h110.21zM394.089 732.444c10.144 0 18.368-7.959 18.368-17.777v-106.667c0-9.818-8.224-17.777-18.368-17.777h-110.21c-10.144 0-18.368 7.959-18.368 17.777v106.667c0 9.818 8.224 17.777 18.368 17.777h110.21zM559.403 696.89h-73.472v-71.113h73.472v71.113zM743.087 696.89h-73.474v-71.113h73.474v71.113zM375.721 696.89h-73.474v-71.113h73.474v71.113zM753.85 839.111h-462.404l-36.736-35.555h535.878l-36.738 35.555z" />
<glyph unicode="&#xe902;" d="M566.415 369.338c-22.347 7.541-26.479 37.5-7.019 50.863 23.153 15.898 37.218 42.022 37.218 70.652 0 47.040-37.909 85.148-84.612 85.148-46.81 0-84.612-38.080-84.612-85.214 0-28.612 14.042-54.707 37.193-70.569 19.492-13.355 15.362-43.349-7.006-50.884-71.369-24.045-108.766-63.034-116.243-134.667h341.333c-7.49 71.586-44.924 110.601-116.252 134.671z" />
<glyph unicode="&#xe903;" d="M413.483 874.667c8.079 0 15.467-4.565 19.081-11.793l36.77-73.54h362.667c11.782 0 21.333-9.551 21.333-21.333v-704c0-23.565-19.102-42.667-42.667-42.667h-597.333c-23.564 0-42.667 19.102-42.667 42.667v789.333c0 11.782 9.551 21.333 21.333 21.333h221.483zM402.933 836.267h-193.867v-772.267c0-2.357 1.91-4.267 4.267-4.267h597.333c2.357 0 4.267 1.909 4.267 4.267v686.933h-369.333l-42.667 85.333zM512.002 614.4c67.977 0 123.012-55.366 123.012-123.548 0-35.057-14.656-67.878-39.885-91.145 76.399-30.27 117.367-81.146 125.728-161.045l1.971-18.842c0.079-0.738 0.117-1.478 0.117-2.221 0-11.782-9.551-21.333-21.333-21.333h-379.221c-0.738 0-1.478 0.038-2.214 0.115-11.718 1.222-20.226 11.714-19.004 23.433l1.967 18.839c8.346 79.949 49.291 130.812 125.711 161.054-25.22 23.234-39.861 56.032-39.861 91.078 0 68.282 54.938 123.614 123.012 123.614zM512.002 576c-46.81 0-84.612-38.080-84.612-85.214 0-28.612 14.042-54.707 37.193-70.569 19.492-13.355 15.362-43.349-7.006-50.884-71.369-24.045-108.766-63.034-116.243-134.667h341.333c-7.49 71.586-44.924 110.601-116.252 134.671-22.347 7.541-26.479 37.5-7.019 50.863 23.153 15.898 37.218 42.022 37.218 70.652 0 47.040-37.909 85.148-84.612 85.148z" />
<glyph unicode="&#xe904;" d="M106.667 819.411h810.667v-234.667h-810.667v234.667z" />
<glyph unicode="&#xe905;" d="M390.4 435.411h243.2v-85.333h-243.2v85.333z" />
<glyph unicode="&#xe906;" d="M88.958 819.413c0 9.779 7.928 17.707 17.707 17.707h810.666c9.779 0 17.707-7.927 17.707-17.707v-237.037c0-9.779-7.927-17.707-17.707-17.707h-810.666c-9.779 0-17.707 7.927-17.707 17.707v237.037zM124.372 801.706v-201.623h775.253v201.623h-775.253z" />
<glyph unicode="&#xe907;" d="M124.207 582.377c0 9.779 7.927 17.707 17.707 17.707h740.175c9.779 0 17.707-7.927 17.707-17.707v-506.003c0-9.779-7.927-17.707-17.707-17.707h-740.175c-9.779 0-17.707 7.927-17.707 17.707v506.003zM159.621 564.67v-470.59h704.761v470.59h-704.761z" />
<glyph unicode="&#xe908;" d="M370.931 440.154c0 9.779 7.927 17.707 17.707 17.707h246.724c9.779 0 17.707-7.927 17.707-17.707v-94.814c0-9.779-7.927-17.707-17.707-17.707h-246.724c-9.779 0-17.707 7.927-17.707 17.707v94.814zM406.345 422.447v-59.401h211.311v59.401h-211.311z" />
<glyph unicode="&#xe909;" d="M903.108 270.227v-213.333h-782.218v213.333h231.109v-17.779c0-48.928 39.959-88.887 88.887-88.887h160l5.826 0.19c46.236 3.021 83.061 41.726 83.061 88.698v17.779h213.333z" />
<glyph unicode="&#xe90a;" d="M316.444 519.113c9.818 0 17.777-7.957 17.777-17.777 0-9.818-7.959-17.777-17.777-17.777h-78.72l-103.668-177.766 235.719-0.011c9.065 0 16.544-6.782 17.641-15.548l0.139-2.229v-35.556c0-29.293 24.041-53.333 53.333-53.333h159.998c29.293 0 53.333 24.041 53.333 53.333v35.556c0 9.818 7.959 17.777 17.777 17.777l217.922 0.011-103.682 177.766h-96.463c-8.727 0-15.985 6.289-17.491 14.581l-0.286 3.196c0 9.82 7.959 17.777 17.777 17.777h106.667c6.323 0 12.171-3.358 15.356-8.819l124.523-213.461 0.704-1.365 0.352-0.817c0.196-0.478 0.369-0.969 0.521-1.466l0.205-0.73c0.367-1.427 0.561-2.916 0.561-4.45v-248.887c0-9.818-7.959-17.777-17.777-17.777h-817.772c-9.818 0-17.778 7.959-17.778 17.777v248.887c0 1.534 0.194 3.023 0.56 4.442l0.207 0.736c0.151 0.499 0.324 0.99 0.517 1.468l0.258 0.599c0.221 0.499 0.461 0.977 0.721 1.44 0.047 0.079 0.103 0.175 0.16 0.273l124.444 213.331c3.187 5.461 9.032 8.819 15.356 8.819h88.89zM351.998 270.227h-231.109v-213.333h782.217v213.333h-213.333v-17.779c0-46.972-36.826-85.677-83.061-88.698l-5.826-0.19h-159.998c-48.93 0-88.89 39.959-88.89 88.887v17.779zM494.219 874.667c9.82 0 17.779-7.959 17.779-17.778l-0.021-348.196 111.893 111.878c6.172 6.172 15.75 6.859 22.679 2.059l2.462-2.059c6.942-6.942 6.942-18.197 0-25.141l-143.541-143.377-0.832-0.683c-0.309-0.22-0.627-0.435-0.951-0.64l-0.896-0.531c-0.39-0.213-0.8-0.42-1.218-0.61l-0.811-0.343c-0.471-0.188-0.966-0.358-1.47-0.51-0.215-0.062-0.41-0.115-0.604-0.166-0.437-0.115-0.9-0.215-1.37-0.297l-0.83-0.126-2.27-0.145-2.27 0.145-0.691 0.102c-1.271 0.211-2.496 0.561-3.661 1.028l-0.371 0.154c-0.572 0.245-1.131 0.521-1.673 0.823-0.198 0.109-0.384 0.218-0.57 0.331-0.405 0.247-0.802 0.512-1.188 0.794-0.288 0.207-0.576 0.429-0.855 0.659-0.331 0.273-0.644 0.55-0.947 0.836l-0.343 0.335-142.221 142.221c-6.944 6.944-6.944 18.199 0 25.141 6.942 6.944 18.197 6.944 25.141 0l111.866-111.878 0.006 348.196c0 9.818 7.959 17.778 17.777 17.778z" />
<glyph unicode="&#xe90b;" d="M181.333 448h106.667v-256h-106.667v256zM458.667 448h106.667v-256h-106.667v256zM736 448h106.667v-256h-106.667v256z" />
<glyph unicode="&#xe90c;" d="M326.238 483.556c9.327 0 16.887-7.959 16.887-17.779 0-9.818-7.561-17.777-16.887-17.777h-16.905v-248.875l16.905-0.015c8.608 0 15.714-6.782 16.755-15.548l0.132-2.229c0-9.818-7.561-17.777-16.887-17.777h-168.876c-9.327 0-16.887 7.959-16.887 17.777s7.561 17.777 16.887 17.777l16.867 0.015v248.875h-16.867c-8.609 0-15.714 6.782-16.756 15.548l-0.132 2.229c0 9.82 7.561 17.779 16.887 17.779h168.876zM275.563 199.125v248.875h-67.541v-248.875h67.541zM123.587 21.333h776.824c9.327 0 16.887 7.959 16.887 17.777 0 9.82-7.561 17.779-16.887 17.779h-776.824c-9.327 0-16.888-7.959-16.888-17.779 0-9.818 7.561-17.777 16.888-17.777zM123.587 92.444h776.824c9.327 0 16.887 7.959 16.887 17.779 0 9.818-7.561 17.777-16.887 17.777h-776.824c-9.327 0-16.888-7.959-16.888-17.777 0-9.82 7.561-17.779 16.888-17.779zM596.437 483.556c9.327 0 16.887-7.959 16.887-17.779 0-9.818-7.561-17.777-16.887-17.777h-16.896v-248.875l16.896-0.015c8.61 0 15.714-6.782 16.755-15.548l0.132-2.229c0-9.818-7.561-17.777-16.887-17.777h-168.875c-9.327 0-16.887 7.959-16.887 17.777s7.561 17.777 16.887 17.777l16.875 0.015v248.875h-16.875c-8.61 0-15.714 6.782-16.755 15.548l-0.132 2.229c0 9.82 7.561 17.779 16.887 17.779h168.875zM545.771 448h-67.563v-248.875h67.563v248.875zM866.637 483.556c9.327 0 16.887-7.959 16.887-17.779 0-9.818-7.561-17.777-16.887-17.777h-16.887v-248.875l16.887-0.015c8.61 0 15.714-6.782 16.757-15.548l0.13-2.229c0-9.818-7.561-17.777-16.887-17.777h-168.875c-9.327 0-16.887 7.959-16.887 17.777s7.561 17.777 16.887 17.777l16.883 0.015v248.875h-16.883c-8.608 0-15.714 6.782-16.755 15.548l-0.132 2.229c0 9.82 7.561 17.779 16.887 17.779h168.875zM815.957 448h-67.541v-248.875h67.541v248.875zM123.587 519.11c-16.065 0-23.055 21.387-10.391 31.793l389.459 320c6.121 5.028 14.709 5.017 20.817-0.029l387.364-320.001c12.621-10.426 5.619-31.763-10.426-31.763h-776.824zM172.671 554.667h678.866l-338.517 279.647-340.349-279.647z" />
<glyph unicode="&#xe90d;" d="M554.667 793.6c66.929 42.667 117.124 49.778 150.588 21.333 33.466-28.444 25.099-71.11-25.097-128l-125.491 106.667zM320 426.667h234.667v-234.667h-234.667v234.667z" />
<glyph unicode="&#xe90e;" d="M815.098 866.701c31.917-14.634 52.439-46.982 52.439-82.664l-0.017-400.293 53.37-0.006c9.062 0 16.542-6.914 17.638-15.849l0.139-2.272c0-190.159-151.213-344.284-337.777-344.284h-177.779c-186.564 0-337.777 154.125-337.777 344.284 0 10.007 7.959 18.121 17.778 18.121l195.534 0.006 0.021 18.114c0 30.012 23.889 54.359 53.333 54.359h177.777c29.446 0 53.333-24.348 53.333-54.359l-0.006-18.114h248.875l0.004 400.293c0 20.080-10.827 38.396-27.955 47.841l-3.509 1.769c-19.177 8.781-41.591 5.273-56.51-8.236l-20.555-20.989c27.917-40.587 24.090-96.944-11.488-133.207l-19.874-20.258c-6.946-7.078-18.204-7.076-25.146 0.004l-119.147 121.514c-6.935 7.072-6.94 18.534-0.009 25.61l19.859 20.277c35.573 36.221 90.859 40.12 130.652 11.693l21.301 21.689c26.14 23.742 63.526 29.594 95.494 14.956zM298.645 347.499l-177.242-0.002c9.069-159.396 137.014-286.253 294.828-289.845l6.88-0.077h177.779c160.96 0 292.508 128.215 301.707 289.922l-319.492 0.002 0.006-163.083c0-10.007-7.959-18.121-17.777-18.121h-248.89c-9.818 0-17.777 8.113-17.777 18.121l-0.021 163.083zM529.777 419.977h-177.777c-9.809 0-17.777-8.122-17.777-18.118v-199.324h213.333v199.324c0 9.997-7.97 18.118-17.779 18.118zM634.054 605.395c3.857 9.203 14.304 13.476 23.332 9.545 9.030-3.932 13.222-14.579 9.365-23.782l-27.947-66.682c-3.857-9.203-14.304-13.476-23.332-9.545-9.028 3.93-13.222 14.577-9.365 23.78l27.947 66.684zM567.695 675.639c6.903-7.115 6.842-18.588-0.141-25.623l-50.56-50.955c-6.982-7.036-18.238-6.972-25.141 0.145s-6.839 18.59 0.143 25.626l50.56 50.953c6.98 7.038 18.238 6.972 25.139-0.145zM592.796 792.741l-7.296-7.449 94.025-95.892 7.3 7.441c25.982 26.483 25.982 69.407 0 95.889-25.948 26.447-68.064 26.447-94.029 0.012zM483.509 777.775c8.915 4.193 19.477 0.226 23.59-8.861 4.115-9.087 0.222-19.852-8.693-24.046l-64.567-30.368c-8.915-4.194-19.477-0.226-23.593 8.86-4.113 9.086-0.222 19.853 8.693 24.045l64.57 30.369z" />
<glyph unicode="&#xe90f;" d="M256 746.667h192v-106.667h-192v106.667zM576 746.667h192v-106.667h-192v106.667z" />
<glyph unicode="&#xe910;" d="M796.461 874.667c39.247 0 71.11-31.878 71.11-71.111l-0.009-87.502 70.98-425.841c0.041-0.316 0.073-0.636 0.094-0.956l0.034-0.851 0.011-160.422c0-39.283-31.842-71.113-71.11-71.113l-35.571 0.004 0.015-17.764c0-9.062-6.782-16.542-15.548-17.638l-2.229-0.139c-9.818 0-17.777 7.959-17.777 17.777l-0.002 17.764h-568.896l0.009-17.764c0-9.062-6.782-16.542-15.548-17.638l-2.23-0.139c-9.818 0-17.778 7.959-17.778 17.777l-0.015 17.764-35.54-0.004c-39.294 0-71.111 31.819-71.111 71.113v160c-0.003 1.094 0.077 2.014 0.231 2.94l70.879 425.387 0.001 87.246c0 37.936 29.751 68.978 67.209 71.006l3.902 0.105h568.89zM903.127 270.204h-782.223v-142.221c0-19.659 15.898-35.556 35.556-35.556l53.333 0.017c0.109 0 0.218 0 0.326-0.002l604.118 0.002c0.109 0 0.218 0 0.326-0.002l53.007-0.015c19.635 0 35.556 15.913 35.556 35.556v142.221zM858.411 554.667h-692.842l-41.466-248.89h775.806l-41.498 248.89zM234.816 696.896l-45.529-0.006-17.788-106.66h680.981l-17.758 106.66-36.599 0.006 7.093-50.893c1.485-10.688-6.818-20.226-17.609-20.226h-214.827c-9.677 0-17.574 7.738-17.775 17.41l-1.043 49.655h-75.008l-1.005-49.655c-0.201-9.673-8.098-17.41-17.775-17.41h-214.827c-10.79 0-19.093 9.538-17.609 20.226l7.076 50.893zM444.23 732.444h-168.578l-9.884-71.11h176.992l1.47 71.11zM757.303 732.444h-168.578l1.47-71.11h176.992l-9.884 71.11zM796.461 839.111h-568.89c-19.629 0-35.555-15.941-35.555-35.555l-0.015-71.097h47.743l2.822 20.211c1.222 8.788 8.736 15.33 17.609 15.33h202.206c9.961 0 17.98-8.185 17.773-18.145l-0.452-21.471h73.536l-0.435 21.471c-0.207 9.96 7.812 18.145 17.773 18.145h202.206c8.873 0 16.386-6.542 17.609-15.33l2.805-20.211h38.805l0.015 71.097c0 18.569-14.313 33.866-32.491 35.425l-3.063 0.131z" />
<glyph unicode="&#xe911;" d="M278.831 73.173c97.931 0 177.316 79.386 177.316 177.316 0 97.929-79.386 177.314-177.316 177.314-97.928 0-177.315-79.386-177.315-177.314 0-97.931 79.387-177.316 177.315-177.316zM745.173 73.173c97.929 0 177.316 79.386 177.316 177.316 0 97.929-79.388 177.314-177.316 177.314s-177.316-79.386-177.316-177.314c0-97.931 79.388-177.316 177.316-177.316z" />
<glyph unicode="&#xe912;" d="M471.238 810.911c2.667-2.638 4.399-6.027 4.986-9.665l0.22-2.767v-140.647c0-9.711-7.959-17.581-17.777-17.581-8.727 0-15.985 6.219-17.491 14.419l-0.286 3.162v132.514l-3.151 2.102c-19.998 11.886-51.063 10.896-69.218-2.972l-1.41-1.169-51.797-136.648-4.075-6.259-50.935-50.342-74.864-172.749c28.229 15.637 60.784 24.553 95.45 24.553 66.148 0 124.614-32.461 160-82.155l-0.015 195.036c-30.455-9.549-50.684-24.563-53.079-39.573l-0.239-2.985c0-9.709-7.959-17.581-17.779-17.581-9.818 0-17.777 7.872-17.777 17.581 0 51.872 72.887 87.906 160 87.906s160-36.034 160-87.906c0-9.709-7.959-17.581-17.777-17.581-8.727 0-15.987 6.221-17.491 14.421l-0.288 3.159c0 15.977-20.838 32.371-53.303 42.551l-0.030-195.029c35.386 49.694 93.852 82.155 160 82.155 34.658 0 67.204-8.909 95.428-24.54l-74.876 172.736-50.901 50.342-4.041 6.174-51.831 134.448-1.41 1.24c-18.155 13.867-49.22 14.858-69.218 2.972l-3.151-2.102v-130.298c0-8.631-6.289-15.81-14.581-17.299l-3.196-0.282c-8.727 0-15.985 6.219-17.491 14.419l-0.286 3.162v138.431c0 4.663 1.873 9.135 5.205 12.432 32.149 31.792 92.642 33.174 127.255 4.147l4.555-4.147 4.041-6.172 51.974-134.927 50.652-50.076 3.77-5.506 105.779-244.115c23.814-32.038 37.879-71.605 37.879-114.428 0-106.803-87.543-193.391-195.556-193.391-108.011 0-195.554 86.588-195.554 193.391l0.013 314.069c-11.221 1.538-23.151 2.385-35.569 2.385-12.412 0-24.335-0.845-35.552-2.383l-0.004-314.071c0-106.803-87.543-193.391-195.554-193.391-108.012 0-195.556 86.588-195.556 193.391 0 42.822 14.066 82.389 37.879 114.428l105.78 244.115 3.77 5.506 50.581 50.039 52.011 137.092 4.075 6.259c33.611 33.237 98.199 33.237 131.81 0zM280.89 411.699c-88.387 0-160.001-70.82-160.001-158.227 0-87.386 71.627-158.229 160.001-158.229s160 70.844 160 158.229c0 87.407-71.614 158.227-160 158.227zM743.11 411.699c-88.386 0-160-70.82-160-158.227 0-87.386 71.627-158.229 160-158.229s160 70.844 160 158.229c0 87.407-71.614 158.227-160 158.227zM280.89 376.538c9.818 0 17.777-7.872 17.777-17.581 0-9.711-7.959-17.581-17.777-17.581-49.062 0-88.89-39.388-88.89-87.904 0-9.711-7.959-17.583-17.778-17.583s-17.778 7.872-17.778 17.583c0 67.936 55.746 123.066 124.445 123.066zM743.11 376.538c9.82 0 17.779-7.872 17.779-17.581 0-9.711-7.959-17.581-17.779-17.581-49.060 0-88.887-39.388-88.887-87.904 0-9.711-7.959-17.583-17.779-17.583-9.818 0-17.777 7.872-17.777 17.583 0 67.936 55.746 123.066 124.444 123.066z" />
<glyph unicode="&#xe913;" d="M149.333 490.665h746.667v-128c-24.147-28.444-52.591-42.667-85.333-42.667s-68.299 14.223-106.667 42.667c-24.147-28.444-52.591-42.667-85.333-42.667-49.114 0-64 42.667-106.667 42.667s-59.78-42.667-106.667-42.667c-31.258 0-59.701 14.223-85.333 42.667-28.444-28.444-56.89-42.667-85.333-42.667s-56.889 14.223-85.333 42.667v128zM277.333 725.331c29.455 0 53.333 19.104 53.333 42.668 0 7.855-17.777 35.079-53.333 81.673-35.556-46.594-53.333-73.818-53.333-81.673 0-23.564 23.878-42.668 53.333-42.668zM490.667 725.331c29.455 0 53.333 19.104 53.333 42.668 0 7.855-17.777 35.079-53.333 81.673-35.556-46.594-53.333-73.818-53.333-81.673 0-23.564 23.878-42.668 53.333-42.668zM746.667 725.331c29.455 0 53.333 19.104 53.333 42.668 0 7.855-17.777 35.079-53.333 81.673-35.556-46.594-53.333-73.818-53.333-81.673 0-23.564 23.878-42.668 53.333-42.668z" />
<glyph unicode="&#xe914;" d="M920.89 56.89c9.818 0 17.777-7.959 17.777-17.779 0-9.818-7.959-17.777-17.777-17.777h-817.779c-9.818 0-17.778 7.959-17.778 17.777 0 9.82 7.959 17.779 17.778 17.779h817.779zM316.444 661.333c9.82 0 17.779-7.959 17.779-17.777l-0.015-124.431h106.667l0.015 124.431c0 9.062 6.782 16.542 15.548 17.638l2.229 0.139h71.11c9.82 0 17.779-7.959 17.779-17.777l-0.015-124.431h142.229l0.006 124.431c0 9.062 6.782 16.542 15.548 17.638l2.231 0.139h71.11c9.818 0 17.777-7.959 17.777-17.777l-0.006-124.431 88.896-0.015c9.818 0 17.777-7.959 17.777-17.777v-320c0-48.954-39.947-88.89-88.887-88.89h-604.445c-48.94 0-88.889 39.936-88.889 88.89v320c0 9.818 7.959 17.777 17.778 17.777l88.875 0.015 0.015 124.431c0 9.062 6.782 16.542 15.548 17.638l2.229 0.139h71.11zM708.87 356.657l-1.882-3.068c-20.557-31.552-55.695-54.21-91.279-56.508l-5.933-0.192c-37.568 0-75.511 23.394-97.212 56.7l-0.602 0.9-0.529-0.9c-20.559-31.552-55.695-54.21-91.279-56.508l-5.933-0.192c-37.568 0-75.511 23.394-97.212 56.7l-1.918 3.068-3.358-4.606c-19.917-25.664-50.193-44.009-78.833-46.078l-5.346-0.196c-24.5 0-50.778 12.542-71.121 31.861l0.009-156.305c0-29.314 24.027-53.333 53.333-53.333h604.445c29.306 0 53.333 24.019 53.333 53.333l0.009 156.305c-20.343-19.319-46.622-31.861-71.121-31.861-30.161 0-63.017 19.008-84.179 46.274l-3.394 4.606zM867.556 483.556h-711.112v-71.113c0-33.056 36.738-67.797 66.858-70.889l4.254-0.222c30.79 0 71.11 36.48 71.11 71.11l0.318 3.731c3.522 19.9 35.238 18.656 35.238-3.731 0-40.873 41.792-80 80-80s80 39.127 80 80c0 23.703 35.554 23.703 35.554 0 0-40.873 41.792-80 80-80s80 39.127 80 80c0 23.703 35.556 23.703 35.556 0 0-34.63 40.32-71.11 71.11-71.11 30.793 0 71.113 36.48 71.113 71.11v71.113zM512 625.777h-35.556v-106.667h35.556v106.667zM298.667 625.777h-35.556v-106.667h35.556v106.667zM760.89 625.777h-35.556v-106.667h35.556v106.667zM267.652 868.757l-8.787-10.281c-6.492-7.838-12.986-16.154-19.078-24.627-5.001-6.957-9.523-13.736-13.455-20.265-10.551-17.523-16.554-32.415-16.554-45.584 0-39.294 31.818-71.11 71.112-71.11 39.268 0 71.11 31.827 71.11 71.11 0 13.168-6.001 28.060-16.555 45.584-3.932 6.528-8.454 13.308-13.455 20.265-4.062 5.649-8.301 11.228-12.599 16.642l-6.479 7.985c-3.906 4.718-6.974 8.258-8.787 10.281-7.066 7.88-19.407 7.88-26.473 0zM274.359 820.814l6.53 8.412 6.528-8.412c1.939-2.557 3.844-5.135 5.702-7.721 4.474-6.22 8.469-12.213 11.868-17.853 7.447-12.368 11.456-22.316 11.456-27.24 0-19.643-15.919-35.556-35.554-35.556-19.659 0-35.556 15.899-35.556 35.556 0 4.924 4.009 14.872 11.458 27.24 3.396 5.64 7.394 11.633 11.866 17.853l5.702 7.721zM729.875 868.757l-8.787-10.281c-6.494-7.838-12.988-16.154-19.078-24.627-5.001-6.957-9.523-13.736-13.455-20.265-10.554-17.523-16.555-32.415-16.555-45.584 0-39.294 31.817-71.11 71.11-71.11 39.27 0 71.113 31.827 71.113 71.11 0 13.168-6.003 28.060-16.555 45.584-3.932 6.528-8.454 13.308-13.455 20.265-4.062 5.649-8.301 11.228-12.599 16.642l-6.479 7.985c-3.908 4.718-6.974 8.258-8.787 10.281-7.066 7.88-19.407 7.88-26.473 0zM736.582 820.814l6.528 8.412 6.53-8.412c1.937-2.557 3.844-5.135 5.702-7.721 4.471-6.22 8.469-12.213 11.866-17.853 7.45-12.368 11.458-22.316 11.458-27.24 0-19.643-15.919-35.556-35.556-35.556-19.657 0-35.554 15.899-35.554 35.556 0 4.924 4.009 14.872 11.458 27.24 3.396 5.64 7.392 11.633 11.866 17.853l5.702 7.721zM480.986 868.757l-8.787-10.281c-6.492-7.838-12.986-16.154-19.078-24.627-5.001-6.957-9.523-13.736-13.455-20.265-10.551-17.523-16.555-32.415-16.555-45.584 0-39.294 31.819-71.11 71.113-71.11 39.268 0 71.11 31.827 71.11 71.11 0 13.168-6.001 28.060-16.555 45.584-3.932 6.528-8.454 13.308-13.455 20.265-4.062 5.649-8.301 11.228-12.599 16.642l-6.479 7.985c-3.906 4.718-6.974 8.258-8.787 10.281-7.066 7.88-19.407 7.88-26.473 0zM487.693 820.814l6.53 8.412 6.528-8.412c1.939-2.557 3.844-5.135 5.702-7.721 4.474-6.22 8.469-12.213 11.866-17.853 7.45-12.368 11.458-22.316 11.458-27.24 0-19.643-15.919-35.556-35.554-35.556-19.659 0-35.556 15.899-35.556 35.556 0 4.924 4.009 14.872 11.458 27.24 3.396 5.64 7.394 11.633 11.866 17.853l5.702 7.721z" />
<glyph unicode="&#xe915;" d="M426.667 576l128-64-64-128-128 64 64 128z" />
<glyph unicode="&#xe916;" d="M761.391 677.007l8.478-15.324-2.308-8.412c-2.807-10.231 2.396-20.762 11.234-23.723 4.26-1.754 11.727 0.503 17.749 6.722l12.032 12.422 87.424-49.749-109.862-187.55-91.535 52.087 22.293 38.054c-1.257 2.733-3.1 4.849-6.014 6.509-1.999 1.137-5.011 2.133-8.642 1.975-1.879-0.081-3.765-0.506-6.202-1.564l-37.852-15.089-48.446-19.070-19.012-7.774-20.196 11.492-246.065-420.105c-16.169-27.603-50.016-41.783-82.197-34.825l-4.186 1.030-22.46 7.356c-8.198 1.086-15.31 3.821-21.941 8.109l-2.24 1.485c-2.369 1.632-4.26 3.226-9.632 7.974l-2.527 2.238-9.463 9.783c-21.42 21.604-25.593 56.102-11.424 83.953l2.149 3.932 247.061 421.779-14.234 8.1 2.784 15.132c2.485 13.508 2.782 25.764 1.333 37.246-1.303 10.332-3.228 17.092-6.718 27.334-30.146 59.921-129.591 84.704-244.327 52.738l-6.031 21.026-12.416 18.102c90.391 60.223 211.243 121.335 281.152 123.9 147.731 6.017 275.612-63.259 352.239-197.298zM461.19 378.758l-86.127 49.011-176.118-300.672c-6.508-11.11-5.711-25.116 1.099-33.783l1.678-1.901 8.331-8.721 6.25-5.363 1.702-1.21c0.721-0.465 1.316-0.774 2.65-1.143l4.619-1.018 25.463-7.966c12.354-3.396 26.473 1.559 33.773 11.411l1.559 2.359 175.121 298.995zM532.134 499.866l-86.129 49.011-48.772-83.262 86.127-49.011 48.774 83.262zM410.893 830.638c-38.78-1.423-103.238-27.908-166.483-61.74 86.3-0.353 156.926-33.082 187.134-93.389 5.521-15.43 8.154-24.685 9.948-38.91 1.41-11.172 1.623-22.784 0.463-34.957l152-86.494 84.589 33.461c7.123 3.108 14.434 4.751 21.739 5.069 13.651 0.595 24.122-2.867 32.77-7.789 12.433-7.074 20.636-17.233 25.376-28.973l1.056-3.004c1.638-5.146 3.379-12.461 3.29-12.437l-0.574 2.029 2.155-8.35-8.915-15.221c4.762-3.317 8.162-5.252 12.194-7.548l17.6 27.305c17.515 27.46 26.351 42.545 46.417 76.804-3.639 10.677-8.625 13.515-17.058 18.313-14.795-9.131-32.201-12.382-47.546-7.537l-3.791 1.382c-27.392 8.973-43.819 37.677-40.339 66.633-68.395 119.85-180.693 180.702-312.023 175.353z" />
<glyph unicode="&#xe917;" d="M746.667 789.333h-469.333v-149.333h469.333v149.333z" />
<glyph unicode="&#xe918;" d="M745.545 874.667c59.29 0 107.789-47.977 107.789-106.784v-639.766c0-58.807-48.499-106.784-107.789-106.784h-467.089c-59.29 0-107.789 47.977-107.789 106.784v639.766c0 58.807 48.499 106.784 107.789 106.784h467.089zM494.016 305.685h-287.424l0.004-177.568c0-37.638 30.223-68.789 67.934-70.825l3.925-0.105 215.561 0.006v248.491zM817.387 305.685h-287.424v-248.491l215.582-0.006c38.199 0 69.694 29.897 71.753 67.059l0.107 3.87-0.017 177.568zM306.321 253.98l44.292-44.209 43.748 43.251 25.295-25.463-43.635-43.153 43.693-43.629-25.41-25.348-43.797 43.718-44.243-43.761-25.297 25.463 44.132 43.663-44.19 44.119 25.412 25.348zM745.545 163.814v-35.853h-143.721v35.853h143.721zM745.545 234.901v-35.855h-143.721v35.855h143.721zM494.016 554.475h-287.424v-212.928h287.424v212.928zM817.387 554.475h-287.424v-212.928h287.424v212.928zM350.317 519.085l-0.002-53.143 53.897-0.015v-35.853l-53.897 0.006 0.002-53.165h-35.932l-0.017 53.165-53.877-0.006v35.853l53.877 0.015 0.017 53.143h35.932zM745.545 448.156v-35.855h-143.721v35.855h143.721zM745.545 838.812h-467.089c-39.516 0-71.859-31.994-71.859-70.929l-0.004-177.547h610.795l0.017 177.547c0 37.637-30.223 68.788-67.934 70.823l-3.925 0.106zM731.351 803.581c27.601 0 50.123-22.279 50.123-49.738v-78.584c0-27.433-22.53-49.702-50.123-49.702h-438.703c-27.593 0-50.123 22.27-50.123 49.702v78.584c0 27.459 22.522 49.738 50.123 49.738h438.703zM731.351 767.727h-438.703c-7.827 0-14.193-6.297-14.193-13.883v-78.584c0-7.554 6.368-13.847 14.193-13.847h438.703c7.825 0 14.193 6.293 14.193 13.847v78.584c0 7.586-6.366 13.883-14.193 13.883z" />
<glyph unicode="&#xe919;" d="M263.104 789.341l0.006-56.895h71.113l-0.015 56.895h355.563l0.006-56.895h71.113l-0.015 56.895 156.459-0.007v-170.667h-810.667v170.667l156.437 0.007z" />
<glyph unicode="&#xe91a;" d="M352 874.667c9.818 0 17.777-7.959 17.777-17.778l-0.006-53.326h284.437l0.015 53.326c0 9.818 7.959 17.778 17.777 17.778h106.667c9.818 0 17.777-7.959 17.777-17.778l-0.006-53.326 124.452-0.007c9.062 0 16.542-6.782 17.638-15.548l0.139-2.23v-746.667c0-9.818-7.959-17.777-17.777-17.777h-817.779c-9.818 0-17.778 7.959-17.778 17.777v746.667c0 9.818 7.959 17.778 17.778 17.778l124.43 0.007 0.015 53.326c0 9.818 7.959 17.778 17.777 17.778h106.667zM903.104 590.229h-782.229l0.014-533.34h782.221l-0.006 533.34zM672 554.667c9.818 0 17.777-7.959 17.777-17.777l-0.006-53.327 160.006-0.006c9.065 0 16.544-6.782 17.641-15.548l0.139-2.231c0-9.818-7.959-17.777-17.779-17.777h-160.006v-106.667h160.006c9.065 0 16.544-6.782 17.641-15.548l0.139-2.229c0-9.82-7.959-17.779-17.779-17.779l-160.006 0.015v-106.667l160.006-0.015c9.065 0 16.544-6.782 17.641-15.548l0.139-2.229c0-9.818-7.959-17.777-17.779-17.777l-160.006 0.006 0.006-53.34c0-9.065-6.782-16.544-15.548-17.641l-2.229-0.139c-9.818 0-17.777 7.959-17.777 17.779l-0.015 53.34h-142.208v-53.34c0-9.065-6.782-16.544-15.548-17.641l-2.229-0.139c-9.82 0-17.779 7.959-17.779 17.779l-0.006 53.34h-142.229l0.015-53.34c0-9.065-6.782-16.544-15.548-17.641l-2.231-0.139c-9.818 0-17.777 7.959-17.777 17.779v53.34l-124.444-0.006c-9.063 0-16.542 6.782-17.639 15.548l-0.139 2.229c0 9.818 7.959 17.777 17.778 17.777l124.444 0.015v106.667l-124.444-0.015c-9.063 0-16.542 6.782-17.639 15.548l-0.139 2.231c0 9.818 7.959 17.777 17.778 17.777h124.444v106.667h-124.444c-9.063 0-16.542 6.782-17.639 15.548l-0.139 2.229c0 9.82 7.959 17.779 17.778 17.779l124.444 0.006v53.327c0 9.062 6.782 16.542 15.548 17.638l2.229 0.139c9.82 0 17.779-7.959 17.779-17.777l-0.015-53.327h142.229l0.006 53.327c0 9.062 6.782 16.542 15.548 17.638l2.231 0.139c9.818 0 17.777-7.959 17.777-17.777v-53.327h142.208l0.015 53.327c0 9.062 6.782 16.542 15.548 17.638l2.229 0.139zM476.437 305.792h-142.229v-106.667h142.229v106.667zM654.208 305.792h-142.208v-106.667h142.208v106.667zM476.437 448h-142.229v-106.667h142.229v106.667zM654.208 448h-142.208v-106.667h142.208v106.667zM227.541 768h-106.652l-0.014-142.208h782.229l0.006 142.208h-106.673l0.006-53.333c0-9.818-7.959-17.777-17.777-17.777h-106.667c-9.818 0-17.777 7.959-17.777 17.777l-0.015 53.333h-284.437l0.006-53.333c0-9.818-7.959-17.777-17.777-17.777h-106.667c-9.818 0-17.777 7.959-17.777 17.777l-0.015 53.333zM334.223 839.111h-71.113v-106.667h71.113v106.667zM760.89 839.111h-71.113v-106.667h71.113v106.667z" />
<glyph unicode="&#xe91b;" d="M938.669 295.401c0-119.424-96.847-216.288-216.288-216.288-119.484 0-216.288 96.864-216.288 216.288 0 119.484 96.804 216.288 216.288 216.288 119.441 0 216.288-96.804 216.288-216.288z" />
<glyph unicode="&#xe91c;" d="M722.377 529.82c129.472 0 234.421-104.937 234.421-234.419 0-129.444-104.971-234.421-234.421-234.421-129.478 0-234.419 104.962-234.419 234.421 0 129.498 104.922 234.419 234.419 234.419zM722.377 493.553c-109.468 0-198.153-88.685-198.153-198.153 0-109.431 88.706-198.155 198.153-198.155 109.421 0 198.155 88.738 198.155 198.155 0 109.453-88.713 198.153-198.155 198.153zM824.403 397.442c7.081-7.083 7.081-18.564-0.002-25.645l-76.414-76.373 76.414-76.386c7.083-7.081 7.085-18.562 0.004-25.645-7.083-7.083-18.564-7.083-25.645-0.002l-76.416 76.412-76.386-76.412c-7.083-7.081-18.564-7.081-25.645 0.002s-7.081 18.564 0.002 25.645l76.386 76.386-76.384 76.373c-7.083 7.081-7.085 18.562-0.002 25.645 7.081 7.083 18.562 7.083 25.643 0.002l76.386-76.378 76.414 76.378c7.083 7.081 18.564 7.081 25.645-0.002zM500.563 850.133c10.016 0 18.133-8.119 18.133-18.133v-23.616l102.372-0.018c31.366 0 56.301-26.593 56.301-58.84v-175.58c0-10.016-8.117-18.133-18.133-18.133-10.014 0-18.133 8.117-18.133 18.133l-0.017 53.19-537.643 0.085 0.021-305.35c0-12.719 9.239-22.573 20.035-22.573h332.938c10.016 0 18.133-8.117 18.133-18.133 0-10.014-8.117-18.133-18.133-18.133h-332.938c-31.366 0-56.301 26.594-56.301 58.839v427.655c0 32.246 24.935 58.84 56.301 58.84l102.931 0.018v23.616c0 10.015 8.119 18.133 18.133 18.133 10.016 0 18.133-8.119 18.133-18.133v-23.616h219.733v23.616c0 10.015 8.119 18.133 18.133 18.133zM226.43 772.117l-102.931-0.018c-10.796 0-20.035-9.853-20.035-22.573l-0.021-86.038 537.643-0.085 0.017 86.123c0 12.72-9.237 22.573-20.034 22.573l-102.372 0.018v-25.45c0-10.016-8.117-18.133-18.133-18.133-10.014 0-18.133 8.117-18.133 18.133v25.45h-219.733v-25.45c0-10.016-8.117-18.133-18.133-18.133-10.014 0-18.133 8.117-18.133 18.133v25.45z" />
<glyph unicode="&#xe91d;" d="M635.823 236.427c117.148 0 212.115 101.485 212.115 226.673s-94.967 226.673-212.115 226.673c-117.148 0-212.115-101.485-212.115-226.673s94.967-226.673 212.115-226.673z" />
<glyph unicode="&#xe91e;" d="M318.921 810.659c12.13-0.304 24.141-1.886 35.842-5.064 22.46-6.103 43.209-17.678 60.026-33.366 6.671-6.228 12.623-13.074 17.995-20.383l0.399-0.56c4.849 0.905 4.832 0.895 9.685 1.737 5.602 0.898 5.591 0.898 11.206 1.727 15.302 2.052 30.647 3.489 46.093 3.945 47.767 1.402 95.915-5.243 141.28-19.878 70.859-22.863 135.849-65.969 178.244-126.281 6.468-9.21 12.384-18.78 17.675-28.672 6.443-12.051 11.957-24.574 16.422-37.442 5.316-15.307 9.146-31.098 11.381-47.104 0.653-4.676 1.171-9.37 1.553-14.076 2.88 0.934 5.713 2.103 8.435 3.541 11.729 6.189 20.849 16.655 25.129 28.945 1.276 3.661 2.123 7.46 2.526 11.305 0.262 2.528 0.137 5.071 0.429 7.593 0.181 1.139 0.448 2.234 0.811 3.337 0.57 1.513 1.28 2.946 2.234 4.273 3.174 4.42 8.247 7.010 13.745 7.371 0.704 0.017 0.693 0.017 1.412 0.006 2.133-0.107 4.205-0.497 6.189-1.289 1.525-0.61 2.961-1.427 4.256-2.421 3.531-2.711 5.909-6.705 6.564-11.029 0.348-2.289 0.198-4.653 0.077-6.948-0.226-4.356-0.791-8.691-1.692-12.964-5.664-26.88-24.774-50.031-50.502-61.327-6.176-2.711-12.668-4.723-19.311-5.999-0.215-3.631-0.529-7.29-0.926-10.94-2.682-24.721-9.167-48.998-19.036-71.923-12.341-28.67-29.89-55.093-51.113-78.308-10.404-11.381-21.685-22.003-33.668-31.806-10.172-8.32-20.851-16.058-31.945-23.187-13.007-8.361-26.537-15.868-40.482-22.522l-0.115 5.314c0.996-38.174 0.996-76.384 0-114.558-0.256-3.241-1.244-6.31-3.164-8.992-4.576-6.385-13.259-9.033-20.764-6.33-1.692 0.608-3.285 1.468-4.708 2.539-1.901 1.429-3.499 3.232-4.663 5.278-1.331 2.332-2.003 4.86-2.212 7.505-0.819 31.405-0.964 62.831-0.435 94.244-58.010-20.821-121.216-28.183-182.799-22.345-19.836 1.882-39.537 5.15-58.882 9.82-14.221 3.433-28.254 7.625-41.997 12.572l-0.365 19.189c0.983-37.805 0.983-75.648 0-113.453-0.256-3.241-1.246-6.31-3.166-8.992-1.030-1.436-2.285-2.72-3.712-3.791-6.327-4.762-15.43-4.762-21.762 0-1.899 1.429-3.494 3.232-4.661 5.278-1.329 2.33-2.001 4.86-2.212 7.505-0.949 36.433-0.983 72.9-0.102 109.335-1.85 0.836-3.693 1.737-5.53 2.652-42.91 21.395-81.685 51.038-111.661 87.866-10.856 13.34-20.413 27.578-28.722 42.537l-0.139 0.256h-84.972l-2.144 0.124c-2.165 0.388-4.149 0.851-6.119 1.856-4.469 2.278-7.79 6.394-8.999 11.155-0.459 1.807-0.402 2.291-0.516 4.134v138.163c0.132 2.135 0.366 4.105 1.156 6.125 1.792 4.587 5.596 8.286 10.318 10.025 2.080 0.766 4.106 0.994 6.304 1.122h58.878c0.604 2.861 1.305 5.696 1.998 8.538 1.002 3.814 2.058 7.603 3.182 11.386 5.098 16.275 11.587 32.043 19.708 47.127 17.077 31.718 40.568 59.972 68.084 83.712 12.625 10.891 26.103 20.732 40.169 29.796l0.288 0.183c-4.919 19.3-15.895 37.015-30.882 50.525-5.948 5.361-12.491 9.892-19.441 13.934l-1.803 1.199c-1.679 1.44-3.153 2.853-4.316 4.736-3.827 6.193-3.215 14.269 1.504 19.85 1.89 2.231 4.267 3.699 6.833 5.084 12.715 6.856 26.475 11.868 40.721 14.718 6.982 1.399 14.039 2.214 21.15 2.629 3.251 0.135 6.485 0.186 9.737 0.159zM314.622 776.129c-7.723-0.197-15.302-1.133-22.827-2.829l-1.69-0.408-0.422-0.111c2.406-2.231 2.383-2.235 4.715-4.521 4.55-4.711 8.866-9.571 12.779-14.804 10.274-13.751 17.905-29.339 22.355-45.774 1.045-3.863 1.888-7.763 2.611-11.695 0.358-1.948 0.757-3.968 0.821-5.948 0.102-3.371-0.826-6.739-2.645-9.606-1.131-1.771-2.539-3.121-4.128-4.493-2.709-1.835-5.568-3.437-8.352-5.165l-1.82-1.135-2.805-1.792c-0.51-0.329-1.088-0.702-1.801-1.163-15.55-10.283-30.249-21.677-43.674-34.496-27.162-25.929-49.052-57.244-62.1-92.092-5.223-13.948-8.864-28.309-11.225-42.959l-0.501-2.17c-0.69-1.847-0.779-2.362-1.827-4.058-2.372-3.831-6.261-6.662-10.713-7.799-1.97-0.503-2.499-0.442-4.522-0.57h-55.963v-103.622h78.113c1.952-0.117 2.46-0.060 4.366-0.529 2.859-0.704 5.515-2.103 7.683-4.045 1.443-1.291 1.675-1.741 2.842-3.264 1.212-2.076 2.257-4.218 3.366-6.349 1.53-2.925 3.132-5.813 4.768-8.683 6.741-11.565 14.325-22.613 22.807-33.041 27.996-34.404 64.653-61.705 105.054-81.024 24.365-11.65 50.148-20.448 76.597-26.391 19.829-4.452 40.036-7.307 60.341-8.587 84.015-5.299 170.743 16.068 238.618 65.333 9.442 6.857 18.487 14.234 27.042 22.121 10.005 9.225 19.341 19.149 27.838 29.709 16.478 20.476 29.777 43.401 38.694 67.927 7.396 20.343 11.729 41.711 12.73 63.268 0.811 17.431-0.527 34.944-3.994 52.066-2.769 13.673-6.893 27.081-12.241 40.009-4.548 10.995-9.978 21.641-16.173 31.844-5.141 8.461-10.814 16.623-16.939 24.444-43.612 55.652-108.99 92.817-178.263 109.681-36.977 8.998-75.501 12.503-113.551 10.293-20.924-1.216-41.598-4.314-62.065-8.649l-2.214-0.329c-1.986-0.053-2.498-0.156-4.471 0.162-2.959 0.476-5.775 1.685-8.126 3.492-1.568 1.205-1.835 1.641-3.132 3.104l-5.905 9.12c-4.277 6.020-9.077 11.639-14.513 16.71-12.175 11.357-27.093 19.85-43.27 24.534-8.107 2.349-16.433 3.658-24.87 4.152-2.468 0.1-4.928 0.142-7.398 0.128zM300.478 551.586c5.34-0.397 10.438-1.653 15.164-4.156 13.024-6.893 20.412-21.338 18.167-35.586-0.529-3.375-1.581-6.671-3.106-9.747-1.732-3.492-4.075-6.694-6.897-9.438-3.232-3.138-7.091-5.668-11.3-7.398-4.369-1.796-9.103-2.724-13.845-2.724-4.747 0-9.474 0.928-13.845 2.724-4.213 1.73-8.066 4.26-11.298 7.398-2.82 2.743-5.163 5.941-6.897 9.434-1.525 3.078-2.579 6.372-3.108 9.751-2.244 14.249 5.146 28.693 18.167 35.586 4.725 2.502 9.824 3.759 15.166 4.156 1.83 0.045 1.815 0.045 3.633 0zM515.142 672.486c12.578-0.201 25.118-1.067 37.577-2.812 26.944-3.765 53.31-11.315 78.042-22.368 17.391-7.77 33.818-17.293 49.308-28.196 1.707-1.231 1.713-1.199 3.381-2.481 2.812-2.455 4.885-5.47 5.796-9.067 2.315-9.135-3.61-18.652-13.009-20.9-2.174-0.518-4.442-0.636-6.656-0.341-2.633 0.348-5.011 1.295-7.273 2.622-3.413 2.304-6.726 4.745-10.15 7.042-10.775 7.059-22.001 13.397-33.751 18.803-24.834 11.426-51.612 18.78-78.925 21.707-10.039 1.077-20.147 1.562-30.253 1.451-5.028-0.055-10.033-0.418-15.057-0.559-1.116 0.036-1.099 0.034-2.225 0.141-3.36 0.521-6.462 1.717-9.097 3.844-7.123 5.751-8.457 16.201-2.999 23.467 1.318 1.751 2.976 3.262 4.866 4.418 2.244 1.378 4.693 2.142 7.305 2.539 3.488 0.314 6.997 0.422 10.494 0.553 4.211 0.113 8.414 0.16 12.627 0.139z" />
<glyph unicode="&#xe91f;" d="M245.348 188.471h284.429v213.323h-284.429v-213.323z" />
<glyph unicode="&#xe920;" d="M849.76 810.667c6.733 0 12.887-3.804 15.9-9.827l70.854-141.719c0.403-0.749 0.755-1.527 1.052-2.334l-0.798 1.839c0.482-0.966 0.868-1.948 1.163-2.933 0.075-0.273 0.151-0.559 0.222-0.849 0.147-0.557 0.254-1.111 0.335-1.666-0.002-0.119 0.015-0.247 0.030-0.378 0.139-0.975 0.175-1.939 0.132-2.893l-0.006-34.786c0-47.951-27.115-89.564-66.85-110.342l-4.269-2.127 0.013-420.834c0-9.818-7.959-17.777-17.777-17.777h-675.52c-9.818 0-17.777 7.959-17.777 17.777l0.013 420.834-4.269 2.127c-39.736 20.779-66.851 62.391-66.851 110.342l-0.006 34.786c-0.042 0.954-0.007 1.918 0.111 2.886l-0.105-2.118c0 0.853 0.060 1.692 0.176 2.511 0.061 0.546 0.169 1.101 0.305 1.655 0.080 0.292 0.157 0.578 0.24 0.862 0.1 0.352 0.221 0.715 0.355 1.077 0.298 0.813 0.65 1.591 1.054 2.34l70.854 141.719c3.011 6.022 9.167 9.827 15.9 9.827h675.52zM745.801 517.634l-1.801-2.274c-29.372-34.362-72.998-57.542-117.483-60.011l-7.857-0.22c-37.769 0-73.47 13.267-101.713 36.636l-4.947 4.358-4.934-4.363c-26.059-21.581-58.47-34.532-93.041-36.397l-8.685-0.235c-47.138 0-94.24 23.855-125.34 60.235l-1.801 2.234-3.125-2.575c-18.362-14.37-36.947-22.588-58.123-24.090l-7.157-0.25c-6.040 0-11.98 0.431-17.789 1.261l0.012-392.35 391.087 0.015 0.004 302.191c0 9.818 7.957 17.777 17.775 17.777h177.769c9.818 0 17.777-7.959 17.777-17.777l-0.013-302.191 35.567-0.015 0.013 392.35c-5.811-0.83-11.75-1.261-17.79-1.261-24.192 0-44.823 8.352-65.237 24.32l-3.168 2.63zM760.875 384.023h-142.214v-284.429h142.214v284.429zM529.777 419.578c9.818 0 17.777-7.959 17.777-17.777v-213.323c0-9.818-7.959-17.777-17.777-17.777h-284.429c-9.818 0-17.777 7.959-17.777 17.777v213.323c0 9.818 7.959 17.777 17.777 17.777h284.429zM711.102 241.809c11.733 0 21.333-9.6 21.333-21.333 0-11.819-9.6-21.333-21.333-21.333s-21.333 9.515-21.333 21.333c0 11.733 9.6 21.333 21.333 21.333zM512 384.023h-248.875v-177.769h248.875v177.769zM494.208 632.9h-195.541v-83.541l0.164-0.252c23.851-34.571 65.839-58.423 106.509-58.423 33.975 0 65.696 13.737 88.883 37.53l-0.015 104.687zM725.312 632.9h-195.541l0.004-104.678c23.202-23.78 54.959-37.538 88.885-37.538 40.783 0 82.839 23.947 106.667 58.654l-0.015 83.563zM903.089 632.898l-142.214 0.002 0.026-81.346c18.505-17.158 34.793-25.316 53.306-25.316 49.094 0 88.883 39.789 88.883 88.883v17.777zM183.664 530.185c6.462-2.031 13.262-3.302 20.285-3.759l5.845-0.188c18.524 0 34.854 8.177 53.31 25.314v81.348l-142.194-0.002v-17.777c0-35.714 21.058-66.507 51.437-80.636l3.973-1.745 0.469-0.036c2.497-0.358 4.826-1.235 6.875-2.519zM293.675 775.13l-108.448-0.017-53.331-106.661 135.112 0.011 26.667 106.667zM494.208 775.13h-163.883l-26.667-106.667h190.549v106.667zM693.653 775.13h-163.883v-106.667h190.528l-26.645 106.667zM838.737 775.113l-108.433 0.017 26.667-106.667 135.098-0.011-53.331 106.661z" />
<glyph unicode="&#xe921;" d="M896 810.667v-21.333h21.333v-576h-21.333v-21.333h-789.333v597.333h21.333v21.333h768zM853.333 320v405.333h-661.333v-405.333h661.333z" />
<glyph unicode="&#xe922;" d="M264.087 65.286c-3.155 0.16-6.084 0.757-8.855 2.323-7.748 4.39-10.961 14.099-7.324 22.116 0.755 1.664 1.779 3.209 3.019 4.559 2.49 2.716 5.839 4.612 9.476 5.37 1.615 0.337 2.042 0.297 3.684 0.382 37.139 0 74.289 0.422 111.441 0.983 8.623 24.29 18.455 41.677 27.753 66.551-82.432 0.303-164.851 0.969-247.263 1.988-7.707 0.286-15.271 1.591-22.525 4.196-18.852 6.769-34.202 21.466-41.568 39.787-3.049 7.593-4.583 15.571-4.898 23.714-2.256 174.929-2.26 349.905 0 524.836 0.294 7.565 1.626 14.988 4.282 22.109 6.906 18.495 21.887 33.552 40.555 40.781 7.735 2.996 15.863 4.497 24.154 4.806 237.303 2.95 474.664 2.947 711.967 0 8.294-0.309 16.427-1.811 24.164-4.806 18.671-7.225 33.649-22.289 40.548-40.784 2.656-7.121 3.985-14.543 4.277-22.105 2.257-174.931 2.253-349.907 0-524.836-0.314-8.139-1.843-16.115-4.894-23.708-7.356-18.327-22.705-33.028-41.557-39.793-7.26-2.607-14.829-3.91-22.539-4.196-54.871-0.678-109.743-1.201-164.619-1.566l-82.31-0.42 0.156-0.412c9.342-23.377 17.527-40.713 26.074-63.639 38.182-0.557 76.343-1.621 114.483-3.582 1.621-0.254 2.050-0.254 3.618-0.755 2.944-0.939 5.617-2.641 7.691-4.9 5.984-6.522 5.984-16.727 0-23.251-1.244-1.353-2.703-2.513-4.307-3.424-2.769-1.566-5.698-2.163-8.855-2.323l-124.309 0.015-33.941-0.907c-71.179-1.257-142.421 0.892-213.619 0.892h-123.957zM588.499 167.458c-50.991-0.134-101.984-0.137-152.975 0l-22.377-65.837c65.668 1.097 131.341 2.321 196.975 2.106l-21.623 63.731zM431.095 797.453l-109.265-1.315c-54.63-0.61-109.26-1.077-163.879-1.077-4.204-0.055-8.326-0.685-12.282-2.106-9.697-3.489-17.549-11.193-21.101-20.708-1.328-3.555-1.987-7.26-2.132-11.034-2.256-174.645-6.726-349.444 0.032-523.979 0.244-3.757 0.995-7.435 2.408-10.94 3.57-8.89 10.922-16.1 19.982-19.603 3.574-1.38 7.317-2.121 11.142-2.357 237.165-8.841 474.842-8.83 712.006 0 3.829 0.237 7.575 0.977 11.153 2.359 9.056 3.501 16.401 10.707 19.97 19.595 1.41 3.509 2.161 7.185 2.402 10.946 6.767 174.833 6.775 350.042 0 524.875-0.241 3.753-0.992 7.426-2.402 10.933-3.569 8.889-10.918 16.104-19.974 19.61-3.578 1.383-7.324 2.12-11.153 2.359-145.547 5.425-291.221 4.192-436.907 2.44zM513.807 291.127c5.314-0.397 10.387-1.655 15.087-4.164 3.989-2.123 7.546-5.003 10.432-8.433 2.545-3.027 4.565-6.479 5.941-10.165 1.218-3.264 1.931-6.703 2.112-10.176 0.742-14.438-8.015-28.158-21.587-33.792-4.352-1.807-9.067-2.737-13.79-2.737-4.73 0-9.44 0.93-13.796 2.737-13.568 5.634-22.325 19.354-21.583 33.792 0.181 3.473 0.894 6.912 2.112 10.176 1.378 3.686 3.396 7.138 5.943 10.165 2.886 3.43 6.441 6.31 10.426 8.433 4.704 2.509 9.779 3.767 15.091 4.164 1.82 0.045 1.807 0.045 3.612 0zM850.592 760.192c2.157-0.389 4.132-0.855 6.091-1.863 4.457-2.294 7.763-6.436 8.969-11.228 0.452-1.817 0.399-2.301 0.514-4.155v-417.015c-0.134-2.15-0.365-4.132-1.152-6.165-1.786-4.612-5.574-8.333-10.278-10.084-2.071-0.768-4.090-0.998-6.278-1.126h-672.91c-2.189 0.128-4.207 0.358-6.279 1.126-4.703 1.751-8.496 5.472-10.278 10.084-0.786 2.033-1.020 4.015-1.151 6.165v417.015c0.131 2.146 0.365 4.128 1.151 6.16 1.782 4.615 5.575 8.333 10.278 10.085 2.072 0.768 4.090 0.997 6.279 1.129 225.015 0 450.44 13.202 675.046-0.129zM830.748 725.57h-637.493v-382.263h637.493v382.263z" />
<glyph unicode="&#xe923;" d="M309.338 39.11h106.665v160h-106.665v-160zM273.781 536.887h106.667v71.11h-106.667v-71.11zM451.558 536.887h106.667v71.11h-106.667v-71.11zM629.335 536.887h106.667v71.11h-106.667v-71.11zM273.781 394.667h106.667v71.11h-106.667v-71.11zM451.558 394.667h106.667v71.11h-106.667v-71.11zM629.335 394.667h106.667v71.11h-106.667v-71.11zM593.781 39.11h106.665v160h-106.665v-160zM736.002 714.665v71.111h71.11v-129.492z" />
<glyph unicode="&#xe924;" d="M512.329 874.657l0.48-0.025c0.444-0.028 0.887-0.072 1.327-0.132 0.297-0.036 0.604-0.086 0.909-0.144 0.403-0.081 0.802-0.172 1.197-0.276 0.393-0.099 0.783-0.216 1.173-0.348l0.924-0.344c0.407-0.162 0.819-0.346 1.229-0.547 0.318-0.155 0.627-0.318 0.93-0.49 0.237-0.138 0.478-0.282 0.715-0.432l203.825-128.707 0.015 42.565c0 9.818 7.959 17.778 17.777 17.778h71.11c9.82 0 17.779-7.959 17.779-17.778l-0.015-109.936 27.285-17.254c8.301-5.244 10.78-16.224 5.538-24.525-5.244-8.301-16.224-10.78-24.525-5.538l-8.299 5.269v-576.896l17.792-0.006c9.818 0 17.777-7.959 17.777-17.779 0-9.818-7.959-17.777-17.777-17.777h-675.554c-9.818 0-17.778 7.959-17.778 17.777 0 9.82 7.959 17.779 17.778 17.779l17.761 0.006v576.875l-8.268-5.248c-8.301-5.242-19.281-2.763-24.524 5.538s-2.764 19.281 5.537 24.525l339.149 214.117c0.465 0.239 0.937 0.456 1.412 0.65l0.503 0.194 0.503 0.179c0.42 0.146 0.841 0.272 1.265 0.381 0.337 0.082 0.693 0.163 1.052 0.232 0.335 0.070 0.655 0.122 0.975 0.166 0.435 0.056 0.883 0.101 1.335 0.129l0.533 0.025 1.152-0.002zM511.703 835.862l-284.437-179.627v-599.339h71.104l0.015 142.214c0 9.82 7.959 17.777 17.779 17.777h106.665c9.82 0 17.779-7.957 17.779-17.777l-0.009-142.214h142.229v142.214c0 9.82 7.959 17.777 17.779 17.777h106.665c9.82 0 17.779-7.957 17.779-17.777l-0.015-142.214h71.125v599.339l-284.459 179.627zM405.052 181.333h-71.11v-124.444h71.11v124.444zM689.495 181.333h-71.11v-124.444h71.11v124.444zM440.608 288c9.818 0 17.777-7.959 17.777-17.779 0-9.818-7.959-17.777-17.777-17.777h-142.223c-9.818 0-17.777 7.959-17.777 17.777 0 9.82 7.959 17.779 17.777 17.779h142.223zM725.052 288c9.818 0 17.777-7.959 17.777-17.779 0-9.818-7.959-17.777-17.777-17.777h-142.223c-9.818 0-17.777 7.959-17.777 17.777 0 9.82 7.959 17.779 17.777 17.779h142.223zM387.275 483.554c9.818 0 17.777-7.959 17.777-17.777v-71.11c0-9.82-7.959-17.779-17.777-17.779h-106.667c-9.818 0-17.777 7.959-17.777 17.779v71.11c0 9.818 7.959 17.777 17.777 17.777h106.667zM565.052 483.554c9.818 0 17.777-7.959 17.777-17.777v-71.11c0-9.82-7.959-17.779-17.777-17.779h-106.667c-9.818 0-17.777 7.959-17.777 17.779v71.11c0 9.818 7.959 17.777 17.777 17.777h106.667zM742.829 483.554c9.818 0 17.777-7.959 17.777-17.777v-71.11c0-9.82-7.959-17.779-17.777-17.779h-106.667c-9.818 0-17.777 7.959-17.777 17.779v71.11c0 9.818 7.959 17.777 17.777 17.777h106.667zM369.495 448h-71.11v-35.556h71.11v35.556zM547.275 448h-71.113v-35.556h71.113v35.556zM725.052 448h-71.113v-35.556h71.113v35.556zM387.275 625.777c9.818 0 17.777-7.959 17.777-17.779v-71.11c0-9.818-7.959-17.777-17.777-17.777h-106.667c-9.818 0-17.777 7.959-17.777 17.777v71.11c0 9.82 7.959 17.779 17.777 17.779h106.667zM565.052 625.777c9.818 0 17.777-7.959 17.777-17.779v-71.11c0-9.818-7.959-17.777-17.777-17.777h-106.667c-9.818 0-17.777 7.959-17.777 17.777v71.11c0 9.82 7.959 17.779 17.777 17.779h106.667zM742.829 625.777c9.818 0 17.777-7.959 17.777-17.779v-71.11c0-9.818-7.959-17.777-17.777-17.777h-106.667c-9.818 0-17.777 7.959-17.777 17.777v71.11c0 9.82 7.959 17.779 17.777 17.779h106.667zM369.495 590.221h-71.11v-35.556h71.11v35.556zM547.275 590.221h-71.113v-35.556h71.113v35.556zM725.052 590.221h-71.113v-35.556h71.113v35.556zM796.162 767.998h-35.556l-0.006-47.251 35.563-22.464v69.715z" />
<glyph unicode="&#xe925;" d="M149.333 682.667h725.333c23.565 0 42.667-19.102 42.667-42.667v-85.333h-810.667v85.333c0 23.565 19.103 42.667 42.667 42.667z" />
<glyph unicode="&#xe926;" d="M849.777 714.667c49.073 0 88.89-39.817 88.89-88.89v-355.554c0-49.073-39.817-88.89-88.89-88.89h-675.555c-49.072 0-88.889 39.817-88.889 88.89v355.554c0 49.073 39.817 88.89 88.889 88.89h675.555zM903.104 536.896h-782.229l0.014-266.673c0-28.258 22.025-51.413 49.829-53.22l3.504-0.113h675.555c29.436 0 53.333 23.898 53.333 53.333l-0.006 266.673zM316.444 394.667c9.82 0 17.779-7.959 17.779-17.777 0-8.727-6.289-15.987-14.583-17.491l-3.196-0.288h-106.666c-9.818 0-17.778 7.959-17.778 17.779 0 8.727 6.289 15.985 14.582 17.491l3.196 0.286h106.666zM814.223 465.777c9.818 0 17.777-7.959 17.777-17.777 0-8.727-6.289-15.985-14.581-17.491l-3.196-0.286h-106.667c-9.82 0-17.779 7.959-17.779 17.777 0 8.727 6.289 15.985 14.583 17.491l3.196 0.286h106.667zM494.223 465.777c9.818 0 17.777-7.959 17.777-17.777 0-8.727-6.289-15.985-14.581-17.491l-3.196-0.286h-284.445c-9.818 0-17.778 7.959-17.778 17.777 0 8.727 6.289 15.985 14.582 17.491l3.196 0.286h284.445zM849.777 679.11h-675.555c-29.435 0-53.333-23.898-53.333-53.333l-0.014-53.318h782.229l0.006 53.318c0 28.258-22.025 51.413-49.828 53.22l-3.505 0.113z" />
<glyph unicode="&#xe927;" d="M493.333 768h279.147v-746.667h-279.147v746.667z" />
<glyph unicode="&#xe928;" d="M178.943 763.36c0 9.779 7.927 17.707 17.707 17.707h593.623c9.779 0 17.707-7.927 17.707-17.707v-742.029c0-9.779-7.927-17.707-17.707-17.707h-593.623c-9.779 0-17.707 7.927-17.707 17.707v742.029zM214.355 745.653v-706.615h558.21v706.615h-558.21z" />
<glyph unicode="&#xe929;" d="M327.343 874.666c0 9.779 7.927 17.707 17.707 17.707h296.813c9.779 0 17.707-7.928 17.707-17.707v-111.304c0-9.779-7.927-17.706-17.707-17.706h-296.813c-9.779 0-17.707 7.927-17.707 17.706v111.304zM362.756 856.959v-75.891h261.399v75.891h-261.399z" />
<glyph unicode="&#xe92a;" d="M86.188 763.36c0 9.779 7.927 17.707 17.707 17.707h816.232c9.779 0 17.707-7.927 17.707-17.707s-7.927-17.707-17.707-17.707h-816.232c-9.779 0-17.707 7.928-17.707 17.707z" />
<glyph unicode="&#xe92b;" d="M345.050 651.213c9.779 0 17.707-7.927 17.707-17.707v-445.218c0-9.779-7.927-17.707-17.707-17.707s-17.707 7.927-17.707 17.707v445.218c0 9.779 7.927 17.707 17.707 17.707z" />
<glyph unicode="&#xe92c;" d="M493.457 651.213c9.779 0 17.707-7.927 17.707-17.707v-445.218c0-9.779-7.927-17.707-17.707-17.707s-17.707 7.927-17.707 17.707v445.218c0 9.779 7.927 17.707 17.707 17.707z" />
<glyph unicode="&#xe92d;" d="M641.862 651.213c9.779 0 17.707-7.927 17.707-17.707v-445.218c0-9.779-7.927-17.707-17.707-17.707s-17.707 7.927-17.707 17.707v445.218c0 9.779 7.927 17.707 17.707 17.707z" />
<glyph unicode="&#xe92e;" d="M917.333 832h-810.667v-213.333h810.667v213.333z" />
<glyph unicode="&#xe92f;" d="M920.89 842.667c9.818 0 17.777-8.032 17.777-17.939v-215.272c0-9.907-7.959-17.939-17.777-17.939h-817.779c-9.818 0-17.778 8.032-17.778 17.939v215.272c0 9.908 7.959 17.939 17.778 17.939h817.779zM903.11 806.788h-782.221v-179.394h782.221v179.394zM886.074 519.757c9.41 0 17.037-8.032 17.037-17.939 0-8.806-6.027-16.13-13.973-17.649l-3.063-0.29h-783.703c-9.409 0-17.037 8.032-17.037 17.939 0 8.806 6.027 16.132 13.975 17.651l3.062 0.288h783.703zM921.6 412.122c9.425 0 17.067-8.032 17.067-17.939 0-8.806-6.037-16.132-13.999-17.651l-3.068-0.288h-819.2c-9.426 0-17.067 8.032-17.067 17.939 0 8.806 6.037 16.13 13.999 17.649l3.068 0.29h819.2zM885.711 304.484c9.611 0 17.399-8.032 17.399-17.939 0-8.806-6.155-16.13-14.272-17.649l-3.127-0.29h-782.978c-9.609 0-17.399 8.032-17.399 17.939 0 8.806 6.155 16.132 14.272 17.651l3.127 0.288h782.978zM921.6 196.849c9.425 0 17.067-8.032 17.067-17.939 0-8.809-6.037-16.132-13.999-17.651l-3.068-0.288h-819.2c-9.426 0-17.067 8.030-17.067 17.939 0 8.806 6.037 16.13 13.999 17.649l3.068 0.29h819.2zM672 89.212c9.818 0 17.777-8.032 17.777-17.939 0-8.806-6.289-16.13-14.581-17.651l-3.196-0.288h-568.889c-9.818 0-17.778 8.032-17.778 17.939 0 8.806 6.289 16.132 14.582 17.651l3.196 0.288h568.889z" />
<glyph unicode="&#xe930;" d="M600.913 874.667c9.82 0 229.321-219.622 230.825-227.915l0.288-3.196c0-9.82-7.959-17.779-17.779-17.779h-213.333c-9.818 0-17.777 7.959-17.777 17.779v213.333c0 9.818 7.959 17.778 17.777 17.778zM426.669 839.111h-199.113v-782.221h199.113v782.221z" />
<glyph unicode="&#xe931;" d="M600.89 874.667c1.566 0 3.083-0.202 4.529-0.582 0.267-0.075 0.533-0.151 0.796-0.234 0.435-0.131 0.858-0.282 1.274-0.449 0.25-0.105 0.501-0.212 0.751-0.325 0.476-0.211 0.934-0.445 1.382-0.698 0.205-0.118 0.405-0.237 0.604-0.36 0.38-0.232 0.749-0.479 1.107-0.739 0.282-0.206 0.561-0.422 0.834-0.646 0.382-0.313 0.753-0.644 1.109-0.991 0.062-0.060 0.124-0.121 0.183-0.182l212.917-212.931c0.642-0.599 1.237-1.248 1.783-1.937l-1.367 1.534c0.745-0.745 1.417-1.549 2.012-2.402 0.239-0.339 0.467-0.691 0.683-1.050 0.154-0.265 0.305-0.533 0.45-0.804 0.209-0.388 0.403-0.789 0.58-1.197 0.128-0.301 0.247-0.599 0.361-0.9 0.158-0.41 0.297-0.826 0.418-1.25 0.087-0.309 0.173-0.638 0.25-0.969 0.064-0.269 0.119-0.535 0.169-0.802l0.062-0.382c0.147-0.924 0.224-1.867 0.224-2.814v-604.446c0-9.818-7.959-17.777-17.777-17.777h-604.445c-9.818 0-17.778 7.959-17.778 17.777v817.779c0 9.818 7.959 17.778 17.778 17.778h391.112zM583.104 839.125l-355.548-0.014v-782.221h568.887l-0.006 568.902-195.548-0.015c-9.82 0-17.779 7.959-17.779 17.779l-0.006 195.569zM672 199.11c9.818 0 17.777-7.959 17.777-17.777s-7.959-17.777-17.777-17.777h-320c-9.818 0-17.777 7.959-17.777 17.777s7.959 17.777 17.777 17.777h320zM672 305.777c9.818 0 17.777-7.959 17.777-17.777s-7.959-17.777-17.777-17.777h-320c-9.818 0-17.777 7.959-17.777 17.777s7.959 17.777 17.777 17.777h320zM672 412.444c9.818 0 17.777-7.959 17.777-17.777s-7.959-17.777-17.777-17.777h-320c-9.818 0-17.777 7.959-17.777 17.777s7.959 17.777 17.777 17.777h320zM672 519.11c9.818 0 17.777-7.959 17.777-17.777s-7.959-17.777-17.777-17.777h-320c-9.818 0-17.777 7.959-17.777 17.777s7.959 17.777 17.777 17.777h320zM512 625.777c9.818 0 17.777-7.959 17.777-17.777s-7.959-17.777-17.777-17.777h-160c-9.818 0-17.777 7.959-17.777 17.777s7.959 17.777 17.777 17.777h160zM618.645 813.995l0.021-152.661h152.64l-152.661 152.661z" />
<glyph unicode="&#xe932;" d="M636.45 537.696c19.622 0 35.556-16.079 35.556-35.878 0-19.821-15.921-35.878-35.556-35.878s-35.556 16.058-35.556 35.878c0 19.799 15.934 35.878 35.556 35.878zM725.34 196.866v-107.635h-71.113v107.635h71.113zM768.004 650.667h64v-106.667h-64v106.667zM259.563 594.519h-64v-85.333l64 21.333v64zM369.783 214.558v-126.020h-71.11v126.020h71.11zM369.783 441.382v-73.679h-71.11v73.679h71.11z" />
<glyph unicode="&#xe933;" d="M488.19 838.194l254.914-226.354 0.009 51.443c0 9.907 7.957 17.939 17.777 17.939h71.11c9.818 0 17.777-8.032 17.777-17.939l-0.006-146.163 82.863-73.591c7.371-6.545 8.087-17.882 1.602-25.318-6.487-7.439-17.722-8.162-25.092-1.617l-23.831 21.167v-348.544l17.798-0.004c9.82 0 17.779-8.032 17.779-17.939s-7.959-17.939-17.779-17.939h-782.219c-9.818 0-17.778 8.032-17.778 17.939s7.959 17.939 17.778 17.939l17.775 0.004v341.696l-26.31-16.175c-8.387-5.152-19.324-2.468-24.429 5.997-5.105 8.463-2.445 19.499 5.942 24.651l44.797 27.533 0.002 0.873 1.427 0.002 34.112 20.949 0.016 96.785c0 9.907 7.959 17.939 17.778 17.939h71.11c9.82 0 17.779-8.032 17.779-17.939l-0.017-31.27 213.333 131.051v93.739l-29.506 26.214c-7.371 6.545-8.087 17.881-1.602 25.319s17.719 8.161 25.090 1.616zM529.771 753.472v-664.256h88.896v125.589c0 9.146 6.782 16.693 15.548 17.801l2.231 0.139h106.667c9.818 0 17.777-8.032 17.777-17.939l-0.015-125.589h88.896v380.096l-320 284.16zM494.208 649.301l-320-196.565v-363.52h88.896l0.009 125.589c0 9.146 6.782 16.693 15.548 17.801l2.231 0.139h106.665c9.82 0 17.779-8.032 17.779-17.939l-0.002-125.589h88.875v560.085zM725.333 196.866h-71.11v-107.635h71.11v107.635zM369.779 196.866h-71.11v-107.635h71.11v107.635zM387.556 304.503c9.82 0 17.779-8.032 17.779-17.939 0-9.909-7.959-17.941-17.779-17.941h-106.665c-9.82 0-17.779 8.032-17.779 17.941 0 9.907 7.959 17.939 17.779 17.939h106.665zM742.95 304.503c9.907 0 17.939-8.032 17.939-17.939 0-9.909-8.032-17.941-17.939-17.941h-106.345c-9.907 0-17.939 8.032-17.939 17.941 0 9.907 8.032 17.939 17.939 17.939h106.345zM387.556 465.956c9.82 0 17.779-8.030 17.779-17.939v-89.696c0-9.907-7.959-17.939-17.779-17.939h-106.665c-9.82 0-17.779 8.032-17.779 17.939v89.696c0 9.909 7.959 17.939 17.779 17.939h106.665zM369.779 430.078h-71.11v-53.818h71.11v53.818zM636.446 573.577c39.258 0 71.11-32.143 71.11-71.759 0-39.639-31.842-71.757-71.11-71.757-39.27 0-71.113 32.117-71.113 71.757 0 39.616 31.853 71.759 71.113 71.759zM636.446 537.696c-19.622 0-35.556-16.079-35.556-35.878 0-19.821 15.919-35.878 35.556-35.878 19.635 0 35.554 16.058 35.554 35.878 0 19.799-15.934 35.878-35.554 35.878zM245.335 573.587h-35.555l-0.009-57.001 35.563 21.845 0.002 35.155zM814.223 645.344h-35.556v-65.099l35.541-31.552 0.015 96.651z" />
<glyph unicode="&#xe934;" d="M630.182 417.178l-181.333-298.667 170.667 106.667 192 138.667v213.333l-74.667 53.333-54.4-96 11.733-10.667 21.333-42.667-21.333-32-21.333-21.333-42.667-10.667z" />
<glyph unicode="&#xe935;" d="M651.102 818.559c5.472 3.138 12.201 3.129 17.662-0.025l256.369-148.015c5.216-3.012 8.544-8.469 8.832-14.485s-2.5-11.767-7.405-15.264l-93.764-66.869-2.485-201.438c-0.068-5.589-2.773-10.818-7.296-14.106l-385.169-279.889c-4.785-3.477-10.923-4.297-16.365-2.353-0.691-0.081-1.395-0.124-2.11-0.124h-311.857c-9.779 0-17.707 7.927-17.707 17.707s7.927 17.707 17.707 17.707h304.113l48.979 456.228c0.595 5.545 3.77 10.485 8.565 13.333l172.35 102.364 0.683 119.97c0.036 6.308 3.426 12.12 8.898 15.259zM677.444 772.631l-0.51-89.233 137.276-79.255 69.374 49.474-206.14 119.014zM659.279 652.689l-164.407-97.645-40.911-381.075 147.262 254.18c-22.116 22.609-25.327 59.083-8.693 87.891 19.695 34.114 62.611 49.506 97.009 29.647s42.526-64.723 22.831-98.837c-16.636-28.813-49.839-44.271-80.482-36.412l-147.281-254.214 310.404 225.559 2.357 191.179-138.089 79.727zM633.103 447.857l0.243-0.145c14.85-8.346 36.932-2.938 48.354 16.845 11.492 19.908 4.981 41.888-9.869 50.462s-37.141 3.223-48.634-16.685c-11.424-19.785-5.062-41.617 9.596-50.302l0.309-0.175z" />
<glyph unicode="&#xe936;" d="M704 96c35.347 0 64 28.653 64 64s-28.653 64-64 64c-35.347 0-64-28.653-64-64s28.653-64 64-64zM128 554.667l384-213.333 384 213.333-384 213.333-384-213.333z" />
<glyph unicode="&#xe937;" d="M520.045 798.016l409.515-215.32c12.143-6.385 12.143-23.614 0-29.999l-123.33-64.847 0.011-241.225-3.921-4.706c-5.973-7.172-15.949-17.062-30.078-28.463 7.153-11.699 11.275-25.412 11.275-40.079 0-42.735-34.991-77.378-78.153-77.378-28.378 0-53.22 14.974-66.912 37.376-37.845-13.246-79.322-20.393-124.401-20.393-83.889 0-155.759 24.386-215.42 65.009-20.913 14.238-38.827 29.51-53.779 44.832-7.586 7.774-13.143 14.21-16.687 18.748l-5.133 6.942-0.013 236.585-128.577 67.599c-11.385 5.986-12.097 21.502-2.135 28.681l2.135 1.318 409.514 215.32c5.030 2.645 11.059 2.645 16.090 0zM705.363 216.789c-24.215 0-43.846-19.435-43.846-43.411 0-23.974 19.631-43.411 43.846-43.411s43.844 19.437 43.844 43.411c0 23.977-19.629 43.411-43.844 43.411zM771.925 469.824l-48.149-25.323 0.004-144.599c0-9.378-7.68-16.983-17.154-16.983s-17.154 7.605-17.154 16.983l-0.021 126.551-169.406-89.075c-4.311-2.268-9.357-2.59-13.879-0.971l-2.21 0.971-246.633 129.673 0.015-207.228 5.19-5.967 6.995-7.43c13.421-13.751 29.606-27.55 48.546-40.446 54.197-36.902 119.409-59.029 195.981-59.029 41.365 0 79.164 6.545 113.564 18.639-0.271 2.566-0.403 5.163-0.403 7.789 0 42.735 34.989 77.378 78.153 77.378 15.855 0 30.609-4.674 42.929-12.708 4.109 3.266 7.942 6.5 11.514 9.675l9.658 9.043 2.47 2.547-0.009 210.511zM512.002 763.791l-372.979-196.090 372.945-196.058 166.752 87.684-174.865 93.423c-7.411 3.959-10.694 12.54-8.173 20.194l1.222 2.816c4.499 8.256 14.903 11.337 23.241 6.882l194.991-104.179 169.811 89.269-372.945 196.058z" />
<glyph unicode="&#xe938;" d="M511.787 24.853v853.334l426.667-418.766-426.667-434.569z" />
<glyph unicode="&#xe939;" d="M511.87 679.275c9.839 0 17.813-7.977 17.813-17.815v-310.231c0-9.839-7.974-17.813-17.813-17.813-9.837 0-17.813 7.974-17.813 17.813v310.231c0 9.839 7.977 17.815 17.813 17.815z" />
<glyph unicode="&#xe93a;" d="M72.629 435.509c-6.957 6.955-6.957 18.234 0 25.19l426.669 426.669c6.955 6.957 18.234 6.957 25.19 0l426.665-426.665c6.957-6.957 6.957-18.236 0-25.193l-426.667-426.669c-6.957-6.957-18.236-6.957-25.193 0l-426.665 426.667zM110.417 448.105l401.472-401.474 401.476 401.476-401.472 401.474-401.477-401.476z" />
<glyph unicode="&#xe93b;" d="M510.701 216.672c-0.188-0.188-0.407-0.521-0.407-1.171s0.22-0.983 0.407-1.171c0.186-0.188 0.518-0.405 1.169-0.405s0.983 0.218 1.171 0.405c0.188 0.188 0.405 0.521 0.405 1.171s-0.218 0.983-0.405 1.171c-0.188 0.188-0.521 0.405-1.171 0.405s-0.983-0.218-1.169-0.405zM474.667 215.501c0 20.695 16.508 37.203 37.203 37.203 20.698 0 37.203-16.508 37.203-37.203s-16.506-37.203-37.203-37.203c-20.695 0-37.203 16.508-37.203 37.203z" />
<glyph unicode="&#xe93c;" d="M916.382 285.431h-266.257v-242.15h266.257v242.15z" />
<glyph unicode="&#xe93d;" d="M211.224 467.682c2.201-0.318 4.271-0.819 6.276-1.862 4.435-2.3 7.804-6.528 9.161-11.494 0.457-1.679 0.599-3.328 0.678-5.060v-388.45l338.895-0.081c4.431-0.644 8.42-2.46 11.482-5.956 5.687-6.5 6.135-16.589 1.047-23.612-1.318-1.815-2.961-3.377-4.821-4.576-2.389-1.542-4.949-2.293-7.708-2.692-118.754-5.724-237.764-0.079-356.646-0.079-1.665 0.079-3.248 0.226-4.857 0.704-4.768 1.412-8.826 4.924-11.034 9.549-0.998 2.091-1.477 4.243-1.786 6.537-6.035 136.073-0.075 272.437-0.075 408.657 0.075 1.732 0.22 3.381 0.678 5.060 1.356 4.966 4.725 9.195 9.159 11.494 2.006 1.043 4.072 1.545 6.273 1.862 1.651 0.081 1.64 0.081 3.277 0zM780.802 449.225c13.523-0.535 26.793-2.963 39.524-7.821 33.065-12.612 59.991-40.006 72.907-74.138 5.35-14.14 8.032-28.998 8.585-44.156 0.085-7.070 0.201-14.146 0.233-21.22 6.304-0.164 12.627-0.405 18.948-0.666 1.871-0.228 3.654-0.595 5.399-1.35 4.322-1.865 7.819-5.508 9.609-10.010 0.723-1.824 1.075-3.682 1.295-5.628 3.038-80.58 0.058-161.28 0.058-241.92-0.075-1.961-0.286-3.84-0.87-5.719-1.591-5.105-5.329-9.314-10.091-11.373-1.745-0.753-3.529-1.12-5.399-1.35-95.061-3.891-190.268-0.055-285.399-0.055-1.882 0.075-3.684 0.297-5.485 0.905-4.902 1.66-8.943 5.553-10.916 10.513-0.723 1.824-1.073 3.68-1.295 5.628-3.036 80.578-0.053 161.28-0.053 241.922 0.075 1.958 0.284 3.84 0.868 5.715 1.591 5.107 5.329 9.321 10.086 11.373 1.751 0.755 3.533 1.122 5.404 1.35l18.948 0.666c0.032 7.074 0.147 14.15 0.233 21.22 0.514 14.093 2.839 27.921 7.499 41.188 12.098 34.458 38.383 62.522 71.136 75.981 13.572 5.574 27.834 8.369 42.381 8.945l1.899 0.023h2.594c0.501-0.006 1.101-0.013 1.905-0.023zM901.856 264.288h-248.506v-203.473h248.506v203.473zM779.411 227.249c5.327-0.418 10.421-1.758 15.14-4.429 4.002-2.263 7.569-5.333 10.462-8.992 2.549-3.228 4.57-6.901 5.948-10.829 1.214-3.471 1.924-7.125 2.103-10.818 0.661-13.696-6.221-26.784-17.357-33.717 0.369-14.679 0.768-29.429-0.45-44.068-0.322-2.771-1.135-5.412-2.545-7.795-1.178-1.995-2.722-3.748-4.527-5.146-1.643-1.269-3.492-2.24-5.449-2.857-8.049-2.534-16.945 1.355-20.849 9.111-1.25 2.479-1.886 5.171-2.025 7.957-0.237 14.306-0.954 28.681-0.661 42.997-10.944 6.959-17.719 19.94-17.060 33.517 0.181 3.699 0.894 7.362 2.116 10.839 1.38 3.921 3.403 7.595 5.952 10.818 2.895 3.65 6.462 6.718 10.46 8.981 4.71 2.669 9.801 4.011 15.123 4.429 1.824 0.049 1.811 0.049 3.618 0zM773.018 412.147c-9.572-0.506-19.055-2.626-27.972-6.289-9.971-4.094-19.198-10.099-27.13-17.609-8.435-7.996-15.379-17.673-20.329-28.375-5.466-11.831-8.228-24.606-8.708-37.696-0.077-6.387 0.002-12.777 0.060-19.166 59.083 1.519 118.236 1.519 177.338 0.026 0.047 6.364 0.124 12.753 0.047 19.14-0.446 12.331-2.91 24.384-7.799 35.661-10.671 24.591-31.689 43.548-56.612 50.921-9.37 2.773-19.168 3.9-28.894 3.388zM512.54 874.667c2.434-0.344 4.642-0.795 6.859-1.972 1.899-1.006 2.261-1.45 3.915-2.823l408.262-388.451c1.427-1.545 1.871-1.875 2.985-3.691 1.673-2.726 2.639-5.899 2.78-9.126 0.399-9.156-5.961-17.444-14.62-19.053-2.289-0.427-4.653-0.375-6.925 0.143-3.157 0.725-5.67 2.336-8.158 4.407l-396.292 377.063-398.107-378.573c-1.761-1.109-2.166-1.487-4.111-2.223-2.918-1.099-6.103-1.385-9.156-0.817-7.817 1.449-13.895 8.386-14.573 16.631-0.199 2.413 0.064 4.862 0.767 7.174 0.976 3.211 2.744 5.67 4.952 8.064l408.262 388.451c1.651 1.373 2.016 1.817 3.913 2.823 2.219 1.177 4.422 1.628 6.861 1.972h2.387zM565.442 689.713c1.982-0.149 3.902-0.533 5.751-1.306 6.5-2.709 10.639-9.105 11.134-16.29 0.858-37.572 0.858-75.179 0-112.747-0.495-7.187-4.634-13.581-11.134-16.292-1.85-0.774-3.77-1.158-5.751-1.306-36.055-0.892-72.139-0.892-108.192 0-1.982 0.147-3.902 0.531-5.751 1.306-6.5 2.711-10.641 9.105-11.134 16.292-0.86 37.568-0.86 75.174 0 112.747 0.139 2.065 0.508 4.062 1.25 5.993 2.603 6.775 8.736 11.089 15.635 11.603 36.053 0.894 72.137 0.894 108.192 0zM546.846 652.74h-71.002v-73.993h71.002v73.993zM778.534 837.69c1.867-0.155 3.674-0.503 5.431-1.202 6.603-2.645 10.816-9.053 11.364-16.304 1.099-43.791 1.099-87.627 0-131.418-0.222-2.931-0.939-5.724-2.355-8.279-1.086-1.961-2.517-3.703-4.203-5.129-1.683-1.423-3.62-2.519-5.683-3.219-7.874-2.662-16.719 0.875-20.858 8.348-1.579 2.844-2.298 5.982-2.379 9.248v110.986c-35.81 0-71.633-0.954-107.433 0.026-0.939 0.074-1.839 0.2-2.763 0.377-3.049 0.762-5.839 2.146-8.186 4.347-6.923 6.496-7.778 17.843-1.918 25.386 1.367 1.757 3.042 3.248 4.922 4.38 2.451 1.476 5.133 2.22 7.945 2.453 42.022 1.147 84.087 1.147 126.114 0z" />
<glyph unicode="&#xe93e;" d="M440.8 85.116l-58.534-58.541c-6.172-6.17-15.75-6.857-22.679-2.057l-2.462 2.057-58.534 58.541-58.537-58.541c-10.451-10.451-27.827-4.239-30.098 9.513l-0.247 3.057v817.71c0 15.837 19.147 23.768 30.345 12.57l58.537-58.539 58.534 58.539c6.172 6.171 15.75 6.856 22.679 2.057l2.462-2.057 58.534-58.539v-725.77z" />
<glyph unicode="&#xe93f;" d="M240.053 869.424l58.537-58.539 58.534 58.539c6.172 6.171 15.75 6.856 22.679 2.057l2.462-2.057 58.534-58.539 58.537 58.539c6.17 6.171 15.748 6.856 22.677 2.057l2.462-2.057 58.534-58.539 58.537 58.539c6.17 6.171 15.748 6.856 22.677 2.057l2.462-2.057 58.534-58.539 58.537 58.539c11.198 11.199 30.345 3.267 30.345-12.57v-817.71c0-15.836-19.147-23.767-30.345-12.57l-58.537 58.541-58.534-58.541c-6.172-6.17-15.75-6.857-22.677-2.057l-2.462 2.057-58.537 58.541-58.534-58.541c-6.172-6.17-15.75-6.857-22.677-2.057l-2.462 2.057-58.537 58.541-58.534-58.541c-6.172-6.17-15.75-6.857-22.679-2.057l-2.462 2.057-58.534 58.541-58.537-58.541c-10.451-10.451-27.827-4.239-30.098 9.513l-0.247 3.057v817.71c0 15.837 19.147 23.768 30.345 12.57zM654.116 831.719l-58.537-58.539c-6.942-6.942-18.197-6.942-25.139 0l-58.534 58.539-58.537-58.539c-6.17-6.171-15.748-6.856-22.677-2.057l-2.462 2.057-58.534 58.539-58.537-58.539c-6.17-6.171-15.75-6.856-22.677-2.057l-2.462 2.057-40.759 40.799v-731.922l40.759 40.764c6.17 6.17 15.748 6.857 22.677 2.057l2.462-2.057 58.537-58.539 58.534 58.539c6.172 6.17 15.75 6.857 22.677 2.057l2.462-2.057 58.537-58.539 58.534 58.539c6.172 6.17 15.75 6.857 22.677 2.057l2.462-2.057 58.537-58.539 58.534 58.539c6.172 6.17 15.75 6.857 22.677 2.057l2.462-2.057 40.759-40.764v731.922l-40.759-40.799c-6.17-6.171-15.748-6.856-22.677-2.057l-2.462 2.057-58.534 58.539zM636.339 519.106c9.818 0 17.777-7.959 17.777-17.777l-0.002-20.019c30.66-7.898 53.331-35.744 53.331-68.862 0-9.818-7.959-17.777-17.777-17.777s-17.777 7.959-17.777 17.777c0 19.62-15.932 35.552-35.552 35.552s-35.552-15.932-35.552-35.552c0-19.62 15.932-35.554 35.552-35.554 39.255 0 71.106-31.849 71.106-71.104 0-33.118-22.671-60.966-53.331-68.864l0.002-20.017c0-9.818-7.959-17.777-17.777-17.777s-17.777 7.959-17.777 17.777l0.002 20.017c-30.66 7.898-53.329 35.746-53.329 68.864 0 9.818 7.957 17.777 17.775 17.777s17.777-7.959 17.777-17.777c0-19.62 15.932-35.552 35.552-35.552s35.552 15.932 35.552 35.552c0 19.62-15.932 35.552-35.552 35.552-39.255 0-71.104 31.851-71.104 71.106 0 33.118 22.669 60.964 53.329 68.862l-0.002 20.019c0 9.818 7.959 17.777 17.777 17.777zM440.8 341.342c9.818 0 17.777-7.957 17.777-17.775s-7.959-17.777-17.777-17.777h-106.658c-9.818 0-17.775 7.959-17.775 17.777s7.957 17.775 17.775 17.775h106.658zM476.352 448c9.818 0 17.777-7.959 17.777-17.777s-7.959-17.775-17.777-17.775h-142.21c-9.818 0-17.775 7.957-17.775 17.775s7.957 17.777 17.775 17.777h142.21zM476.352 554.658c9.818 0 17.777-7.959 17.777-17.777s-7.959-17.775-17.777-17.775h-142.21c-9.818 0-17.775 7.957-17.775 17.775s7.957 17.777 17.775 17.777h142.21zM618.562 661.316c9.818 0 17.777-7.959 17.777-17.777s-7.959-17.777-17.777-17.777h-284.42c-9.818 0-17.775 7.959-17.775 17.777s7.957 17.777 17.775 17.777h284.42z" />
<glyph unicode="&#xe940;" d="M382.167 355.881l-136.945-142.281v142.281h-142.28v497.981h279.225v-497.981z" />
<glyph unicode="&#xe941;" d="M832.13 427.019l-71.14-71.14 88.926-88.926 71.138 71.14-88.924 88.926z" />
<glyph unicode="&#xe942;" d="M529.792 35.748l39.168 124.265 85.327-88.693-124.495-35.571z" />
<glyph unicode="&#xe943;" d="M85.333 853.861c0 9.723 7.882 17.605 17.605 17.605h746.971c9.724 0 17.606-7.882 17.606-17.605v-302.345c0-9.724-7.883-17.606-17.606-17.606s-17.604 7.883-17.604 17.606v284.74h-711.761v-462.771h124.675c9.724 0 17.606-7.883 17.606-17.604v-99.778l112.226 112.226c3.302 3.302 7.78 5.156 12.448 5.156h177.852c9.722 0 17.604-7.883 17.604-17.604 0-9.724-7.883-17.606-17.604-17.606h-170.56l-137.122-137.122c-5.037-5.037-12.608-6.543-19.187-3.817-6.577 2.724-10.867 9.143-10.867 16.265v124.674h-124.675c-9.723 0-17.605 7.883-17.605 17.606v497.981z" />
<glyph unicode="&#xe944;" d="M211.594 711.582c0 9.724 7.881 17.604 17.605 17.604h494.423c9.724 0 17.604-7.881 17.604-17.604s-7.881-17.606-17.604-17.606h-494.423c-9.724 0-17.605 7.883-17.605 17.606z" />
<glyph unicode="&#xe945;" d="M229.199 622.477c-9.724 0-17.605-7.883-17.605-17.606 0-9.722 7.881-17.604 17.605-17.604h494.423c9.724 0 17.604 7.883 17.604 17.604 0 9.724-7.881 17.606-17.604 17.606h-494.423z" />
<glyph unicode="&#xe946;" d="M211.594 498.161c0 9.724 7.881 17.606 17.605 17.606h320.13c9.724 0 17.604-7.883 17.604-17.606 0-9.722-7.881-17.604-17.604-17.604h-320.13c-9.724 0-17.605 7.883-17.605 17.604z" />
<glyph unicode="&#xe947;" d="M844.587 439.467c-3.3 3.302-7.778 5.156-12.448 5.156s-9.148-1.854-12.448-5.156l-266.775-266.775c-2.3-2.298-3.831-5.073-4.593-8.009l-35.456-124.098c-1.758-6.148-0.043-12.764 4.478-17.284 4.521-4.523 11.138-6.236 17.284-4.48l124.243 35.497c2.543 0.685 4.962 1.946 7.049 3.787 0.279 0.245 0.553 0.501 0.817 0.766l266.775 266.775c6.876 6.876 6.876 18.022 0 24.898l-88.926 88.924zM654.285 96.213l-64.028 64.028 170.735 170.735 64.028-64.028-170.735-170.735zM574.069 126.633l46.609-46.607-65.252-18.643 18.643 65.25zM849.918 291.844l-64.028 64.028 46.249 46.249 64.028-64.028-46.249-46.249z" />
<glyph unicode="&#xe948;" d="M757.333 746.667h-234.667v-277.333h234.667v277.333z" />
<glyph unicode="&#xe949;" d="M849.333 874.667c8.1 0 14.667-7.959 14.667-17.778v-817.779c0-9.818-6.566-17.777-14.667-17.777h-674.667c-8.1 0-14.667 7.959-14.667 17.777v817.779c0 9.818 6.566 17.778 14.667 17.778h674.667zM828.16 838.827h-632.32v-781.653h632.32v781.653zM761.333 768c8.1 0 14.667-7.959 14.667-17.778v-284.445c0-9.818-6.566-17.777-14.667-17.777h-234.667c-8.1 0-14.667 7.959-14.667 17.777v284.445c0 9.818 6.566 17.778 14.667 17.778h234.667zM740.053 732.16h-192.213v-248.32h192.213v248.32z" />
<glyph unicode="&#xe94a;" d="M465.899 696.96c9.41 0 17.037-8.032 17.037-17.939 0-8.806-6.027-16.132-13.973-17.651l-3.063-0.288h-112.678c-9.408 0-17.037 8.032-17.037 17.939 0 8.806 6.027 16.132 13.975 17.651l3.061 0.288h112.678zM465.41 589.323c9.427 0 17.067-8.030 17.067-17.939 0-8.806-6.037-16.13-13.999-17.649l-3.068-0.29h-200.239c-9.425 0-17.067 8.032-17.067 17.939 0 8.809 6.037 16.132 13.999 17.651l3.068 0.288h200.239zM465.41 481.687c9.611 0 17.399-8.032 17.399-17.939 0-8.806-6.155-16.132-14.272-17.651l-3.127-0.288h-199.906c-9.611 0-17.399 8.032-17.399 17.939 0 8.806 6.155 16.13 14.272 17.649l3.127 0.29h199.906zM758.901 374.050c9.425 0 17.067-8.030 17.067-17.939 0-8.806-6.037-16.13-13.999-17.649l-3.068-0.29h-493.73c-9.425 0-17.067 8.032-17.067 17.939 0 8.806 6.037 16.132 13.999 17.651l3.068 0.288h493.73zM611.584 266.415c9.818 0 17.777-8.032 17.777-17.939 0-8.806-6.289-16.132-14.581-17.651l-3.196-0.288h-345.702c-9.818 0-17.777 8.030-17.777 17.939 0 8.806 6.289 16.13 14.581 17.649l3.196 0.29h345.702z" />
<glyph unicode="&#xe94b;" d="M202.667 170.667h128v-128h-128v128zM693.333 170.667h128v-128h-128v128zM138.667 853.333h746.667v-64h-746.667v64z" />
<glyph unicode="&#xe94c;" d="M888.727 874.667c9.907 0 17.939-7.959 17.939-17.778v-675.556c0-9.818-8.032-17.777-17.939-17.777l-53.826 0.006 0.009-124.452c0-9.062-6.844-16.542-15.691-17.638l-2.249-0.139h-107.637c-9.907 0-17.939 7.959-17.939 17.777l-0.002 124.452h-358.805l0.019-124.452c0-9.062-6.844-16.542-15.689-17.638l-2.251-0.139h-107.636c-9.908 0-17.939 7.959-17.939 17.777l-0.014 124.452-53.805-0.006c-9.146 0-16.693 6.782-17.8 15.548l-0.14 2.229v675.556c0 9.818 8.032 17.778 17.939 17.778h753.455zM296.727 163.556h-71.757v-106.667h71.757v106.667zM799.029 163.556h-71.757v-106.667h71.757v106.667zM870.788 839.111h-717.576v-640.001h717.576v640.001zM571.693 454.908l1.623-2.778 32.962-68.486 0.023 60.815c0 8.727 6.33 15.985 14.675 17.491l3.215 0.286c8.783 0 16.085-6.289 17.6-14.581l0.288-3.196v-139.2c0-17.815-22.859-24.017-32.401-10.449l-1.623 2.778-33.011 68.529 0.023-60.858c0-8.727-6.327-15.985-14.673-17.491l-3.215-0.286c-8.783 0-16.085 6.289-17.6 14.581l-0.288 3.196v139.2c0 17.815 22.859 24.017 32.401 10.449zM326.735 462.236c36.156 0 51.341-19.91 51.341-52.587 0-23.296-7.725-40.092-25.269-47.81l23.541-48.928c4.26-8.858 0.489-19.471-8.425-23.706-7.923-3.765-17.242-1.22-22.208 5.613l-1.647 2.758-28.634 59.543h-4.361l0.026-51.861c0-8.727-6.33-15.985-14.675-17.491l-3.215-0.286c-8.781 0-16.085 6.289-17.6 14.581l-0.288 3.196v139.2c0 8.727 6.327 15.985 14.673 17.491l3.215 0.286h33.525zM489.116 462.236c9.879 0 17.888-7.959 17.888-17.777 0-8.727-6.327-15.985-14.673-17.491l-3.215-0.286-42.98 0.021-0.013-34.063h26.423c9.882 0 17.89-7.959 17.89-17.777 0-8.727-6.33-15.987-14.673-17.491l-3.217-0.288-26.423 0.015 0.013-34.042 42.98-0.021c8.783 0 16.085-6.289 17.6-14.581l0.288-3.196c0-8.727-6.327-15.985-14.673-17.491l-3.215-0.286h-60.858c-8.783 0-16.087 6.289-17.602 14.581l-0.288 3.196v69.278c-0.002 0.109-0.002 0.218-0.002 0.326l0.002 0.305v69.291c0 8.727 6.33 15.985 14.673 17.491l3.217 0.286h60.858zM722.688 462.236l0.341-0.006 33.126-0.006c9.879 0 17.888-7.959 17.888-17.779 0-8.727-6.327-15.985-14.673-17.491l-3.215-0.286h-15.59l0.013-121.408c0-9.818-8.011-17.777-17.89-17.777-8.781 0-16.085 6.289-17.6 14.581l-0.288 3.196-0.011 121.408h-15.61c-9.882 0-17.89 7.959-17.89 17.777 0 8.727 6.33 15.987 14.673 17.491l3.217 0.288 33.186 0.011c0.109 0.002 0.215 0.002 0.322 0.002zM311.074 426.703v-34.027l15.661-0.021c12.751 0 15.202 1.818 15.522 13.545l0.041 3.45c0 13.611-1.399 16.58-12.337 16.981l-3.226 0.051-15.661 0.021zM515.799 718.223c43.639 0 57.658-31.627 57.658-88.89s-14.018-88.89-57.658-88.89c-43.642 0-57.621 31.593-57.621 88.89s13.98 88.89 57.621 88.89zM411.575 718.219c9.907 0 17.939-7.959 17.939-17.777 0-8.727-6.347-15.987-14.716-17.491l-3.223-0.288-43.091 0.004-0.015-34.005 26.494-0.021c9.907 0 17.939-7.959 17.939-17.777 0-8.727-6.347-15.987-14.714-17.491l-3.226-0.288-26.494 0.015 0.015-51.823c0-8.727-6.345-15.985-14.714-17.491l-3.226-0.286c-8.806 0-16.13 6.289-17.649 14.581l-0.29 3.196v139.166c0 8.727 6.347 15.985 14.716 17.491l3.223 0.286h61.030zM671.194 718.219c36.247 0 51.522-19.919 51.522-52.55 0-23.3-7.755-40.105-25.344-47.834l23.571-48.883c4.275-8.858 0.495-19.473-8.444-23.71-7.945-3.765-17.291-1.225-22.272 5.609l-1.651 2.758-28.715 59.49-4.346-0.015v-51.808c0-8.727-6.347-15.985-14.716-17.491l-3.223-0.286c-8.809 0-16.132 6.289-17.651 14.581l-0.288 3.196v139.166c0 8.727 6.345 15.985 14.714 17.491l3.226 0.286h33.617zM515.799 682.667c-15.742 0-21.743-13.562-21.743-53.333s6.001-53.333 21.743-53.333c15.757 0 21.779 13.589 21.779 53.333l-0.064 6.746c-0.678 34.551-6.886 46.588-21.715 46.588zM655.516 682.667v-34.027l15.059-0.006c0.215 0.009 0.429 0.011 0.644 0.011 11.614-0.009 14.718 1.51 15.428 10.607l0.19 6.417-0.19 6.394c-0.642 8.162-3.228 10.219-12.215 10.549l-18.916 0.055z" />
<glyph unicode="&#xe94d;" d="M202.667 170.667h128v-128h-128v128zM693.333 170.667h128v-128h-128v128zM138.667 853.333h746.667v-64h-746.667v64z" />
<glyph unicode="&#xe94e;" d="M888.727 874.667c9.907 0 17.939-7.959 17.939-17.778v-675.556c0-9.818-8.032-17.777-17.939-17.777l-53.826 0.006 0.009-124.452c0-9.062-6.844-16.542-15.691-17.638l-2.249-0.139h-107.637c-9.907 0-17.939 7.959-17.939 17.777l-0.002 124.452h-358.805l0.019-124.452c0-9.062-6.844-16.542-15.689-17.638l-2.251-0.139h-107.636c-9.908 0-17.939 7.959-17.939 17.777l-0.014 124.452-53.805-0.006c-9.146 0-16.693 6.782-17.8 15.548l-0.14 2.229v675.556c0 9.818 8.032 17.778 17.939 17.778h753.455zM296.727 163.556h-71.757v-106.667h71.757v106.667zM799.029 163.556h-71.757v-106.667h71.757v106.667zM870.788 839.111h-717.576v-640.001h717.576v640.001zM296.708 469.35c27.561 0 49.771-22.142 51.49-49.971 0.604-9.801-6.923-18.231-16.811-18.831-8.791-0.533-16.489 5.301-18.517 13.487l-0.484 3.172c-0.591 9.572-7.629 16.589-15.678 16.589-8.369 0-15.678-7.721-15.678-17.779 0-7.236 2.596-11.061 8.151-14.133 1.888-1.045 4.026-1.92 6.445-2.686l15.938-4.45c3.040-0.896 4.284-1.391 5.862-2.234l4.237-2.37c16.273-8.964 26.569-24.149 26.569-45.237 0-29.22-22.786-53.333-51.524-53.333-27.556 0-49.862 22.187-51.526 50.044-0.585 9.801 6.959 18.217 16.849 18.797 8.791 0.514 16.478-5.333 18.49-13.523l0.478-3.174c0.57-9.538 7.657-16.587 15.71-16.587 8.378 0 15.644 7.691 15.644 17.777 0 7.285-2.596 11.117-8.122 14.161-1.867 1.028-3.981 1.888-6.351 2.624l-13.161 3.633c-4.548 1.438-8.841 3.198-13.026 5.513-16.26 8.994-26.541 24.139-26.541 45.18 0 29.21 22.846 53.333 51.556 53.333zM763.151 469.329c9.907 0 17.939-7.959 17.939-17.777 0-8.727-6.345-15.985-14.714-17.491l-3.226-0.286-43.089 0.002-0.019-34.012 26.49-0.015c9.907 0 17.939-7.959 17.939-17.777 0-8.727-6.347-15.985-14.714-17.491l-3.226-0.286-26.49 0.006 0.019-34.033 43.089-0.004c8.806 0 16.132-6.289 17.651-14.581l0.288-3.196c0-8.727-6.345-15.987-14.714-17.491l-3.226-0.288h-61.028c-8.809 0-16.132 6.289-17.651 14.583l-0.29 3.196-0.004 69.259c0 0.109-0.002 0.218-0.002 0.326l0.006 0.341v69.237c0 8.727 6.347 15.985 14.716 17.491l3.226 0.286h61.028zM456.29 459.603l1.235-3.221 30.643-107.571c0.043-0.149 0.081-0.301 0.119-0.452l8.883-31.14c2.692-9.449-2.857-19.273-12.39-21.939-8.476-2.372-17.248 1.709-20.986 9.28l-1.154 2.997-5.361 18.78h-34.133l-5.342-18.786c-2.398-8.399-10.496-13.673-18.963-12.864l-3.181 0.595c-8.476 2.374-13.796 10.402-12.979 18.793l0.599 3.153 8.913 31.262c0.060 0.239 0.126 0.474 0.196 0.708l30.607 107.194c4.597 16.107 26.406 17.175 33.293 3.213zM565.818 469.329c8.806 0 16.132-6.289 17.651-14.581l0.288-3.196v-121.382l49.263-0.004c8.806 0 16.13-6.289 17.649-14.581l0.29-3.196c0-8.727-6.347-15.987-14.716-17.491l-3.223-0.288h-67.202c-8.806 0-16.13 6.289-17.649 14.583l-0.29 3.196v139.164c0 9.818 8.032 17.777 17.939 17.777zM440.243 386.204l-6.942-24.305h13.867l-6.925 24.305zM515.799 718.223c43.639 0 57.658-31.627 57.658-88.89s-14.018-88.89-57.658-88.89c-43.642 0-57.621 31.593-57.621 88.89s13.98 88.89 57.621 88.89zM411.575 718.219c9.907 0 17.939-7.959 17.939-17.777 0-8.727-6.347-15.987-14.716-17.491l-3.223-0.288-43.091 0.004-0.015-34.005 26.494-0.021c9.907 0 17.939-7.959 17.939-17.777 0-8.727-6.347-15.987-14.714-17.491l-3.226-0.288-26.494 0.015 0.015-51.823c0-8.727-6.345-15.985-14.714-17.491l-3.226-0.286c-8.806 0-16.13 6.289-17.649 14.581l-0.29 3.196v139.166c0 8.727 6.347 15.985 14.716 17.491l3.223 0.286h61.030zM671.194 718.219c36.247 0 51.522-19.919 51.522-52.55 0-23.3-7.755-40.105-25.344-47.834l23.571-48.883c4.275-8.858 0.495-19.473-8.444-23.71-7.945-3.765-17.291-1.225-22.272 5.609l-1.651 2.758-28.715 59.49-4.346-0.015v-51.808c0-8.727-6.347-15.985-14.716-17.491l-3.223-0.286c-8.809 0-16.132 6.289-17.651 14.581l-0.288 3.196v139.166c0 8.727 6.345 15.985 14.714 17.491l3.226 0.286h33.617zM515.799 682.667c-15.742 0-21.743-13.562-21.743-53.333s6.001-53.333 21.743-53.333c15.757 0 21.779 13.589 21.779 53.333l-0.064 6.746c-0.678 34.551-6.886 46.588-21.715 46.588zM655.516 682.667v-34.027l15.059-0.006c0.215 0.009 0.429 0.011 0.644 0.011 11.614-0.009 14.718 1.51 15.428 10.607l0.19 6.417-0.19 6.394c-0.642 8.162-3.228 10.219-12.215 10.549l-18.916 0.055z" />
<glyph unicode="&#xe94f;" d="M106.667 362.667h234.667v-85.333h341.333v85.333h234.667v-277.333h-810.667v277.333z" />
<glyph unicode="&#xe950;" d="M814.223 832c9.818 0 17.777-7.815 17.777-17.455v-436.348l88.89-0.015c9.818 0 17.777-7.814 17.777-17.455v-279.273c0-9.641-7.959-17.455-17.777-17.455h-817.779c-9.818 0-17.778 7.814-17.778 17.455v279.273c0 9.641 7.959 17.455 17.778 17.455l88.889 0.015v366.53c0 8.898 6.782 16.241 15.548 17.318l2.23 0.136 195.556 0.016v52.348c0 8.898 6.782 16.241 15.548 17.319l2.229 0.136h391.113zM334.223 343.273h-213.334v-244.363h782.221v244.363h-213.333v-52.363c0-9.641-7.959-17.455-17.777-17.455h-320c-9.818 0-17.777 7.814-17.777 17.455v52.363zM405.333 727.275l-177.777-0.002-0.015-349.075 124.459-0.015c9.818 0 17.777-7.814 17.777-17.455v-52.365l35.556 0.011v418.901zM796.444 797.091h-355.554l-0.015-488.718 213.348-0.011v52.365c0 9.641 7.959 17.455 17.777 17.455l124.437 0.015 0.006 418.894zM743.11 448c9.82 0 17.779-7.814 17.779-17.455s-7.959-17.455-17.779-17.455h-248.887c-9.82 0-17.779 7.814-17.779 17.455s7.959 17.455 17.779 17.455h248.887zM743.11 517.818c9.82 0 17.779-7.814 17.779-17.455 0-9.638-7.959-17.453-17.779-17.453h-248.887c-9.82 0-17.779 7.814-17.779 17.453 0 9.641 7.959 17.455 17.779 17.455h248.887zM743.11 587.637c9.82 0 17.779-7.817 17.779-17.455 0-9.641-7.959-17.455-17.779-17.455h-248.887c-9.82 0-17.779 7.814-17.779 17.455 0 9.638 7.959 17.455 17.779 17.455h248.887zM743.11 657.455c9.82 0 17.779-7.814 17.779-17.455s-7.959-17.455-17.779-17.455h-248.887c-9.82 0-17.779 7.814-17.779 17.455s7.959 17.455 17.779 17.455h248.887zM743.11 727.273c9.82 0 17.779-7.814 17.779-17.455 0-9.638-7.959-17.455-17.779-17.455h-177.777c-9.818 0-17.777 7.817-17.777 17.455 0 9.641 7.959 17.455 17.777 17.455h177.777z" />
<glyph unicode="&#xe951;" d="M385.333 581.333c25.773 0 46.667 20.894 46.667 46.667s-20.894 46.667-46.667 46.667c-25.773 0-46.667-20.894-46.667-46.667s20.894-46.667 46.667-46.667zM652 501.333c25.773 0 46.667 20.894 46.667 46.667s-20.894 46.667-46.667 46.667c-25.773 0-46.667-20.894-46.667-46.667s20.894-46.667 46.667-46.667zM865.333 768c25.773 0 46.667 20.893 46.667 46.667s-20.894 46.667-46.667 46.667c-25.773 0-46.667-20.893-46.667-46.667s20.894-46.667 46.667-46.667zM865.333 394.667c25.773 0 46.667 20.894 46.667 46.667s-20.894 46.667-46.667 46.667c-25.773 0-46.667-20.894-46.667-46.667s20.894-46.667 46.667-46.667zM625.333 248c25.773 0 46.667 20.894 46.667 46.667s-20.894 46.667-46.667 46.667c-25.773 0-46.667-20.894-46.667-46.667s20.894-46.667 46.667-46.667zM358.667 248c25.773 0 46.667 20.894 46.667 46.667s-20.894 46.667-46.667 46.667c-25.773 0-46.667-20.894-46.667-46.667s20.894-46.667 46.667-46.667z" />
<glyph unicode="&#xe952;" d="M867.556 874.667c39.258 0 71.11-32.103 71.11-71.671s-31.853-71.672-71.11-71.672c-11.567 0-22.492 2.788-32.147 7.731l-120.478-154.285c9.308-12.117 14.846-27.322 14.846-43.821 0-39.595-31.842-71.671-71.11-71.671s-71.11 32.077-71.11 71.671c0 0.506 0.004 1.011 0.015 1.515l-139.936 45.51c-12.614-20.023-34.81-33.308-60.079-33.308-19.328 0-36.858 7.772-49.677 20.384l-217.005-132.661v-286.357l170.822 113.297c-1.613 5.372-2.615 11.012-2.927 16.838l-0.105 3.932c0 39.569 31.853 71.671 71.11 71.671 33.139 0 60.973-22.839 68.868-53.745l125.602 0.004c7.902 30.897 35.748 53.741 68.864 53.741 19.851 0 37.809-8.209 50.711-21.438l125.282 73.621c-1.732 6.197-2.66 12.732-2.66 19.488 0 39.567 31.853 71.671 71.113 71.671 39.258 0 71.11-32.105 71.11-71.671 0-39.593-31.842-71.671-71.11-71.671-19.761 0-37.641 8.122-50.528 21.237l-125.389-73.711c1.683-6.11 2.583-12.548 2.583-19.198 0-39.593-31.842-71.671-71.113-71.671-33.126 0-60.969 22.831-68.868 53.741l-125.594 0.011c-7.887-30.923-35.718-53.751-68.873-53.751-19.275 0-36.762 7.729-49.57 20.284l-189.331-125.559 0.014-55.966 782.221-0.017c8.727 0 15.987-6.338 17.491-14.697l0.288-3.221c0-8.796-6.289-16.113-14.583-17.63l-3.196-0.288h-799.999c-8.727 0-15.986 6.338-17.491 14.697l-0.287 3.221v806.299c0 9.896 7.959 17.918 17.778 17.918 8.727 0 15.986-6.339 17.491-14.697l0.287-3.221-0.014-361.241 198.569 121.363c-1.591 5.342-2.583 10.944-2.893 16.732l-0.107 3.934c0 39.567 31.853 71.669 71.113 71.669 39.258 0 71.11-32.102 71.11-71.669 0-1.429-0.041-2.848-0.124-4.256l138.652-45.092c12.329 21.306 35.249 35.629 61.472 35.629 10.003 0 19.524-2.084 28.162-5.843l121.858 156.015c-7.727 11.467-12.243 25.307-12.243 40.205 0 39.568 31.853 71.671 71.113 71.671zM359.776 325.935c-19.622 0-35.556-16.060-35.556-35.836 0-19.797 15.921-35.836 35.556-35.836 19.657 0 35.556 16.023 35.556 35.836 0 19.791-15.913 35.836-35.556 35.836zM623.11 325.935c-19.62 0-35.554-16.060-35.554-35.836 0-19.797 15.919-35.836 35.554-35.836 19.637 0 35.556 16.038 35.556 35.836 0 6.345-1.638 12.305-4.514 17.474-0.096 0.094-0.158 0.198-0.22 0.305l-0.075 0.215c-6.161 10.665-17.63 17.841-30.748 17.841zM867.556 469.278c-19.622 0-35.556-16.060-35.556-35.836 0-19.797 15.919-35.836 35.556-35.836 19.635 0 35.554 16.038 35.554 35.836 0 19.776-15.934 35.836-35.554 35.836zM658.667 576.783c-19.622 0-35.556-16.058-35.556-35.834 0-19.799 15.921-35.836 35.556-35.836s35.556 16.036 35.556 35.836c0 11.315-5.218 21.414-13.359 27.985-0.222 0.105-0.425 0.258-0.625 0.418l-0.286 0.292c-5.937 4.482-13.306 7.138-21.286 7.138zM387.556 662.172c-19.622 0-35.556-16.058-35.556-35.834 0-6.556 1.745-12.698 4.791-17.984 0.171-0.149 0.297-0.35 0.418-0.553l0.235-0.533c6.293-10.074 17.427-16.766 30.112-16.766 19.635 0 35.554 16.036 35.554 35.836 0 19.776-15.934 35.834-35.554 35.834zM867.556 838.831c-19.622 0-35.556-16.060-35.556-35.836s15.934-35.836 35.556-35.836c19.62 0 35.554 16.060 35.554 35.836s-15.934 35.836-35.554 35.836z" />
<glyph unicode="&#xe953;" d="M650.667 128c159.057 0 288 171.61 288 330.667s-128.943 330.667-288 330.667c-159.057 0-288-171.61-288-330.667s128.943-330.667 288-330.667z" />
<glyph unicode="&#xe954;" d="M512 874.667c235.637 0 426.667-191.029 426.667-426.667s-191.029-426.667-426.667-426.667c-235.637 0-426.667 191.029-426.667 426.667s191.029 426.667 426.667 426.667zM512 837.565c-215.147 0-389.565-174.419-389.565-389.565s174.419-389.566 389.565-389.566c215.147 0 389.566 174.419 389.566 389.566s-174.419 389.565-389.566 389.565zM512 262.492c20.484 0 37.101-16.614 37.101-37.101 0-20.484-16.617-37.101-37.101-37.101s-37.101 16.617-37.101 37.101c0 20.486 16.617 37.101 37.101 37.101zM512 670.609c71.684 0 129.856-58.17 129.856-129.856 0-64.561-47.1-118.095-108.796-128.156l-2.509-0.363v-94.091c0-9.105-6.562-16.681-15.217-18.251l-3.334-0.299c-9.107 0-16.681 6.562-18.253 15.215l-0.299 3.334v111.305c0 10.246 8.307 18.551 18.551 18.551 51.221 0 92.753 41.513 92.753 92.753 0 51.196-41.557 92.755-92.753 92.755-51.217 0-92.753-41.547-92.753-92.755 0-10.244-8.305-18.549-18.551-18.549-10.244 0-18.551 8.305-18.551 18.549 0 71.697 58.146 129.856 129.856 129.856z" />
<glyph unicode="&#xe955;" d="M369.777 519.113h284.446c-47.409-47.407-94.816-71.113-142.223-71.113s-94.814 23.706-142.223 71.113zM298.667 163.556h106.667l106.667 106.667 106.667-106.667h106.667v-106.667h-426.667v106.667z" />
<glyph unicode="&#xe956;" d="M814.223 874.667c9.818 0 17.777-7.959 17.777-17.778 0-8.727-6.289-15.986-14.581-17.491l-3.196-0.287-53.348 0.014 0.015-160.015c0-104.753-64.759-194.411-156.405-231.13 91.639-36.689 156.405-126.355 156.405-231.091l-0.015-159.994 53.348-0.006c9.818 0 17.777-7.959 17.777-17.779 0-8.727-6.289-15.985-14.581-17.491l-3.196-0.286h-604.445c-9.818 0-17.778 7.959-17.778 17.777 0 8.727 6.289 15.987 14.582 17.491l3.196 0.288 53.326 0.006 0.006 159.994c0 104.764 64.702 194.404 156.35 231.123-91.657 36.685-156.35 126.315-156.35 231.098l-0.006 160.015-53.326-0.014c-9.818 0-17.778 7.959-17.778 17.778 0 8.727 6.289 15.986 14.582 17.491l3.196 0.287h604.445zM512 262.863l-94.095-94.101c-2.669-2.667-6.095-4.399-9.775-4.986l-2.797-0.22-106.667 0.006v-106.673h426.667v106.673l-106.667-0.006c-3.772 0-7.42 1.199-10.436 3.383l-2.135 1.822-94.095 94.101zM519.994 430.076l-7.994 0.147c-117.858 0-213.333-95.505-213.333-213.333v-17.764l99.343-0.015 101.419 101.461c6.172 6.17 15.753 6.857 22.679 2.057l2.464-2.057 101.455-101.461 99.307 0.015v17.764c0 115.1-91.27 208.977-205.34 213.186zM653.094 519.119l-282.242-0.004c35.744-31.554 82.153-51.311 133.146-53.19l8.002-0.147c54.086 0 103.484 20.145 141.094 53.342zM725.333 839.111h-426.667v-160.001c0-46.455 14.833-89.438 40.028-124.463l346.573 0.002c25.212 35.034 40.066 78.016 40.066 124.461v160.001z" />
<glyph unicode="&#xe957;" d="M689.321 149.158c77.38 0 140.023 62.641 140.023 140.021 0 77.751-62.274 140.397-140.023 140.397-77.751 0-140.393-63.014-140.393-140.397 0-77.38 63.010-140.021 140.393-140.021z" />
<glyph unicode="&#xe958;" d="M501.293 865.149c6.11 5.579 15.467 5.579 21.577 0l423.757-386.909c6.526-5.958 6.987-16.079 1.028-22.605s-16.079-6.985-22.605-1.026l-412.969 377.058-412.97-377.058c-6.526-5.958-16.646-5.5-22.604 1.026s-5.498 16.646 1.027 22.605l423.758 386.909z" />
<glyph unicode="&#xe959;" d="M198.87 464c8.836 0 15.999-7.164 15.999-16v-389.333h315.637c8.836 0 16-7.164 16-16s-7.164-16-16-16h-331.637c-8.837 0-16 7.164-16 16v405.333c0 8.836 7.163 16 16 16z" />
<glyph unicode="&#xe95a;" d="M659.471 832.486c-8.836 0-16-7.164-16-16s7.164-16 16-16h112.971v-112.97c0-8.836 7.164-16 16-16s16 7.164 16 16v128.97c0 8.836-7.164 16-16 16h-128.971z" />
<glyph unicode="&#xe95b;" d="M440.804 669.092c0 8.836 7.164 16 16 16h110.545c8.838 0 16-7.164 16-16v-110.545c0-8.836-7.162-16-16-16h-110.545c-8.836 0-16 7.164-16 16v110.545zM472.804 653.092v-78.545h78.545v78.545h-78.545z" />
<glyph unicode="&#xe95c;" d="M532.928 289.18c0 86.191 69.777 156.397 156.393 156.397 86.641 0 156.023-69.865 156.023-156.397 0-37.34-13.094-71.603-34.944-98.447l118.325-118.327c6.249-6.249 6.249-16.38 0-22.628-6.246-6.249-16.378-6.249-22.626 0l-118.327 118.327c-26.846-21.852-61.109-34.946-98.451-34.946-86.163 0-156.393 69.749-156.393 156.021zM689.321 413.577c-68.887 0-124.393-55.823-124.393-124.397 0-68.489 55.791-124.021 124.393-124.021 68.544 0 124.023 55.477 124.023 124.021 0 68.971-55.166 124.397-124.023 124.397z" />
<glyph unicode="&#xe95d;" d="M490.667 533.333h106.667v-149.333h-106.667v149.333zM640 853.333h106.667v-170.667l-106.667 85.333v85.333zM106.667 341.333h149.333v-277.333h-149.333v277.333z" />
<glyph unicode="&#xe95e;" d="M248.038 375.328c1.871-0.222 3.652-0.574 5.402-1.301 4.316-1.796 7.814-5.306 9.602-9.641 0.725-1.758 1.073-3.546 1.295-5.421l0.559-18.635 2.551 0.081c14.997 0.288 30.005 0.209 45.013 0.009l45.015-0.721c11.209-0.446 22.281-1.737 33.231-4.213 23.17-5.233 45.050-15.055 65.391-27.226 8.996-5.389 17.702-11.243 26.244-17.321 7.81-5.562 15.458-11.341 23.273-16.894 2.112-1.449 4.209-2.876 6.391-4.211 0.787-0.457 1.572-0.898 2.387-1.308 37.321-16.96 81.935-0.030 122.903-0.030 4.493-0.143 8.851-0.719 13.124-2.185 2.494-0.853 4.905-1.963 7.181-3.294 11.119-6.507 18.253-18.018 21.515-30.289 0.708-2.667 1.244-5.378 1.617-8.111l128.723 40.932c4.755 1.293 9.51 2.5 14.362 3.371 5.997 1.073 12.038 1.653 18.127 1.809h2.814c0.314-0.002 0.691-0.006 1.197-0.013 8.064-0.275 16.019-1.376 23.797-3.567 19.874-5.6 37.282-17.472 52.553-31.121 2.526-2.259 4.981-4.555 7.42-6.912 0.791-0.77 3.876-3.689 5.043-5.152 2.647-3.317 4.043-7.55 3.885-11.797-0.051-1.41-0.269-2.807-0.653-4.169-0.57-2.037-1.504-3.966-2.746-5.677-1.717-2.362-3.878-3.968-6.37-5.419-12.766-6.434-25.519-12.894-38.259-19.375-27.684-14.197-55.294-28.525-82.801-43.057-33.694-17.801-67.236-35.885-100.939-53.66-10.001-5.227-20.019-10.409-30.074-15.529-19.401-9.698-38.923-19.211-59.159-27.049-18.731-7.251-38.114-12.994-58.082-15.473-13.035-1.619-26.208-1.828-39.3-0.802-22.784 1.781-45.158 7.087-67.087 13.353-19.791 5.655-39.313 12.186-58.81 18.773l-129.899 44.847c-0.053-8.798-0.085-17.596-0.085-26.394-0.075-1.89-0.284-3.703-0.868-5.508-1.589-4.917-5.327-8.973-10.082-10.953-1.749-0.727-3.531-1.079-5.402-1.301-47.742-1.884-95.562-0.053-143.344-0.053-1.881 0.073-3.684 0.286-5.483 0.87-4.897 1.6-8.939 5.346-10.909 10.125-0.724 1.756-1.075 3.546-1.295 5.419-3.733 95.405-0.057 190.953-0.057 286.432 0.075 1.884 0.284 3.697 0.87 5.504 1.59 4.917 5.327 8.975 10.086 10.953 1.746 0.727 3.527 1.079 5.398 1.301 48.207 1.901 96.528 1.901 144.735 0zM283.279 304.222l-17.534-0.043c0.572-41.931 0.124-83.883-0.407-125.835l-0.527-41.939 12.156-4.098c8.224-2.79 16.444-5.591 24.659-8.401 34.729-11.972 69.378-24.179 104.137-36.075 6.91-2.334 13.826-4.653 20.749-6.955 18.558-6.029 37.171-11.947 56.139-16.54 17.141-4.151 34.658-7.241 52.335-7.379 10.697-0.085 21.372 0.96 31.857 3.046 20.847 4.147 40.794 12.064 60.113 20.779 21.549 9.724 42.537 20.651 63.482 31.603 38.767 20.439 77.355 41.227 116.124 61.664 27.618 14.47 55.307 28.794 83.093 42.929-2.342 1.835-4.774 3.548-7.236 5.216-5.82 3.812-11.925 7.164-18.5 9.466-7.733 2.705-15.895 3.795-24.068 3.349-6.942-0.378-13.694-1.83-20.39-3.652l-144.99-46.131c-3.473-6.641-8.32-12.471-14.682-16.764-2.165-1.461-4.469-2.711-6.876-3.723-4.233-1.775-8.587-2.615-13.131-3.051-65.95-2.080-131.966-0.079-197.948-0.079-4.608 0.218-8.855 1.675-12.243 4.922-6.306 6.035-7.266 16.1-2.212 23.226 1.31 1.841 2.967 3.428 4.862 4.653 2.438 1.572 5.065 2.338 7.908 2.748 65.865 3.149 132.177-6.178 197.818 0.145 3.185 0.525 4.922 3.823 5.99 6.577 2.586 6.667 2.637 14.748 0.311 21.495-1.103 3.2-2.991 7.104-6.739 7.469-42.191 1.327-84.501-2.419-126.639 0.107-9.542 0.821-17.884 6.498-25.534 11.842-7.947 5.547-15.671 11.422-23.539 17.079-4.595 3.241-9.22 6.411-13.901 9.525-20.066 12.983-41.57 24.034-65.005 29.329-8.689 1.967-17.474 2.995-26.37 3.349-24.418 0.324-48.841 0.239-73.261 0.145zM122.439 339.755v-249.402h106.464c0.004 104.058 0 122.98 0.004 249.346 0 0-38.33 0.055-106.468 0.055zM709.459 589.092c1.476-0.181 2.884-0.416 4.297-0.9 4.657-1.609 8.51-5.167 10.487-9.696 0.802-1.835 1.188-3.708 1.434-5.685 2.466-59.821 0.060-119.742 0.060-179.612-0.081-1.993-0.311-3.891-0.962-5.786-1.596-4.676-5.146-8.544-9.651-10.53-1.828-0.804-3.695-1.193-5.664-1.438-106.863-4.439-213.905-0.062-320.86-0.062-1.98 0.083-3.874 0.314-5.76 0.962-4.659 1.606-8.51 5.167-10.49 9.696-0.798 1.835-1.188 3.708-1.434 5.685-2.464 59.821-0.060 119.742-0.060 179.616 0.205 5.013 1.993 9.655 5.726 13.103 1.438 1.333 3.1 2.419 4.892 3.209 8.343 3.676 18.396 0.209 22.733-7.836 1.431-2.658 2.012-5.483 2.138-8.476v-160.331l70.562 0.017-0.205 10.065c-0.644 38.537-0.429 77.094 0.646 115.616 0.572 6.795 4.561 12.813 10.927 15.46 1.862 0.777 3.793 1.158 5.794 1.329 36.139 1.015 72.318 1.015 108.457 0 6.767-0.574 12.762-4.578 15.398-10.97 0.77-1.871 1.152-3.81 1.321-5.82 1.171-41.877 1.325-83.799 0.459-125.69l70.545-0.009v160.331c0.081 1.988 0.316 3.887 0.962 5.781 1.6 4.676 5.146 8.544 9.655 10.53 1.828 0.804 3.695 1.193 5.662 1.438 1.466 0.064 1.455 0.064 2.931 0zM583.785 517.899h-70.976v-106.886h70.976v106.886zM550.103 874.095c1.589-0.246 2.003-0.249 3.541-0.737 2.366-0.752 4.333-2.002 6.274-3.524l266.161-231.587c1.225-1.19 1.585-1.442 2.611-2.822 1.916-2.586 3.108-5.683 3.424-8.89 0.913-9.291-5.771-17.939-14.961-19.356-1.903-0.297-3.846-0.275-5.743 0.055-3.27 0.572-5.982 2.071-8.574 4.087l-254.541 221.476-256.058-222.658c-2.793-1.726-5.653-2.918-8.964-3.132-1.92-0.126-3.857 0.066-5.713 0.565-8.294 2.223-13.926 10.385-13.086 18.961 0.316 3.206 1.513 6.304 3.428 8.89 1.022 1.38 1.385 1.632 2.613 2.822l266.161 231.587c1.263 0.991 1.549 1.293 2.955 2.084 2.17 1.219 4.427 1.799 6.857 2.177 1.807 0.093 1.796 0.093 3.614 0zM744.254 874.17c6.846-0.452 12.964-4.546 15.622-10.981 0.798-1.935 1.197-3.955 1.331-6.039 0.663-30.466 1.963-61.028-0.049-91.423-0.297-2.637-1.035-5.152-2.374-7.447-1.197-2.041-2.795-3.837-4.681-5.252-1.679-1.258-3.582-2.216-5.587-2.811-7.725-2.294-16.256 1.087-20.335 8.063-1.478 2.53-2.236 5.319-2.428 8.23l-0.017 0.791v71.258c-24.181 0-48.416-1.543-72.544 0.068-2.626 0.292-5.129 1.033-7.418 2.384-2.031 1.197-3.819 2.804-5.231 4.7-1.252 1.685-2.204 3.591-2.797 5.608-2.285 7.756 1.084 16.321 8.028 20.415 2.519 1.486 5.299 2.241 8.201 2.437 30.089 0.666 60.196 0.659 90.278 0z" />
<glyph unicode="&#xe95f;" d="M512.22 63.785c35.345 0 64 28.653 64 64 0 35.345-28.655 64-64 64-35.347 0-64-28.655-64-64 0-35.347 28.653-64 64-64z" />
<glyph unicode="&#xe960;" d="M810.596 494.349l-0.887 0.292c-0.911 0.316-1.805 0.695-2.675 1.137-1.948 0.981-3.776 2.285-5.412 3.904-11.081 10.974-22.641 21.186-34.611 30.639-47.684 37.643-101.886 63.223-158.421 76.745l-7.249 1.668c-0.755 0.166-1.508 0.331-2.263 0.493-8.126 1.737-16.284 3.23-24.471 4.476-2.071 0.318-4.143 0.619-6.217 0.9-14.001 1.914-28.083 3.113-42.187 3.593-4.619 0.158-9.239 0.237-13.86 0.241-4.821 0.002-9.641-0.077-14.46-0.241-13.918-0.474-27.814-1.647-41.634-3.518-2.438-0.329-4.87-0.681-7.298-1.054-7.844-1.205-15.665-2.637-23.443-4.294-8.275-1.76-16.497-3.776-24.659-6.048l-7.179-2.071c-7.23-2.153-14.411-4.51-21.536-7.068-2.942-1.054-5.815-2.123-8.678-3.226-11.166-4.297-22.193-9.101-33.030-14.411-12.386-6.067-24.525-12.794-36.365-20.177-2.797-1.741-5.579-3.522-8.343-5.342-0.751-0.497-1.504-0.996-2.253-1.495l-6.406-4.361c-0.883-0.614-1.764-1.233-2.645-1.854-2.462-1.747-4.907-3.516-7.334-5.316-0.894-0.655-1.781-1.318-2.669-1.986l-6.225-4.794c-12.361-9.692-24.286-20.192-35.706-31.499-1.634-1.619-3.465-2.923-5.412-3.91-0.87-0.435-1.766-0.817-2.682-1.133-1.914-0.67-3.902-1.054-5.902-1.163-5.952-0.318-11.989 1.803-16.497 6.357-8.373 8.457-8.304 22.101 0.153 30.475 22.946 22.714 47.737 42.481 73.894 59.296 14.588 9.376 29.598 17.837 44.949 25.38 4.192 2.059 8.358 4.026 12.548 5.926 5.436 2.468 10.91 4.821 16.418 7.061 24.909 10.129 50.479 17.948 76.444 23.486 4.060 0.866 8.128 1.677 12.205 2.43 6.918 1.28 13.858 2.398 20.817 3.356 2.812 0.388 5.63 0.749 8.452 1.086 2.423 0.286 4.858 0.555 7.29 0.804 7.155 0.736 14.31 1.299 21.474 1.696 4.13 0.228 8.271 0.403 12.412 0.521 3.021 0.085 6.035 0.141 9.050 0.166h7.902c2.944-0.026 5.886-0.079 8.828-0.16 4.207-0.117 8.425-0.294 12.64-0.527 7.012-0.388 14.022-0.937 21.020-1.649 2.581-0.262 5.163-0.548 7.742-0.853 2.822-0.335 5.641-0.695 8.457-1.084 6.848-0.945 13.692-2.046 20.51-3.302 4.254-0.781 8.493-1.623 12.721-2.528 0.343-0.075 0.691-0.149 1.039-0.226 21.438-4.636 42.511-10.799 63.13-18.505 2.995-1.126 5.984-2.278 8.962-3.465 26.62-10.594 52.427-23.799 77.024-39.614 2.368-1.527 4.736-3.081 7.091-4.657 4.759-3.187 9.468-6.47 14.125-9.856 10.797-7.844 21.321-16.222 31.539-25.133 0.964-0.849 1.933-1.702 2.899-2.56l6.159-5.555c4.081-3.757 8.111-7.601 12.083-11.533 6.334-6.27 7.966-15.494 4.868-23.285-0.205-0.474-0.414-0.954-0.644-1.425-0.994-2.086-2.353-4.034-4.066-5.764-4.508-4.555-10.545-6.677-16.478-6.359-1.717 0.092-3.403 0.382-5.043 0.873zM953.828 693.638c8.459-8.373 8.527-22.016 0.154-30.475-8.373-8.457-22.016-8.525-30.475-0.154-227.238 224.966-595.601 225.094-823.013 0-8.458-8.373-22.102-8.303-30.474 0.156s-8.302 22.101 0.156 30.475c244.211 241.722 639.624 241.585 883.652-0.002zM679.723 336.393c-5.047 4.996-10.266 9.719-15.637 14.172-15.172 12.57-31.556 22.965-48.734 31.191-6.618 3.181-13.361 6.031-20.198 8.557-15.362 5.664-31.191 9.711-47.223 12.128-2.391 0.367-4.796 0.691-7.206 0.981l-6.349 0.672c-1.973 0.183-3.947 0.341-5.922 0.478-4.397 0.303-8.813 0.482-13.229 0.54h-6.377l-6.4-0.171c-12.365-0.493-24.7-1.939-36.881-4.337-0.853-0.16-1.7-0.333-2.545-0.508-9.31-1.943-18.53-4.442-27.601-7.497-11.938-4.015-23.614-9.003-34.906-14.961-6.705-3.539-13.274-7.418-19.684-11.637l-5.466-3.71c-10.893-7.618-21.282-16.252-31.034-25.903-3.904-3.863-8.913-5.929-13.999-6.202-5.954-0.316-11.989 1.809-16.497 6.366-8.369 8.461-8.294 22.103 0.166 30.473 12.122 11.989 25.073 22.652 38.673 31.987 2.801 1.922 5.636 3.793 8.495 5.606 6.193 3.925 12.499 7.582 18.914 10.976 6.234 3.305 12.574 6.357 18.995 9.158 1.801 0.777 3.601 1.538 5.406 2.283 4.774 1.971 9.598 3.799 14.458 5.493 5.579 1.933 11.198 3.693 16.86 5.274 19.377 5.417 39.23 8.721 59.187 9.918l6.81 0.324c2.274 0.081 4.548 0.137 6.822 0.164h6.831c4.548-0.055 9.097-0.22 13.638-0.493l6.805-0.486c2.268-0.192 4.533-0.41 6.799-0.655l6.786-0.823c2.579-0.343 5.156-0.723 7.727-1.137 40.26-6.475 79.354-21.679 114.193-45.609 13.581-9.329 26.532-19.991 38.654-31.981 8.461-8.369 8.535-22.012 0.166-30.473-1.348-1.363-2.831-2.507-4.41-3.435-1.161-0.674-2.368-1.237-3.61-1.685-2.718-0.983-5.6-1.397-8.457-1.246-5.111 0.275-10.121 2.34-14.022 6.206zM512.028 234.878c-59.433 0-107.744-47.827-107.744-106.88 0-59.055 48.311-106.882 107.744-106.882s107.744 47.827 107.744 106.882c0 59.053-48.311 106.88-107.744 106.88zM512.028 191.78c35.727 0 64.646-28.629 64.646-63.782 0-35.155-28.919-63.785-64.646-63.785s-64.646 28.629-64.646 63.785c0 35.153 28.919 63.782 64.646 63.782z" />
<glyph unicode="&#xe961;" d="M352 533.333c135.494 0 245.333-109.839 245.333-245.333s-109.839-245.333-245.333-245.333c-135.494 0-245.333 109.839-245.333 245.333s109.839 245.333 245.333 245.333zM288 277.333c-29.455 0-53.333-23.878-53.333-53.333s23.878-53.333 53.333-53.333c29.455 0 53.333 23.878 53.333 53.333s-23.878 53.333-53.333 53.333z" />
</font>
</defs>
</svg>
